<?xml version="1.0" encoding="utf-8"?>
<!-- Generator: Adobe Illustrator 22.1.0, SVG Export Plug-In . SVG Version: 6.00 Build 0)  -->
<svg version="1.1" id="Layer_1" xmlns="http://www.w3.org/2000/svg" xmlns:xlink="http://www.w3.org/1999/xlink" x="0px" y="0px"
	 viewBox="0 0 204 204" style="enable-background:new 0 0 204 204;" xml:space="preserve">
<style type="text/css">
	.st0{fill:#0074FF;}
	.st1{fill:#FFFFFF;}
	.st2{fill:#004798;}
</style>
<g>
	<circle class="st0" cx="102" cy="102" r="102"/>
	<g>
		<path class="st1" d="M83,64.7l-10.7,2.5L69,53.5l18.6-5.3h12.8v64H83V64.7z"/>
	</g>
	<g>
		<path class="st1" d="M106.7,76.9c2.1-0.2,3.1-1.2,3.1-2.9h-2.4v-6h6.1v4.9c0,1.1-0.1,2.1-0.4,2.9s-0.7,1.4-1.3,1.9
			c-0.6,0.5-1.2,0.8-2,1.1c-0.8,0.2-1.6,0.4-2.6,0.4L106.7,76.9z"/>
		<path class="st1" d="M123.9,74.5c-1.6,0-3-0.2-4.2-0.7c-1.2-0.5-2.3-1.1-3.3-1.9l2.8-4.1c0.7,0.6,1.5,1,2.2,1.3
			c0.7,0.3,1.5,0.4,2.4,0.4c1.2,0,2.2-0.4,2.8-1.2c0.7-0.8,1.1-1.9,1.2-3.3c-0.6,0.5-1.2,1-2,1.3c-0.8,0.3-1.6,0.5-2.6,0.5
			c-1,0-2-0.2-2.9-0.5c-0.9-0.3-1.6-0.8-2.3-1.3c-0.6-0.6-1.1-1.3-1.5-2.1c-0.4-0.8-0.5-1.8-0.5-2.8V60c0-1.2,0.2-2.3,0.6-3.2
			s1-1.8,1.8-2.5c0.8-0.7,1.7-1.2,2.7-1.6c1-0.4,2.2-0.6,3.4-0.6c1.6,0,2.8,0.2,3.8,0.6c1,0.4,1.9,1.1,2.7,1.9
			c0.8,0.8,1.4,1.8,1.9,3.1c0.5,1.3,0.7,2.9,0.7,4.9v0.1c0,1.8-0.2,3.4-0.6,4.8c-0.4,1.5-1.1,2.7-1.9,3.7s-1.9,1.8-3.1,2.4
			C127,74.2,125.6,74.5,123.9,74.5z M125,62.6c0.9,0,1.7-0.3,2.2-0.8c0.5-0.5,0.8-1.2,0.8-2v-0.1c0-0.8-0.3-1.5-0.8-2.1
			c-0.6-0.6-1.3-0.8-2.2-0.8c-0.9,0-1.7,0.3-2.2,0.8c-0.5,0.5-0.8,1.2-0.8,2.1v0.1c0,0.8,0.3,1.5,0.8,2
			C123.3,62.3,124,62.6,125,62.6z"/>
		<path class="st1" d="M144.2,74.5c-1.6,0-3-0.2-4.2-0.7c-1.2-0.5-2.3-1.1-3.3-1.9l2.8-4.1c0.7,0.6,1.5,1,2.2,1.3
			c0.7,0.3,1.5,0.4,2.4,0.4c1.2,0,2.2-0.4,2.8-1.2c0.7-0.8,1.1-1.9,1.2-3.3c-0.6,0.5-1.2,1-2,1.3c-0.8,0.3-1.6,0.5-2.6,0.5
			c-1,0-2-0.2-2.9-0.5c-0.9-0.3-1.6-0.8-2.3-1.3c-0.6-0.6-1.1-1.3-1.5-2.1c-0.4-0.8-0.5-1.8-0.5-2.8V60c0-1.2,0.2-2.3,0.6-3.2
			s1-1.8,1.8-2.5c0.8-0.7,1.7-1.2,2.7-1.6c1-0.4,2.2-0.6,3.4-0.6c1.6,0,2.8,0.2,3.8,0.6c1,0.4,1.9,1.1,2.7,1.9
			c0.8,0.8,1.4,1.8,1.9,3.1c0.5,1.3,0.7,2.9,0.7,4.9v0.1c0,1.8-0.2,3.4-0.6,4.8c-0.4,1.5-1.1,2.7-1.9,3.7s-1.9,1.8-3.1,2.4
			C147.3,74.2,145.8,74.5,144.2,74.5z M145.2,62.6c0.9,0,1.7-0.3,2.2-0.8c0.5-0.5,0.8-1.2,0.8-2v-0.1c0-0.8-0.3-1.5-0.8-2.1
			c-0.6-0.6-1.3-0.8-2.2-0.8c-0.9,0-1.7,0.3-2.2,0.8c-0.5,0.5-0.8,1.2-0.8,2.1v0.1c0,0.8,0.3,1.5,0.8,2
			C143.6,62.3,144.3,62.6,145.2,62.6z"/>
	</g>
	<g>
		<path class="st2" d="M111.7,98.7c0-1.2,0.3-2.2,0.9-2.8c0.3-0.3,0.7-0.6,1.2-0.7c0.4-0.1,1-0.2,1.6-0.2c0.6,0,1.1,0,1.4,0.1
			c0.4,0.1,0.7,0.1,1,0.2V98c-0.2-0.1-0.4-0.1-0.7-0.2s-0.5-0.1-0.7-0.1c-0.7,0-1.1,0.3-1.1,1V99h2.4v2.9h-2.4v7.7h-3.7v-7.7h-1.2
			v-2.9h1.2V98.7z M119,95.2h3.9v2.8H119V95.2z M119,98.9h3.8v10.7H119V98.9z"/>
		<path class="st2" d="M127.6,104.2l-3.5-5.3h4l1.6,2.6l1.6-2.6h4l-3.5,5.3l3.6,5.4h-4l-1.7-2.7l-1.7,2.7H124L127.6,104.2z"/>
		<path class="st2" d="M141.9,109.8c-0.9,0-1.6-0.1-2.4-0.4c-0.7-0.3-1.3-0.7-1.9-1.2c-0.5-0.5-0.9-1.1-1.2-1.8
			c-0.3-0.7-0.4-1.4-0.4-2.1v0c0-0.8,0.1-1.5,0.4-2.2c0.3-0.7,0.7-1.3,1.2-1.8c0.5-0.5,1.1-0.9,1.9-1.2c0.7-0.3,1.5-0.4,2.4-0.4
			c0.9,0,1.6,0.1,2.4,0.4c0.7,0.3,1.3,0.7,1.9,1.2s0.9,1.1,1.2,1.8c0.3,0.7,0.4,1.4,0.4,2.1v0c0,0.8-0.1,1.5-0.4,2.2
			c-0.3,0.7-0.7,1.3-1.2,1.8c-0.5,0.5-1.1,0.9-1.9,1.2C143.6,109.7,142.8,109.8,141.9,109.8z M142,106.6c0.3,0,0.6-0.1,0.9-0.2
			c0.3-0.1,0.5-0.3,0.7-0.5s0.3-0.5,0.4-0.8c0.1-0.3,0.2-0.6,0.2-0.9v0c0-0.3-0.1-0.6-0.2-0.9c-0.1-0.3-0.3-0.5-0.5-0.8
			s-0.4-0.4-0.7-0.5c-0.3-0.1-0.6-0.2-0.9-0.2c-0.3,0-0.6,0.1-0.9,0.2c-0.3,0.1-0.5,0.3-0.7,0.5c-0.2,0.2-0.3,0.5-0.4,0.8
			c-0.1,0.3-0.2,0.6-0.2,0.9v0c0,0.3,0.1,0.6,0.2,0.9c0.1,0.3,0.3,0.5,0.5,0.8c0.2,0.2,0.4,0.4,0.7,0.5
			C141.3,106.5,141.6,106.6,142,106.6z"/>
	</g>
	<g>
		<path class="st2" d="M61.7,130h2.4l5,11.9h-2.7l-1.1-2.6h-5l-1.1,2.6h-2.6L61.7,130z M64.4,136.9l-1.6-3.8l-1.6,3.8H64.4z"/>
		<path class="st2" d="M70,132.8h2.6v1.3c0.6-0.8,1.5-1.5,2.8-1.5c2.1,0,4.1,1.6,4.1,4.7v0c0,3-2,4.7-4.1,4.7
			c-1.4,0-2.2-0.6-2.8-1.3v3.9H70V132.8z M77,137.3L77,137.3c0-1.5-1-2.5-2.2-2.5c-1.2,0-2.2,1-2.2,2.5v0c0,1.5,1,2.5,2.2,2.5
			C75.9,139.8,77,138.8,77,137.3z"/>
		<path class="st2" d="M80.3,137.4L80.3,137.4c0-2.6,1.8-4.7,4.5-4.7c3,0,4.4,2.3,4.4,4.9c0,0.2,0,0.4,0,0.7h-6.3
			c0.3,1.2,1.1,1.8,2.2,1.8c0.9,0,1.5-0.3,2.2-0.9l1.5,1.3c-0.8,1-2.1,1.7-3.7,1.7C82.3,142,80.3,140.1,80.3,137.4z M86.7,136.6
			c-0.2-1.1-0.8-1.9-1.9-1.9c-1.1,0-1.8,0.8-2,1.9H86.7z"/>
		<path class="st2" d="M90.4,132.8h2.6v1.3c0.6-0.8,1.3-1.4,2.6-1.4c1.9,0,3.1,1.3,3.1,3.3v5.8h-2.6v-5c0-1.2-0.6-1.8-1.5-1.8
			c-1,0-1.6,0.6-1.6,1.8v5h-2.6V132.8z"/>
		<path class="st2" d="M99.7,139.2L99.7,139.2c0-2,1.5-2.9,3.6-2.9c0.9,0,1.6,0.2,2.2,0.4v-0.2c0-1.1-0.7-1.6-1.9-1.6
			c-1,0-1.7,0.2-2.5,0.5l-0.6-2c1-0.4,2-0.7,3.5-0.7c1.4,0,2.4,0.4,3,1c0.7,0.7,1,1.7,1,2.9v5.2h-2.5v-1c-0.6,0.7-1.5,1.1-2.7,1.1
			C101.1,142,99.7,141,99.7,139.2z M105.5,138.6v-0.5c-0.4-0.2-1-0.3-1.6-0.3c-1.1,0-1.8,0.4-1.8,1.2v0c0,0.7,0.6,1.1,1.4,1.1
			C104.7,140.2,105.5,139.6,105.5,138.6z"/>
		<path class="st2" d="M108.8,140.6l1.1-1.7c1,0.7,2,1.1,2.8,1.1c0.7,0,1.1-0.3,1.1-0.7v0c0-0.6-0.9-0.7-1.9-1
			c-1.3-0.4-2.7-1-2.7-2.7v0c0-1.8,1.5-2.9,3.3-2.9c1.1,0,2.4,0.4,3.4,1l-1,1.8c-0.9-0.5-1.8-0.8-2.4-0.8c-0.6,0-0.9,0.3-0.9,0.6v0
			c0,0.5,0.9,0.7,1.8,1.1c1.3,0.4,2.7,1,2.7,2.7v0c0,2-1.5,2.9-3.5,2.9C111.4,142,110,141.6,108.8,140.6z"/>
		<path class="st2" d="M121.6,132.8h2.6v1.3c0.6-0.8,1.5-1.5,2.8-1.5c2.1,0,4.1,1.6,4.1,4.7v0c0,3-2,4.7-4.1,4.7
			c-1.4,0-2.2-0.6-2.8-1.3v3.9h-2.6V132.8z M128.6,137.3L128.6,137.3c0-1.5-1-2.5-2.2-2.5c-1.2,0-2.2,1-2.2,2.5v0
			c0,1.5,1,2.5,2.2,2.5C127.5,139.8,128.6,138.8,128.6,137.3z"/>
		<path class="st2" d="M131.9,137.4L131.9,137.4c0-2.6,2.1-4.7,4.9-4.7c2.8,0,4.9,2.1,4.9,4.7v0c0,2.6-2.1,4.7-4.9,4.7
			C134,142,131.9,140,131.9,137.4z M139.1,137.4L139.1,137.4c0-1.4-1-2.5-2.4-2.5c-1.5,0-2.3,1.1-2.3,2.5v0c0,1.3,1,2.5,2.4,2.5
			C138.3,139.8,139.1,138.7,139.1,137.4z"/>
		<path class="st2" d="M142.8,132.8h2.6v1.8c0.5-1.2,1.4-2.1,2.9-2v2.7h-0.1c-1.7,0-2.7,1-2.7,3.2v3.3h-2.6V132.8z"/>
		<path class="st2" d="M57.2,160.8v1.2h-2.6v-12.3h2.6v4.6c0.6-0.8,1.5-1.5,2.8-1.5c2.1,0,4.1,1.6,4.1,4.7v0c0,3-2,4.7-4.1,4.7
			C58.6,162.2,57.8,161.6,57.2,160.8z M61.5,157.5L61.5,157.5c0-1.5-1-2.5-2.2-2.5c-1.2,0-2.2,1-2.2,2.5v0c0,1.5,1,2.5,2.2,2.5
			C60.5,160,61.5,159,61.5,157.5z"/>
		<path class="st2" d="M64.9,157.6L64.9,157.6c0-2.6,2.1-4.7,4.9-4.7c2.8,0,4.9,2.1,4.9,4.7v0c0,2.6-2.1,4.7-4.9,4.7
			C66.9,162.2,64.9,160.2,64.9,157.6z M72.1,157.6L72.1,157.6c0-1.4-1-2.5-2.4-2.5c-1.5,0-2.3,1.1-2.3,2.5v0c0,1.3,1,2.5,2.4,2.5
			C71.2,160,72.1,158.9,72.1,157.6z"/>
		<path class="st2" d="M75.9,149.7h2.6V162h-2.6V149.7z"/>
		<path class="st2" d="M79.8,157.6L79.8,157.6c0-2.6,1.8-4.7,4.5-4.7c3,0,4.4,2.3,4.4,4.9c0,0.2,0,0.4,0,0.7h-6.3
			c0.3,1.2,1.1,1.8,2.2,1.8c0.9,0,1.5-0.3,2.2-0.9l1.5,1.3c-0.8,1-2.1,1.7-3.7,1.7C81.8,162.2,79.8,160.3,79.8,157.6z M86.1,156.8
			c-0.2-1.1-0.8-1.9-1.9-1.9c-1.1,0-1.8,0.8-2,1.9H86.1z"/>
		<path class="st2" d="M90.3,159.5v-4.3h-1.1V153h1.1v-2.3h2.6v2.3H95v2.2h-2.1v3.9c0,0.6,0.3,0.9,0.8,0.9c0.5,0,0.9-0.1,1.3-0.3
			v2.1c-0.5,0.3-1.2,0.5-2,0.5C91.4,162.2,90.3,161.6,90.3,159.5z"/>
		<path class="st2" d="M95.5,157.6L95.5,157.6c0-2.6,2.1-4.7,4.9-4.7c2.8,0,4.9,2.1,4.9,4.7v0c0,2.6-2.1,4.7-4.9,4.7
			C97.6,162.2,95.5,160.2,95.5,157.6z M102.7,157.6L102.7,157.6c0-1.4-1-2.5-2.4-2.5c-1.5,0-2.3,1.1-2.3,2.5v0c0,1.3,1,2.5,2.4,2.5
			C101.9,160,102.7,158.9,102.7,157.6z"/>
		<path class="st2" d="M110.8,153h2.6v1.3c0.6-0.8,1.5-1.5,2.8-1.5c2.1,0,4.1,1.6,4.1,4.7v0c0,3-2,4.7-4.1,4.7
			c-1.4,0-2.2-0.6-2.8-1.3v3.9h-2.6V153z M117.7,157.5L117.7,157.5c0-1.5-1-2.5-2.2-2.5c-1.2,0-2.2,1-2.2,2.5v0c0,1.5,1,2.5,2.2,2.5
			C116.7,160,117.7,159,117.7,157.5z"/>
		<path class="st2" d="M121,159.4L121,159.4c0-2,1.5-2.9,3.6-2.9c0.9,0,1.6,0.2,2.2,0.4v-0.2c0-1.1-0.7-1.6-1.9-1.6
			c-1,0-1.7,0.2-2.5,0.5l-0.6-2c1-0.4,2-0.7,3.5-0.7c1.4,0,2.4,0.4,3,1c0.7,0.7,1,1.7,1,2.9v5.2h-2.5v-1c-0.6,0.7-1.5,1.1-2.7,1.1
			C122.4,162.2,121,161.2,121,159.4z M126.8,158.8v-0.5c-0.4-0.2-1-0.3-1.6-0.3c-1.1,0-1.8,0.4-1.8,1.2v0c0,0.7,0.6,1.1,1.4,1.1
			C126,160.4,126.8,159.8,126.8,158.8z"/>
		<path class="st2" d="M130.9,163.8l0.9-1.9c0.9,0.5,1.9,0.8,3,0.8c1.8,0,2.6-0.8,2.6-2.5v-0.4c-0.8,0.9-1.6,1.5-2.9,1.5
			c-2.1,0-4-1.5-4-4.2v0c0-2.7,1.9-4.2,4-4.2c1.4,0,2.2,0.6,2.9,1.3V153h2.6v7c0,1.6-0.4,2.8-1.1,3.6c-0.8,0.8-2.1,1.2-3.9,1.2
			C133.4,164.8,132,164.4,130.9,163.8z M137.3,157.1L137.3,157.1c0-1.3-1-2.1-2.2-2.1c-1.2,0-2.2,0.9-2.2,2.1v0
			c0,1.2,0.9,2.1,2.2,2.1C136.4,159.2,137.3,158.3,137.3,157.1z"/>
		<path class="st2" d="M141.1,157.6L141.1,157.6c0-2.6,2.1-4.7,4.9-4.7c2.8,0,4.9,2.1,4.9,4.7v0c0,2.6-2.1,4.7-4.9,4.7
			C143.1,162.2,141.1,160.2,141.1,157.6z M148.3,157.6L148.3,157.6c0-1.4-1-2.5-2.4-2.5c-1.5,0-2.3,1.1-2.3,2.5v0
			c0,1.3,1,2.5,2.4,2.5C147.4,160,148.3,158.9,148.3,157.6z"/>
	</g>
	<g>
		<path class="st1" d="M45.3,94.1h7.5c1.1,0,2.1,0.2,2.9,0.5c0.9,0.3,1.5,0.7,2.1,1.3c0.4,0.4,0.8,0.9,1,1.5
			c0.2,0.6,0.4,1.2,0.4,1.8v0.1c0,0.7-0.1,1.4-0.4,2c-0.3,0.6-0.6,1.1-1.1,1.5c-0.5,0.4-1,0.8-1.7,1c-0.6,0.3-1.3,0.4-2.1,0.5
			l5.9,7.6h-1.7l-5.7-7.4h-0.1h-5.8v7.4h-1.3V94.1z M52.6,103.4c0.7,0,1.4-0.1,2.1-0.3c0.6-0.2,1.2-0.5,1.6-0.8
			c0.5-0.4,0.8-0.8,1.1-1.3s0.4-1.1,0.4-1.7v-0.1c0-1.2-0.4-2.2-1.3-2.9c-0.9-0.7-2.2-1.1-3.8-1.1h-6.1v8.1H52.6z"/>
		<path class="st1" d="M68.7,111.9c-1.2-0.1-2.2-0.4-3.2-0.8c-1-0.5-1.9-1.1-2.8-1.9l0.8-1c0.8,0.8,1.6,1.3,2.5,1.8
			c0.8,0.4,1.8,0.7,2.8,0.8v-7.3c-1.9-0.4-3.3-1-4.2-1.8c-0.8-0.7-1.3-1.8-1.3-3v-0.1c0-0.6,0.1-1.2,0.4-1.8c0.3-0.6,0.6-1,1.1-1.4
			c0.5-0.4,1-0.7,1.7-1s1.4-0.4,2.2-0.4v-1.5h1.2v1.5c1,0.1,1.9,0.3,2.6,0.7c0.8,0.3,1.5,0.8,2.3,1.4l-0.8,1c-0.7-0.6-1.3-1-2-1.4
			c-0.7-0.3-1.4-0.5-2.1-0.6v7.2c2,0.4,3.4,1,4.2,1.8c0.9,0.8,1.3,1.8,1.3,3v0.1c0,0.7-0.1,1.3-0.4,1.8c-0.3,0.6-0.6,1.1-1.1,1.5
			c-0.5,0.4-1.1,0.7-1.7,1c-0.7,0.2-1.4,0.4-2.2,0.4v2.5h-1.2V111.9z M68.7,95.2c-1.2,0-2.2,0.4-3,1s-1.1,1.4-1.1,2.3v0.1
			c0,0.4,0.1,0.8,0.2,1.1c0.1,0.3,0.3,0.7,0.6,1c0.3,0.3,0.7,0.6,1.2,0.8c0.5,0.2,1.2,0.5,2,0.7V95.2z M69.9,110.8
			c0.6,0,1.2-0.1,1.7-0.3s1-0.4,1.3-0.7c0.4-0.3,0.7-0.7,0.9-1.1c0.2-0.4,0.3-0.9,0.3-1.3v-0.1c0-0.4-0.1-0.8-0.2-1.2
			c-0.1-0.4-0.3-0.7-0.7-1c-0.3-0.3-0.8-0.5-1.3-0.8c-0.5-0.2-1.2-0.4-2.1-0.6V110.8z"/>
	</g>
</g>
</svg>
