<svg xmlns="http://www.w3.org/2000/svg" xmlns:xlink="http://www.w3.org/1999/xlink" width="306" height="213" viewBox="0 0 306 213"><defs><clipPath id="a"><rect width="306" height="213" transform="translate(660 227)" fill="#0074FF"/></clipPath><clipPath id="b"><rect width="632" height="275" transform="translate(0 -0.096)" fill="none"/></clipPath><linearGradient id="c" y1="0.5" x2="1" y2="0.5" gradientUnits="objectBoundingBox"><stop offset="0" stop-color="#f7711e"/><stop offset="1" stop-color="#ffd200"/></linearGradient></defs><g transform="translate(-660 -227)" clip-path="url(#a)"><g transform="translate(-635.333 -143.76)"><g transform="translate(1285.333 344.856)" clip-path="url(#b)"><path d="M1533.533,693.544c-.358,0-.714.014-1.069.027a42.974,42.974,0,0,0-48.56-32.927,50.406,50.406,0,0,1,11.519-53.435l2.746-2.746-18.2-18.2-2.746,2.746a50.409,50.409,0,0,1-67.857,3.122,53.56,53.56,0,0,0-72.311-31.618A64.014,64.014,0,0,0,1261.774,564a45.26,45.26,0,1,0-42.576,79.647,70.4,70.4,0,1,0,119.385,68.419h216C1554.251,695.822,1541.247,693.544,1533.533,693.544Z" transform="translate(-1243.464 -437.16)" fill="#ff9100"/><g transform="translate(237.803 26.909)"><path d="M1747.537,406.7a.277.277,0,0,1-.111-.023l-28.651-12.664a.275.275,0,0,1,.222-.5l28.651,12.664a.274.274,0,0,1-.111.525Z" transform="translate(-1718.611 -393.487)" fill="#003870"/></g><g transform="translate(217.785 27.866)"><path d="M1703.3,395.23a5.266,5.266,0,0,1-1.395,3.3,20.078,20.078,0,0,1-3.929,2.994,8.436,8.436,0,0,0-3.318,3.578c-1.178,2.941.66,6.236.38,9.391a10.981,10.981,0,0,1-3.487,6.443c-1.746,1.778-3.767,3.284-5.387,5.177a16.733,16.733,0,0,0-1.111,20.314,15.77,15.77,0,0,1,5.915-15.666c2.669-1.967,5.931-3.032,8.534-5.086a14.013,14.013,0,0,0,5.1-8.668c.451-2.79.1-5.856,1.616-8.238,1.3-2.035,3.657-3.068,5.786-4.206a10.161,10.161,0,0,0,4.217-3.63Z" transform="translate(-1682.138 -395.23)" fill="#f7711e"/></g><path d="M1707.492,518.886a1.827,1.827,0,0,0,.283,1.425,9.466,9.466,0,0,1,.755,1.289,1.335,1.335,0,0,1-.173,1.4,1.617,1.617,0,0,1-1.406,1.867,2.246,2.246,0,0,1-2.1-1.346,3.686,3.686,0,0,1-.08-2.6,10.953,10.953,0,0,1,1.165-2.381A5.736,5.736,0,0,1,1707.492,518.886Z" transform="translate(-1474.474 -422.998)" fill="#ffce3a"/><path d="M1761.78,414.9a1.328,1.328,0,0,0-.11-1.05,6.875,6.875,0,0,1-.462-.982.971.971,0,0,1,.217-1,1.176,1.176,0,0,1,1.141-1.259,1.633,1.633,0,0,1,1.433,1.113,2.678,2.678,0,0,1-.114,1.885,7.978,7.978,0,0,1-1,1.647A4.174,4.174,0,0,1,1761.78,414.9Z" transform="translate(-1500.003 -374.299)" fill="#ffce3a"/><path d="M1765.408,508.581q-11.175-3.4-22.511-6.228c-1,.435-1.814.6-2.111,1.643a7.932,7.932,0,0,0-.1,3.237,9.982,9.982,0,0,0,1.356,4.077c.781,1.214-.772,2.4.672,2.408a155.969,155.969,0,0,1,21.324,1.588,146.7,146.7,0,0,1-4.287,28.839l4.743,1.017q3.677-14.514,6.38-29.252C1772.117,509.43,1765.408,508.581,1765.408,508.581Z" transform="translate(-1490.714 -415.693)" fill="#0074FF"/><path d="M1728.745,443.672a9.476,9.476,0,0,0,7.739-3.9,4.627,4.627,0,0,0,1.02-3.153,2.348,2.348,0,0,0-2.223-2.135,3.763,3.763,0,0,0-2.309,1.446,5.658,5.658,0,0,1-3.369,2.077c-1,.077-2-.361-2.981-.183a3.152,3.152,0,0,0-2.052,1.544,7.185,7.185,0,0,0-.816,2.5c-.374,2.18-.6,4.541.9,6.167a5.557,5.557,0,0,0,6.088,1.313A8.882,8.882,0,0,1,1728.745,443.672Z" transform="translate(-1483.003 -385.074)" fill="#ffd4c5"/><path d="M1723.45,499.741a219.429,219.429,0,0,1-12.869,50.247h4.718c8.088-15.77,15.729-32.576,19.288-49.938A26.835,26.835,0,0,0,1723.45,499.741Z" transform="translate(-1477.185 -414.31)" fill="#0074FF"/><path d="M1746.845,503.025c-1.042-.279-2.083-.56-3.126-.832.14-.622.279-1.244.411-1.867-.6-.233-1.218-.438-1.863-.626a27.47,27.47,0,0,0-7.036-.282,7.862,7.862,0,0,0-2.219,1.064c-.024.016-.046.036-.07.053q-.482,3.524-1.078,7.03A27.224,27.224,0,0,0,1746.845,503.025Z" transform="translate(-1486.787 -414.318)" opacity="0.3"/><path d="M1730.875,464.12c-1.98,1.379-2.32,4.411-2.3,7.022a64.7,64.7,0,0,0,2.073,15.686c4.943-.335,10.436-.677,15.379-1.013a43.874,43.874,0,0,0-3.817-17.3,16.331,16.331,0,0,0-2.833-4.8,6.3,6.3,0,0,0-4.614-2.251A3.869,3.869,0,0,0,1730.875,464.12Z" transform="translate(-1485.304 -397.246)" fill="#f7711e"/><path d="M1740.363,443.556a59.625,59.625,0,0,0,11.689-26.428,1.7,1.7,0,0,1,1.912.7,76.025,76.025,0,0,1-8.119,29.453C1743.781,446.882,1741.876,445.014,1740.363,443.556Z" transform="translate(-1490.621 -377.213)" fill="#f7711e"/><path d="M1722.749,461.39a35.238,35.238,0,0,0-16.669,32.21,3.826,3.826,0,0,0,2.272.235,38.6,38.6,0,0,1,14.437-23.811A13.116,13.116,0,0,0,1722.749,461.39Z" transform="translate(-1475.123 -397.212)" fill="#f7711e"/><path d="M1732.51,465.12a3.781,3.781,0,0,0,3.479-2.492c.321-1.09.031-2.329.54-3.345.527-1.053,1.769-1.576,2.379-2.582.825-1.361.277-3.1.035-4.741a59.345,59.345,0,0,1-3.5,5.487,4.89,4.89,0,0,0-1.661-.268,5.07,5.07,0,0,0-1.72.335c-.04-.125-.072-.255-.116-.378a35.119,35.119,0,0,0-5.548,4.246,13.469,13.469,0,0,0,1.951,2.123A6.2,6.2,0,0,0,1732.51,465.12Z" transform="translate(-1484.322 -392.958)" opacity="0.2"/><path d="M1732.785,458.8a12.559,12.559,0,0,1,.835,3.377,4.2,4.2,0,0,0,3.068-1.472,23.447,23.447,0,0,0-1.359-2.673A3.7,3.7,0,0,0,1732.785,458.8Z" transform="translate(-1487.203 -395.697)" fill="#ffce3a"/><path d="M1735.328,458.031a3.7,3.7,0,0,0-2.543.769,12.542,12.542,0,0,1,.634,2.134,12.944,12.944,0,0,0,2.5.451,5.007,5.007,0,0,0,.767-.681A23.447,23.447,0,0,0,1735.328,458.031Z" transform="translate(-1487.203 -395.697)" opacity="0.1"/><path d="M1732.164,446.318a18.428,18.428,0,0,1,1.555,5.957,4.7,4.7,0,0,1-5.874-.125,4.818,4.818,0,0,1-.974-5.63,3.726,3.726,0,0,1,2.6-2.063A2.834,2.834,0,0,1,1732.164,446.318Z" transform="translate(-1484.307 -389.563)" fill="#ffce3a"/><path d="M1733.04,445.905a6.455,6.455,0,0,1-4.378.946,3.185,3.185,0,0,1-.182,1.752,6.192,6.192,0,0,0,.373,1.581,1.241,1.241,0,0,1-.529-.518,2.553,2.553,0,0,0-.328-.6.583.583,0,0,0-.61-.211.524.524,0,0,0-.31.413,1.056,1.056,0,0,0,.076.53,2.236,2.236,0,0,0,1.848,1.417,4,4,0,0,1,.671,1.712,4.734,4.734,0,0,1-4.357-3.9,5.763,5.763,0,0,1,2.5-5.436,3.249,3.249,0,0,1,2.09-.677,2.9,2.9,0,0,1,1.85,1.052A9.827,9.827,0,0,1,1733.04,445.905Z" transform="translate(-1483.807 -388.874)" fill="#ffd4c5"/><path d="M1704.8,655.146c1.355-2.152,2.886-4.917,1.907-7.263a6.522,6.522,0,0,0-6.139-3.756,6.521,6.521,0,0,0-3.756-6.139c-2.346-.979-5.111.553-7.263,1.907a11.858,11.858,0,0,0-4.855,6.131,3.388,3.388,0,0,1,1.677-.711,23.934,23.934,0,0,0-4.08,7.738l1.671-1.255a12.334,12.334,0,0,0-1.612,10.547,12.335,12.335,0,0,0,10.547-1.612l-1.255,1.671a23.936,23.936,0,0,0,7.738-4.08,3.387,3.387,0,0,1-.711,1.677A11.857,11.857,0,0,0,1704.8,655.146Z" transform="translate(-1464.204 -476.745)" fill="url(#c)" style="mix-blend-mode:multiply;isolation:isolate"/><path d="M1708.36,654.123c.725-1.15,1.544-2.63,1.02-3.885a8.216,8.216,0,0,1-5.293-5.293c-1.255-.524-2.734.3-3.885,1.02a6.343,6.343,0,0,0-2.6,3.279,1.812,1.812,0,0,1,.9-.38A12.8,12.8,0,0,0,1696.32,653l.894-.671a3.541,3.541,0,1,0,4.779,4.779l-.671.894a12.8,12.8,0,0,0,4.139-2.182,1.808,1.808,0,0,1-.38.9A6.339,6.339,0,0,0,1708.36,654.123Z" transform="translate(-1470.636 -479.949)" fill="url(#c)" style="mix-blend-mode:multiply;isolation:isolate"/><rect width="33.977" height="0.549" transform="translate(290.07 113.413) rotate(-45)" fill="#fff"/><g transform="translate(210.167 126.962)"><path d="M1712.676,586.085l-35.388-.221-3.911,13.3,21.693,10.963Z" transform="translate(-1670.568 -580.331)" fill="#ff9100"/><path d="M1675.1,587.9c-2.594,6.261-5.508,11-6.507,10.588s.3-5.825,2.89-12.087,5.508-11,6.507-10.588S1677.7,581.634,1675.1,587.9Z" transform="translate(-1668.258 -575.783)" fill="#ffd4c5"/></g><g transform="translate(247.115 151.595)"><path d="M1759.618,620.665l.221,35.388-13.3,3.911-10.963-21.693Z" transform="translate(-1735.577 -620.665)" fill="#ff9100"/><ellipse cx="12.272" cy="1.958" rx="12.272" ry="1.958" transform="matrix(0.924, -0.383, 0.383, 0.924, 6.345, 39.963)" fill="#ffd4c5"/></g><path d="M1721.973,586.2l-12.561-.078A149.024,149.024,0,0,0,1693.984,605l10.383,5.247Z" transform="translate(-1469.697 -453.487)" opacity="0.2"/><path d="M1735.577,638.272l4.873,9.642a149.558,149.558,0,0,0,19.239-15.836l-.071-11.412Z" transform="translate(-1488.462 -469.07)" opacity="0.2"/><path d="M1754.194,565.961c-9.683-1.7-25.859,6.208-40.094,20.443a89.782,89.782,0,0,0-15.02,19.537q3.387,4.032,7.238,7.9t7.9,7.238a89.785,89.785,0,0,0,19.537-15.02C1747.986,591.819,1755.893,575.643,1754.194,565.961Z" transform="translate(-1471.997 -444.287)" fill="#4d4d4d"/><path d="M1771.169,535.991c-12.448-2.184-33.245,7.981-51.546,26.283a115.434,115.434,0,0,0-19.31,25.118q4.354,5.184,9.3,10.151t10.151,9.305a115.413,115.413,0,0,0,25.118-19.31C1763.188,569.237,1773.353,548.44,1771.169,535.991Z" transform="translate(-1472.553 -430.737)" fill="#fff"/><path d="M1707.222,591.973q2.661,2.943,5.513,5.81t5.811,5.513c5.871-4.979,12.07-10.682,18.317-16.929,20.589-20.589,35.331-40.68,37.424-50.135-9.454,2.093-29.545,16.835-50.134,37.424C1717.9,579.9,1712.2,586.1,1707.222,591.973Z" transform="translate(-1475.67 -430.978)" opacity="0.1"/><path d="M1716.975,636.028c-5.15,5.15-9.967,8.682-10.759,7.89s2.74-5.61,7.89-10.76,9.967-8.682,10.759-7.89S1722.125,630.878,1716.975,636.028Z" transform="translate(-1475.166 -471.097)" fill="#ff9100"/><circle cx="10.33" cy="10.33" r="10.33" transform="translate(262.15 121.062)" fill="#ff9100"/><circle cx="8.446" cy="8.446" r="8.446" transform="translate(264.034 122.946)" opacity="0.2"/><circle cx="7.304" cy="7.304" r="7.304" transform="translate(265.175 124.087)" fill="#94ddff"/><path d="M1783.083,580.932a7.3,7.3,0,0,1-13.815-3.059,7.3,7.3,0,1,0,13.815,3.059Z" transform="translate(-1503.31 -449.764)" opacity="0.1"/><g transform="translate(274.064 125.46)"><circle cx="1.433" cy="1.433" r="1.433" transform="translate(1.059 1.059)" fill="#fff"/><circle cx="0.621" cy="0.621" r="0.621" fill="#fff"/></g></g></g></g></svg>