<svg xmlns="http://www.w3.org/2000/svg" width="120.142" height="45.636" viewBox="0 0 120.142 45.636"><path id="Caminho_36711" data-name="Caminho 36711" d="M5.414,0A4.492,4.492,0,0,1,5-1.134q-.167-.694-.281-1.45T4.535-4.008q-.07-.668-.141-1.055V-8.086a.516.516,0,0,1,.158-.36A.476.476,0,0,1,4.9-8.613h.158q.07.475.105.976t.062.993a8.042,8.042,0,0,0,.114.984,5.1,5.1,0,0,0,.229.949,4.472,4.472,0,0,0,.615.105q.316,0,.738.035a3.717,3.717,0,0,0,.993-.149,3.863,3.863,0,0,0,.993-.431,2.718,2.718,0,0,0,.765-.694,1.508,1.508,0,0,0,.308-.923,1.481,1.481,0,0,0-.369-.993,3.6,3.6,0,0,0-.949-.765,7.593,7.593,0,0,0-1.283-.58A12.032,12.032,0,0,0,6-9.5q-.677-.149-1.257-.22a8,8,0,0,0-.9-.07q-.105,0-.387-.018t-.624-.009q-.343.009-.659.044a1.231,1.231,0,0,0-.492.141.811.811,0,0,0-.29.316q-.132.229-.255.466a2.959,2.959,0,0,1-.255.413.368.368,0,0,1-.29.176H.563A.135.135,0,0,1,.51-8.279a.115.115,0,0,1-.053-.053.885.885,0,0,1-.044-.176,3.672,3.672,0,0,1-.044-.4Q.352-9.176.352-9.633a.485.485,0,0,1,.185-.36,1.63,1.63,0,0,1,.492-.29,6.206,6.206,0,0,1,.659-.22q.352-.1.677-.158t.58-.1a3.112,3.112,0,0,1,.343-.035q.6,0,1.4.07a13.333,13.333,0,0,1,1.652.255,12.571,12.571,0,0,1,1.688.492A6.664,6.664,0,0,1,9.51-9.22a4,4,0,0,1,1.072,1.081,2.6,2.6,0,0,1,.4,1.459,1.622,1.622,0,0,1-.211,1.1,3.179,3.179,0,0,1-.817.9A5.84,5.84,0,0,1,8.789-4a8.729,8.729,0,0,1-1.266.457,6.48,6.48,0,0,1-1.107.211,1.517,1.517,0,0,1-.686-.044v.158A6.966,6.966,0,0,0,5.836-2,6.966,6.966,0,0,1,5.941-.791a2.1,2.1,0,0,1-.018.22,1.016,1.016,0,0,1-.079.29.662.662,0,0,1-.158.229A.3.3,0,0,1,5.414,0Zm7.822,0a9.558,9.558,0,0,1-.668-1.529,16.877,16.877,0,0,1-.475-1.67q-.193-.844-.308-1.644t-.149-1.45a2.348,2.348,0,0,0-.018-.272,1.783,1.783,0,0,1-.009-.308,1.226,1.226,0,0,1,.053-.3.594.594,0,0,1,.149-.246h.035q.018,0,.018-.009t.018-.009q.018,0,.018.009t.035.009h.035q.035.018.176.07a.577.577,0,0,1,.176.088q.316-.105.65-.255t.677-.281a5.958,5.958,0,0,1,.694-.22,2.821,2.821,0,0,1,.686-.088q.246,0,.431.018a2.7,2.7,0,0,1,.369.062q.185.044.4.105t.492.149q.141.105.255.2a1.5,1.5,0,0,1,.211.22.894.894,0,0,1,.149.3,1.631,1.631,0,0,1,.053.457,2.03,2.03,0,0,1-.659-.044q-.378-.079-.791-.2t-.853-.211a3.518,3.518,0,0,0-.844-.07,1.581,1.581,0,0,0-.756.229,1.591,1.591,0,0,0-.65.633,3.694,3.694,0,0,0-.105,1,5.163,5.163,0,0,0,.123.958,7.985,7.985,0,0,0,.272.932q.167.466.316.932t.272.923a5,5,0,0,1,.158.932.574.574,0,0,1-.193.378A.594.594,0,0,1,13.236,0Zm4.641-4.711a5.6,5.6,0,0,1,.272-1.749,4.485,4.485,0,0,1,.791-1.468,3.881,3.881,0,0,1,1.266-1.011,3.786,3.786,0,0,1,1.731-.378A2.663,2.663,0,0,1,22.948-9a2.293,2.293,0,0,1,.7.606,2.342,2.342,0,0,1,.4.835,4.372,4.372,0,0,1,.105.984,1.9,1.9,0,0,1-.369,1.143,3.174,3.174,0,0,1-.932.853,4.878,4.878,0,0,1-1.213.527,4.458,4.458,0,0,1-1.213.185H20a1.057,1.057,0,0,1-.4-.07.64.64,0,0,1-.281-.211.7.7,0,0,1-.105-.422.379.379,0,0,1,.026-.149q.026-.062.149-.088a1.421,1.421,0,0,1,.369-.009q.246.035.668.105a2.323,2.323,0,0,0,.712-.167,6.73,6.73,0,0,0,.949-.431,3.778,3.778,0,0,0,.835-.606.972.972,0,0,0,.352-.677,2.183,2.183,0,0,0-.114-.694,1.77,1.77,0,0,0-.343-.606,1.782,1.782,0,0,0-.536-.422,1.242,1.242,0,0,0-.694-.123A2.727,2.727,0,0,0,20.47-8.1a2.838,2.838,0,0,0-.853.729,3.488,3.488,0,0,0-.545.993,3.391,3.391,0,0,0-.193,1.143q0,.457.018.914a4.192,4.192,0,0,0,.132.9,2.985,2.985,0,0,0,.369.844,2.328,2.328,0,0,0,.738.712,4.483,4.483,0,0,0,1.222.51,8.625,8.625,0,0,0,1.828.255l3.146-.211a2.245,2.245,0,0,1-.712.633,4.536,4.536,0,0,1-.914.4,6.437,6.437,0,0,1-.958.22,6.13,6.13,0,0,1-.9.07,5.444,5.444,0,0,1-1.916-.334,4.994,4.994,0,0,1-1.582-.94,4.344,4.344,0,0,1-1.081-1.477A4.685,4.685,0,0,1,17.877-4.711ZM29.092,3.656a.45.45,0,0,1,.2-.105,1.236,1.236,0,0,1,.22-.018,1.049,1.049,0,0,1,.554.167,4.664,4.664,0,0,1,.51.36q.237.193.475.352a.889.889,0,0,0,.5.158q.281,0,.536.009a1.057,1.057,0,0,0,.413-.053.489.489,0,0,0,.255-.264,1.521,1.521,0,0,0,.1-.624,1.062,1.062,0,0,0-.132-.633,1.065,1.065,0,0,0-.4-.36,1.813,1.813,0,0,0-.554-.185q-.308-.053-.642-.114a4.1,4.1,0,0,1-.65-.176,1.706,1.706,0,0,1-.562-.334,1.538,1.538,0,0,1-.4-.606,3.011,3.011,0,0,1-.167-.984,2.693,2.693,0,0,1,.07-.545,3.875,3.875,0,0,1-1.072-.615,3.372,3.372,0,0,1-.879-1.23,4.494,4.494,0,0,1-.316-1.775,3.93,3.93,0,0,1,.3-1.5,4.284,4.284,0,0,1,.817-1.292,4.017,4.017,0,0,1,1.2-.9,3.288,3.288,0,0,1,1.459-.334,3.816,3.816,0,0,1,.747.079,2.961,2.961,0,0,1,.747.255,1.686,1.686,0,0,1,.58.466,1.142,1.142,0,0,1,.229.729,1.747,1.747,0,0,1-.044.281,3.756,3.756,0,0,1-.114.422,2.041,2.041,0,0,1-.167.378q-.1.167-.167.167a2.1,2.1,0,0,0-.457-1.38A1.632,1.632,0,0,0,30.955-7.1a2.5,2.5,0,0,0-1.2.281,2.691,2.691,0,0,0-.879.738,3.372,3.372,0,0,0-.536,1.028,3.78,3.78,0,0,0-.185,1.169,2.98,2.98,0,0,0,.264,1.336,2.274,2.274,0,0,0,.721.853,3.223,3.223,0,0,0,1.055.483A7.133,7.133,0,0,0,31.465-1,12.713,12.713,0,0,0,32.8-.967q.668-.018,1.283-.053a.436.436,0,0,1,.176.07,1.171,1.171,0,0,0,.176.088v.053q0,.035.009.035t.009.018a.407.407,0,0,1-.193.334,1.626,1.626,0,0,1-.475.229,3.176,3.176,0,0,1-.615.123q-.334.035-.659.062t-.571.026h-.352a7.087,7.087,0,0,1-1.459-.141,1.285,1.285,0,0,1,.088.334.276.276,0,0,1-.053.264,1.034,1.034,0,0,0,.264.8,1.573,1.573,0,0,0,.668.343,6.2,6.2,0,0,0,.879.158A3.031,3.031,0,0,1,32.854,2a1.6,1.6,0,0,1,.677.563,2.019,2.019,0,0,1,.272,1.16,1.228,1.228,0,0,1-.229.738,1.9,1.9,0,0,1-.562.519,2.558,2.558,0,0,1-.747.3,3.371,3.371,0,0,1-.765.1,2.187,2.187,0,0,1-.844-.141,1.9,1.9,0,0,1-.589-.387,3.992,3.992,0,0,1-.475-.554Q29.373,3.99,29.092,3.656Zm6.152-7.242a3.28,3.28,0,0,1,.422-1.687,3.91,3.91,0,0,1,1.107-1.213,4.837,4.837,0,0,1,1.538-.729,6.365,6.365,0,0,1,1.714-.237,2.169,2.169,0,0,1,.853.167,3.173,3.173,0,0,1,.756.457,3.652,3.652,0,0,1,.642.668,5.219,5.219,0,0,1,.483.782,4.086,4.086,0,0,1,.308.817,3.229,3.229,0,0,1,.105.8,3.529,3.529,0,0,1-.352,1.6,3.545,3.545,0,0,1-.949,1.187,4.335,4.335,0,0,1-1.354.738,4.81,4.81,0,0,1-1.547.255,4.183,4.183,0,0,1-1.485-.255,3.62,3.62,0,0,1-1.178-.712,3.141,3.141,0,0,1-.782-1.134A3.88,3.88,0,0,1,35.244-3.586Zm.861-.141a2.769,2.769,0,0,0,.2,1.046,2.651,2.651,0,0,0,.563.87,2.737,2.737,0,0,0,.853.589A2.558,2.558,0,0,0,38.777-1a1.826,1.826,0,0,0,.729-.1,3.982,3.982,0,0,0,.861-.387,5.036,5.036,0,0,0,.826-.615,3.641,3.641,0,0,0,.659-.791,2.275,2.275,0,0,0,.325-.9,1.644,1.644,0,0,0-.158-.932,2.487,2.487,0,0,0-.8-.9,6.323,6.323,0,0,0-1.6-.8,4.653,4.653,0,0,0-1.2.167,3.886,3.886,0,0,0-1.134.5,2.9,2.9,0,0,0-.844.844A2.1,2.1,0,0,0,36.105-3.727ZM55-.51a.8.8,0,0,1-.193.035q-.158.018-.334.053t-.316.053q-.141.018-.176.018a3.069,3.069,0,0,1-1.468-.325,2.85,2.85,0,0,1-.993-.87,3.8,3.8,0,0,1-.571-1.248,5.653,5.653,0,0,1-.185-1.441,5.656,5.656,0,0,1,.272-1.731,4.776,4.776,0,0,1,.8-1.521,4.084,4.084,0,0,1,1.274-1.072,3.47,3.47,0,0,1,1.679-.4,2.781,2.781,0,0,1,.773.123,2.9,2.9,0,0,1,.773.352,2.164,2.164,0,0,1,.6.58,1.375,1.375,0,0,1,.246.809L56.654-1.02q0,.773.062,1.538t.132,1.529q.07.765.132,1.538t.062,1.529a2.3,2.3,0,0,1-.035.439q0,.193-.316.193a.527.527,0,0,1-.457-.272,2.056,2.056,0,0,1-.264-.712,6.119,6.119,0,0,1-.105-1q-.018-.563-.035-1.143t-.035-1.143q-.018-.562-.07-1a2.277,2.277,0,0,0-.185-.712A.411.411,0,0,0,55.16-.51Zm-3.41-3.674a3.173,3.173,0,0,0,.158.993,2.651,2.651,0,0,0,.457.853,2.37,2.37,0,0,0,.721.6,2.248,2.248,0,0,0,1.02.229,5.254,5.254,0,0,0,.791-.062,1.9,1.9,0,0,0,.756-.29,10.006,10.006,0,0,0,.114-1.169q.026-.624.079-1.274t.158-1.3a6.712,6.712,0,0,1,.334-1.266.87.87,0,0,0-.167-.527,1.532,1.532,0,0,0-.413-.387,1.733,1.733,0,0,0-.545-.229,2.529,2.529,0,0,0-.58-.07,1.913,1.913,0,0,0-1.2.4,3.82,3.82,0,0,0-.905,1,5.11,5.11,0,0,0-.58,1.274A4.313,4.313,0,0,0,51.592-4.184ZM64.6-2.549A2.7,2.7,0,0,0,63.905-2q-.29.325-.589.615a3.433,3.433,0,0,1-.659.5,1.808,1.808,0,0,1-.923.211A2.385,2.385,0,0,1,60.592-.94a3.1,3.1,0,0,1-.905-.738A5.106,5.106,0,0,1,59-2.733a7.653,7.653,0,0,1-.475-1.213,9.751,9.751,0,0,1-.281-1.23,7.037,7.037,0,0,1-.1-1.1A3.157,3.157,0,0,1,58.2-7.761a1.218,1.218,0,0,1,.466-.686.341.341,0,0,1,.466.07.842.842,0,0,1,.053.765.7.7,0,0,0-.053.22q-.018.149-.035.308t-.035.3a1.871,1.871,0,0,0-.018.193,6.376,6.376,0,0,0,.07.87,8.354,8.354,0,0,0,.22,1.046,8.463,8.463,0,0,0,.378,1.081,4.584,4.584,0,0,0,.545.958,2.783,2.783,0,0,0,.729.686,1.649,1.649,0,0,0,.905.264A1.248,1.248,0,0,0,62.613-2a4.757,4.757,0,0,0,.765-.738,5.746,5.746,0,0,0,.615-.888,1.671,1.671,0,0,0,.255-.773q0-.176.009-.58t.009-.861q0-.457-.009-.861t-.009-.562a.987.987,0,0,1,.229-.272.469.469,0,0,1,.3-.1q.211,0,.352.281a2.9,2.9,0,0,1,.229.721,7.468,7.468,0,0,1,.123.949q.035.51.053.984t.035.835a2.584,2.584,0,0,0,.053.483,7.121,7.121,0,0,0,.255.791q.167.439.325.853t.281.756a1.7,1.7,0,0,1,.123.519q0,.264-.149.316a1.151,1.151,0,0,1-.378.053.542.542,0,0,1-.413-.141.852.852,0,0,1-.193-.36,3.524,3.524,0,0,1-.1-.483,3.936,3.936,0,0,0-.114-.545,2.114,2.114,0,0,0-.229-.527A1.149,1.149,0,0,0,64.6-2.549Zm2.619-2.162a5.6,5.6,0,0,1,.272-1.749,4.485,4.485,0,0,1,.791-1.468,3.881,3.881,0,0,1,1.266-1.011,3.786,3.786,0,0,1,1.731-.378A2.663,2.663,0,0,1,72.29-9a2.293,2.293,0,0,1,.7.606,2.342,2.342,0,0,1,.4.835,4.372,4.372,0,0,1,.105.984,1.9,1.9,0,0,1-.369,1.143,3.174,3.174,0,0,1-.932.853,4.878,4.878,0,0,1-1.213.527,4.458,4.458,0,0,1-1.213.185h-.431a1.057,1.057,0,0,1-.4-.07.64.64,0,0,1-.281-.211.7.7,0,0,1-.105-.422.379.379,0,0,1,.026-.149q.026-.062.149-.088a1.421,1.421,0,0,1,.369-.009q.246.035.668.105a2.323,2.323,0,0,0,.712-.167,6.73,6.73,0,0,0,.949-.431,3.778,3.778,0,0,0,.835-.606.972.972,0,0,0,.352-.677,2.183,2.183,0,0,0-.114-.694,1.77,1.77,0,0,0-.343-.606,1.782,1.782,0,0,0-.536-.422,1.242,1.242,0,0,0-.694-.123,2.727,2.727,0,0,0-1.116.334,2.838,2.838,0,0,0-.853.729,3.488,3.488,0,0,0-.545.993,3.391,3.391,0,0,0-.193,1.143q0,.457.018.914a4.192,4.192,0,0,0,.132.9,2.985,2.985,0,0,0,.369.844,2.328,2.328,0,0,0,.738.712,4.483,4.483,0,0,0,1.222.51,8.625,8.625,0,0,0,1.828.255l3.146-.211a2.245,2.245,0,0,1-.712.633,4.536,4.536,0,0,1-.914.4,6.437,6.437,0,0,1-.958.22,6.13,6.13,0,0,1-.9.07,5.444,5.444,0,0,1-1.916-.334,4.994,4.994,0,0,1-1.582-.94,4.344,4.344,0,0,1-1.081-1.477A4.685,4.685,0,0,1,67.219-4.711ZM83.25-3.92a3.93,3.93,0,0,1,.3-1.5,4.284,4.284,0,0,1,.817-1.292,4.017,4.017,0,0,1,1.2-.9,3.288,3.288,0,0,1,1.459-.334,3.816,3.816,0,0,1,.747.079,2.961,2.961,0,0,1,.747.255,1.686,1.686,0,0,1,.58.466,1.142,1.142,0,0,1,.229.729,1.747,1.747,0,0,1-.044.281,3.756,3.756,0,0,1-.114.422,2.041,2.041,0,0,1-.167.378q-.1.167-.167.167a2.1,2.1,0,0,0-.457-1.38A1.632,1.632,0,0,0,87.047-7.1a2.5,2.5,0,0,0-1.2.281,2.691,2.691,0,0,0-.879.738,3.372,3.372,0,0,0-.536,1.028,3.78,3.78,0,0,0-.185,1.169,2.98,2.98,0,0,0,.264,1.336,2.274,2.274,0,0,0,.721.853,3.223,3.223,0,0,0,1.055.483A7.133,7.133,0,0,0,87.557-1a12.713,12.713,0,0,0,1.336.035q.668-.018,1.283-.053a.436.436,0,0,1,.176.07,1.171,1.171,0,0,0,.176.088v.053q0,.035.009.035t.009.018a.407.407,0,0,1-.193.334,1.626,1.626,0,0,1-.475.229,3.176,3.176,0,0,1-.615.123q-.334.035-.659.062t-.571.026H87.68a6.823,6.823,0,0,1-1.837-.229,3.629,3.629,0,0,1-1.389-.712,3.232,3.232,0,0,1-.888-1.23A4.51,4.51,0,0,1,83.25-3.92Zm8.086.949a2.188,2.188,0,0,1,.176-.686A2.607,2.607,0,0,1,92-4.412a3.376,3.376,0,0,1,.844-.659,3.738,3.738,0,0,1,1.2-.413A5.436,5.436,0,0,1,95.634-5.5a8.252,8.252,0,0,1,1.978.527V-5.15l-.018-.158a1.91,1.91,0,0,0-.264-.932,3.366,3.366,0,0,0-.677-.853,3.89,3.89,0,0,0-.888-.615,2.042,2.042,0,0,0-.914-.237.825.825,0,0,0-.308.053,1.5,1.5,0,0,0-.255.132q-.123.079-.237.141a.567.567,0,0,1-.272.062q-.035,0-.035-.018l-.035-.035q-.035-.035-.1-.088t-.062-.07a1.206,1.206,0,0,1,.114-.545.969.969,0,0,1,.316-.369,1.651,1.651,0,0,1,.457-.22,1.8,1.8,0,0,1,.536-.079,3.416,3.416,0,0,1,1.345.431,5.264,5.264,0,0,1,1.178.905,6.016,6.016,0,0,1,.94,1.257,9.319,9.319,0,0,1,.677,1.477,6.889,6.889,0,0,1,.36,1.538,5.965,5.965,0,0,1,.018,1.512l-.105-.009-.193-.018a1.128,1.128,0,0,1-.176-.026l-.088-.018A5.12,5.12,0,0,0,98.1-3.27a4.6,4.6,0,0,0-.905-.8,3.275,3.275,0,0,0-.835-.4q-.387-.114-.633-.167-.264,0-.624.035a6.006,6.006,0,0,0-.747.123,5.938,5.938,0,0,0-.782.237,3.3,3.3,0,0,0-.7.36,1.739,1.739,0,0,0-.492.5,1.233,1.233,0,0,0-.185.677A.907.907,0,0,0,92.531-2a2.728,2.728,0,0,0,.809.475,4.362,4.362,0,0,0,.967.255,5.872,5.872,0,0,0,.791.07,8.749,8.749,0,0,0,.967-.053q.475-.053.94-.123t.923-.123a7.968,7.968,0,0,1,.914-.053h.123q.088,0,.185.009t.176.009h.114a.215.215,0,0,1,.158.158,1.281,1.281,0,0,1,.018.211q0,.105-.22.229a3.681,3.681,0,0,1-.571.246q-.352.123-.782.255t-.826.22q-.4.088-.738.149A3.2,3.2,0,0,1,95.994,0,10.64,10.64,0,0,1,94.43-.123a5.343,5.343,0,0,1-1.512-.448,3.074,3.074,0,0,1-1.134-.905A2.374,2.374,0,0,1,91.336-2.971Zm9.281-5.467a12.509,12.509,0,0,0-.211-1.318,3.8,3.8,0,0,1-.114-.9.728.728,0,0,1,.22-.545,1.549,1.549,0,0,1,.791-.264q.035.176.088.668t.114,1.116q.062.624.141,1.3t.149,1.239a7.982,7.982,0,0,0,.158.914q.088.387.158.352a1.912,1.912,0,0,0,.624-.105,2.019,2.019,0,0,1,.659-.105,7.062,7.062,0,0,1,1.125.1,7.782,7.782,0,0,1,1.187.29,6.568,6.568,0,0,1,1.143.5,4.488,4.488,0,0,1,.967.712,3.166,3.166,0,0,1,.659.932,2.709,2.709,0,0,1,.246,1.16,1.978,1.978,0,0,1-.4,1.292,2.46,2.46,0,0,1-1.011.729,4.846,4.846,0,0,1-1.336.316q-.738.07-1.371.07a4.158,4.158,0,0,1-1.459-.22,2.523,2.523,0,0,1-.949-.606,2.64,2.64,0,0,1-.562-.9,5.274,5.274,0,0,1-.281-1.116q-.088-.606-.123-1.266t-.105-1.327q-.018-.123-.088-.554t-.167-.949q-.1-.519-.167-.958T100.617-8.437ZM102.3-3.832a1.99,1.99,0,0,0,.1,1.336,2.36,2.36,0,0,0,.791.923,3.215,3.215,0,0,0,1.2.5,3.85,3.85,0,0,0,1.345.044,3.183,3.183,0,0,0,1.2-.413,1.911,1.911,0,0,0,.809-.914,1.713,1.713,0,0,0-.22-.861,2.547,2.547,0,0,0-.571-.686,3.832,3.832,0,0,0-.8-.519,6.041,6.041,0,0,0-.914-.36,7.789,7.789,0,0,0-.923-.22,4.807,4.807,0,0,0-.809-.079,1.147,1.147,0,0,0-.888.334A1.3,1.3,0,0,0,102.3-3.832Zm7.084-.879a5.6,5.6,0,0,1,.272-1.749,4.485,4.485,0,0,1,.791-1.468,3.881,3.881,0,0,1,1.266-1.011,3.786,3.786,0,0,1,1.731-.378A2.663,2.663,0,0,1,114.46-9a2.293,2.293,0,0,1,.7.606,2.342,2.342,0,0,1,.4.835,4.372,4.372,0,0,1,.105.984,1.9,1.9,0,0,1-.369,1.143,3.174,3.174,0,0,1-.932.853,4.878,4.878,0,0,1-1.213.527,4.458,4.458,0,0,1-1.213.185h-.431a1.057,1.057,0,0,1-.4-.07.64.64,0,0,1-.281-.211.7.7,0,0,1-.105-.422.379.379,0,0,1,.026-.149q.026-.062.149-.088a1.421,1.421,0,0,1,.369-.009q.246.035.668.105a2.323,2.323,0,0,0,.712-.167,6.73,6.73,0,0,0,.949-.431,3.778,3.778,0,0,0,.835-.606.972.972,0,0,0,.352-.677,2.183,2.183,0,0,0-.114-.694,1.77,1.77,0,0,0-.343-.606,1.782,1.782,0,0,0-.536-.422,1.242,1.242,0,0,0-.694-.123,2.727,2.727,0,0,0-1.116.334,2.838,2.838,0,0,0-.853.729,3.488,3.488,0,0,0-.545.993,3.391,3.391,0,0,0-.193,1.143q0,.457.018.914a4.192,4.192,0,0,0,.132.9,2.985,2.985,0,0,0,.369.844,2.328,2.328,0,0,0,.738.712,4.483,4.483,0,0,0,1.222.51,8.625,8.625,0,0,0,1.828.255l3.146-.211a2.245,2.245,0,0,1-.712.633,4.536,4.536,0,0,1-.914.4,6.437,6.437,0,0,1-.958.22,6.13,6.13,0,0,1-.9.07,5.444,5.444,0,0,1-1.916-.334,4.994,4.994,0,0,1-1.582-.94,4.344,4.344,0,0,1-1.081-1.477A4.685,4.685,0,0,1,109.389-4.711ZM.51,17.145a.191.191,0,0,1,.114-.2A.705.705,0,0,1,.879,16.9a.185.185,0,0,1,.149.053.3.3,0,0,1,.062.123.517.517,0,0,0,.053.132.13.13,0,0,0,.123.062,1.3,1.3,0,0,0,.6-.193l.765-.422a8.722,8.722,0,0,1,.879-.422,2.393,2.393,0,0,1,.923-.193,2.06,2.06,0,0,1,1.1.308,3.364,3.364,0,0,1,.9.817A5.5,5.5,0,0,1,7.1,18.3,10.354,10.354,0,0,1,7.576,19.6a9.043,9.043,0,0,1,.281,1.283,7.9,7.9,0,0,1,.088,1.081q0,.158-.026.475a5.865,5.865,0,0,1-.088.633,1.723,1.723,0,0,1-.2.554.408.408,0,0,1-.352.237q-.035,0-.123-.009a.934.934,0,0,1-.176-.035.718.718,0,0,1-.149-.062.114.114,0,0,1-.062-.105,10.224,10.224,0,0,0,0-2.54,8.961,8.961,0,0,0-.51-2.083A4.262,4.262,0,0,0,5.4,17.6a1.507,1.507,0,0,0-1.09-.527,2.912,2.912,0,0,0-1.02.176,2.353,2.353,0,0,0-1.38,1.318,2.619,2.619,0,0,0-.2,1.037,5.952,5.952,0,0,0,.105,1.116q.105.554.237,1.107t.237,1.116a6.092,6.092,0,0,1,.105,1.125,1.031,1.031,0,0,1-.826-.4,3.086,3.086,0,0,1-.536-1.037,8.852,8.852,0,0,1-.316-1.424Q.6,20.414.554,19.649T.51,18.208Zm8.1,3.27a3.28,3.28,0,0,1,.422-1.687,3.91,3.91,0,0,1,1.107-1.213,4.837,4.837,0,0,1,1.538-.729,6.365,6.365,0,0,1,1.714-.237,2.169,2.169,0,0,1,.853.167,3.173,3.173,0,0,1,.756.457,3.652,3.652,0,0,1,.642.668,5.22,5.22,0,0,1,.483.782,4.086,4.086,0,0,1,.308.817,3.229,3.229,0,0,1,.105.8,3.474,3.474,0,0,1-1.3,2.786,4.335,4.335,0,0,1-1.354.738,4.81,4.81,0,0,1-1.547.255,4.183,4.183,0,0,1-1.485-.255,3.62,3.62,0,0,1-1.178-.712,3.141,3.141,0,0,1-.782-1.134A3.88,3.88,0,0,1,8.613,20.414Zm.861-.141a2.769,2.769,0,0,0,.2,1.046,2.651,2.651,0,0,0,.563.87,2.737,2.737,0,0,0,.853.589,2.558,2.558,0,0,0,1.055.22,1.826,1.826,0,0,0,.729-.1,3.982,3.982,0,0,0,.861-.387,5.036,5.036,0,0,0,.826-.615,3.641,3.641,0,0,0,.659-.791,2.275,2.275,0,0,0,.325-.9,1.644,1.644,0,0,0-.158-.932,2.487,2.487,0,0,0-.8-.9,6.323,6.323,0,0,0-1.6-.8,4.653,4.653,0,0,0-1.2.167,3.886,3.886,0,0,0-1.134.5,2.9,2.9,0,0,0-.844.844A2.1,2.1,0,0,0,9.475,20.273Zm14.625,1.6a.708.708,0,0,1,.255-.132,1.136,1.136,0,0,1,.255-.026.7.7,0,0,1,.316.079,1.39,1.39,0,0,1,.29.193q.132.114.272.22a1.537,1.537,0,0,0,.3.176q.457.193.729.316a4.311,4.311,0,0,0,.5.193,2.249,2.249,0,0,0,.527.088q.3.018.773.018.369,0,.9.009a4.624,4.624,0,0,0,1-.088,1.955,1.955,0,0,0,.809-.352.921.921,0,0,0,.334-.782,1.028,1.028,0,0,0-.272-.8,1.911,1.911,0,0,0-.782-.448,5.37,5.37,0,0,0-1.107-.22q-.615-.062-1.266-.132a12.836,12.836,0,0,1-1.274-.2,3.83,3.83,0,0,1-1.116-.413,2.175,2.175,0,0,1-.791-.773,2.523,2.523,0,0,1-.316-1.266,1.579,1.579,0,0,1,.554-.94,3.146,3.146,0,0,1,1.072-.58,4.464,4.464,0,0,1,1.327-.211,4.128,4.128,0,0,1,1.292.176,2.32,2.32,0,0,1,.984.589,1.441,1.441,0,0,1,.413,1,1.274,1.274,0,0,1-.053.58.762.762,0,0,1-.237.343.457.457,0,0,1-.308.105.316.316,0,0,1-.246-.123.506.506,0,0,1-.079-.334,1.285,1.285,0,0,1,.2-.554.785.785,0,0,0-.4-.527,2.369,2.369,0,0,0-.773-.272,3.548,3.548,0,0,0-.94-.035,3.885,3.885,0,0,0-.914.185,1.91,1.91,0,0,0-.668.369.59.59,0,0,0-.22.527,1.069,1.069,0,0,0,.308.817,2.068,2.068,0,0,0,.8.448,5.778,5.778,0,0,0,1.134.229q.642.07,1.318.132t1.31.176a4.031,4.031,0,0,1,1.143.378,2.122,2.122,0,0,1,.809.712,2.071,2.071,0,0,1,.3,1.169,1.58,1.58,0,0,1-.281.94,2.4,2.4,0,0,1-.712.659,3.248,3.248,0,0,1-.94.387,4.125,4.125,0,0,1-.967.123q-.457,0-.976-.009t-1.055-.062a10.069,10.069,0,0,1-1.081-.167,4.043,4.043,0,0,1-1.011-.352A3.277,3.277,0,0,1,24.7,22.8,2.774,2.774,0,0,1,24.1,21.873Zm9.3-2.584a5.6,5.6,0,0,1,.272-1.749,4.485,4.485,0,0,1,.791-1.468,3.881,3.881,0,0,1,1.266-1.011,3.786,3.786,0,0,1,1.731-.378A2.663,2.663,0,0,1,38.47,15a2.293,2.293,0,0,1,.7.606,2.342,2.342,0,0,1,.4.835,4.372,4.372,0,0,1,.105.984,1.9,1.9,0,0,1-.369,1.143,3.174,3.174,0,0,1-.932.853,4.878,4.878,0,0,1-1.213.527,4.458,4.458,0,0,1-1.213.185h-.431a1.057,1.057,0,0,1-.4-.07.64.64,0,0,1-.281-.211.7.7,0,0,1-.105-.422.379.379,0,0,1,.026-.149q.026-.062.149-.088a1.421,1.421,0,0,1,.369-.009q.246.035.668.105a2.323,2.323,0,0,0,.712-.167,6.73,6.73,0,0,0,.949-.431,3.778,3.778,0,0,0,.835-.606.972.972,0,0,0,.352-.677,2.183,2.183,0,0,0-.114-.694,1.781,1.781,0,0,0-.879-1.028,1.242,1.242,0,0,0-.694-.123,2.727,2.727,0,0,0-1.116.334,2.838,2.838,0,0,0-.853.729,3.488,3.488,0,0,0-.545.993,3.391,3.391,0,0,0-.193,1.143q0,.457.018.914a4.192,4.192,0,0,0,.132.9,2.985,2.985,0,0,0,.369.844,2.328,2.328,0,0,0,.738.712,4.483,4.483,0,0,0,1.222.51,8.625,8.625,0,0,0,1.828.255l3.146-.211a2.245,2.245,0,0,1-.712.633,4.536,4.536,0,0,1-.914.4,6.437,6.437,0,0,1-.958.22,6.13,6.13,0,0,1-.9.07,5.444,5.444,0,0,1-1.916-.334,4.994,4.994,0,0,1-1.582-.94,4.344,4.344,0,0,1-1.081-1.477A4.685,4.685,0,0,1,33.4,19.289Zm15.7,2.162A2.7,2.7,0,0,0,48.4,22q-.29.325-.589.615a3.433,3.433,0,0,1-.659.5,1.808,1.808,0,0,1-.923.211,2.385,2.385,0,0,1-1.143-.272,3.1,3.1,0,0,1-.905-.738,5.106,5.106,0,0,1-.686-1.055,7.653,7.653,0,0,1-.475-1.213,9.751,9.751,0,0,1-.281-1.23,7.037,7.037,0,0,1-.1-1.1,3.157,3.157,0,0,1,.053-1.485,1.218,1.218,0,0,1,.466-.686.341.341,0,0,1,.466.07.842.842,0,0,1,.053.765.7.7,0,0,0-.053.22q-.018.149-.035.308t-.035.3a1.871,1.871,0,0,0-.018.193,6.376,6.376,0,0,0,.07.87,8.354,8.354,0,0,0,.22,1.046,8.463,8.463,0,0,0,.378,1.081,4.584,4.584,0,0,0,.545.958,2.783,2.783,0,0,0,.729.686,1.649,1.649,0,0,0,.905.264A1.248,1.248,0,0,0,47.109,22a4.757,4.757,0,0,0,.765-.738,5.746,5.746,0,0,0,.615-.888,1.671,1.671,0,0,0,.255-.773q0-.176.009-.58t.009-.861q0-.457-.009-.861t-.009-.562a.987.987,0,0,1,.229-.272.469.469,0,0,1,.3-.1q.211,0,.352.281a2.9,2.9,0,0,1,.229.721,7.468,7.468,0,0,1,.123.949q.035.51.053.984t.035.835a2.584,2.584,0,0,0,.053.483,7.121,7.121,0,0,0,.255.791q.167.439.325.853t.281.756a1.7,1.7,0,0,1,.123.519q0,.264-.149.316a1.151,1.151,0,0,1-.378.053.542.542,0,0,1-.413-.141.852.852,0,0,1-.193-.36,3.524,3.524,0,0,1-.1-.483,3.936,3.936,0,0,0-.114-.545,2.114,2.114,0,0,0-.229-.527A1.149,1.149,0,0,0,49.1,21.451Zm9.545-5.889a12.509,12.509,0,0,0-.211-1.318,3.8,3.8,0,0,1-.114-.9.728.728,0,0,1,.22-.545,1.549,1.549,0,0,1,.791-.264q.035.176.088.668t.114,1.116q.062.624.141,1.3t.149,1.239a7.982,7.982,0,0,0,.158.914q.088.387.158.352a1.912,1.912,0,0,0,.624-.105,2.019,2.019,0,0,1,.659-.105,7.062,7.062,0,0,1,1.125.1,7.782,7.782,0,0,1,1.187.29,6.568,6.568,0,0,1,1.143.5,4.488,4.488,0,0,1,.967.712,3.166,3.166,0,0,1,.659.932,2.709,2.709,0,0,1,.246,1.16,1.978,1.978,0,0,1-.4,1.292,2.46,2.46,0,0,1-1.011.729A4.846,4.846,0,0,1,64,23.947q-.738.07-1.371.07a4.158,4.158,0,0,1-1.459-.22,2.523,2.523,0,0,1-.949-.606,2.64,2.64,0,0,1-.562-.9,5.274,5.274,0,0,1-.281-1.116q-.088-.606-.123-1.266t-.105-1.327q-.018-.123-.088-.554t-.167-.949q-.1-.519-.167-.958T58.641,15.563Zm1.688,4.605a1.99,1.99,0,0,0,.1,1.336,2.36,2.36,0,0,0,.791.923,3.215,3.215,0,0,0,1.2.5,3.85,3.85,0,0,0,1.345.044,3.183,3.183,0,0,0,1.2-.413,1.911,1.911,0,0,0,.809-.914,1.713,1.713,0,0,0-.22-.861,2.547,2.547,0,0,0-.571-.686,3.832,3.832,0,0,0-.8-.519,6.041,6.041,0,0,0-.914-.36,7.789,7.789,0,0,0-.923-.22,4.807,4.807,0,0,0-.809-.079,1.147,1.147,0,0,0-.888.334A1.3,1.3,0,0,0,60.328,20.168Zm7.084.246a3.28,3.28,0,0,1,.422-1.687,3.91,3.91,0,0,1,1.107-1.213,4.837,4.837,0,0,1,1.538-.729,6.365,6.365,0,0,1,1.714-.237,2.169,2.169,0,0,1,.853.167,3.173,3.173,0,0,1,.756.457,3.652,3.652,0,0,1,.642.668,5.219,5.219,0,0,1,.483.782,4.086,4.086,0,0,1,.308.817,3.229,3.229,0,0,1,.105.8,3.474,3.474,0,0,1-1.3,2.786,4.335,4.335,0,0,1-1.354.738,4.81,4.81,0,0,1-1.547.255,4.183,4.183,0,0,1-1.485-.255,3.62,3.62,0,0,1-1.178-.712,3.141,3.141,0,0,1-.782-1.134A3.88,3.88,0,0,1,67.412,20.414Zm.861-.141a2.769,2.769,0,0,0,.2,1.046,2.651,2.651,0,0,0,.563.87,2.737,2.737,0,0,0,.853.589,2.558,2.558,0,0,0,1.055.22,1.826,1.826,0,0,0,.729-.1,3.982,3.982,0,0,0,.861-.387,5.036,5.036,0,0,0,.826-.615,3.641,3.641,0,0,0,.659-.791,2.275,2.275,0,0,0,.325-.9,1.644,1.644,0,0,0-.158-.932,2.487,2.487,0,0,0-.8-.9,6.323,6.323,0,0,0-1.6-.8,4.653,4.653,0,0,0-1.2.167,3.886,3.886,0,0,0-1.134.5,2.9,2.9,0,0,0-.844.844A2.1,2.1,0,0,0,68.273,20.273Zm8.3,3.586a23.9,23.9,0,0,1-.22-2.487q-.044-1.239-.044-2.487t.035-2.479q.035-1.23.018-2.461a.2.2,0,0,1,.105-.193.544.544,0,0,1,.246-.053.4.4,0,0,1,.281.114,1.041,1.041,0,0,1,.211.281,1.581,1.581,0,0,1,.132.334,1.121,1.121,0,0,1,.044.272q.105,2.514.141,4.192t0,2.707a13.431,13.431,0,0,1-.114,1.521,1.761,1.761,0,0,1-.2.668.273.273,0,0,1-.29.141Zm1.74-1.986a.708.708,0,0,1,.255-.132,1.136,1.136,0,0,1,.255-.026.7.7,0,0,1,.316.079,1.39,1.39,0,0,1,.29.193q.132.114.272.22a1.537,1.537,0,0,0,.3.176q.457.193.729.316a4.311,4.311,0,0,0,.5.193,2.249,2.249,0,0,0,.527.088q.3.018.773.018.369,0,.9.009a4.624,4.624,0,0,0,1-.088,1.955,1.955,0,0,0,.809-.352.921.921,0,0,0,.334-.782,1.028,1.028,0,0,0-.272-.8,1.911,1.911,0,0,0-.782-.448,5.37,5.37,0,0,0-1.107-.22q-.615-.062-1.266-.132a12.836,12.836,0,0,1-1.274-.2,3.83,3.83,0,0,1-1.116-.413,2.175,2.175,0,0,1-.791-.773,2.523,2.523,0,0,1-.316-1.266,1.579,1.579,0,0,1,.554-.94,3.146,3.146,0,0,1,1.072-.58A4.464,4.464,0,0,1,81.6,15.8a4.128,4.128,0,0,1,1.292.176,2.32,2.32,0,0,1,.984.589,1.441,1.441,0,0,1,.413,1,1.274,1.274,0,0,1-.053.58.762.762,0,0,1-.237.343.457.457,0,0,1-.308.105.316.316,0,0,1-.246-.123.506.506,0,0,1-.079-.334,1.285,1.285,0,0,1,.2-.554.785.785,0,0,0-.4-.527,2.369,2.369,0,0,0-.773-.272,3.548,3.548,0,0,0-.94-.035,3.885,3.885,0,0,0-.914.185,1.91,1.91,0,0,0-.668.369.59.59,0,0,0-.22.527,1.069,1.069,0,0,0,.308.817,2.068,2.068,0,0,0,.8.448,5.778,5.778,0,0,0,1.134.229q.642.07,1.318.132t1.31.176a4.031,4.031,0,0,1,1.143.378,2.122,2.122,0,0,1,.809.712,2.071,2.071,0,0,1,.3,1.169,1.58,1.58,0,0,1-.281.94,2.4,2.4,0,0,1-.712.659,3.248,3.248,0,0,1-.94.387,4.125,4.125,0,0,1-.967.123q-.457,0-.976-.009t-1.055-.062a10.069,10.069,0,0,1-1.081-.167,4.043,4.043,0,0,1-1.011-.352,3.277,3.277,0,0,1-.835-.606A2.774,2.774,0,0,1,78.311,21.873Zm9.3-1.459a3.28,3.28,0,0,1,.422-1.687,3.91,3.91,0,0,1,1.107-1.213,4.837,4.837,0,0,1,1.538-.729,6.365,6.365,0,0,1,1.714-.237,2.169,2.169,0,0,1,.853.167,3.173,3.173,0,0,1,.756.457,3.652,3.652,0,0,1,.642.668,5.219,5.219,0,0,1,.483.782,4.086,4.086,0,0,1,.308.817,3.229,3.229,0,0,1,.105.8,3.474,3.474,0,0,1-1.3,2.786,4.335,4.335,0,0,1-1.354.738,4.81,4.81,0,0,1-1.547.255,4.183,4.183,0,0,1-1.485-.255,3.62,3.62,0,0,1-1.178-.712,3.141,3.141,0,0,1-.782-1.134A3.88,3.88,0,0,1,87.609,20.414Zm.861-.141a2.769,2.769,0,0,0,.2,1.046,2.651,2.651,0,0,0,.563.87,2.737,2.737,0,0,0,.853.589,2.558,2.558,0,0,0,1.055.22,1.826,1.826,0,0,0,.729-.1,3.982,3.982,0,0,0,.861-.387,5.036,5.036,0,0,0,.826-.615,3.641,3.641,0,0,0,.659-.791,2.275,2.275,0,0,0,.325-.9,1.644,1.644,0,0,0-.158-.932,2.487,2.487,0,0,0-.8-.9,6.323,6.323,0,0,0-1.6-.8,4.653,4.653,0,0,0-1.2.167,3.886,3.886,0,0,0-1.134.5,2.9,2.9,0,0,0-.844.844A2.1,2.1,0,0,0,88.471,20.273Zm8.367,2.039a1.262,1.262,0,0,1,.114-.422,5.584,5.584,0,0,1,.272-.571,3.533,3.533,0,0,1,.325-.5q.167-.211.29-.211a1.046,1.046,0,0,1,.615.185,1.49,1.49,0,0,1,.431.466,2.389,2.389,0,0,1,.255.615,2.431,2.431,0,0,1,.088.615,1.141,1.141,0,0,1-.123.475,2.388,2.388,0,0,1-.308.492,1.977,1.977,0,0,1-.413.387.8.8,0,0,1-.457.158.64.64,0,0,1-.457-.185,1.865,1.865,0,0,1-.343-.457,2.287,2.287,0,0,1-.22-.562A2.125,2.125,0,0,1,96.838,22.313Zm3.674,0a1.262,1.262,0,0,1,.114-.422,5.584,5.584,0,0,1,.272-.571,3.533,3.533,0,0,1,.325-.5q.167-.211.29-.211a1.046,1.046,0,0,1,.615.185,1.49,1.49,0,0,1,.431.466,2.389,2.389,0,0,1,.255.615,2.431,2.431,0,0,1,.088.615,1.141,1.141,0,0,1-.123.475,2.388,2.388,0,0,1-.308.492,1.977,1.977,0,0,1-.413.387A.8.8,0,0,1,101.6,24a.64.64,0,0,1-.457-.185,1.865,1.865,0,0,1-.343-.457,2.287,2.287,0,0,1-.22-.562A2.125,2.125,0,0,1,100.512,22.313Zm3.674,0a1.262,1.262,0,0,1,.114-.422,5.584,5.584,0,0,1,.272-.571,3.533,3.533,0,0,1,.325-.5q.167-.211.29-.211a1.046,1.046,0,0,1,.615.185,1.49,1.49,0,0,1,.431.466,2.389,2.389,0,0,1,.255.615,2.431,2.431,0,0,1,.088.615,1.141,1.141,0,0,1-.123.475,2.388,2.388,0,0,1-.308.492,1.977,1.977,0,0,1-.413.387.8.8,0,0,1-.457.158.64.64,0,0,1-.457-.185,1.865,1.865,0,0,1-.343-.457,2.287,2.287,0,0,1-.22-.562A2.125,2.125,0,0,1,104.186,22.313Z" transform="matrix(0.996, -0.087, 0.087, 0.996, 0.649, 21.688)" fill="#fff"></path></svg>