<svg xmlns="http://www.w3.org/2000/svg" xmlns:xlink="http://www.w3.org/1999/xlink" width="1920" height="466.5" viewBox="0 0 1920 466.5"><defs><linearGradient id="a" x1="-0.478" y1="-0.192" x2="0.856" y2="1.022" gradientUnits="objectBoundingBox"><stop offset="0" stop-color="#0074FF"/><stop offset="1" stop-color="#004798"/></linearGradient><clipPath id="b"><path d="M237.7,298.35s-1.729,36.349-4.683,45.359-5.173,75.211-5.308,78.459,8.79,13.215,12.823,15.2,2.3,2.734-1.912,3.335-9.207.282-11.56-3.089-7.356-4.009-7.356-4.009l-.208,7.711-1.41.086-1.692-9.5a10.028,10.028,0,0,1,.65-6.461c1.532-3.678-.355-6.755-1.165-19.137s-4.769-32.156-4.082-41.829,5.529-23.293,5-31.31-.87-28.564-.87-28.564Z" transform="translate(-211.715 -298.35)" fill="#fff" stroke="#263238" stroke-linecap="round" stroke-linejoin="round" stroke-width="1"/></clipPath><clipPath id="c"><path d="M226.195,297.12s-1.876,38.739-5.088,48.534-6.007,81.524-6.13,85.018,9.268,16.354,13.645,18.5,2.452,2.967-2.072,3.678-10,.306-12.553-3.359a27.264,27.264,0,0,0-7.356-6.473l-.221,8.373-1.532.1-1.827-10.335a10.862,10.862,0,0,1,.687-7.012c1.667-3.935-.294-7.552-1.226-21s-7-38-6.24-48.449,5.983-21.846,5.406-30.513-4.242-34.326-4.242-34.326Z" transform="translate(-196.216 -297.12)" fill="#fff" stroke="#263238" stroke-linecap="round" stroke-linejoin="round" stroke-width="1"/></clipPath><clipPath id="d"><path d="M268.813,261.43s-1.091-21.981-1.471-32.953c-.257-7.809-.736-17.506-2.378-21.086a11.146,11.146,0,0,0-1.079-2.207v-.1h0c-3-4.671-9.4-7.809-14.785-9.145-6.988-1.753-10.972-.748-10.972-.748s-12.259,1.226-22.447,6.73-10.224,17.948-8.729,26.97,5.737,27.669,5.737,28.417S198.972,271.531,192,288.228s2.991,70.429,2.991,70.429,6.485,4.242,24.935,4.242,28.674-7.687,28.674-7.687,6.485-49.527,5.235-68.223a276.5,276.5,0,0,0-2.991-28.2s.785-1.1,1.876-2.8a26.382,26.382,0,0,0,4.916,12.578c.834,1.054,2.636,3.531,4.9,6.657a21.491,21.491,0,0,1,9.709-5.431Z" transform="translate(-189.519 -194.906)" fill="#fff" stroke="#263238" stroke-linecap="round" stroke-linejoin="round" stroke-width="1"/></clipPath><clipPath id="e"><path d="M229.217,186.655s.257,6.743-1.986,10.224-2.991,4.99-2.991,10.224,8.41,24.518,12.394,22.3,1.312-15.312,1.814-19.8.5-6.743.5-6.743S231.718,183.48,229.217,186.655Z" transform="translate(-224.24 -186.303)" fill="#fff" stroke="#263238" stroke-linecap="round" stroke-linejoin="round" stroke-width="1"/></clipPath><clipPath id="f"><path d="M210.7,202.26s-9.734,3.3-8.079,15.263c.834,5.97,3.1,21.392,5.345,30.366s5.983,20.939,9.476,21.441,57.839-19.7,57.839-19.7,8.986,1.005,11.229-.245a16.514,16.514,0,0,0,5.235-5.983c.748-1.5-7.233-3.249-9.231-3.249s-9.513,4.242-10.739,4.7-43.643,5.983-44.636,5.983-3.764-24.433-5.983-32.413c-2.991-10.727-6.743-12.97-6.743-12.97" transform="translate(-202.435 -202.26)" fill="#fff" stroke="#263238" stroke-linecap="round" stroke-linejoin="round" stroke-width="1"/></clipPath><clipPath id="g"><path d="M229.742,181.8s-.5-5.443-3.678-3.96-3.212,8.165-1.483,9.893a5.725,5.725,0,0,0,3.678,1.729,22.336,22.336,0,0,0,2.722,9.4c2.452,3.947,6.669,11.867,11.622,10.384s13.841-14.343,15.827-20.522a98.553,98.553,0,0,0,2.967-15.827s-10.886,4.9-18.548,5.933A68.075,68.075,0,0,0,229.742,181.8Z" transform="translate(-223.438 -172.9)" fill="#fff" stroke="#263238" stroke-linecap="round" stroke-linejoin="round" stroke-width="1"/></clipPath><clipPath id="h"><path d="M285.177,243.832s-1.226,27.792-1.226,29.018-2.035,34.326-.809,41.265,3.261,15.128,4.487,17.58,4.5,4.487,4.5,1.63.4-13.485-.4-16.342a54.158,54.158,0,0,0-3.678-8.018s6.13-26.308,7.76-33.664,5.308-33.517,5.308-36.373-15.937-1.63-15.937-1.63Z" transform="translate(-282.75 -237.037)" fill="#fff" stroke="#263238" stroke-linecap="round" stroke-linejoin="round" stroke-width="1"/></clipPath><clipPath id="i"><path d="M297.808,196.51s-5.149,4.352-5.97,7.221S280.4,251.125,280.4,251.125l25.34,9.807,5.713-51.489S309.491,191.753,297.808,196.51Z" transform="translate(-280.4 -195.698)" fill="#fff" stroke="#263238" stroke-linecap="round" stroke-linejoin="round" stroke-width="1"/></clipPath><clipPath id="j"><path d="M320.124,190.154s-14.711,1.165-25.131,7.846c-2.17,1.4-.785,48.436-.785,58.379s-1.581,23.562-1.312,25.4,9.685,8.581,25.646,10.469,33.774-2.366,34.816-4.72.527-5.75.527-6.8,17.6-59.139,16.256-65.685-2.6-13.853-14.417-19.443C348.1,192,337.4,189.32,331.892,189.32A111.567,111.567,0,0,0,320.124,190.154Z" transform="translate(-292.865 -189.32)" fill="#fff" stroke="#263238" stroke-linecap="round" stroke-linejoin="round" stroke-width="1"/></clipPath><clipPath id="k"><path d="M312.94,185.821s-2.623,22.52-.27,24.874,7.074-4.72,11.033-7.858,9.17-11.033,9.685-15.447a75.757,75.757,0,0,0,.27-10.2s-8.116,11.254-12.259,11.254a18.389,18.389,0,0,1-8.459-2.623Z" transform="translate(-311.69 -177.19)" fill="#fff" stroke="#263238" stroke-linecap="round" stroke-linejoin="round" stroke-width="1"/></clipPath><clipPath id="l"><path d="M307.081,161.808s-.527,15.582,1.581,21.662,7.662,15.324,15.067,13.215,12.946-17.163,12.946-17.163,6.865-3.175,8.189-7.932a18.266,18.266,0,0,0-.257-9.513s-14.539-4.487-22.2-3.96a48.044,48.044,0,0,0-14.27,3.433Z" transform="translate(-307.022 -158.075)" fill="#fff" stroke="#263238" stroke-linecap="round" stroke-linejoin="round" stroke-width="1"/></clipPath><clipPath id="m"><path d="M337.034,216.521l-4.9,44.869s9.562,4.156,15.692,5.21a60.131,60.131,0,0,0,10.592.919s4.634-36.165,4.34-45.6-1.569-18.254-6.681-19.615" transform="translate(-332.13 -202.3)" fill="#fff" stroke="#263238" stroke-linecap="round" stroke-linejoin="round" stroke-width="1"/></clipPath></defs><g transform="translate(0 -1814.5)"><rect width="1920" height="136" transform="translate(0 2145)" fill="#ffd4c5"/><g transform="translate(271.927 1712.52)"><g transform="translate(59.8 102.48)"><rect width="149.636" height="214.782" transform="translate(279.965)" fill="#004798" stroke="#263238" stroke-linecap="round" stroke-linejoin="round" stroke-width="1"/><rect width="134.067" height="197.815" transform="translate(287.749 8.483)" fill="#fff" stroke="#263238" stroke-linecap="round" stroke-linejoin="round" stroke-width="1"/><rect width="8.434" height="197.815" transform="translate(350.566 8.483)" fill="none" stroke="#263238" stroke-linecap="round" stroke-linejoin="round" stroke-width="1"/><rect width="146.583" height="320.516" transform="translate(229.822 330.129) rotate(180)" stroke="#263238" stroke-miterlimit="10" stroke-width="1" fill="url(#a)"/><path d="M285.033,102.48V432.609h-9.1V112.116H129.672V432.609h-10.1V102.48Z" transform="translate(-46.296 -102.48)" fill="#004798" stroke="#263238" stroke-miterlimit="10" stroke-width="1"/><rect width="114.416" height="287.332" transform="translate(214.684 309.975) rotate(180)" fill="none" stroke="#263238" stroke-miterlimit="10" stroke-width="1"/><rect width="89.063" height="89.713" transform="translate(202.008 289.833) rotate(180)" fill="none" stroke="#263238" stroke-miterlimit="10" stroke-width="1"/><rect width="33.799" height="142.367" transform="translate(168.209 44.097)" fill="none" stroke="#263238" stroke-linecap="round" stroke-linejoin="round" stroke-width="1"/><rect width="33.799" height="142.367" transform="translate(112.957 44.097)" fill="none" stroke="#263238" stroke-linecap="round" stroke-linejoin="round" stroke-width="1"/><rect width="11.818" height="4.401" transform="translate(95.596 150.764) rotate(180)" fill="#263238" stroke="#263238" stroke-linecap="round" stroke-linejoin="round" stroke-width="1"/><rect width="11.818" height="4.401" transform="translate(95.596 212.575) rotate(180)" fill="#263238" stroke="#263238" stroke-linecap="round" stroke-linejoin="round" stroke-width="1"/><path d="M141.159,306.26h0a1.949,1.949,0,0,0,1.949-1.949V212a1.949,1.949,0,0,0-1.949-2h0a1.949,1.949,0,0,0-1.949,1.949v92.312a1.949,1.949,0,0,0,1.949,2Z" transform="translate(-45.859 -78.189)" fill="#263238" stroke="#263238" stroke-linecap="round" stroke-linejoin="round" stroke-width="1"/></g><g transform="translate(232.8 418.888)"><rect width="110.971" height="94.335" transform="translate(0 4.904)" fill="#ff9100" stroke="#263238" stroke-linecap="round" stroke-linejoin="round" stroke-width="1"/><rect width="19.59" height="16.673" transform="translate(45.69 4.904)" fill="#fff" stroke="#263238" stroke-linecap="round" stroke-linejoin="round" stroke-width="0.5"/><rect width="19.59" height="16.673" transform="translate(45.69 82.566)" fill="#fff" stroke="#263238" stroke-linecap="round" stroke-linejoin="round" stroke-width="0.5"/><path d="M275.92,334.484l17.7-4.9v82.7l-17.7,16.538Z" transform="translate(-164.949 -329.58)" fill="#ff9100" stroke="#263238" stroke-linecap="round" stroke-linejoin="round" stroke-width="1"/><path d="M314.073,329.58H198.836l-13.436,4.9H296.371Z" transform="translate(-185.4 -329.58)" fill="#ff9100" stroke="#263238" stroke-linecap="round" stroke-linejoin="round" stroke-width="1"/><line x2="115.568" transform="translate(8.373 1.802)" fill="none" stroke="#263238" stroke-linecap="round" stroke-linejoin="round" stroke-width="0.5"/><path d="M242.26,334.472l16.624-4.842H236.008l-13.338,4.842Z" transform="translate(-176.98 -329.569)" fill="#fff" stroke="#263238" stroke-linecap="round" stroke-linejoin="round" stroke-width="0.5"/></g><g transform="translate(360.178 164.625)"><path d="M237.7,298.35s-1.729,36.349-4.683,45.359-5.173,75.211-5.308,78.459,8.79,13.215,12.823,15.2,2.3,2.734-1.912,3.335-9.207.282-11.56-3.089-7.356-4.009-7.356-4.009l-.208,7.711-1.41.086-1.692-9.5a10.028,10.028,0,0,1,.65-6.461c1.532-3.678-.355-6.755-1.165-19.137s-4.769-32.156-4.082-41.829,5.529-23.293,5-31.31-.87-28.564-.87-28.564Z" transform="translate(-166.856 -120.373)" fill="#fff"/><g transform="translate(44.859 177.977)" clip-path="url(#b)"><path d="M225.673,345.622c2.452-.87,5.394-1.863,7.539-2.562,2.832-9.967,4.487-44.709,4.487-44.709l-21.772,6.24s.343,20.583.87,28.564-4.3,21.65-5,31.31,3.273,29.422,4.082,41.829,2.7,15.508,1.165,19.137a9.589,9.589,0,0,0-.5,1.434,8.913,8.913,0,0,0,2.268-2.8c1.839-3.96,3.053-24.764.772-37.709s1.9-39.23,1.9-39.23Z" transform="translate(-211.716 -298.35)" fill="#ff9100"/><path d="M225.673,345.622c2.452-.87,5.394-1.863,7.539-2.562,2.832-9.967,4.487-44.709,4.487-44.709l-21.772,6.24s.343,20.583.87,28.564-4.3,21.65-5,31.31,3.273,29.422,4.082,41.829,2.7,15.508,1.165,19.137a9.589,9.589,0,0,0-.5,1.434,8.913,8.913,0,0,0,2.268-2.8c1.839-3.96,3.053-24.764.772-37.709s1.9-39.23,1.9-39.23Z" transform="translate(-211.716 -298.35)" fill="#fff" opacity="0.5"/></g><path d="M237.7,298.35s-1.729,36.349-4.683,45.359-5.173,75.211-5.308,78.459,8.79,13.215,12.823,15.2,2.3,2.734-1.912,3.335-9.207.282-11.56-3.089-7.356-4.009-7.356-4.009l-.208,7.711-1.41.086-1.692-9.5a10.028,10.028,0,0,1,.65-6.461c1.532-3.678-.355-6.755-1.165-19.137s-4.769-32.156-4.082-41.829,5.529-23.293,5-31.31-.87-28.564-.87-28.564Z" transform="translate(-166.856 -120.373)" fill="none" stroke="#263238" stroke-linecap="round" stroke-linejoin="round" stroke-width="1"/><path d="M215.576,408.174a9.672,9.672,0,0,1,.135-4.9c2.452,3.212,8.974,7.356,13.963,8.827a19.358,19.358,0,0,0,8.422.723c.6.343,1.152.638,1.618.87,4.033,1.974,2.3,2.734-1.912,3.335s-9.207.282-11.56-3.089-7.356-4.009-7.356-4.009l-.208,7.711-1.41.086Z" transform="translate(-166.041 -96.669)" fill="#263238" stroke="#263238" stroke-linecap="round" stroke-linejoin="round" stroke-width="1"/><path d="M226.195,297.12s-1.876,38.739-5.088,48.534-6.007,81.524-6.13,85.018,9.268,16.354,13.645,18.5,2.452,2.967-2.072,3.678-10,.306-12.553-3.359a27.264,27.264,0,0,0-7.356-6.473l-.221,8.373-1.532.1-1.827-10.335a10.862,10.862,0,0,1,.687-7.012c1.667-3.935-.294-7.552-1.226-21s-7-38-6.24-48.449,5.983-21.846,5.406-30.513-4.242-34.326-4.242-34.326Z" transform="translate(-170.358 -120.651)" fill="#fff"/><g transform="translate(25.858 176.469)" clip-path="url(#c)"><path d="M220.72,343.275c.123-.552.257-1.042.38-1.422,1.042-3.2,1.949-9.464,2.7-16.464l-3.016-11.033s-14.356-.809-20.841-.147c.8,6.289,1.545,12.639,1.778,16.17.576,8.667-4.659,20.019-5.406,30.513s5.357,35.012,6.24,48.449,2.844,17.065,1.226,21a11.634,11.634,0,0,0-.87,6.13c.944-5.884,2.758-10.837,2.758-18.205,0-8.753-2.673-32.744-3.813-45.359s3.813-28.552,3.813-28.552a55.987,55.987,0,0,0,10.653-.38,40.972,40.972,0,0,0,4.4-.7Z" transform="translate(-196.209 -293.318)" fill="#ff9100"/><path d="M220.72,343.275c.123-.552.257-1.042.38-1.422,1.042-3.2,1.949-9.464,2.7-16.464l-3.016-11.033s-14.356-.809-20.841-.147c.8,6.289,1.545,12.639,1.778,16.17.576,8.667-4.659,20.019-5.406,30.513s5.357,35.012,6.24,48.449,2.844,17.065,1.226,21a11.634,11.634,0,0,0-.87,6.13c.944-5.884,2.758-10.837,2.758-18.205,0-8.753-2.673-32.744-3.813-45.359s3.813-28.552,3.813-28.552a55.987,55.987,0,0,0,10.653-.38,40.972,40.972,0,0,0,4.4-.7Z" transform="translate(-196.209 -293.318)" fill="#fff" opacity="0.5"/></g><path d="M226.195,297.12s-1.876,38.739-5.088,48.534-6.007,81.524-6.13,85.018,9.268,16.354,13.645,18.5,2.452,2.967-2.072,3.678-10,.306-12.553-3.359a27.264,27.264,0,0,0-7.356-6.473l-.221,8.373-1.532.1-1.827-10.335a10.862,10.862,0,0,1,.687-7.012c1.667-3.935-.294-7.552-1.226-21s-7-38-6.24-48.449,5.983-21.846,5.406-30.513-4.242-34.326-4.242-34.326Z" transform="translate(-170.358 -120.651)" fill="none" stroke="#263238" stroke-linecap="round" stroke-linejoin="round" stroke-width="1"/><path d="M201.794,415.55a10.347,10.347,0,0,1,.135-5.37c2.623,3.494,9.133,10.1,14.552,11.72a20.953,20.953,0,0,0,9.145.785c.662.368,1.226.7,1.765.944,4.377,2.145,2.452,2.967-2.072,3.678s-10,.306-12.553-3.359a27.264,27.264,0,0,0-7.356-6.473l-.221,8.373-1.532.1Z" transform="translate(-169.164 -95.108)" fill="#263238" stroke="#263238" stroke-linecap="round" stroke-linejoin="round" stroke-width="1"/><path d="M265.163,191.247s4.082,6.13,11.107-1.165,0-19.3-10.531-28.662-27.485-13.485-37.133,2.636-8.189,26.026-13.485,34.51-27.755,31.286-36.471,51.17-1.226,42.993,21.932,46.794,38-27.191,36.839-40.934,7.025-42.993,11.119-50.018S265.163,191.247,265.163,191.247Z" transform="translate(-175.123 -153.172)" fill="#263238" stroke="#263238" stroke-linecap="round" stroke-linejoin="round" stroke-width="1"/><path d="M259.323,167.46s-7.772,4.45-23.881,7.221-26.112,15.508-26.112,15.508" transform="translate(-167.395 -149.944)" fill="none" stroke="#fff" stroke-linecap="round" stroke-linejoin="round" stroke-width="1"/><path d="M187.688,284.872s-14.441-8.324-4.438-28.331c13.485-26.97,56.1-72.771,56.1-72.771" transform="translate(-174.085 -146.259)" fill="none" stroke="#fff" stroke-linecap="round" stroke-linejoin="round" stroke-width="1"/><path d="M292.093,309.044c-1.226-3.151-6.424-8.483-7.27-9.66s-16.011-38-16.011-38-1.091-21.981-1.471-32.953c-.257-7.809-.736-17.506-2.378-21.086a11.144,11.144,0,0,0-1.079-2.207v-.1h0c-3-4.671-9.4-7.809-14.785-9.145-6.988-1.753-10.972-.748-10.972-.748s-12.259,1.226-22.447,6.73-10.224,17.948-8.729,26.97,5.737,27.669,5.737,28.417S198.972,271.481,192,288.178s2.991,70.429,2.991,70.429,6.485,4.242,24.935,4.242,28.674-7.687,28.674-7.687,6.485-49.527,5.235-68.223a276.485,276.485,0,0,0-2.991-28.2s.785-1.1,1.876-2.8a26.382,26.382,0,0,0,4.916,12.639c3.335,4.229,22.5,31.445,22.5,31.445a36.265,36.265,0,0,1,.944,5.676c.245,2.979,3,6.264,3,6.264s-.748,6.3,0,6.743,1.8-2.391,1.8-2.391-.944,3.825.8,3.678,1.888-1.4,1.888-1.4-.49,3.285.736,2.942a4.389,4.389,0,0,0,2.1-1.912s1.765,3.359,2.329,1.067S293.344,312.219,292.093,309.044Z" transform="translate(-171.871 -143.755)" fill="#fff" stroke="#263238" stroke-linecap="round" stroke-linejoin="round" stroke-width="1"/><path d="M268.813,261.43s-1.091-21.981-1.471-32.953c-.257-7.809-.736-17.506-2.378-21.086a11.146,11.146,0,0,0-1.079-2.207v-.1h0c-3-4.671-9.4-7.809-14.785-9.145-6.988-1.753-10.972-.748-10.972-.748s-12.259,1.226-22.447,6.73-10.224,17.948-8.729,26.97,5.737,27.669,5.737,28.417S198.972,271.531,192,288.228s2.991,70.429,2.991,70.429,6.485,4.242,24.935,4.242,28.674-7.687,28.674-7.687,6.485-49.527,5.235-68.223a276.5,276.5,0,0,0-2.991-28.2s.785-1.1,1.876-2.8a26.382,26.382,0,0,0,4.916,12.578c.834,1.054,2.636,3.531,4.9,6.657a21.491,21.491,0,0,1,9.709-5.431Z" transform="translate(-171.871 -143.743)" fill="#fff"/><g transform="translate(17.647 51.163)" clip-path="url(#d)"><path d="M232.12,203.729l11.5-8.716a18.621,18.621,0,0,0-5.541.184s-12.259,1.226-22.447,6.73-10.224,17.948-8.729,26.97,5.737,27.669,5.737,28.417-13.718,14.221-20.694,30.918,2.991,70.429,2.991,70.429,3.42,2.231,12.333,3.445c-2.133-12.725-8.581-52.948-6.89-65.6,2-15.128,20.265-33,20.265-38.96S211.9,221.8,214.688,214.64,232.12,203.729,232.12,203.729Z" transform="translate(-189.53 -194.91)" fill="#ff9100"/><path d="M232.12,203.729l11.5-8.716a18.621,18.621,0,0,0-5.541.184s-12.259,1.226-22.447,6.73-10.224,17.948-8.729,26.97,5.737,27.669,5.737,28.417-13.718,14.221-20.694,30.918,2.991,70.429,2.991,70.429,3.42,2.231,12.333,3.445c-2.133-12.725-8.581-52.948-6.89-65.6,2-15.128,20.265-33,20.265-38.96S211.9,221.8,214.688,214.64,232.12,203.729,232.12,203.729Z" transform="translate(-189.53 -194.91)" fill="#fff" opacity="0.5"/><path d="M236.724,279.24s-4.095,23.415-12.884,35.123" transform="translate(-181.765 -175.853)" fill="none" stroke="#263238" stroke-linecap="round" stroke-linejoin="round" stroke-width="1"/></g><path d="M268.813,261.43s-1.091-21.981-1.471-32.953c-.257-7.809-.736-17.506-2.378-21.086a11.146,11.146,0,0,0-1.079-2.207v-.1h0c-3-4.671-9.4-7.809-14.785-9.145-6.988-1.753-10.972-.748-10.972-.748s-12.259,1.226-22.447,6.73-10.224,17.948-8.729,26.97,5.737,27.669,5.737,28.417S198.972,271.531,192,288.228s2.991,70.429,2.991,70.429,6.485,4.242,24.935,4.242,28.674-7.687,28.674-7.687,6.485-49.527,5.235-68.223a276.5,276.5,0,0,0-2.991-28.2s.785-1.1,1.876-2.8a26.382,26.382,0,0,0,4.916,12.578c.834,1.054,2.636,3.531,4.9,6.657a21.491,21.491,0,0,1,9.709-5.431Z" transform="translate(-171.871 -143.743)" fill="none" stroke="#263238" stroke-linecap="round" stroke-linejoin="round" stroke-width="1"/><line y1="3.2" x2="0.564" transform="translate(114.044 169.359)" fill="none" stroke="#263238" stroke-linecap="round" stroke-linejoin="round" stroke-width="1"/><line y1="3.653" x2="0.282" transform="translate(116.728 171.185)" fill="none" stroke="#263238" stroke-linecap="round" stroke-linejoin="round" stroke-width="1"/><line x1="0.098" y1="4.254" transform="translate(119.462 171.615)" fill="none" stroke="#263238" stroke-linecap="round" stroke-linejoin="round" stroke-width="1"/><path d="M266.7,285.89a5.431,5.431,0,0,0,2.06,3.837l1.827,1.1s1.349,7.356,3.249,6.24.895-7.576-1.385-11.144" transform="translate(-154.434 -123.188)" fill="#fff" stroke="#263238" stroke-linecap="round" stroke-linejoin="round" stroke-width="1"/><path d="M229.217,186.655s.257,6.743-1.986,10.224-2.991,4.99-2.991,10.224,8.41,24.518,12.394,22.3,1.312-15.312,1.814-19.8.5-6.743.5-6.743S231.718,183.48,229.217,186.655Z" transform="translate(-164.027 -145.687)" fill="#fff"/><g transform="translate(60.213 40.616)" clip-path="url(#e)"><path d="M224.26,205.671l14.613-.932a18.609,18.609,0,0,1,.074-1.876s-7.233-19.443-9.734-16.207c0,0,.257,6.743-1.986,10.224C225.167,200.032,224.395,201.564,224.26,205.671Z" transform="translate(-224.235 -186.305)" fill="#ff9100"/><path d="M224.26,205.671l14.613-.932a18.609,18.609,0,0,1,.074-1.876s-7.233-19.443-9.734-16.207c0,0,.257,6.743-1.986,10.224C225.167,200.032,224.395,201.564,224.26,205.671Z" transform="translate(-224.235 -186.305)" fill="#fff" opacity="0.5"/></g><path d="M229.217,186.655s.257,6.743-1.986,10.224-2.991,4.99-2.991,10.224,8.41,24.518,12.394,22.3,1.312-15.312,1.814-19.8.5-6.743.5-6.743S231.718,183.48,229.217,186.655Z" transform="translate(-164.027 -145.687)" fill="none" stroke="#263238" stroke-linecap="round" stroke-linejoin="round" stroke-width="1"/><path d="M265.3,226.6l9.391,16.207,2.452,1.226-.5-2.746L267.19,225.44a1.14,1.14,0,0,0-1.471-.429h0a1.128,1.128,0,0,0-.417,1.594Z" transform="translate(-154.789 -136.968)" fill="#fff" stroke="#263238" stroke-linecap="round" stroke-linejoin="round" stroke-width="1"/><path d="M210.7,202.26s-9.734,3.3-8.079,15.263c.834,5.97,3.1,21.392,5.345,30.366s5.983,20.939,9.476,21.441,57.839-19.7,57.839-19.7,8.986,1.005,11.229-.245a16.514,16.514,0,0,0,5.235-5.983c.748-1.5-7.233-3.249-9.231-3.249s-9.513,4.242-10.739,4.7-43.643,5.983-44.636,5.983-3.764-24.433-5.983-32.413c-2.991-10.727-6.743-12.97-6.743-12.97" transform="translate(-168.953 -142.082)" fill="#fff"/><g transform="translate(33.482 60.178)" clip-path="url(#f)"><path d="M222.857,263.029c-6.35-1.226-3.175-5.958-1.594-8.729s-5.9,2.807-5.9,1.581-5.553-27.4-5.958-35.748a13.056,13.056,0,0,1,6.755-11.916l-.466-1.594a6.264,6.264,0,0,0-1.226-1.128l-3.678-3.236s-9.734,3.3-8.079,15.263c.834,5.97,3.1,21.392,5.345,30.366s5.983,20.939,9.476,21.441c1.618.233,14.294-4.033,27.375-8.655C236.845,262.134,226.559,263.728,222.857,263.029Z" transform="translate(-202.415 -202.26)" fill="#ff9100"/><path d="M222.857,263.029c-6.35-1.226-3.175-5.958-1.594-8.729s-5.9,2.807-5.9,1.581-5.553-27.4-5.958-35.748a13.056,13.056,0,0,1,6.755-11.916l-.466-1.594a6.264,6.264,0,0,0-1.226-1.128l-3.678-3.236s-9.734,3.3-8.079,15.263c.834,5.97,3.1,21.392,5.345,30.366s5.983,20.939,9.476,21.441c1.618.233,14.294-4.033,27.375-8.655C236.845,262.134,226.559,263.728,222.857,263.029Z" transform="translate(-202.415 -202.26)" fill="#fff" opacity="0.5"/></g><path d="M210.7,202.26s-9.734,3.3-8.079,15.263c.834,5.97,3.1,21.392,5.345,30.366s5.983,20.939,9.476,21.441,57.839-19.7,57.839-19.7,8.986,1.005,11.229-.245a16.514,16.514,0,0,0,5.235-5.983c.748-1.5-7.233-3.249-9.231-3.249s-9.513,4.242-10.739,4.7-43.643,5.983-44.636,5.983-3.764-24.433-5.983-32.413c-2.991-10.727-6.743-12.97-6.743-12.97" transform="translate(-168.953 -142.082)" fill="none" stroke="#263238" stroke-linecap="round" stroke-linejoin="round" stroke-width="1"/><path d="M275.026,233.17c-1.986,0-9.476,4.242-10.715,4.744-.748.294-15.937,2.342-28.466,3.972-.49,3.114-.527,7.858,2.7,11.377,14.589-5.161,29.251-10.617,29.251-10.617s8.986,1.005,11.229-.245a16.514,16.514,0,0,0,5.235-5.983C285,234.923,277.024,233.17,275.026,233.17Z" transform="translate(-161.46 -135.099)" fill="#fff" stroke="#263238" stroke-linecap="round" stroke-linejoin="round" stroke-width="1"/><path d="M241.18,244.991a21.65,21.65,0,0,0,6.988-12.627,149.41,149.41,0,0,0,.858-18.744" transform="translate(-160.2 -139.516)" fill="none" stroke="#263238" stroke-linecap="round" stroke-linejoin="round" stroke-width="1"/><path d="M229.742,181.8s-.5-5.443-3.678-3.96-3.212,8.165-1.483,9.893a5.725,5.725,0,0,0,3.678,1.729,22.336,22.336,0,0,0,2.722,9.4c2.452,3.947,6.669,11.867,11.622,10.384s13.841-14.343,15.827-20.522a98.553,98.553,0,0,0,2.967-15.827s-10.886,4.9-18.548,5.933A68.075,68.075,0,0,0,229.742,181.8Z" transform="translate(-164.208 -148.715)" fill="#fff"/><g transform="translate(59.231 24.185)" clip-path="url(#g)"><path d="M229.742,181.8s-.5-5.443-3.678-3.96-3.212,8.165-1.483,9.893a5.725,5.725,0,0,0,3.678,1.729,22.336,22.336,0,0,0,2.722,9.4c1.52,2.452,3.678,6.35,6.289,8.667-3.384-4.217-4.744-14.429-3.678-19.223s2.452-4.487,9.673-6.215,18.168-9.194,18.168-9.194-10.886,4.9-18.548,5.933A68.077,68.077,0,0,0,229.742,181.8Z" transform="translate(-223.438 -172.9)" fill="#ff9100"/><path d="M229.742,181.8s-.5-5.443-3.678-3.96-3.212,8.165-1.483,9.893a5.725,5.725,0,0,0,3.678,1.729,22.336,22.336,0,0,0,2.722,9.4c1.52,2.452,3.678,6.35,6.289,8.667-3.384-4.217-4.744-14.429-3.678-19.223s2.452-4.487,9.673-6.215,18.168-9.194,18.168-9.194-10.886,4.9-18.548,5.933A68.077,68.077,0,0,0,229.742,181.8Z" transform="translate(-223.438 -172.9)" fill="#fff" opacity="0.5"/></g><path d="M229.742,181.8s-.5-5.443-3.678-3.96-3.212,8.165-1.483,9.893a5.725,5.725,0,0,0,3.678,1.729,22.336,22.336,0,0,0,2.722,9.4c2.452,3.947,6.669,11.867,11.622,10.384s13.841-14.343,15.827-20.522a98.553,98.553,0,0,0,2.967-15.827s-10.886,4.9-18.548,5.933A68.075,68.075,0,0,0,229.742,181.8Z" transform="translate(-164.208 -148.715)" fill="none" stroke="#263238" stroke-linecap="round" stroke-linejoin="round" stroke-width="1"/><path d="M241.79,194.165s3.813,1.532,4.732.919,0-2.1.441-4.842a5.664,5.664,0,0,1,2.3-3.862" transform="translate(-160.062 -145.67)" fill="none" stroke="#263238" stroke-linecap="round" stroke-linejoin="round" stroke-width="1"/><path d="M241.557,185.77l-.576,1.912a2.562,2.562,0,0,1-3.261-.956" transform="translate(-160.981 -145.807)" fill="none" stroke="#263238" stroke-linecap="round" stroke-linejoin="round" stroke-width="1"/><path d="M250.307,188.68l-.576,1.925a2.574,2.574,0,0,1-3.261-.968" transform="translate(-159.004 -145.15)" fill="none" stroke="#263238" stroke-linecap="round" stroke-linejoin="round" stroke-width="1"/><path d="M237.72,194.53a5.566,5.566,0,0,0,4.217,2.121" transform="translate(-160.981 -143.828)" fill="none" stroke="#263238" stroke-linecap="round" stroke-linejoin="round" stroke-width="1"/><path d="M244.748,183.96a7.356,7.356,0,0,0-6.718-2.881" transform="translate(-160.911 -146.878)" fill="none" stroke="#263238" stroke-linecap="round" stroke-linejoin="round" stroke-width="1"/><path d="M248.83,185.943a2.685,2.685,0,0,1,3.065,1.532" transform="translate(-158.471 -145.784)" fill="none" stroke="#263238" stroke-linecap="round" stroke-linejoin="round" stroke-width="1"/></g><g transform="translate(459.8 147.447)"><path d="M285.177,243.832s-1.226,27.792-1.226,29.018-2.035,34.326-.809,41.265,3.261,15.128,4.487,17.58,4.5,4.487,4.5,1.63.4-13.485-.4-16.342a54.158,54.158,0,0,0-3.678-8.018s6.13-26.308,7.76-33.664,5.308-33.517,5.308-36.373-15.937-1.63-15.937-1.63Z" transform="translate(-251.232 -117.048)" fill="#fff"/><g transform="translate(31.518 119.989)" clip-path="url(#h)"><path d="M285.177,243.832s-1.226,27.792-1.226,29.018-2.035,34.326-.809,41.265,3.261,15.128,4.487,17.58,4.5,4.487,4.5,1.63.4-13.485-.4-16.342a54.158,54.158,0,0,0-3.678-8.018s6.13-26.308,7.76-33.664,5.308-33.517,5.308-36.373-15.937-1.63-15.937-1.63Z" transform="translate(-282.75 -237.037)" fill="#ff9100"/><path d="M285.177,243.832s-1.226,27.792-1.226,29.018-2.035,34.326-.809,41.265,3.261,15.128,4.487,17.58,4.5,4.487,4.5,1.63.4-13.485-.4-16.342a54.158,54.158,0,0,0-3.678-8.018s6.13-26.308,7.76-33.664,5.308-33.517,5.308-36.373-15.937-1.63-15.937-1.63Z" transform="translate(-282.75 -237.037)" fill="#fff" opacity="0.5"/></g><path d="M285.177,243.832s-1.226,27.792-1.226,29.018-2.035,34.326-.809,41.265,3.261,15.128,4.487,17.58,4.5,4.487,4.5,1.63.4-13.485-.4-16.342a54.158,54.158,0,0,0-3.678-8.018s6.13-26.308,7.76-33.664,5.308-33.517,5.308-36.373-15.937-1.63-15.937-1.63Z" transform="translate(-251.232 -117.048)" fill="none" stroke="#263238" stroke-linecap="round" stroke-linejoin="round" stroke-width="1"/><path d="M287.27,306.886s2.268,5.284,3.016,7.049,4.033,4.021,4.033,2.011-2.452-6.534-2.452-6.534a17.543,17.543,0,0,0-2.023-8.581" transform="translate(-250.21 -102.635)" fill="none" stroke="#263238" stroke-linecap="round" stroke-linejoin="round" stroke-width="1"/><path d="M295.32,160.905s-2.636,1.581,3.175,3.163,17.163,1.054,18.229,0,0-2.636-4.229-3.678S297.7,159.581,295.32,160.905Z" transform="translate(-248.526 -134.511)" fill="#263238" stroke="#263238" stroke-linecap="round" stroke-linejoin="round" stroke-width="1"/><path d="M303.731,408.771s-11.536,3.678-16.072,6.6,0,4.119,6.13,4.119,12.161-2.06,14.638-2.268,7.417-.417,5.97-6.6S303.731,408.771,303.731,408.771Z" transform="translate(-250.538 -78.581)" fill="#fff" stroke="#263238" stroke-linecap="round" stroke-linejoin="round" stroke-width="1"/><path d="M334.449,415.027s-12.161,11.732-13.191,15.655,6.13,3.494,11.744-.625,9.268-10.089,9.893-12.97S338.188,411.521,334.449,415.027Z" transform="translate(-242.554 -77.211)" fill="#fff" stroke="#263238" stroke-linecap="round" stroke-linejoin="round" stroke-width="1"/><path d="M297.808,196.51s-5.149,4.352-5.97,7.221S280.4,251.125,280.4,251.125l25.34,9.807,5.713-51.489S309.491,191.753,297.808,196.51Z" transform="translate(-251.762 -126.387)" fill="#fff"/><g transform="translate(28.638 69.31)" clip-path="url(#i)"><path d="M297.808,196.51s-5.149,4.352-5.97,7.221S280.4,251.125,280.4,251.125l25.34,9.807,5.713-51.489S309.491,191.753,297.808,196.51Z" transform="translate(-280.4 -195.698)" fill="#ff9100"/><path d="M297.808,196.51s-5.149,4.352-5.97,7.221S280.4,251.125,280.4,251.125l25.34,9.807,5.713-51.489S309.491,191.753,297.808,196.51Z" transform="translate(-280.4 -195.698)" fill="#fff" opacity="0.5"/></g><path d="M297.808,196.51s-5.149,4.352-5.97,7.221S280.4,251.125,280.4,251.125l25.34,9.807,5.713-51.489S309.491,191.753,297.808,196.51Z" transform="translate(-251.762 -126.387)" fill="none" stroke="#263238" stroke-linecap="round" stroke-linejoin="round" stroke-width="1"/><path d="M295.6,263.58s-3.678,27.375-4.487,44.955.809,41.265,1.63,53.524,9.6,70.65,9.6,71.631-1.961,2.942-1.961,4.254a20.621,20.621,0,0,0,.981,4.242,39.9,39.9,0,0,1,6.215,1.643,9.1,9.1,0,0,0,6.534,0s0-13.412,1.643-19.946,6.007-78.57,6.007-78.57v-8.581s6.13,42.086,8.165,55.571,7.356,38.408,8.581,42.086a15.765,15.765,0,0,1,.821,6.546v4.487l1.226,5.725s1.63,2.856,4.5,2.856a11.6,11.6,0,0,0,5.713-2.035s2.869-23.709,3.678-31.065,1.226-36.361.417-39.23a101.749,101.749,0,0,1-1.643-11.033s3.273-49.037,1.643-60.475-2.452-40.86-2.452-40.86S316.438,277.887,295.6,263.58Z" transform="translate(-249.392 -111.051)" fill="#263238" stroke="#263238" stroke-linecap="round" stroke-linejoin="round" stroke-width="1"/><path d="M317.877,330.1l-4.095-31.47-5.713-5.713" transform="translate(-245.511 -104.422)" fill="none" stroke="#fff" stroke-linecap="round" stroke-linejoin="round" stroke-width="1"/><path d="M320.124,190.154s-14.711,1.165-25.131,7.846c-2.17,1.4-.785,48.436-.785,58.379s-1.581,23.562-1.312,25.4,9.685,8.581,25.646,10.469,33.774-2.366,34.816-4.72.527-5.75.527-6.8,17.6-59.139,16.256-65.685-2.6-13.853-14.417-19.443C348.1,192,337.4,189.32,331.892,189.32A111.567,111.567,0,0,0,320.124,190.154Z" transform="translate(-248.946 -127.828)" fill="#fff"/><g transform="translate(43.918 61.492)" clip-path="url(#j)"><path d="M327.271,283.4c-18.156-.834-28.282-7.589-29.557-9.28s.846-56.16.846-61.223,18.585-12.676,18.585-12.676l3.077-10.273h-.1s-14.711,1.165-25.131,7.846c-2.17,1.4-.785,48.436-.785,58.379s-1.581,23.562-1.312,25.4,9.685,8.581,25.646,10.469,33.774-2.366,34.816-4.72.527-5.75.527-6.8c0-.172.466-1.863,1.226-4.609C349.656,275.728,342.153,284.1,327.271,283.4Z" transform="translate(-292.865 -189.178)" fill="#ff9100"/><path d="M327.271,283.4c-18.156-.834-28.282-7.589-29.557-9.28s.846-56.16.846-61.223,18.585-12.676,18.585-12.676l3.077-10.273h-.1s-14.711,1.165-25.131,7.846c-2.17,1.4-.785,48.436-.785,58.379s-1.581,23.562-1.312,25.4,9.685,8.581,25.646,10.469,33.774-2.366,34.816-4.72.527-5.75.527-6.8c0-.172.466-1.863,1.226-4.609C349.656,275.728,342.153,284.1,327.271,283.4Z" transform="translate(-292.865 -189.178)" fill="#fff" opacity="0.5"/></g><path d="M320.124,190.154s-14.711,1.165-25.131,7.846c-2.17,1.4-.785,48.436-.785,58.379s-1.581,23.562-1.312,25.4,9.685,8.581,25.646,10.469,33.774-2.366,34.816-4.72.527-5.75.527-6.8,17.6-59.139,16.256-65.685-2.6-13.853-14.417-19.443C348.1,192,337.4,189.32,331.892,189.32A111.567,111.567,0,0,0,320.124,190.154Z" transform="translate(-248.946 -127.828)" fill="none" stroke="#263238" stroke-linecap="round" stroke-linejoin="round" stroke-width="1"/><path d="M314.277,209.143s-1.3-3.678-3.678-3.678a20.215,20.215,0,0,0-6.019,1.569s3.408-9.685,8.385-16.231,18.585-8.581,21.981-4.977a20.841,20.841,0,0,1,5.235,13.093c0,3.923-12.039,12.823-12.823,13.093S325,208.6,321.6,208.6a26.724,26.724,0,0,0-6.277.785Z" transform="translate(-246.3 -129.017)" fill="#fff" stroke="#263238" stroke-linecap="round" stroke-linejoin="round" stroke-width="1"/><path d="M312.94,185.821s-2.623,22.52-.27,24.874,7.074-4.72,11.033-7.858,9.17-11.033,9.685-15.447a75.757,75.757,0,0,0,.27-10.2s-8.116,11.254-12.259,11.254a18.389,18.389,0,0,1-8.459-2.623Z" transform="translate(-244.693 -130.568)" fill="#fff"/><g transform="translate(66.997 46.621)" clip-path="url(#k)"><path d="M321.313,187.945a18.389,18.389,0,0,1-8.373-2.623s-2.623,22.52-.27,24.874a1.606,1.606,0,0,0,.809.417c1.814-5.688,3.764-12.713,3.764-12.713l8.287-6.571,6.559-10.7-.527-1.226C328.865,182.685,324.182,187.945,321.313,187.945Z" transform="translate(-311.69 -176.691)" fill="#ff9100"/><path d="M321.313,187.945a18.389,18.389,0,0,1-8.373-2.623s-2.623,22.52-.27,24.874a1.606,1.606,0,0,0,.809.417c1.814-5.688,3.764-12.713,3.764-12.713l8.287-6.571,6.559-10.7-.527-1.226C328.865,182.685,324.182,187.945,321.313,187.945Z" transform="translate(-311.69 -176.691)" fill="#fff" opacity="0.5"/></g><path d="M312.94,185.821s-2.623,22.52-.27,24.874,7.074-4.72,11.033-7.858,9.17-11.033,9.685-15.447a75.757,75.757,0,0,0,.27-10.2s-8.116,11.254-12.259,11.254a18.389,18.389,0,0,1-8.459-2.623Z" transform="translate(-244.693 -130.568)" fill="none" stroke="#263238" stroke-linecap="round" stroke-linejoin="round" stroke-width="1"/><path d="M307.081,161.808s-.527,15.582,1.581,21.662,7.662,15.324,15.067,13.215,12.946-17.163,12.946-17.163,6.865-3.175,8.189-7.932a18.266,18.266,0,0,0-.257-9.513s-14.539-4.487-22.2-3.96a48.044,48.044,0,0,0-14.27,3.433Z" transform="translate(-245.748 -134.887)" fill="#fff"/><g transform="translate(61.274 23.188)" clip-path="url(#l)"><path d="M345.158,164.578a4.568,4.568,0,0,0-.172-.956c-.392-.49-.932-1.226-1.532-1.888-3.58-1.03-14.711-4.058-21.049-3.678a48.044,48.044,0,0,0-14.27,3.433l-1.054.27s-.527,15.582,1.581,21.662,7.662,15.324,15.067,13.215a13.326,13.326,0,0,0,6.2-4.83c.282-.748.454-1.226.454-1.226s-9.329,6.914-12.786.7a25.058,25.058,0,0,1-2.758-13.13c-4.144-1.729-4.83-1.385-1.729-3.1s2.771-3.8,2.771-3.8c10.016,0,23.133-3.8,23.133-3.8Z" transform="translate(-307.022 -158.087)" fill="#ff9100"/><path d="M345.158,164.578a4.568,4.568,0,0,0-.172-.956c-.392-.49-.932-1.226-1.532-1.888-3.58-1.03-14.711-4.058-21.049-3.678a48.044,48.044,0,0,0-14.27,3.433l-1.054.27s-.527,15.582,1.581,21.662,7.662,15.324,15.067,13.215a13.326,13.326,0,0,0,6.2-4.83c.282-.748.454-1.226.454-1.226s-9.329,6.914-12.786.7a25.058,25.058,0,0,1-2.758-13.13c-4.144-1.729-4.83-1.385-1.729-3.1s2.771-3.8,2.771-3.8c10.016,0,23.133-3.8,23.133-3.8Z" transform="translate(-307.022 -158.087)" fill="#fff" opacity="0.5"/></g><path d="M307.081,161.808s-.527,15.582,1.581,21.662,7.662,15.324,15.067,13.215,12.946-17.163,12.946-17.163,6.865-3.175,8.189-7.932a18.266,18.266,0,0,0-.257-9.513s-14.539-4.487-22.2-3.96a48.044,48.044,0,0,0-14.27,3.433Z" transform="translate(-245.748 -134.887)" fill="none" stroke="#263238" stroke-linecap="round" stroke-linejoin="round" stroke-width="1"/><path d="M316.1,167.16a13.865,13.865,0,0,1-1.581,4.229c-1.324,2.378-4.5,2.905-3.433,4.229s5.811,1.851,5.811,1.851" transform="translate(-244.877 -132.835)" fill="none" stroke="#263238" stroke-linecap="round" stroke-linejoin="round" stroke-width="1"/><path d="M321.521,169.288c0,1.312-.478,2.378-1.054,2.378s-1.067-1.067-1.067-2.378.478-2.378,1.067-2.378S321.521,167.977,321.521,169.288Z" transform="translate(-242.951 -132.891)" fill="#263238"/><path d="M312.889,168.438c0,1.324-.466,2.378-1.054,2.378s-1.054-1.054-1.054-2.378.466-2.378,1.054-2.378S312.889,167.078,312.889,168.438Z" transform="translate(-244.899 -133.083)" fill="#263238"/><path d="M314.83,179.131s5.014,1.324,8.459-1.851" transform="translate(-243.984 -130.548)" fill="none" stroke="#263238" stroke-linecap="round" stroke-linejoin="round" stroke-width="1"/><path d="M319.14,163.457s2.452-2.452,4.328,1.9" transform="translate(-243.01 -133.827)" fill="none" stroke="#263238" stroke-linecap="round" stroke-linejoin="round" stroke-width="1"/><path d="M313.551,163.271s-4.242-.2-4.781,2.243" transform="translate(-245.353 -133.714)" fill="none" stroke="#263238" stroke-linecap="round" stroke-linejoin="round" stroke-width="1"/><path d="M330.489,159.61s-2.378,9.243,1.324,9.807,5.284-8.189,5.284-8.189Z" transform="translate(-240.616 -134.54)" fill="#263238" stroke="#263238" stroke-linecap="round" stroke-linejoin="round" stroke-width="1"/><path d="M307.28,163.482s.539-11.095,1.067-15.851,9.807-8.716,19.026-8.459,17.617,8.152,18.671,11.328,0,15.434,0,15.434l-.417,5.137s-12.186-4.9-23.011-5.468-14.539.257-14.539.257Z" transform="translate(-245.69 -139.16)" fill="#263238" stroke="#263238" stroke-linecap="round" stroke-linejoin="round" stroke-width="1"/><path d="M314.766,149.121l-4.119-.711-.147.932,2.366.38-.159,1.863,1.741.527.159,1.508,2.207.748Z" transform="translate(-244.962 -137.071)" fill="#fff"/><path d="M318.737,149.359l4.107-.049.159.956h-2.366l.159,1.888-1.741.233-.159,1.5-2.207.38Z" transform="translate(-243.564 -136.867)" fill="#fff"/><path d="M332.961,162.174a50.457,50.457,0,0,1-11.634,1.594c-5.811,0-17.163-2.648-20.841-2.648a36.222,36.222,0,0,0-5.3.27,65.132,65.132,0,0,1,15.594-3.678C319,156.866,330.632,160.85,332.961,162.174Z" transform="translate(-248.421 -134.996)" fill="#fff" stroke="#263238" stroke-linecap="round" stroke-linejoin="round" stroke-width="1"/><path d="M301.607,242.921s-2.93-4.83-3.4-4.99-4.352-2.158-4.99-2.366-2.145-.38-1.729.993,3.2,2.991,3.2,2.991l1.091,2.991Z" transform="translate(-249.272 -117.412)" fill="#fff" stroke="#263238" stroke-linecap="round" stroke-linejoin="round" stroke-width="1"/><path d="M313.188,204.52,309.4,228.707l3.984.613,2.145-13.792" transform="translate(-245.211 -124.394)" fill="none" stroke="#263238" stroke-linecap="round" stroke-linejoin="round" stroke-width="1"/><path d="M315.676,221.87,295.522,266.9l-38.482,1.569,20.939-45.286Z" transform="translate(-257.04 -120.474)" fill="#263238" stroke="#263238" stroke-linecap="round" stroke-linejoin="round" stroke-width="1"/><path d="M294.477,222.834l2.133-3.874-4.744.208-2.01,4.033-3.751.159-2.354,4.977h12.039l2.881-5.5Z" transform="translate(-251.006 -121.132)" fill="#fff" stroke="#263238" stroke-linecap="round" stroke-linejoin="round" stroke-width="1"/><path d="M306.788,242.9s-7.613-3.555-8.581-3.555l-14.233-.159a4.634,4.634,0,0,0-1.459,2.452c-.159,1.287-.968,3.555-.159,4.7s9.219,5.664,12.615,7.441,13.485.319,13.485.319,24.1,10.518,32.193,14.564,15.042,6.314,18.45,6.314,7.76-19.909,7.76-19.909l-18.279-4.9-1.459,4.9s-10.678-2.905-23.624-5.333C311.8,247.539,306.788,242.9,306.788,242.9Z" transform="translate(-251.401 -116.561)" fill="#fff" stroke="#263238" stroke-linecap="round" stroke-linejoin="round" stroke-width="1"/><path d="M282.82,240.64s11.646,2.268,13.424,2.587" transform="translate(-251.216 -116.234)" fill="none" stroke="#263238" stroke-linecap="round" stroke-linejoin="round" stroke-width="1"/><path d="M282.16,242.49s11.965,4.046,12.615,4.2" transform="translate(-251.365 -115.816)" fill="none" stroke="#263238" stroke-linecap="round" stroke-linejoin="round" stroke-width="1"/><path d="M283.08,245.13s8.9,3.886,10.2,4.046" transform="translate(-251.157 -115.219)" fill="none" stroke="#263238" stroke-linecap="round" stroke-linejoin="round" stroke-width="1"/><path d="M337.034,216.521l-4.9,44.869s9.562,4.156,15.692,5.21a60.131,60.131,0,0,0,10.592.919s4.634-36.165,4.34-45.6-1.569-18.254-6.681-19.615" transform="translate(-240.075 -124.895)" fill="#fff"/><g transform="translate(92.055 77.405)" clip-path="url(#m)"><path d="M345.009,257.827c-1.226-.417,4.646-38,.429-46.021-.613-1.14-1.226-1.716-1.851-1.876l-3.249,2.452c-2.366,3.862-4.193,10.837-4.193,10.837v.135L332.1,259.666s5.406,2.354,10.69,3.96c.331-.466.527-.772.527-.772s6.338-1.692,9.722-2.121S346.284,258.207,345.009,257.827Z" transform="translate(-332.137 -200.576)" fill="#ff9100"/><path d="M345.009,257.827c-1.226-.417,4.646-38,.429-46.021-.613-1.14-1.226-1.716-1.851-1.876l-3.249,2.452c-2.366,3.862-4.193,10.837-4.193,10.837v.135L332.1,259.666s5.406,2.354,10.69,3.96c.331-.466.527-.772.527-.772s6.338-1.692,9.722-2.121S346.284,258.207,345.009,257.827Z" transform="translate(-332.137 -200.576)" fill="#fff" opacity="0.5"/></g><path d="M337.034,216.521l-4.9,44.869s9.562,4.156,15.692,5.21a60.131,60.131,0,0,0,10.592.919s4.634-36.165,4.34-45.6-1.569-18.254-6.681-19.615" transform="translate(-240.075 -124.895)" fill="none" stroke="#263238" stroke-linecap="round" stroke-linejoin="round" stroke-width="1"/></g></g></g></svg>