<svg xmlns="http://www.w3.org/2000/svg" xmlns:xlink="http://www.w3.org/1999/xlink" width="377.895" height="371.146" viewBox="0 0 377.895 371.146">
  <defs>
    <clipPath id="clip-path">
      <path id="Caminho_3015" data-name="Caminho 3015" d="M160.338,304.523s-7.415,15.348-9,26.2-10.583,30.178-10.583,30.178-7.942,3.177-8.205,5.827-2.387,10.847-2.387,10.847l1.325.8,3.44-8.2s1.588,5.818,2.115,8.2a10.786,10.786,0,0,0,1.062,3.177s6.88,3.44,8.494,3.967,3.975.272,2.913-1.852-5.028-6.617-5.028-6.617l2.378-14.032s33.618-56.645,34.68-59.032-6.88-9.258-6.88-9.258Z" transform="translate(-130.16 -294.73)" fill="#fff" stroke="#263238" stroke-linecap="round" stroke-linejoin="round" stroke-width="1"/>
    </clipPath>
    <clipPath id="clip-path-2">
      <path id="Caminho_3021" data-name="Caminho 3021" d="M114.4,169.12,89.33,190.507l12.741,11.042,13.768-29.006S116.374,169.6,114.4,169.12Z" transform="translate(-89.33 -169.12)" fill="#ff6e3c" stroke="#263238" stroke-linecap="round" stroke-linejoin="round" stroke-width="1"/>
    </clipPath>
    <clipPath id="clip-path-3">
      <path id="Caminho_3031" data-name="Caminho 3031" d="M93.008,322.556S64.741,368.031,63.28,370s-5.4,3.686-7.373,4.672S43.6,384.713,43.6,384.713l.985.739,8.112-4.179a14.873,14.873,0,0,1,0,7.135c-.985,3.686-.985,5.895,0,7.373s7.373,7.126,8.851,5.895-.493-8.112-.493-8.112,5.657-13.029,6.15-14.5,1.962-5.411,1.962-5.411,39.071-37.118,43.021-42.036,4.179-5.9,4.918-9.343a44.821,44.821,0,0,0,.739-7.865Z" transform="translate(-43.6 -314.41)" fill="#fff" stroke="#263238" stroke-linecap="round" stroke-linejoin="round" stroke-width="1"/>
    </clipPath>
    <clipPath id="clip-path-4">
      <path id="Caminho_3038" data-name="Caminho 3038" d="M123.127,157.54s-8.834,7.865-10.532,12.537-18.686,40.074-19.179,41.789,6.642,10.328,11.314,11.552,29.006,5.164,31.707,2.956,9.343-21.387,9.589-25.32-4.918-30.238-4.918-30.238Z" transform="translate(-93.392 -157.54)" fill="#ff6e3c" stroke="#263238" stroke-linecap="round" stroke-linejoin="round" stroke-width="1"/>
    </clipPath>
    <clipPath id="clip-path-5">
      <path id="Caminho_3043" data-name="Caminho 3043" d="M167.748,202.476l.773-.3,34.238-12.443s2.208-7.126,2.947-9.343a3.763,3.763,0,0,1,2.947-2.7,20.033,20.033,0,0,1,3.44-.246h2.217s4.179-1.232,5.164.246,0,5.411,0,5.411,0,5.895-.985,7.373-4.179,2.7-5.946,3.44a25.476,25.476,0,0,1-4.179,1.232s-37.712,23.6-40.413,24.827-3.194,2.208-5.411.493a38.341,38.341,0,0,1-4.672-4.672l5.657-14.754Z" transform="translate(-157.87 -176.964)" fill="#fff" stroke="#263238" stroke-linecap="round" stroke-linejoin="round" stroke-width="1"/>
    </clipPath>
    <clipPath id="clip-path-6">
      <path id="Caminho_3047" data-name="Caminho 3047" d="M164.662,200.785S136.837,174.87,132.9,173.893s-8.358,2.947-8.6,8.358,27.826,41.891,27.826,41.891Z" transform="translate(-124.298 -173.744)" fill="#ff6e3c" stroke="#263238" stroke-linecap="round" stroke-linejoin="round" stroke-width="1"/>
    </clipPath>
  </defs>
  <g id="In_progress-bro" data-name="In progress-bro" transform="translate(0 0.5)">
    <g id="freepik--background-simple--inject-28" transform="translate(0 12.834)">
      <path id="Caminho_3049" data-name="Caminho 3049" d="M146.161,71S81.8,103.783,49.706,154.3,20.147,269.82,59.151,318.065,172.7,359.973,235.125,390.534,369.468,407.008,382.7,359.176s-26.565-113.85-9.867-163.186S298.1,1.518,146.161,71Z" transform="translate(-27.576 -48.877)" fill="#ff6e3c" opacity="0.7"/>
      <path id="Caminho_2996" data-name="Caminho 2996" d="M146.161,71S81.8,103.783,49.706,154.3,20.147,269.82,59.151,318.065,172.7,359.973,235.125,390.534,369.468,407.008,382.7,359.176s-26.565-113.85-9.867-163.186S298.1,1.518,146.161,71Z" transform="translate(-27.576 -48.877)" fill="#fff" opacity="0.7"/>
    </g>
    <g id="freepik--Clock--inject-28" transform="translate(285.887 267.071)">
      <circle id="Elipse_1" data-name="Elipse 1" cx="34.808" cy="34.808" r="34.808" transform="matrix(0.92, -0.393, 0.393, 0.92, 0, 27.324)" fill="none" stroke="#263238" stroke-linecap="round" stroke-linejoin="round" stroke-width="1"/>
      <circle id="Elipse_2" data-name="Elipse 2" cx="31.843" cy="31.843" r="31.843" transform="translate(13.82 13.872)" fill="none" stroke="#263238" stroke-linecap="round" stroke-linejoin="round" stroke-width="1"/>
      <path id="Caminho_2997" data-name="Caminho 2997" d="M419.545,401.649a1.988,1.988,0,1,1-1.979-1.979,1.987,1.987,0,0,1,1.979,1.979Z" transform="translate(-371.902 -355.951)" fill="none" stroke="#263238" stroke-linecap="round" stroke-linejoin="round" stroke-width="1"/>
      <line id="Linha_1" data-name="Linha 1" y2="21.005" transform="translate(45.664 47.694)" fill="none" stroke="#263238" stroke-linecap="round" stroke-linejoin="round" stroke-width="1"/>
      <line id="Linha_2" data-name="Linha 2" x1="10.592" transform="translate(33.084 45.715)" fill="none" stroke="#263238" stroke-linecap="round" stroke-linejoin="round" stroke-width="1"/>
    </g>
    <g id="freepik--Gears--inject-28" transform="translate(95.491 52.792)">
      <path id="Caminho_2998" data-name="Caminho 2998" d="M305.459,255.423V237.441l-18.737-2.132a62.622,62.622,0,0,0-2.608-10.643l15.612-11.424L290.6,197.665l-17.327,7.4a64.811,64.811,0,0,0-7.644-7.925l7.729-17.6-15.807-8.995-11.246,14.941a65.592,65.592,0,0,0-10.643-3.109l-2.234-19.026H215.187l-2.14,18.474a64.823,64.823,0,0,0-10.787,2.548L190.648,169l-15.824,9,7.509,17.081a64.891,64.891,0,0,0-8.035,7.534l-17.837-7.644-9.122,15.646,15.153,11.042a62.694,62.694,0,0,0-3.16,10.5L140,234.4v17.99l18.737,2.132a62.349,62.349,0,0,0,2.616,10.634l-15.578,11.382,9.122,15.62,17.327-7.4a64.814,64.814,0,0,0,7.644,7.925l-7.729,17.6,15.8,8.995,11.246-14.941a64.017,64.017,0,0,0,10.651,3.109l2.225,19.026h18.245l2.166-18.465a65.979,65.979,0,0,0,10.8-2.548l11.586,15.382,15.8-8.995-7.491-17.141a64.222,64.222,0,0,0,8.035-7.534l17.837,7.644,9.122-15.578L283.01,268.121a63.23,63.23,0,0,0,3.151-10.5ZM222.746,287.7c-23.961,0-43.386-19.145-43.386-42.775s19.425-42.8,43.386-42.8,43.395,19.153,43.395,42.775-19.425,42.766-43.395,42.766Z" transform="translate(-140 -106.076)" fill="#ff6e3c"/>
      <path id="Caminho_2999" data-name="Caminho 2999" d="M410.953,155.444V143.808l-12.1-1.376a40.407,40.407,0,0,0-1.7-6.871l10.091-7.381-5.886-10.108-11.2,4.782a41.346,41.346,0,0,0-4.935-5.1l4.994-11.373-10.193-5.81-7.271,9.657a41.62,41.62,0,0,0-6.88-2.013l-1.444-12.3H352.617l-1.4,11.959a41.5,41.5,0,0,0-6.973,1.7l-7.483-9.946-10.193,5.81,4.85,11.042a42.01,42.01,0,0,0-5.19,4.867l-11.56-4.977-5.895,10.074,9.785,7.16a40.654,40.654,0,0,0-2.039,6.8l-12.469,1.452v11.628l12.112,1.376a40.189,40.189,0,0,0,1.7,6.871l-10.082,7.39,5.895,10.065,11.195-4.782a41.412,41.412,0,0,0,4.943,5.1l-4.994,11.373,10.193,5.81,7.271-9.649a42.209,42.209,0,0,0,6.88,2l1.435,12.274h11.789l1.4-11.891a41.109,41.109,0,0,0,6.973-1.7l7.492,9.946,10.193-5.81-4.85-11.042a41.451,41.451,0,0,0,5.2-4.867l11.535,4.926,5.895-10.065-9.793-7.169a40.647,40.647,0,0,0,2.039-6.8Zm-53.434,20.827a27.647,27.647,0,1,1,28.029-27.622A27.647,27.647,0,0,1,357.518,176.271Z" transform="translate(-164.709 -95.92)" fill="#ff6e3c"/>
    </g>
    <g id="freepik--Clouds--inject-28" transform="translate(15.233)">
      <path id="Caminho_3000" data-name="Caminho 3000" d="M243.6,63c-4.867-2.659-7.084-.442-8.851-2.659s4.867-7.967-8.417-13.717c0,0-.849-12.4-19.035-12.843s-13.276,12.4-18.151,15.476-6.192-1.767-11.042,1.334-2.659,9.292-6.642,10.193S162.167,56.8,157.3,59.93s-4.875,5.759-7.084,5.759-6.642-1.775-9.343,0-5.733,3.95-5.733,3.95h112S248.464,65.655,243.6,63Z" transform="translate(-59.01 -33.767)" fill="none" stroke="#263238" stroke-linecap="round" stroke-linejoin="round" stroke-width="1"/>
      <path id="Caminho_3001" data-name="Caminho 3001" d="M184.471,66a15.034,15.034,0,0,1-1.971.934" transform="translate(-66.144 -38.622)" fill="none" stroke="#263238" stroke-linecap="round" stroke-linejoin="round" stroke-width="1"/>
      <path id="Caminho_3002" data-name="Caminho 3002" d="M209.177,41.69a7.568,7.568,0,0,0-4.323,5.411c-.807,4.052-2.7,6.753-4.858,7.024s-10.269-.544-11.619,2.429a12.052,12.052,0,0,0-.756,2.71" transform="translate(-66.915 -34.96)" fill="none" stroke="#263238" stroke-linecap="round" stroke-linejoin="round" stroke-width="1"/>
      <path id="Caminho_3003" data-name="Caminho 3003" d="M291.923,95.71c-2.693-1.461-3.907-.238-4.884-1.461s2.684-4.4-4.646-7.576c0,0-.484-6.837-10.5-7.084s-7.33,6.846-10.014,8.553-3.4-.977-6.107.73-1.469,5.1-3.669,5.623-5.1-2.2-7.814-.493-2.684,3.177-3.907,3.177-3.669-.977-5.1,0-3.177,2.2-3.177,2.2h61.8S294.607,97.18,291.923,95.71Z" transform="translate(-73.616 -40.668)" fill="none" stroke="#263238" stroke-linecap="round" stroke-linejoin="round" stroke-width="1"/>
      <path id="Caminho_3004" data-name="Caminho 3004" d="M259.3,97.39a8.433,8.433,0,0,1-1.1.518" transform="translate(-77.546 -43.35)" fill="none" stroke="#263238" stroke-linecap="round" stroke-linejoin="round" stroke-width="1"/>
      <path id="Caminho_3005" data-name="Caminho 3005" d="M272.941,84a4.179,4.179,0,0,0-2.387,2.981c-.442,2.234-1.486,3.729-2.684,3.873s-5.657-.3-6.4,1.342a6.4,6.4,0,0,0-.416,1.495" transform="translate(-77.975 -41.333)" fill="none" stroke="#263238" stroke-linecap="round" stroke-linejoin="round" stroke-width="1"/>
      <path id="Caminho_3006" data-name="Caminho 3006" d="M121.682,164.87c-3.4-1.869-4.977-.314-6.217-1.869s3.4-5.589-5.946-9.632c0,0-.62-8.706-13.369-9.02s-9.343,8.706-12.741,10.881-4.357-1.24-7.755.934-1.869,6.532-4.663,7.152-6.532-2.794-9.955-.62-3.4,4.043-4.969,4.043-4.663-1.249-6.532,0-4.026,2.794-4.026,2.794h78.661S125.1,166.738,121.682,164.87Z" transform="translate(-45.51 -50.422)" fill="none" stroke="#263238" stroke-linecap="round" stroke-linejoin="round" stroke-width="1"/>
      <path id="Caminho_3007" data-name="Caminho 3007" d="M80.163,167a11.584,11.584,0,0,1-1.393.654" transform="translate(-50.52 -53.835)" fill="none" stroke="#263238" stroke-linecap="round" stroke-linejoin="round" stroke-width="1"/>
      <path id="Caminho_3008" data-name="Caminho 3008" d="M97.537,149.91a5.317,5.317,0,0,0-3.041,3.8c-.569,2.845-1.894,4.74-3.4,4.926s-7.2-.374-8.154,1.7a8.824,8.824,0,0,0-.535,1.911" transform="translate(-51.068 -51.261)" fill="none" stroke="#263238" stroke-linecap="round" stroke-linejoin="round" stroke-width="1"/>
      <path id="Caminho_3009" data-name="Caminho 3009" d="M417.385,295.87c-3.4-1.869-4.977-.314-6.217-1.869s3.4-5.6-5.9-9.632c0,0-.629-8.706-13.369-9.02s-9.343,8.706-12.741,10.881-4.349-1.24-7.772.934-1.869,6.532-4.663,7.152-6.532-2.8-9.946-.62-3.4,4.035-4.977,4.035-4.663-1.24-6.532,0-4.035,2.8-4.035,2.8h78.652S420.808,297.73,417.385,295.87Z" transform="translate(-90.052 -70.153)" fill="none" stroke="#263238" stroke-linecap="round" stroke-linejoin="round" stroke-width="1"/>
      <path id="Caminho_3010" data-name="Caminho 3010" d="M375.864,298a10.193,10.193,0,0,1-1.384.663" transform="translate(-95.06 -73.566)" fill="none" stroke="#263238" stroke-linecap="round" stroke-linejoin="round" stroke-width="1"/>
      <path id="Caminho_3011" data-name="Caminho 3011" d="M393.239,280.91a5.291,5.291,0,0,0-3.032,3.788c-.569,2.854-1.9,4.748-3.4,4.935s-7.211-.374-8.163,1.7a8.293,8.293,0,0,0-.527,1.911" transform="translate(-95.608 -70.992)" fill="none" stroke="#263238" stroke-linecap="round" stroke-linejoin="round" stroke-width="1"/>
    </g>
    <g id="freepik--Graphic--inject-28" transform="translate(7.731 161.666)">
      <path id="Caminho_3012" data-name="Caminho 3012" d="M389.9,226.563a2.548,2.548,0,0,0-3.771-2.149L350.1,245.454a2.548,2.548,0,0,0,0,4.34l13.14,7.5-46.469,77.9-45.663-13.93a5.946,5.946,0,0,0-6.795,2.616L213.35,408.3,158.3,367.2a5.946,5.946,0,0,0-5.4-.892L40.782,402.835a5.946,5.946,0,1,0,3.686,11.305L153.639,378.6l57.834,43.174a5.946,5.946,0,0,0,3.559,1.181,5.683,5.683,0,0,0,1.138-.11,5.946,5.946,0,0,0,3.95-2.761l51.965-86.068,45.688,13.93a5.946,5.946,0,0,0,6.838-2.633l48.975-82.1,12.741,7.3a2.548,2.548,0,0,0,3.746-2.191Z" transform="translate(-36.678 -224.101)" fill="#263238"/>
    </g>
    <g id="freepik--Character--inject-28" transform="translate(13.611 52.901)">
      <path id="Caminho_3013" data-name="Caminho 3013" d="M160.338,304.523s-7.415,15.348-9,26.2-10.583,30.178-10.583,30.178-7.942,3.177-8.205,5.827-2.387,10.847-2.387,10.847l1.325.8,3.44-8.2s1.588,5.818,2.115,8.2a10.786,10.786,0,0,0,1.062,3.177s6.88,3.44,8.494,3.967,3.975.272,2.913-1.852-5.028-6.617-5.028-6.617l2.378-14.032s33.618-56.645,34.68-59.032-6.88-9.258-6.88-9.258Z" transform="translate(-56.638 -125.974)" fill="#fff"/>
      <g id="Grupo_584" data-name="Grupo 584" transform="translate(73.522 168.756)" clip-path="url(#clip-path)">
        <path id="Caminho_3014" data-name="Caminho 3014" d="M141.491,368.8s30.161-57.027,29.728-62.854c-.153-2.081-1.5-4.136-3.16-5.946l-7.721,5.292s-7.415,15.348-9,26.2-10.583,30.178-10.583,30.178-7.942,3.177-8.205,5.827-2.387,10.847-2.387,10.847l1.325.8,3.44-8.205s1.588,5.818,2.115,8.205a10.786,10.786,0,0,0,1.062,3.177s1.7.849,3.559,1.75C141.253,378,141.491,368.8,141.491,368.8Z" transform="translate(-130.16 -295.524)" opacity="0.2"/>
      </g>
      <path id="Caminho_3016" data-name="Caminho 3016" d="M160.338,304.523s-7.415,15.348-9,26.2-10.583,30.178-10.583,30.178-7.942,3.177-8.205,5.827-2.387,10.847-2.387,10.847l1.325.8,3.44-8.2s1.588,5.818,2.115,8.2a10.786,10.786,0,0,0,1.062,3.177s6.88,3.44,8.494,3.967,3.975.272,2.913-1.852-5.028-6.617-5.028-6.617l2.378-14.032s33.618-56.645,34.68-59.032-6.88-9.258-6.88-9.258Z" transform="translate(-56.638 -125.974)" fill="none" stroke="#263238" stroke-linecap="round" stroke-linejoin="round" stroke-width="1"/>
      <path id="Caminho_3017" data-name="Caminho 3017" d="M145.245,390.162c-2.981,1.342-4.247-.5-5.555-4.357-1.028-3.075-3.151-8.027-4.06-10.125-1.6,1-2.981,2.166-3.083,3.245-.272,2.642-2.387,10.847-2.387,10.847l1.325.8,3.44-8.2s1.588,5.818,2.115,8.2a10.787,10.787,0,0,0,1.062,3.177s6.88,3.44,8.494,3.967,3.975.272,2.913-1.852a40.386,40.386,0,0,0-4.264-5.7Z" transform="translate(-56.638 -138.167)" fill="#263238" stroke="#263238" stroke-linecap="round" stroke-linejoin="round" stroke-width="1"/>
      <path id="Caminho_3018" data-name="Caminho 3018" d="M92.562,194l-7.007,7.721a4.247,4.247,0,0,0,0,5.708l10.4,11.653,7.381-15.246Z" transform="translate(-49.753 -110.802)" fill="#bababa" stroke="#263238" stroke-linecap="round" stroke-linejoin="round" stroke-width="1"/>
      <path id="Caminho_3019" data-name="Caminho 3019" d="M114.4,169.12,89.33,190.507l12.741,11.042,13.768-29.006S116.374,169.6,114.4,169.12Z" transform="translate(-50.488 -107.055)" fill="#ff6e3c"/>
      <g id="Grupo_585" data-name="Grupo 585" transform="translate(38.842 62.065)" clip-path="url(#clip-path-2)">
        <path id="Caminho_3020" data-name="Caminho 3020" d="M114.4,169.12,89.33,190.507l12.741,11.042,13.768-29.006S116.374,169.6,114.4,169.12Z" transform="translate(-89.33 -169.12)" opacity="0.2"/>
      </g>
      <path id="Caminho_3022" data-name="Caminho 3022" d="M114.4,169.12,89.33,190.507l12.741,11.042,13.768-29.006S116.374,169.6,114.4,169.12Z" transform="translate(-50.488 -107.055)" fill="none" stroke="#263238" stroke-linecap="round" stroke-linejoin="round" stroke-width="1"/>
      <path id="Caminho_3023" data-name="Caminho 3023" d="M153.088,99.928s4.918,3.686,5.411,4.672,1.971,5.164,2.7,5.657,5.164-.246,5.164,1.7-1.962,4.918-1.962,4.918,1.7,5.411,1.7,8.112.739,7.644-2.455,8.6-11.042,2.463-11.042,2.463l-7.373,22.373-12.741-9.836,1.478-11.042s-3.4-3.686-6.642-13.267-.977-18.686,4.918-21.88S153.088,99.928,153.088,99.928Z" transform="translate(-55.987 -96.623)" fill="#fff" stroke="#263238" stroke-linecap="round" stroke-linejoin="round" stroke-width="1"/>
      <path id="Caminho_3024" data-name="Caminho 3024" d="M163.874,113.195c.391.849.348,1.7-.085,1.928s-1.1-.357-1.486-1.232-.34-1.7.093-1.92S163.492,112.328,163.874,113.195Z" transform="translate(-61.439 -98.44)" fill="#263238"/>
      <path id="Caminho_3025" data-name="Caminho 3025" d="M158.79,111.425s2.463-2.947,4.425-1.971" transform="translate(-60.95 -98.038)" fill="none" stroke="#263238" stroke-linecap="round" stroke-linejoin="round" stroke-width="1"/>
      <path id="Caminho_3026" data-name="Caminho 3026" d="M148,133.26s19.154,4.306,16.758,4.306-12.206,2.633-12.206,2.633l-8.621,20.113-8.146-7.9.484-9.819Z" transform="translate(-57.486 -101.654)" opacity="0.2"/>
      <path id="Caminho_3027" data-name="Caminho 3027" d="M152.148,98.122s-6.141,31.716-10.566,37.373-12.3,4.425-19.425.985-9.1-2.956-9.1-6.642,9.836-28.029,11.8-29.5S148.955,92.967,152.148,98.122Z" transform="translate(-54.062 -96.049)" fill="#263238" stroke="#263238" stroke-linecap="round" stroke-linejoin="round" stroke-width="1"/>
      <path id="Caminho_3028" data-name="Caminho 3028" d="M114.451,125.98s-5.4-4.672-10.074-2.947-5.411,9.581-4.672,12.044,7.373,5.657,10.32,5.657,5.9-3.941,6.149-7.135A13.845,13.845,0,0,0,114.451,125.98Z" transform="translate(-52.014 -100.056)" fill="#263238" stroke="#263238" stroke-linecap="round" stroke-linejoin="round" stroke-width="1"/>
      <path id="Caminho_3029" data-name="Caminho 3029" d="M93.008,322.556S64.741,368.031,63.28,370s-5.4,3.686-7.373,4.672S43.6,384.713,43.6,384.713l.985.739,8.112-4.179a14.873,14.873,0,0,1,0,7.135c-.985,3.686-.985,5.895,0,7.373s7.373,7.126,8.851,5.895-.493-8.112-.493-8.112,5.657-13.029,6.15-14.5,1.962-5.411,1.962-5.411,39.071-37.118,43.021-42.036,4.179-5.9,4.918-9.343a44.821,44.821,0,0,0,.739-7.865Z" transform="translate(-43.6 -128.939)" fill="#fff"/>
      <g id="Grupo_586" data-name="Grupo 586" transform="translate(0 185.471)" clip-path="url(#clip-path-3)">
        <path id="Caminho_3030" data-name="Caminho 3030" d="M105.1,319.31l-12.087,3.984S64.741,368.769,63.28,370.74s-5.4,3.686-7.373,4.672S43.6,385.451,43.6,385.451l.985.739,8.112-4.179a14.873,14.873,0,0,1,0,7.135c-.985,3.686-.985,5.895,0,7.373a25.532,25.532,0,0,0,4.892,4.442,17.565,17.565,0,0,1-.484-6.319c.849-5.1,4.672-16.988,4.672-16.988L105.1,319.9Z" transform="translate(-43.6 -315.148)" opacity="0.2"/>
      </g>
      <path id="Caminho_3032" data-name="Caminho 3032" d="M93.008,322.556S64.741,368.031,63.28,370s-5.4,3.686-7.373,4.672S43.6,384.713,43.6,384.713l.985.739,8.112-4.179a14.873,14.873,0,0,1,0,7.135c-.985,3.686-.985,5.895,0,7.373s7.373,7.126,8.851,5.895-.493-8.112-.493-8.112,5.657-13.029,6.15-14.5,1.962-5.411,1.962-5.411,39.071-37.118,43.021-42.036,4.179-5.9,4.918-9.343a44.821,44.821,0,0,0,.739-7.865Z" transform="translate(-43.6 -128.939)" fill="none" stroke="#263238" stroke-linecap="round" stroke-linejoin="round" stroke-width="1"/>
      <path id="Caminho_3033" data-name="Caminho 3033" d="M55.891,401.926c-1.019-1.631.654-13.327,1.266-17.336l-1.266.62C53.928,386.2,43.6,395.284,43.6,395.284l.985.739,8.112-4.179a14.873,14.873,0,0,1,0,7.135c-.985,3.686-.985,5.895,0,7.373s7.373,7.126,8.851,5.895-.493-8.112-.493-8.112S57.122,403.888,55.891,401.926Z" transform="translate(-43.6 -139.509)" fill="#263238" stroke="#263238" stroke-linecap="round" stroke-linejoin="round" stroke-width="1"/>
      <path id="Caminho_3034" data-name="Caminho 3034" d="M96.253,223.53s-9.343,15.73-9.827,22.126,5.895,24.335,5.895,24.335l6.15,40.074s35.674-8.12,48.177-12.783,23.6-13.522,23.6-13.522L134.356,245.41l-1.469-11.042Z" transform="translate(-50.046 -115.25)" fill="#263238" stroke="#263238" stroke-linecap="round" stroke-linejoin="round" stroke-width="1"/>
      <line id="Linha_3" data-name="Linha 3" x2="16.928" y2="32.217" transform="translate(64.043 133.311)" fill="none" stroke="gray" stroke-linecap="round" stroke-linejoin="round" stroke-width="1"/>
      <path id="Caminho_3035" data-name="Caminho 3035" d="M105.5,242.71s4.909.552,10.371,5.462" transform="translate(-52.923 -118.139)" fill="none" stroke="gray" stroke-linecap="round" stroke-linejoin="round" stroke-width="1"/>
      <path id="Caminho_3036" data-name="Caminho 3036" d="M123.127,157.54s-8.834,7.865-10.532,12.537-18.686,40.074-19.179,41.789,6.642,10.328,11.314,11.552,29.006,5.164,31.707,2.956,9.343-21.387,9.589-25.32-4.918-30.238-4.918-30.238Z" transform="translate(-51.1 -105.311)" fill="#ff6e3c"/>
      <g id="Grupo_587" data-name="Grupo 587" transform="translate(42.292 52.229)" clip-path="url(#clip-path-4)">
        <path id="Caminho_3037" data-name="Caminho 3037" d="M120.235,184.85s9.81,27.291,10.057,29.21-7.424,7.644-13.174,9.819-7.9-2.633-10.77-3.4c-2.446-.612-8.494-.357-10.277-.263,2.387,3.007,6.166,6.523,9.029,7.271,3.873,1.019,21.234,3.9,28.633,3.593A54.505,54.505,0,0,0,142.5,212.82C145.614,201.37,120.235,184.85,120.235,184.85Z" transform="translate(-93.795 -161.653)" opacity="0.2"/>
      </g>
      <path id="Caminho_3039" data-name="Caminho 3039" d="M123.127,157.54s-8.834,7.865-10.532,12.537-18.686,40.074-19.179,41.789,6.642,10.328,11.314,11.552,29.006,5.164,31.707,2.956,9.343-21.387,9.589-25.32-4.918-30.238-4.918-30.238Z" transform="translate(-51.1 -105.311)" fill="none" stroke="#263238" stroke-linecap="round" stroke-linejoin="round" stroke-width="1"/>
      <path id="Caminho_3040" data-name="Caminho 3040" d="M130.645,150.01,150.554,166l-3.44,8.851L126.95,156.16Z" transform="translate(-56.154 -104.177)" fill="#ff6e3c" stroke="#263238" stroke-linecap="round" stroke-linejoin="round" stroke-width="1"/>
      <path id="Caminho_3041" data-name="Caminho 3041" d="M167.748,202.476l.773-.3,34.238-12.443s2.208-7.126,2.947-9.343a3.763,3.763,0,0,1,2.947-2.7,20.033,20.033,0,0,1,3.44-.246h2.217s4.179-1.232,5.164.246,0,5.411,0,5.411,0,5.895-.985,7.373-4.179,2.7-5.946,3.44a25.476,25.476,0,0,1-4.179,1.232s-37.712,23.6-40.413,24.827-3.194,2.208-5.411.493a38.341,38.341,0,0,1-4.672-4.672l5.657-14.754Z" transform="translate(-60.812 -108.236)" fill="#fff"/>
      <g id="Grupo_588" data-name="Grupo 588" transform="translate(97.059 68.727)" clip-path="url(#clip-path-5)">
        <path id="Caminho_3042" data-name="Caminho 3042" d="M207.846,193.122c-2.4.722-42.384,15.569-42.384,15.569l-4.315-.238-3.228,8.409a38.343,38.343,0,0,0,4.672,4.672c2.217,1.7,2.71.739,5.411-.493s40.413-24.827,40.413-24.827a25.481,25.481,0,0,0,4.179-1.232c1.7-.739,4.918-1.962,5.946-3.44s.985-7.373.985-7.373a10.124,10.124,0,0,1-2.293,4.162C215.508,190.014,210.242,192.409,207.846,193.122Z" transform="translate(-157.878 -178.049)" opacity="0.2"/>
      </g>
      <path id="Caminho_3044" data-name="Caminho 3044" d="M167.748,202.476l.773-.3,34.238-12.443s2.208-7.126,2.947-9.343a3.763,3.763,0,0,1,2.947-2.7,20.033,20.033,0,0,1,3.44-.246h2.217s4.179-1.232,5.164.246,0,5.411,0,5.411,0,5.895-.985,7.373-4.179,2.7-5.946,3.44a25.476,25.476,0,0,1-4.179,1.232s-37.712,23.6-40.413,24.827-3.194,2.208-5.411.493a38.341,38.341,0,0,1-4.672-4.672l5.657-14.754Z" transform="translate(-60.812 -108.236)" fill="none" stroke="#263238" stroke-linecap="round" stroke-linejoin="round" stroke-width="1"/>
      <path id="Caminho_3045" data-name="Caminho 3045" d="M164.662,200.785S136.837,174.87,132.9,173.893s-8.358,2.947-8.6,8.358,27.826,41.891,27.826,41.891Z" transform="translate(-55.755 -107.751)" fill="#ff6e3c"/>
      <g id="Grupo_589" data-name="Grupo 589" transform="translate(68.543 65.992)" clip-path="url(#clip-path-6)">
        <path id="Caminho_3046" data-name="Caminho 3046" d="M156.185,217.219l-2.727-2.981,7.424-16.283-9.105,14.609L126.4,178.08l-.773.272A9.946,9.946,0,0,0,124.3,182.9c-.246,5.4,27.826,41.891,27.826,41.891Z" transform="translate(-124.298 -174.397)" opacity="0.2"/>
      </g>
      <path id="Caminho_3048" data-name="Caminho 3048" d="M164.662,200.785S136.837,174.87,132.9,173.893s-8.358,2.947-8.6,8.358,27.826,41.891,27.826,41.891Z" transform="translate(-55.755 -107.751)" fill="none" stroke="#263238" stroke-linecap="round" stroke-linejoin="round" stroke-width="1"/>
    </g>
  </g>
</svg>
