<svg xmlns="http://www.w3.org/2000/svg" width="100.49" height="100.49" viewBox="0 0 100.49 100.49">
  <g id="Grupo_10691" data-name="Grupo 10691" transform="translate(-504.918 -692)">
    <g id="pay" transform="translate(504.918 692)">
      <rect id="Retângulo_4876" data-name="Retângulo 4876" width="66.658" height="40.866" transform="translate(32.157 14.403)" fill="#00c853"/>
      <path id="Caminho_48809" data-name="Caminho 48809" d="M137.565,336.351a6.7,6.7,0,0,0-3.442-.951H127.7a13.4,13.4,0,0,0-3.46.454l-10.828,2.9-8.508,2.278a5.05,5.05,0,0,0-3.7,4.422,6.328,6.328,0,0,0,0,.788L82.079,335.9a4.983,4.983,0,0,0-3.433-.569,4.749,4.749,0,0,0-1.273.419,4.907,4.907,0,0,0-2.143,1.993,5.092,5.092,0,0,0-.671,2.512,5.015,5.015,0,0,0,2.5,4.355l30.519,18.256a6.694,6.694,0,0,0,3.527,1.005h23.6a6.714,6.714,0,0,0,2.462-.469l7.2-2.848V340.424Zm0,0" transform="translate(-58.95 -265.057)" fill="#d5887a"/>
      <path id="Caminho_48810" data-name="Caminho 48810" d="M421.4,358.147V328H408v30.147Zm0,0" transform="translate(-322.584 -259.332)" fill="#ff6e3c"/>
      <path id="Caminho_48811" data-name="Caminho 48811" d="M21.4,36.472V8H8V41.5H21.4Zm0,0" transform="translate(-6.325 -6.325)" fill="#d0a4ff"/>
      <path id="Caminho_48816" data-name="Caminho 48816" d="M293.4,142.7a6.7,6.7,0,1,1-6.7-6.7A6.7,6.7,0,0,1,293.4,142.7Zm0,0" transform="translate(-221.381 -107.528)" fill="#f1f2f2"/>
      <path id="Caminho_48817" data-name="Caminho 48817" d="M113.452,28.1l-6.7-6.7H125.31l-9.475-9.474A13.4,13.4,0,0,0,106.361,8H85.3a6.733,6.733,0,0,0-3,.707l-3.754,1.878a6.7,6.7,0,0,1-3.239.7L72,11.167v25.3h5.024l1.44.954a16.669,16.669,0,0,0,10.284,2.78V29.177a10.478,10.478,0,0,0,9.379-2.167l8.793,8.793a5.033,5.033,0,1,0,7.118-7.118Zm0,0" transform="translate(-56.927 -6.325)" fill="#f6bb93"/>
      <path id="Caminho_48818" data-name="Caminho 48818" d="M136.387,325.42l-4.266-2.556a8.393,8.393,0,0,0-4.3-1.189H121.4a15.152,15.152,0,0,0-3.894.5L98.163,327.37a6.745,6.745,0,0,0-4.554,4.224l-17.013-9.2a6.666,6.666,0,0,0-4.553-.752,6.284,6.284,0,0,0-1.694.556,6.585,6.585,0,0,0-2.877,2.68,6.711,6.711,0,0,0-.886,3.332A6.637,6.637,0,0,0,69.9,334l30.492,18.244A8.372,8.372,0,0,0,104.8,353.5h23.6a8.349,8.349,0,0,0,3.078-.586l4.914-1.941V353.5h16.748V320H136.387ZM130.242,349.8a5.039,5.039,0,0,1-1.842.352H104.8a5.039,5.039,0,0,1-2.668-.767L71.594,331.115a3.332,3.332,0,0,1-1.665-2.908,3.4,3.4,0,0,1,.449-1.675,3.292,3.292,0,0,1,1.438-1.328,3.152,3.152,0,0,1,.837-.271,3.52,3.52,0,0,1,.642-.06,3.284,3.284,0,0,1,1.641.435l18.449,9.969c.021.1.021.2.048.305a6.716,6.716,0,0,0,6.475,4.957,16.464,16.464,0,0,0,2.76-.492l17.4-4.656-.864-3.236-17.345,4.636c-.764.176-1.749.377-1.953.394a3.35,3.35,0,0,1-3.238-2.467,3.058,3.058,0,0,1-.1-.62s-.013-.406,0-.548a3.385,3.385,0,0,1,2.464-2.954l19.334-5.172a11.7,11.7,0,0,1,3.026-.4h6.42a5.022,5.022,0,0,1,2.581.714l5.988,3.585v18.043Zm9.495-26.446h10.049v26.8H139.737Zm0,0" transform="translate(-52.645 -253.007)" fill="#004798"/>
      <path id="Caminho_48819" data-name="Caminho 48819" d="M69.077,13.4,60.093,4.415A14.969,14.969,0,0,0,49.434,0H28.378a8.431,8.431,0,0,0-3.745.884L20.88,2.761a4.964,4.964,0,0,1-2.43.526l-1.7-.06V0H0V36.846H16.748V31.822H19.6l1.013.67a18.465,18.465,0,0,0,9.538,3.07V56.944H100.49V13.4ZM13.4,33.5H3.35V3.349H13.4ZM22.463,29.7,20.6,28.472H16.748V6.579l1.579.056a8.408,8.408,0,0,0,4.05-.877l3.75-1.878a5.034,5.034,0,0,1,2.251-.531H49.435a11.645,11.645,0,0,1,8.29,3.433L64.34,13.4H50.52L46.455,9.334,44.087,11.7,55.918,23.533a3.359,3.359,0,1,1-4.74,4.76L41.3,18.412l-1.173,1.005a8.877,8.877,0,0,1-11.289.167l-.971-.787-2.111,2.6.981.8a12.209,12.209,0,0,0,3.412,1.923V32.21A15.1,15.1,0,0,1,22.463,29.7Zm23.825-1.568,2.527,2.528a6.748,6.748,0,0,0,9.463.008,8.478,8.478,0,1,0,.952-1.214,6.587,6.587,0,0,0,.549-6.011H82.206a10.077,10.077,0,0,0,8.235,8.235V38.66A10.077,10.077,0,0,0,82.206,46.9H48.431A10.077,10.077,0,0,0,40.2,38.66V31.683a10,10,0,0,0,6.092-3.546Zm14.006,7.035A5.025,5.025,0,1,1,65.319,40.2,5.025,5.025,0,0,1,60.294,35.171ZM97.14,53.594H33.5V24.819a12.178,12.178,0,0,0,7.537-1.926l2.857,2.857a6.683,6.683,0,0,1-5.37,2.722H36.846v13.4h1.675a6.7,6.7,0,0,1,6.7,6.7v1.675h40.2V48.57a6.7,6.7,0,0,1,6.7-6.7h1.675v-13.4H92.116a6.7,6.7,0,0,1-6.7-6.7V20.1h-28.2l-3.35-3.35H97.14Zm0,0" transform="translate(0 0)" fill="#004798"/>
    </g>
  </g>
</svg>
