<svg xmlns="http://www.w3.org/2000/svg" width="100" height="99.981" viewBox="0 0 100 99.981">
  <g id="research" transform="translate(-15.999 -15.511)">
    <path id="Caminho_44136" data-name="Caminho 44136" d="M67.281,219.329v49.94a3.328,3.328,0,0,1-3.329,3.329H27.329A3.328,3.328,0,0,1,24,269.269V230.7a3.359,3.359,0,0,1,.976-2.355l11.365-11.365A3.359,3.359,0,0,1,38.7,216H63.952a3.328,3.328,0,0,1,3.329,3.329Z" transform="translate(-6.336 -158.771)" fill="#28d8de"/>
    <path id="Caminho_44137" data-name="Caminho 44137" d="M38.465,217.45v9.686a3.328,3.328,0,0,1-3.329,3.329H25.45a3.293,3.293,0,0,1,.674-.976L37.49,218.124A3.292,3.292,0,0,1,38.465,217.45Z" transform="translate(-7.484 -159.919)" fill="#28d8de"/>
    <path id="Caminho_44138" data-name="Caminho 44138" d="M280,384h9.988v11.653H280Z" transform="translate(-209.067 -291.813)" fill="#ff6e3c"/>
    <path id="Caminho_44139" data-name="Caminho 44139" d="M328,336h9.988v21.64H328Z" transform="translate(-247.079 -253.801)" fill="#28d8de"/>
    <path id="Caminho_44140" data-name="Caminho 44140" d="M376,288h9.988v31.628H376Z" transform="translate(-285.091 -215.789)" fill="#28d8de"/>
    <path id="Caminho_44141" data-name="Caminho 44141" d="M424,240h9.988v41.616H424Z" transform="translate(-323.103 -177.777)" fill="#28d8de"/>
    <g id="Grupo_9480" data-name="Grupo 9480" transform="translate(17.664 25.601)">
      <circle id="Elipse_409" data-name="Elipse 409" cx="3.329" cy="3.329" r="3.329" transform="translate(0 23.305)" fill="#00c853"/>
      <circle id="Elipse_410" data-name="Elipse 410" cx="3.329" cy="3.329" r="3.329" transform="translate(11.653 11.653)" fill="#00c853"/>
      <circle id="Elipse_411" data-name="Elipse 411" cx="3.329" cy="3.329" r="3.329" transform="translate(28.299 11.653)" fill="#00c853"/>
      <circle id="Elipse_412" data-name="Elipse 412" cx="3.329" cy="3.329" r="3.329" transform="translate(44.946)" fill="#00c853"/>
    </g>
    <path id="Caminho_44142" data-name="Caminho 44142" d="M335.952,43.975a19.917,19.917,0,1,1-5.833-14.142,19.976,19.976,0,0,1,5.833,14.142Z" transform="translate(-221.738 -6.722)" fill="#efb900"/>
    <path id="Caminho_44143" data-name="Caminho 44143" d="M411.976,43.976H392V24a19.976,19.976,0,0,1,19.976,19.976Z" transform="translate(-297.762 -6.723)" fill="#28d8de"/>
    <path id="Caminho_44144" data-name="Caminho 44144" d="M411.976,120a19.917,19.917,0,0,1-6.706,14.93L392,120Z" transform="translate(-297.762 -82.747)" fill="#ff6e3c"/>
    <circle id="Elipse_413" data-name="Elipse 413" cx="3.329" cy="3.329" r="3.329" transform="translate(47.628 63.888)" fill="#00c853"/>
    <circle id="Elipse_414" data-name="Elipse 414" cx="3.329" cy="3.329" r="3.329" transform="translate(49.293 100.51)" fill="#00c853"/>
    <path id="Caminho_44145" data-name="Caminho 44145" d="M120,264h4.994v3.329H120Z" transform="translate(-82.36 -196.783)" fill="#004798"/>
    <path id="Caminho_44146" data-name="Caminho 44146" d="M176,304h4.994v3.329H176Z" transform="translate(-126.707 -228.46)" fill="#004798"/>
    <path id="Caminho_44147" data-name="Caminho 44147" d="M120,304h8.323v3.329H120Z" transform="translate(-82.36 -228.46)" fill="#004798"/>
    <path id="Caminho_44148" data-name="Caminho 44148" d="M56,304h9.988v3.329H56Z" transform="translate(-31.677 -228.46)" fill="#004798"/>
    <path id="Caminho_44149" data-name="Caminho 44149" d="M104,344h19.976v3.329H104Z" transform="translate(-69.689 -260.137)" fill="#004798"/>
    <path id="Caminho_44150" data-name="Caminho 44150" d="M56,344h6.659v3.329H56Z" transform="translate(-31.677 -260.137)" fill="#004798"/>
    <path id="Caminho_44151" data-name="Caminho 44151" d="M152,384h9.988v3.329H152Z" transform="translate(-107.701 -291.813)" fill="#004798"/>
    <path id="Caminho_44152" data-name="Caminho 44152" d="M56,384H72.646v3.329H56Z" transform="translate(-31.677 -291.813)" fill="#004798"/>
    <path id="Caminho_44153" data-name="Caminho 44153" d="M104,424h9.988v3.329H104Z" transform="translate(-69.689 -323.49)" fill="#004798"/>
    <path id="Caminho_44154" data-name="Caminho 44154" d="M56,424h6.659v3.329H56Z" transform="translate(-31.677 -323.49)" fill="#004798"/>
    <path id="Caminho_44155" data-name="Caminho 44155" d="M112.55,214.659a1.665,1.665,0,0,0-1.665-1.665H100.9a1.665,1.665,0,0,0-1.665,1.665v8.323H90.909a1.665,1.665,0,0,0-1.665,1.665v8.323H80.921a1.665,1.665,0,0,0-1.665,1.665v8.323H70.933a1.665,1.665,0,0,0-1.665,1.665v9.988H57.33a4.994,4.994,0,1,0,0,3.329h1.951v4.994a1.667,1.667,0,0,1-1.665,1.665H20.994a1.667,1.667,0,0,1-1.665-1.665V224.646h8.323a5,5,0,0,0,4.994-4.994v-8.323h24.97a1.667,1.667,0,0,1,1.665,1.665v1.665H62.61v-1.665A5,5,0,0,0,57.616,208H32.361a4.961,4.961,0,0,0-3.531,1.463L17.463,220.83A4.961,4.961,0,0,0,16,224.361v38.573a5,5,0,0,0,4.994,4.994H57.616a5,5,0,0,0,4.994-4.994V257.94h53.269V254.61H112.55Zm-83.233-.975v5.969a1.667,1.667,0,0,1-1.665,1.665H21.684Zm23.305,44.256a1.665,1.665,0,1,1,1.665-1.665A1.665,1.665,0,0,1,52.622,257.939ZM72.6,246.287h6.659v8.323H72.6Zm9.988-9.988h6.659V254.61H82.586Zm9.988-9.988h6.659v28.3H92.574Zm9.988,28.3V216.323h6.659V254.61Z" transform="translate(0 -152.436)" fill="#004798"/>
    <path id="Caminho_44156" data-name="Caminho 44156" d="M20.993,89.284A4.993,4.993,0,0,0,25.5,82.138l4.995-4.995A4.992,4.992,0,0,0,37.354,74.3h7.231a4.993,4.993,0,0,0,9.632-.84l9.4-8.058a4.994,4.994,0,1,0-2.264-2.444L53.39,69.787a4.99,4.99,0,0,0-8.8,1.186H37.354a4.993,4.993,0,1,0-9.214,3.816l-4.995,4.995a4.994,4.994,0,1,0-2.152,9.5ZM65.939,59.32a1.665,1.665,0,1,1-1.665,1.665,1.665,1.665,0,0,1,1.665-1.665ZM49.293,70.973a1.665,1.665,0,1,1-1.665,1.665,1.665,1.665,0,0,1,1.665-1.665Zm-16.646,0a1.665,1.665,0,1,1-1.665,1.665A1.665,1.665,0,0,1,32.646,70.973ZM20.993,82.625a1.665,1.665,0,1,1-1.665,1.665A1.665,1.665,0,0,1,20.993,82.625Z" transform="translate(0 -32.055)" fill="#004798"/>
    <path id="Caminho_44157" data-name="Caminho 44157" d="M195.28,54.549l-11,11H169.7a4.994,4.994,0,1,0,0,3.329h3.616V98.845h3.329V68.882h8.323a1.665,1.665,0,0,0,1.177-.488L198.158,56.38a21.7,21.7,0,1,0-2.878-1.831ZM164.991,68.882a1.665,1.665,0,1,1,1.665-1.665A1.665,1.665,0,0,1,164.991,68.882Zm56.633-19.112-9.646-10.851h14.528a18.25,18.25,0,0,1-4.882,10.851Zm4.882-14.181h-16.57V19.019A18.341,18.341,0,0,1,226.506,35.589Zm-19.9-16.57V37.253a1.656,1.656,0,0,0,.422,1.1h0l12.11,13.624a18.308,18.308,0,1,1-12.53-32.964Z" transform="translate(-114.034 0)" fill="#004798"/>
  </g>
</svg>
