<svg id="Grupo_10481" data-name="Grupo 10481" xmlns="http://www.w3.org/2000/svg" width="100.251" height="100.277" viewBox="0 0 100.251 100.277">
  <g id="_025---Keyboard-Shortcuts" data-name="025---Keyboard-Shortcuts">
    <g id="Icons" transform="translate(1.671 18.377)">
      <path id="Shape" d="M86.872,9.012V40.085A20.064,20.064,0,0,0,57.954,50.777H5.012A5.012,5.012,0,0,1,0,45.765V9.012A5.012,5.012,0,0,1,5.012,4H81.86a5.012,5.012,0,0,1,5.012,5.012Z" transform="translate(0 2.682)" fill="#7fdbff"/>
      <path id="Shape-2" data-name="Shape" d="M50.585,24A20.022,20.022,0,0,0,31.69,37.365H36.7a20.019,20.019,0,0,1,16.417-13.2A20.433,20.433,0,0,0,50.585,24Z" transform="translate(21.252 16.095)" fill="rgba(0,0,0,0.1)"/>
      <path id="Shape-3" data-name="Shape" d="M51.012,4H46a5.012,5.012,0,0,1,5.012,5.012V38.055a19.743,19.743,0,0,1,5.012,2.03V9.012A5.012,5.012,0,0,0,51.012,4Z" transform="translate(30.848 2.682)" fill="rgba(0,0,0,0.1)"/>
      <g id="Grupo_10407" data-name="Grupo 10407" transform="translate(6.814 13.385)">
        <rect id="Rectangle-path" width="6.736" height="6.736" rx="1" transform="translate(0 0)" fill="#28d8de"/>
        <rect id="Rectangle-path-2" data-name="Rectangle-path" width="6.736" height="6.736" rx="1" transform="translate(0 26.943)" fill="#28d8de"/>
        <rect id="Rectangle-path-3" data-name="Rectangle-path" width="20.207" height="6.736" rx="1" transform="translate(53.273 13.471)" fill="#28d8de"/>
        <rect id="Rectangle-path-4" data-name="Rectangle-path" width="6.736" height="6.736" rx="1" transform="translate(13.471 0)" fill="#28d8de"/>
        <rect id="Rectangle-path-5" data-name="Rectangle-path" width="6.736" height="6.736" rx="1" transform="translate(26.33 0)" fill="#28d8de"/>
        <rect id="Rectangle-path-6" data-name="Rectangle-path" width="6.736" height="6.736" rx="1" transform="translate(39.802 0)" fill="#28d8de"/>
        <rect id="Rectangle-path-7" data-name="Rectangle-path" width="6.736" height="6.736" rx="1" transform="translate(0 13.471)" fill="#28d8de"/>
        <rect id="Rectangle-path-8" data-name="Rectangle-path" width="6.736" height="6.736" rx="1" transform="translate(13.471 13.471)" fill="#28d8de"/>
        <rect id="Rectangle-path-9" data-name="Rectangle-path" width="6.736" height="6.736" rx="1" transform="translate(26.33 13.471)" fill="#28d8de"/>
        <rect id="Rectangle-path-10" data-name="Rectangle-path" width="6.736" height="6.736" rx="1" transform="translate(39.802 13.471)" fill="#28d8de"/>
        <rect id="Rectangle-path-11" data-name="Rectangle-path" width="6.736" height="6.736" rx="1" transform="translate(53.273 0)" fill="#28d8de"/>
        <rect id="Rectangle-path-12" data-name="Rectangle-path" width="6.736" height="6.736" rx="1" transform="translate(66.745 0)" fill="#28d8de"/>
        <path id="Shape-4" data-name="Shape" d="M53.849,30.682H13.671A1.671,1.671,0,0,1,12,29.012V25.671A1.671,1.671,0,0,1,13.671,24H55.436a1.671,1.671,0,0,1,1.671,1.671v2.088" transform="translate(1.234 2.71)" fill="#28d8de"/>
      </g>
      <path id="Shape-5" data-name="Shape" d="M42.389,3.341V6.682H19V3.341A3.351,3.351,0,0,1,22.341,0H39.047A3.351,3.351,0,0,1,42.389,3.341Z" transform="translate(12.742)" fill="#0074FF"/>
      <path id="Shape-6" data-name="Shape" d="M33.012,0H28a3.351,3.351,0,0,1,3.341,3.341V6.682h5.012V3.341A3.351,3.351,0,0,0,33.012,0Z" transform="translate(18.777)" fill="rgba(0,0,0,0.1)"/>
      <path id="Shape-7" data-name="Shape" d="M74.095,44.041a20.047,20.047,0,1,1-40.095,0,19.713,19.713,0,0,1,1.153-6.682,20.047,20.047,0,0,1,38.942,6.683Z" transform="translate(22.801 16.101)" fill="#ff6e3c"/>
      <path id="Shape-8" data-name="Shape" d="M57.03,26.673A19.922,19.922,0,0,0,47.006,24a20.214,20.214,0,0,0-2.478.167,19.84,19.84,0,0,1,7.489,2.506A20.047,20.047,0,0,1,44.5,63.928,20.047,20.047,0,0,0,57.03,26.673Z" transform="translate(29.842 16.095)" fill="rgba(0,0,0,0.1)"/>
      <path id="Shape-9" data-name="Shape" d="M56.706,30.285V40.938a1.281,1.281,0,0,1-2.188.909l-2.362-2.369L50.239,41.4a13.119,13.119,0,0,0-3.6,10.358.6.6,0,0,1-1.019.451l-3.243-3.253a8.153,8.153,0,0,1,0-11.507l3.879-3.889-2.362-2.369A1.285,1.285,0,0,1,44.8,29H55.425a1.283,1.283,0,0,1,1.281,1.285Z" transform="translate(26.825 19.448)" fill="#f5f5f5"/>
    </g>
    <g id="Icons_copy">
      <path id="Shape-10" data-name="Shape" d="M10.682,18H7.341A3.341,3.341,0,0,0,4,21.341v3.341a3.341,3.341,0,0,0,3.341,3.341h3.341a3.341,3.341,0,0,0,3.341-3.341V21.341A3.341,3.341,0,0,0,10.682,18ZM7.341,24.682V21.341h3.341v3.341Z" transform="translate(2.682 12.071)" fill="#004798"/>
      <path id="Shape-11" data-name="Shape" d="M10.682,34H7.341A3.341,3.341,0,0,0,4,37.341v3.341a3.341,3.341,0,0,0,3.341,3.341h3.341a3.341,3.341,0,0,0,3.341-3.341V37.341A3.341,3.341,0,0,0,10.682,34ZM7.341,40.682V37.341h3.341v3.341Z" transform="translate(2.682 22.801)" fill="#004798"/>
      <path id="Shape-12" data-name="Shape" d="M39.341,36.024H56.047a3.341,3.341,0,0,0,3.341-3.341V29.341A3.341,3.341,0,0,0,56.047,26H39.341A3.341,3.341,0,0,0,36,29.341v3.341A3.341,3.341,0,0,0,39.341,36.024Zm0-6.682H56.047v3.341H39.341Z" transform="translate(24.142 17.436)" fill="#004798"/>
      <path id="Shape-13" data-name="Shape" d="M15.341,28.024h3.341a3.341,3.341,0,0,0,3.341-3.341V21.341A3.341,3.341,0,0,0,18.682,18H15.341A3.341,3.341,0,0,0,12,21.341v3.341A3.341,3.341,0,0,0,15.341,28.024Zm0-6.682h3.341v3.341H15.341Z" transform="translate(8.047 12.071)" fill="#004798"/>
      <path id="Shape-14" data-name="Shape" d="M23.341,28.024h3.341a3.341,3.341,0,0,0,3.341-3.341V21.341A3.341,3.341,0,0,0,26.682,18H23.341A3.341,3.341,0,0,0,20,21.341v3.341A3.341,3.341,0,0,0,23.341,28.024Zm0-6.682h3.341v3.341H23.341Z" transform="translate(13.412 12.071)" fill="#004798"/>
      <path id="Shape-15" data-name="Shape" d="M31.341,28.024h3.341a3.341,3.341,0,0,0,3.341-3.341V21.341A3.341,3.341,0,0,0,34.682,18H31.341A3.341,3.341,0,0,0,28,21.341v3.341A3.341,3.341,0,0,0,31.341,28.024Zm0-6.682h3.341v3.341H31.341Z" transform="translate(18.777 12.071)" fill="#004798"/>
      <path id="Shape-16" data-name="Shape" d="M10.682,26H7.341A3.341,3.341,0,0,0,4,29.341v3.341a3.341,3.341,0,0,0,3.341,3.341h3.341a3.341,3.341,0,0,0,3.341-3.341V29.341A3.341,3.341,0,0,0,10.682,26ZM7.341,32.682V29.341h3.341v3.341Z" transform="translate(2.682 17.436)" fill="#004798"/>
      <path id="Shape-17" data-name="Shape" d="M15.341,36.024h3.341a3.341,3.341,0,0,0,3.341-3.341V29.341A3.341,3.341,0,0,0,18.682,26H15.341A3.341,3.341,0,0,0,12,29.341v3.341A3.341,3.341,0,0,0,15.341,36.024Zm0-6.682h3.341v3.341H15.341Z" transform="translate(8.047 17.436)" fill="#004798"/>
      <path id="Shape-18" data-name="Shape" d="M23.341,36.024h3.341a3.341,3.341,0,0,0,3.341-3.341V29.341A3.341,3.341,0,0,0,26.682,26H23.341A3.341,3.341,0,0,0,20,29.341v3.341A3.341,3.341,0,0,0,23.341,36.024Zm0-6.682h3.341v3.341H23.341Z" transform="translate(13.412 17.436)" fill="#004798"/>
      <path id="Shape-19" data-name="Shape" d="M31.341,36.024h3.341a3.341,3.341,0,0,0,3.341-3.341V29.341A3.341,3.341,0,0,0,34.682,26H31.341A3.341,3.341,0,0,0,28,29.341v3.341A3.341,3.341,0,0,0,31.341,36.024Zm0-6.682h3.341v3.341H31.341Z" transform="translate(18.777 17.436)" fill="#004798"/>
      <path id="Shape-20" data-name="Shape" d="M39.341,28.024h3.341a3.341,3.341,0,0,0,3.341-3.341V21.341A3.341,3.341,0,0,0,42.682,18H39.341A3.341,3.341,0,0,0,36,21.341v3.341A3.341,3.341,0,0,0,39.341,28.024Zm0-6.682h3.341v3.341H39.341Z" transform="translate(24.142 12.071)" fill="#004798"/>
      <path id="Shape-21" data-name="Shape" d="M47.341,28.024h3.341a3.341,3.341,0,0,0,3.341-3.341V21.341A3.341,3.341,0,0,0,50.682,18H47.341A3.341,3.341,0,0,0,44,21.341v3.341A3.341,3.341,0,0,0,47.341,28.024Zm0-6.682h3.341v3.341H47.341Z" transform="translate(29.507 12.071)" fill="#004798"/>
      <path id="Shape-22" data-name="Shape" d="M90.213,60.247V30.071a6.682,6.682,0,0,0-6.682-6.682H58.471V21.718a5.012,5.012,0,0,0-5.012-5.012H46.777V6.682a5.012,5.012,0,1,0-10.024,0V8.353a1.671,1.671,0,0,1-3.341,0V1.671a1.671,1.671,0,1,0-3.341,0V8.353a5.012,5.012,0,1,0,10.024,0V6.682a1.671,1.671,0,0,1,3.341,0V16.706H36.753a5.012,5.012,0,0,0-5.012,5.012v1.671H6.682A6.682,6.682,0,0,0,0,30.071V66.824a6.682,6.682,0,0,0,6.682,6.682H57.407a21.718,21.718,0,1,0,32.806-13.26ZM35.083,21.718a1.671,1.671,0,0,1,1.671-1.671H53.46a1.671,1.671,0,0,1,1.671,1.671v1.671H35.083ZM6.682,70.166a3.341,3.341,0,0,1-3.341-3.341V30.071A3.341,3.341,0,0,1,6.682,26.73H83.531a3.341,3.341,0,0,1,3.341,3.341v28.4a21.631,21.631,0,0,0-18.489.849A3.341,3.341,0,0,0,65.154,56.8H23.389a3.341,3.341,0,0,0-3.341,3.341v3.341a3.341,3.341,0,0,0,3.341,3.341H60.247a21.488,21.488,0,0,0-1.776,3.341Zm56.2-6.682H23.389V60.142H65.154v1.293A22,22,0,0,0,62.884,63.483ZM78.519,96.9A18.377,18.377,0,1,1,96.9,78.519,18.377,18.377,0,0,1,78.519,96.9Z" fill="#004798"/>
      <path id="Shape-23" data-name="Shape" d="M57.092,39H46.469a2.955,2.955,0,0,0-2.088,5.044l1.186,1.189-2.7,2.71a9.832,9.832,0,0,0,0,13.866l3.243,3.253a2.267,2.267,0,0,0,3.871-1.694,11.445,11.445,0,0,1,3.114-9.117l.733-.735L55,54.7a2.952,2.952,0,0,0,5.042-2.09V41.955A2.957,2.957,0,0,0,57.092,39ZM56.7,51.67l-1.7-1.7a1.671,1.671,0,0,0-2.366,0L50.725,51.89a13.993,13.993,0,0,0-4.06,9l-1.437-1.44a6.487,6.487,0,0,1,0-9.148l3.879-3.889a1.671,1.671,0,0,0,0-2.359L47.4,42.341h9.3Z" transform="translate(26.826 26.154)" fill="#004798"/>
    </g>
  </g>
</svg>
