<svg xmlns="http://www.w3.org/2000/svg" width="92.18" height="99.98" viewBox="0 0 92.18 99.98">
  <g id="Grupo_10693" data-name="Grupo 10693" transform="translate(-1133.991 -692.51)">
    <g id="gain" transform="translate(1114.019 692.51)">
      <g id="Grupo_10590" data-name="Grupo 10590" transform="translate(30.169 14.348)">
        <g id="Grupo_10589" data-name="Grupo 10589">
          <path id="Caminho_48827" data-name="Caminho 48827" d="M107.486,90,91.559,74.068a2.015,2.015,0,0,0-2.85,0L72.781,90a2.015,2.015,0,0,0,1.425,3.44H79.89V118.8a2.015,2.015,0,0,0,2.015,2.015H98.362a2.015,2.015,0,0,0,2.015-2.015V93.436h5.684A2.015,2.015,0,0,0,107.486,90Z" transform="translate(-72.187 -73.477)" fill="#d0a4ff"/>
          <path id="Caminho_48828" data-name="Caminho 48828" d="M166.147,93.433h-5.684V118.8a2.015,2.015,0,0,1-2.015,2.015h-6.733a2.015,2.015,0,0,0,2.015-2.015V95.386a1.953,1.953,0,0,1,1.953-1.953h3.73a2.014,2.014,0,0,0,1.426-3.439L146.852,76.007l1.941-1.941a2.017,2.017,0,0,1,2.851,0l15.927,15.929A2.014,2.014,0,0,1,166.147,93.433Z" transform="translate(-132.272 -73.476)" fill="rgba(0,0,0,0.1)"/>
        </g>
      </g>
      <g id="Grupo_10595" data-name="Grupo 10595" transform="translate(21.435 27.986)">
        <g id="Grupo_10592" data-name="Grupo 10592" transform="translate(53.361)">
          <g id="Grupo_10591" data-name="Grupo 10591">
            <path id="Caminho_48829" data-name="Caminho 48829" d="M336.024,159.838,320.1,143.911a2.015,2.015,0,0,0-2.85,0l-15.928,15.928a2.015,2.015,0,0,0,1.425,3.44h5.684v44.893a2.015,2.015,0,0,0,2.015,2.015H326.9a2.015,2.015,0,0,0,2.015-2.015V163.279H334.6A2.015,2.015,0,0,0,336.024,159.838Z" transform="translate(-300.725 -143.32)" fill="#00c853"/>
            <path id="Caminho_48830" data-name="Caminho 48830" d="M394.684,163.276H389v44.892a2.015,2.015,0,0,1-2.015,2.015h-6.733a2.015,2.015,0,0,0,2.015-2.015V165.229a1.953,1.953,0,0,1,1.953-1.953h3.73a2.016,2.016,0,0,0,1.426-3.441l-13.986-13.988,1.941-1.941a2.017,2.017,0,0,1,2.851,0l15.927,15.928A2.016,2.016,0,0,1,394.684,163.276Z" transform="translate(-360.811 -143.317)" fill="rgba(0,0,0,0.1)"/>
          </g>
        </g>
        <g id="Grupo_10594" data-name="Grupo 10594" transform="translate(0 4.882)">
          <g id="Grupo_10593" data-name="Grupo 10593">
            <path id="Caminho_48831" data-name="Caminho 48831" d="M62.761,184.838,46.834,168.911a2.015,2.015,0,0,0-2.85,0L28.056,184.838a2.015,2.015,0,0,0,1.425,3.44h5.684V228.29a2.015,2.015,0,0,0,2.015,2.015H53.637a2.015,2.015,0,0,0,2.015-2.015V188.279h5.684a2.015,2.015,0,0,0,1.425-3.44Z" transform="translate(-27.462 -168.32)" fill="#00c853"/>
            <path id="Caminho_48832" data-name="Caminho 48832" d="M121.425,188.277h-5.684v40.01a2.015,2.015,0,0,1-2.015,2.015h-6.733a2.015,2.015,0,0,0,2.015-2.015V190.23a1.953,1.953,0,0,1,1.953-1.953h3.732a2.016,2.016,0,0,0,1.425-3.441l-13.985-13.985,1.941-1.943a2.014,2.014,0,0,1,2.849,0l15.928,15.928A2.016,2.016,0,0,1,121.425,188.277Z" transform="translate(-87.551 -168.318)" fill="rgba(0,0,0,0.1)"/>
          </g>
        </g>
      </g>
      <g id="Grupo_10600" data-name="Grupo 10600" transform="translate(19.973 0)">
        <g id="Grupo_10597" data-name="Grupo 10597" transform="translate(43.516 1.464)">
          <g id="Grupo_10596" data-name="Grupo 10596">
            <path id="Caminho_48833" data-name="Caminho 48833" d="M278.118,24.018,262.191,8.091a2.015,2.015,0,0,0-2.85,0L243.413,24.018a2.015,2.015,0,0,0,1.425,3.44h5.684V72.352a2.015,2.015,0,0,0,2.015,2.015h16.457a2.015,2.015,0,0,0,2.015-2.015V27.459h5.684A2.015,2.015,0,0,0,278.118,24.018Z" transform="translate(-242.819 -7.5)" fill="#28d8de"/>
            <path id="Caminho_48834" data-name="Caminho 48834" d="M336.785,27.457H331.1V72.349a2.015,2.015,0,0,1-2.015,2.015h-6.733a2.015,2.015,0,0,0,2.015-2.015V29.41a1.953,1.953,0,0,1,1.953-1.953h3.732a2.016,2.016,0,0,0,1.425-3.441L317.492,10.031l1.941-1.943a2.014,2.014,0,0,1,2.849,0l15.929,15.929a2.016,2.016,0,0,1-1.425,3.441Z" transform="translate(-302.91 -7.498)" fill="rgba(0,0,0,0.1)"/>
          </g>
        </g>
        <g id="Grupo_10599" data-name="Grupo 10599">
          <circle id="Elipse_438" data-name="Elipse 438" cx="28.285" cy="28.285" r="28.285" transform="translate(16.311 41.946)" fill="#d0a4ff"/>
          <path id="Caminho_48835" data-name="Caminho 48835" d="M266.706,243.093a28.286,28.286,0,0,1-28.285,28.285c-.811,0-1.616-.035-2.409-.1a28.286,28.286,0,0,0,0-56.366c.793-.067,1.6-.1,2.409-.1A28.284,28.284,0,0,1,266.706,243.093Z" transform="translate(-193.825 -172.863)" fill="rgba(0,0,0,0.1)"/>
          <circle id="Elipse_439" data-name="Elipse 439" cx="22.184" cy="22.184" r="22.184" transform="translate(22.412 48.047)" fill="#00c853"/>
          <path id="Caminho_48836" data-name="Caminho 48836" d="M258.3,268.232a22.185,22.185,0,0,1-22.183,22.185,22.489,22.489,0,0,1-2.967-.2,22.187,22.187,0,0,0,0-43.975,22.492,22.492,0,0,1,2.967-.2A22.183,22.183,0,0,1,258.3,268.232Z" transform="translate(-191.525 -198.002)" fill="rgba(0,0,0,0.1)"/>
          <circle id="Elipse_440" data-name="Elipse 440" cx="14.885" cy="14.885" r="14.885" transform="translate(29.711 55.345)" fill="#28d8de"/>
          <path id="Caminho_48837" data-name="Caminho 48837" d="M237.918,298.311a14.891,14.891,0,0,1-21.025,13.564,13.731,13.731,0,1,0,2.147-27.294,13.927,13.927,0,0,0-2.151.168,14.895,14.895,0,0,1,21.029,13.562Z" transform="translate(-178.436 -228.081)" fill="rgba(0,0,0,0.1)"/>
          <g id="Grupo_10598" data-name="Grupo 10598">
            <path id="Caminho_48838" data-name="Caminho 48838" d="M111.132,43.469,95.2,27.542a3.5,3.5,0,0,0-2.06-.992V22.887h4.219a3.48,3.48,0,0,0,2.461-5.94L83.9,1.02a3.48,3.48,0,0,0-4.922,0L63.048,16.947a3.48,3.48,0,0,0,2.461,5.94h4.219V40.93a29.848,29.848,0,0,0-9.9-.069v-5.09h4.22a3.48,3.48,0,0,0,2.461-5.94l-6.843-6.843a1.465,1.465,0,0,0-2.071,2.071L64.433,31.9a.551.551,0,0,1-.389.94H58.36a1.464,1.464,0,0,0-1.465,1.465v7.18a29.525,29.525,0,0,0-4.421,1.567L41.843,32.423a3.484,3.484,0,0,0-4.921,0l-.419.419H32.188a.551.551,0,0,1-.389-.94L47.726,15.974a.551.551,0,0,1,.779,0l4.246,4.246a1.465,1.465,0,0,0,2.071-2.071L50.576,13.9a3.484,3.484,0,0,0-4.921,0L29.727,29.831a3.48,3.48,0,0,0,2.461,5.94h1.386l-12.58,12.58a3.48,3.48,0,0,0,2.46,5.94h4.22V92.838a3.484,3.484,0,0,0,3.48,3.48H47.61a3.477,3.477,0,0,0,1.8-.5,29.686,29.686,0,0,0,32.14-1.172,3.478,3.478,0,0,0,2.968,1.673h16.457a3.484,3.484,0,0,0,3.48-3.48V49.41h4.22a3.48,3.48,0,0,0,2.461-5.94ZM31.154,93.389a.551.551,0,0,1-.551-.551V52.827a1.464,1.464,0,0,0-1.465-1.465H23.454a.551.551,0,0,1-.389-.94L38.993,34.495a.55.55,0,0,1,.779,0l9.959,9.959a29.725,29.725,0,0,0-3.813,48.935H31.154Zm33.415,3.662a26.82,26.82,0,1,1,26.82-26.82A26.851,26.851,0,0,1,64.569,97.051ZM109.18,46.141a.525.525,0,0,1-.509.34h-5.684a1.464,1.464,0,0,0-1.465,1.465V92.838a.551.551,0,0,1-.551.551H84.515a.551.551,0,0,1-.551-.551c0-.022,0-.044,0-.065a29.717,29.717,0,0,0,9.183-30.817V44.118a1.465,1.465,0,0,0-2.929,0V55.171A29.879,29.879,0,0,0,72.657,41.6V21.423a1.464,1.464,0,0,0-1.465-1.465H65.509a.551.551,0,0,1-.389-.94L81.047,3.09a.55.55,0,0,1,.779,0L97.753,19.018a.551.551,0,0,1-.389.94H91.68a1.464,1.464,0,0,0-1.465,1.465V37.275a1.465,1.465,0,0,0,2.929,0V29.624L109.061,45.54A.525.525,0,0,1,109.18,46.141Z" transform="translate(-19.973 0)" fill="#004798"/>
            <path id="Caminho_48839" data-name="Caminho 48839" d="M150.893,238.548a23.475,23.475,0,0,0-13.876,4.5,1.465,1.465,0,1,0,1.721,2.371,20.718,20.718,0,1,1-4.537,4.5,1.465,1.465,0,1,0-2.358-1.737,23.649,23.649,0,1,0,19.051-9.637Z" transform="translate(-106.297 -191.966)" fill="#004798"/>
            <path id="Caminho_48840" data-name="Caminho 48840" d="M180.97,308.623a16.35,16.35,0,1,0-16.35-16.35A16.368,16.368,0,0,0,180.97,308.623Zm0-29.771a13.421,13.421,0,1,1-13.421,13.421A13.436,13.436,0,0,1,180.97,278.852Z" transform="translate(-136.374 -222.042)" fill="#004798"/>
            <path id="Caminho_48841" data-name="Caminho 48841" d="M219.258,320.676v1.158a1.465,1.465,0,1,0,2.929,0v-1.158c2.994-.555,5.239-2.771,5.239-5.414,0-3.927-3.559-4.858-6.158-5.538-2.429-.636-3.291-1.007-3.291-1.827,0-.968,1.283-1.817,2.745-1.817s2.746.849,2.746,1.817a1.465,1.465,0,0,0,2.929,0,4.987,4.987,0,0,0-4.21-4.585v-1.184a1.465,1.465,0,1,0-2.929,0v1.184a4.987,4.987,0,0,0-4.21,4.585c0,3.227,3.167,4.056,5.479,4.661,2.979.78,3.97,1.28,3.97,2.7s-1.729,2.619-3.775,2.619-3.775-1.2-3.775-2.619a1.465,1.465,0,1,0-2.929,0C214.019,317.905,216.264,320.121,219.258,320.676Z" transform="translate(-176.127 -241.951)" fill="#004798"/>
          </g>
        </g>
      </g>
    </g>
  </g>
</svg>
