<svg xmlns="http://www.w3.org/2000/svg" width="104.933" height="100" viewBox="0 0 104.933 100">
  <g id="online" transform="translate(0 -0.5)">
    <path id="Caminho_43922" data-name="Caminho 43922" d="M109.494,309.352v9.661a4.17,4.17,0,0,1-4.168,4.17H12.438a4.17,4.17,0,0,1-4.168-4.17v-9.661Zm0,0" transform="translate(-6.415 -239.603)" fill="#0074FF"/>
    <path id="Caminho_43923" data-name="Caminho 43923" d="M83,102.892V55.922h22.325a4.167,4.167,0,0,1,4.168,4.168v52.655H8.269V60.09a4.167,4.167,0,0,1,4.168-4.168h22.1v46.97Zm0,0" transform="translate(-6.415 -42.996)" fill="#7fdbff"/>
    <path id="Caminho_43924" data-name="Caminho 43924" d="M173.891,19.327V66.3H125.429V8.75l4.841,4.993,4.843-4.993,4.845,4.993L144.8,8.75l4.845,4.993L154.5,8.75l4.843,4.993,4.85-4.993,4.852,4.993,4.85-4.993Zm0,0" transform="translate(-97.306 -6.4)" fill="#efb900"/>
    <path id="Caminho_43925" data-name="Caminho 43925" d="M185.5,371.039l4.168,15.07H154.039l4.168-15.07Zm0,0" transform="translate(-119.501 -287.459)" fill="#7fdbff"/>
    <g id="Grupo_9404" data-name="Grupo 9404" transform="translate(0 0.5)">
      <path id="Caminho_43926" data-name="Caminho 43926" d="M98.911,11.038H78.476V2.35A1.847,1.847,0,0,0,75.323,1.1L71.747,4.769,68.176,1.1a1.8,1.8,0,0,0-2.578,0L62.035,4.768l-3.557-3.7a1.732,1.732,0,0,0-2.574,0L52.343,4.754l-3.558-3.66a1.8,1.8,0,0,0-2.575.005L42.653,4.766,39.094,1.1a1.793,1.793,0,0,0-2.574,0L32.964,4.766,29.412,1.1A1.873,1.873,0,0,0,27.4.687,1.838,1.838,0,0,0,26.233,2.35v8.688H6.023A6.1,6.1,0,0,0,0,17.095V79.411a6.111,6.111,0,0,0,6.022,6.067H36.349L33.174,96.913H26.716a1.794,1.794,0,0,0,0,3.587H77.994a1.794,1.794,0,1,0,0-3.587H71.536L68.36,85.478h30.55a6.111,6.111,0,0,0,6.022-6.067V17.095a6.1,6.1,0,0,0-6.022-6.056ZM31.629,8.592a1.85,1.85,0,0,0,1.311.545h.012a1.807,1.807,0,0,0,1.294-.545l3.559-3.666,3.559,3.666a1.795,1.795,0,0,0,2.576,0L47.5,4.926l3.558,3.666a1.794,1.794,0,0,0,2.574,0l3.56-3.667,3.556,3.72a1.684,1.684,0,0,0,2.574,0l3.564-3.7,3.565,3.655a1.791,1.791,0,0,0,1.287.537A1.905,1.905,0,0,0,73.07,8.6l1.818-1.824V58.123H29.821V6.778ZM6.023,14.626H26.234v43.5H19.155a1.794,1.794,0,1,0,0,3.587h66.4a1.794,1.794,0,0,0,0-3.587H78.476v-43.5H98.911a2.51,2.51,0,0,1,2.435,2.469V67.989H3.588V17.095a2.51,2.51,0,0,1,2.435-2.469ZM67.813,96.912H36.9l3.176-11.435H64.637Zm31.1-15.022H6.023a2.52,2.52,0,0,1-2.435-2.48V71.576h97.758v7.834a2.52,2.52,0,0,1-2.435,2.48Zm0,0" transform="translate(0 -0.5)" fill="#004798"/>
      <path id="Caminho_43927" data-name="Caminho 43927" d="M190.794,190.087h16.368a1.794,1.794,0,1,0,0-3.587H190.794a1.794,1.794,0,0,0,0,3.587Zm0,0" transform="translate(-146.623 -144.796)" fill="#004798"/>
      <path id="Caminho_43928" data-name="Caminho 43928" d="M156.044,223.087h31.951a1.794,1.794,0,0,0,0-3.587H156.044a1.794,1.794,0,1,0,0,3.587Zm0,0" transform="translate(-119.665 -170.397)" fill="#004798"/>
      <path id="Caminho_43929" data-name="Caminho 43929" d="M211.2,68.13a3,3,0,0,1-3-3,1.794,1.794,0,0,0-3.587,0,6.6,6.6,0,0,0,4.345,6.191v1.409a1.794,1.794,0,1,0,3.587,0V71.579A6.586,6.586,0,0,0,211.2,58.545a3,3,0,1,1,3-3,1.794,1.794,0,1,0,3.587,0,6.6,6.6,0,0,0-5.242-6.449v-.8a1.794,1.794,0,1,0-3.587,0v1.06a6.586,6.586,0,0,0,2.242,12.78,3,3,0,0,1,0,6Zm0,0" transform="translate(-158.73 -36.186)" fill="#004798"/>
    </g>
  </g>
</svg>
