<svg xmlns="http://www.w3.org/2000/svg" width="100" height="100.014" viewBox="0 0 100 100.014">
  <g id="bar-graph" transform="translate(-0.036)">
    <circle id="Elipse_404" data-name="Elipse 404" cx="3.474" cy="3.474" r="3.474" transform="translate(81.211 1.579)" fill="#9f33dd"/>
    <circle id="Elipse_405" data-name="Elipse 405" cx="3.474" cy="3.474" r="3.474" transform="translate(46.55 19.267)" fill="#00c853"/>
    <circle id="Elipse_406" data-name="Elipse 406" cx="3.474" cy="3.474" r="3.474" transform="translate(29.221 40.257)" fill="#28d8de"/>
    <circle id="Elipse_407" data-name="Elipse 407" cx="3.473" cy="3.473" r="3.473" transform="translate(11.889 30.958)" fill="#d0a4ff"/>
    <path id="Caminho_43859" data-name="Caminho 43859" d="M82.729,481.583l19.535,0a2.7,2.7,0,0,0,0-5.4l-19.746,0-22.266,0H52.835l-12.328,0-29.682,0a2.7,2.7,0,0,0,0,5.4l29.683,0,12.329,0h7.417l16.889,0" transform="translate(-6.507 -383.161)" fill="#fff"/>
    <path id="Caminho_43860" data-name="Caminho 43860" d="M406.371,146.723l0-12.025a3.748,3.748,0,0,0-3.748-3.747l-9.837,0a3.748,3.748,0,0,0-3.747,3.749l.011,63.689,17.332,0-.008-46.118" transform="translate(-313.013 -105.371)" fill="#9f33dd"/>
    <path id="Caminho_43861" data-name="Caminho 43861" d="M317.67,307.943l-.006-37.1a3.748,3.748,0,0,0-3.749-3.747l-9.837,0a3.748,3.748,0,0,0-3.747,3.748l.006,37.1Z" transform="translate(-241.636 -214.923)" fill="#ff6e3c"/>
    <path id="Caminho_43862" data-name="Caminho 43862" d="M228.936,271.26l-.008-46.006a3.748,3.748,0,0,0-3.748-3.747l-9.837,0a3.747,3.747,0,0,0-3.747,3.748l.008,46.006Z" transform="translate(-170.234 -178.238)" fill="#00c853"/>
    <path id="Caminho_43863" data-name="Caminho 43863" d="M140.225,357.723l0-25.02a3.748,3.748,0,0,0-3.748-3.747l-9.837,0a3.748,3.748,0,0,0-3.747,3.748l0,25.021Z" transform="translate(-98.854 -264.698)" fill="#28d8de"/>
    <path id="Caminho_43864" data-name="Caminho 43864" d="M51.49,319.42,51.484,285.1a3.748,3.748,0,0,0-3.748-3.747l-9.837,0a3.747,3.747,0,0,0-3.747,3.748l.006,34.322Z" transform="translate(-27.452 -226.391)" fill="#d0a4ff"/>
    <path id="Caminho_43865" data-name="Caminho 43865" d="M13.175,478.9a2.7,2.7,0,0,1,2.7-2.7l29.683-.005,12.328,0H65.3l22.266,0,14.8,0c-.036,0-.07-.005-.106-.005l-19.746,0-22.266,0H52.835l-12.328,0-29.683.005a2.7,2.7,0,0,0,0,5.4H15.77A2.7,2.7,0,0,1,13.175,478.9Z" transform="translate(-6.507 -383.16)" fill="rgba(0,0,0,0.15)"/>
    <path id="Caminho_43866" data-name="Caminho 43866" d="M394.088,134.706a3.748,3.748,0,0,1,3.747-3.749h4.89c-.035,0-.07-.005-.1-.005l-9.837,0a3.748,3.748,0,0,0-3.747,3.749l.011,63.689H394.1Z" transform="translate(-313.013 -105.372)" fill="rgba(0,0,0,0.15)"/>
    <path id="Caminho_43867" data-name="Caminho 43867" d="M305.384,270.853a3.747,3.747,0,0,1,3.747-3.748h4.892c-.036,0-.071-.005-.107-.005l-9.837,0a3.748,3.748,0,0,0-3.747,3.748l.006,37.1h5.052Z" transform="translate(-241.636 -214.924)" fill="rgba(0,0,0,0.15)"/>
    <path id="Caminho_43868" data-name="Caminho 43868" d="M216.649,225.262a3.748,3.748,0,0,1,3.747-3.749h4.89c-.035,0-.069-.005-.1-.005l-9.837,0a3.747,3.747,0,0,0-3.747,3.748l.008,46.006h5.052Z" transform="translate(-170.235 -178.239)" fill="rgba(0,0,0,0.15)"/>
    <path id="Caminho_43869" data-name="Caminho 43869" d="M127.939,332.712a3.748,3.748,0,0,1,3.747-3.748h4.891c-.035,0-.07-.005-.106-.005l-9.837,0a3.748,3.748,0,0,0-3.747,3.748l0,25.021h5.052Z" transform="translate(-98.853 -264.7)" fill="rgba(0,0,0,0.15)"/>
    <path id="Caminho_43870" data-name="Caminho 43870" d="M39.2,285.106a3.748,3.748,0,0,1,3.747-3.749h4.891c-.036,0-.071-.005-.107-.005l-9.837,0a3.747,3.747,0,0,0-3.747,3.748l.006,34.322h5.052Z" transform="translate(-27.451 -226.392)" fill="rgba(0,0,0,0.15)"/>
    <circle id="Elipse_408" data-name="Elipse 408" cx="3.474" cy="3.474" r="3.474" transform="translate(63.885 28.173)" fill="#ff6e3c"/>
    <g id="Grupo_9368" data-name="Grupo 9368" transform="translate(0.036)">
      <path id="Caminho_43871" data-name="Caminho 43871" d="M95.756,190.3h-.811l-.008-44.539a1.579,1.579,0,1,0-3.158,0l.008,44.539-9.361,0H77.613l0-9.372,0-26.146s0,0,0-.006l0-26.586a2.172,2.172,0,0,1,2.168-2.169l9.837,0a2.171,2.171,0,0,1,2.169,2.169l0,12.025a1.579,1.579,0,1,0,3.158,0l0-12.025a5.333,5.333,0,0,0-5.326-5.326h0l-9.837,0a5.333,5.333,0,0,0-5.326,5.328l0,21.729a5.293,5.293,0,0,0-2.169-.463l-9.837,0a5.309,5.309,0,0,0-2.168.46v-4.042a5.333,5.333,0,0,0-5.327-5.326l-9.837,0a5.326,5.326,0,0,0-5.326,5.327l0,16.123a5.3,5.3,0,0,0-2.169-.463l-9.837,0a5.3,5.3,0,0,0-2.169.464v-4.439a5.333,5.333,0,0,0-5.327-5.326l-9.837,0a5.326,5.326,0,0,0-5.326,5.327l.006,32.744H4.315a4.28,4.28,0,0,0,0,8.561l66.317-.012a1.579,1.579,0,0,0,0-3.158l-66.317.012a1.123,1.123,0,1,1,0-2.245H6.706l17.332,0h6.721l34.931-.006,10.345,0H80.67l15.085,0a1.123,1.123,0,0,1,0,2.245l-19.535,0a1.579,1.579,0,0,0,0,3.158l19.535,0a4.281,4.281,0,0,0,0-8.561ZM60.91,153.258a2.155,2.155,0,0,1,1.534-.636l9.837,0a2.172,2.172,0,0,1,2.169,2.165l.006,35.522-14.174,0,0-15.7,0-19.825A2.152,2.152,0,0,1,60.91,153.258Zm-17.334-8.906a2.154,2.154,0,0,1,1.533-.635l9.837,0a2.171,2.171,0,0,1,2.169,2.168l0,8.906v0l.006,35.519-14.174,0,0-22.923,0-21.5A2.155,2.155,0,0,1,43.576,144.352ZM27.781,164.706l9.837,0a2.171,2.171,0,0,1,2.168,2.168l0,23.441-7.74,0H25.617l0-23.442A2.171,2.171,0,0,1,27.781,164.706Zm-19.5-7.13a2.169,2.169,0,0,1,2.168-2.169l9.837,0a2.171,2.171,0,0,1,2.169,2.169l0,26.378v6.366l-14.174,0Z" transform="translate(-0.036 -98.867)" fill="#004798"/>
      <path id="Caminho_43872" data-name="Caminho 43872" d="M57.684,39.484h0a5.033,5.033,0,0,0,3.478-1.394l8.879,4.764a5.051,5.051,0,0,0,4.975,5.929h0a5.048,5.048,0,0,0,4.27-7.746l11.22-13.59a5.024,5.024,0,0,0,1.837.347h0a5.035,5.035,0,0,0,3.544-1.456l8.8,4.521A5.051,5.051,0,0,0,109.68,36.7h0a5.049,5.049,0,0,0,3.94-8.209L125.71,9.935a5.035,5.035,0,0,0,1.3.17h0a5.06,5.06,0,1,0-3.942-1.9l-12.09,18.555a5.041,5.041,0,0,0-4.841,1.287l-8.8-4.521a5.053,5.053,0,1,0-9.262,1.9L76.855,39.026a5.042,5.042,0,0,0-5.318,1.045l-8.878-4.763a5.052,5.052,0,1,0-4.975,4.175ZM125.667,3.713a1.895,1.895,0,1,1,1.34,3.234v0a1.894,1.894,0,0,1-1.34-3.234ZM109.679,29.753a1.895,1.895,0,1,1-1.894,1.9A1.9,1.9,0,0,1,109.679,29.753ZM91.006,21.4a1.894,1.894,0,1,1,1.34,3.234v0a1.894,1.894,0,0,1-1.34-3.234ZM73.677,42.391a1.895,1.895,0,1,1,1.34,3.234v0a1.895,1.895,0,0,1-1.34-3.234ZM57.684,32.537a1.894,1.894,0,1,1-1.894,1.895A1.9,1.9,0,0,1,57.684,32.537Z" transform="translate(-42.358)" fill="#004798"/>
    </g>
  </g>
</svg>
