<svg xmlns="http://www.w3.org/2000/svg" width="89.774" height="100" viewBox="0 0 89.774 100">
  <g id="sell" transform="translate(-26.18)">
    <g id="Grupo_9412" data-name="Grupo 9412" transform="translate(37.021 1.465)">
      <g id="Grupo_9410" data-name="Grupo 9410" transform="translate(0)">
        <path id="Caminho_43950" data-name="Caminho 43950" d="M147.849,73.726H83.614A1.928,1.928,0,0,1,81.686,71.8V46.308a1.928,1.928,0,0,1,1.928-1.928h64.235a1.928,1.928,0,0,1,1.928,1.928V71.8A1.928,1.928,0,0,1,147.849,73.726Z" transform="translate(-81.686 -37.177)" fill="#00c853"/>
        <path id="Caminho_43930" data-name="Caminho 43930" d="M147.849,73.726H83.614A1.928,1.928,0,0,1,81.686,71.8V46.308a1.928,1.928,0,0,1,1.928-1.928h64.235a1.928,1.928,0,0,1,1.928,1.928V71.8A1.928,1.928,0,0,1,147.849,73.726Z" transform="translate(-81.686 -37.177)" fill="rgba(0,0,0,0.15)"/>
        <path id="Caminho_43931" data-name="Caminho 43931" d="M395.58,46.312V71.8a1.927,1.927,0,0,1-1.928,1.928h-6.5a1.926,1.926,0,0,0,1.928-1.928V46.312a1.926,1.926,0,0,0-1.928-1.928h6.5A1.927,1.927,0,0,1,395.58,46.312Z" transform="translate(-327.489 -37.18)" fill="rgba(0,0,0,0.15)"/>
        <path id="Caminho_43932" data-name="Caminho 43932" d="M147.849,36.846H83.614a1.928,1.928,0,0,1-1.928-1.928V9.428A1.928,1.928,0,0,1,83.614,7.5h64.235a1.928,1.928,0,0,1,1.928,1.928v25.49A1.928,1.928,0,0,1,147.849,36.846Z" transform="translate(-81.686 -7.5)" fill="#00c853"/>
        <path id="Caminho_43933" data-name="Caminho 43933" d="M395.58,9.428V34.918a1.929,1.929,0,0,1-1.928,1.928h-6.5a1.927,1.927,0,0,0,1.928-1.928V9.428A1.927,1.927,0,0,0,387.15,7.5h6.5a1.929,1.929,0,0,1,1.928,1.928Z" transform="translate(-327.489 -7.5)" fill="rgba(0,0,0,0.15)"/>
      </g>
      <g id="Grupo_9411" data-name="Grupo 9411" transform="translate(7 25.685)">
        <path id="Caminho_43934" data-name="Caminho 43934" d="M156.762,165.2a4.567,4.567,0,0,0-4.567,4.567v-2.962a4.567,4.567,0,0,0-9.134,0v-2.962a4.567,4.567,0,1,0-9.134,0V143.575a4.567,4.567,0,0,0-9.134,0v27.808l-4.373,3.651a8.057,8.057,0,0,0-2.649,8.157l4.586,18.177a11.949,11.949,0,0,0,11.586,9.026h12.71a11.949,11.949,0,0,0,11.8-10.085l2.591-16.4a23.148,23.148,0,0,0,.283-3.611V169.767a4.566,4.566,0,0,0-4.567-4.567Z" transform="translate(-117.524 -139.008)" fill="#fdb0a0"/>
        <path id="Caminho_43935" data-name="Caminho 43935" d="M254.614,277.676V288.2a23.332,23.332,0,0,1-.283,3.613l-2.59,16.4a11.95,11.95,0,0,1-11.8,10.086h-6.484a11.949,11.949,0,0,0,11.8-10.086l2.592-16.4a23.306,23.306,0,0,0,.283-3.613V277.676a4.555,4.555,0,0,0-1.325-3.216,4.567,4.567,0,0,1,7.809,3.216Z" transform="translate(-210.81 -246.917)" fill="rgba(0,0,0,0.15)"/>
      </g>
    </g>
    <g id="Grupo_9413" data-name="Grupo 9413" transform="translate(26.18 0)">
      <path id="Caminho_43936" data-name="Caminho 43936" d="M141.814,0H77.579a3.4,3.4,0,0,0-3.393,3.393V36.086a3.4,3.4,0,0,0,3.393,3.393H88.453v3.068a1.465,1.465,0,0,0,2.93,0V31.718a3.1,3.1,0,1,1,6.2,0V51.986a1.465,1.465,0,0,0,2.93,0,3.1,3.1,0,1,1,6.2,0v2.962a1.465,1.465,0,0,0,2.93,0,3.1,3.1,0,0,1,6.2,0V57.91a1.465,1.465,0,1,0,2.93,0,3.1,3.1,0,1,1,6.2,0V68.439a21.75,21.75,0,0,1-.266,3.383l-2.591,16.4a10.436,10.436,0,0,1-10.356,8.848H99.068A10.473,10.473,0,0,1,88.9,89.151L84.316,70.974A6.627,6.627,0,0,1,86.484,64.3l1.969-1.644v6.211l-.826.237a1.465,1.465,0,1,0,.808,2.816l.018-.005v3.72a1.465,1.465,0,1,0,2.93,0V49.39a1.465,1.465,0,0,0-2.93,0V58.84l-3.847,3.211a9.573,9.573,0,0,0-3.131,9.64l4.586,18.177A13.4,13.4,0,0,0,99.068,100h12.71a13.414,13.414,0,0,0,13.25-11.321l2.591-16.4a24.687,24.687,0,0,0,.3-3.84V57.909a6.029,6.029,0,0,0-9.472-4.953A6.029,6.029,0,0,0,109.314,50a6.03,6.03,0,0,0-8.8-3.18V39.478h24.926a1.465,1.465,0,1,0,0-2.93H100.517V32.275h41.3a3.382,3.382,0,0,0,.463-.035v3.846a.463.463,0,0,1-.463.463h-9.528a1.465,1.465,0,0,0,0,2.93h9.528a3.4,3.4,0,0,0,3.393-3.393V19.236a1.465,1.465,0,1,0-2.93,0v9.647a.463.463,0,0,1-.463.463H100.03a6.031,6.031,0,0,0-11.091,0H77.579a.463.463,0,0,1-.463-.463V3.393a.463.463,0,0,1,.463-.463h64.235a.463.463,0,0,1,.463.463v9a1.465,1.465,0,1,0,2.93,0v-9A3.4,3.4,0,0,0,141.814,0ZM77.579,32.275H88.453v4.273H77.579a.463.463,0,0,1-.463-.463V32.24a3.382,3.382,0,0,0,.463.035Z" transform="translate(-64.81 0)" fill="#004798"/>
      <path id="Caminho_43944" data-name="Caminho 43944" d="M463.793,75.1l-2.064-.02a1.465,1.465,0,0,0-.028,2.93l2.064.02h.014a1.465,1.465,0,0,0,.014-2.93Z" transform="translate(-375.47 -60.417)" fill="#9f33dd"/>
      <path id="Caminho_43945" data-name="Caminho 43945" d="M457.386,47.2a1.46,1.46,0,0,0,.743-.2l1.8-1.061a1.465,1.465,0,1,0-1.489-2.523l-1.8,1.061a1.465,1.465,0,0,0,.746,2.727Z" transform="translate(-371.985 -34.767)" fill="#9f33dd"/>
      <path id="Caminho_43946" data-name="Caminho 43946" d="M459.436,102.751l-1.778-1.095a1.465,1.465,0,0,0-1.537,2.494l1.778,1.095a1.465,1.465,0,1,0,1.537-2.494Z" transform="translate(-371.587 -81.626)" fill="#9f33dd"/>
      <path id="Caminho_43947" data-name="Caminho 43947" d="M27.659,78.032l2.064-.02a1.465,1.465,0,0,0-.014-2.93h-.014l-2.064.02a1.465,1.465,0,0,0,.014,2.93Z" transform="translate(-26.18 -60.417)" fill="#9f33dd"/>
      <path id="Caminho_43948" data-name="Caminho 43948" d="M32.592,45.932l1.8,1.061a1.465,1.465,0,0,0,1.489-2.523l-1.8-1.061a1.465,1.465,0,1,0-1.489,2.523Z" transform="translate(-30.76 -34.767)" fill="#9f33dd"/>
      <path id="Caminho_43949" data-name="Caminho 43949" d="M34.945,101.657l-1.778,1.095a1.465,1.465,0,1,0,1.537,2.494l1.778-1.095a1.465,1.465,0,1,0-1.537-2.494Z" transform="translate(-31.242 -81.627)" fill="#9f33dd"/>
    </g>
  </g>
</svg>
