<svg xmlns="http://www.w3.org/2000/svg" width="330" height="241" viewBox="0 0 330 241"><g transform="translate(-360 -1143)"><g transform="translate(0 -21)"><rect width="300" height="60" rx="5" transform="translate(390 1345)" fill="#0074FF"/><rect width="300" height="50" rx="5" transform="translate(360 1164)" fill="#fff"/><rect width="300" height="50" rx="5" transform="translate(370 1224)" fill="#fff"/><rect width="300" height="50" rx="5" transform="translate(380 1284)" fill="#fff"/><g transform="translate(33 175)"><text transform="translate(391 1208)" fill="#fff" font-size="21" font-family="Ubuntu-Bold, Ubuntu" font-weight="700"><tspan x="0" y="0">Adicionar integração</tspan></text><g transform="translate(-2.5 0.5)"><path d="M18,7.5v15" transform="translate(601 1185)" fill="none" stroke="#ff9100" stroke-linecap="round" stroke-linejoin="round" stroke-width="3"/><path d="M7.5,18h15" transform="translate(604 1182)" fill="none" stroke="#ff9100" stroke-linecap="round" stroke-linejoin="round" stroke-width="3"/></g></g><path d="M4.248-2.286q.2.018.459.027t.621.009A4.141,4.141,0,0,0,8.451-3.312,4.068,4.068,0,0,0,9.468-6.246,4.119,4.119,0,0,0,8.5-9.216a4.114,4.114,0,0,0-3.078-1.008q-.288,0-.594.009a5.614,5.614,0,0,0-.576.045Zm8.118-3.96a7.292,7.292,0,0,1-.5,2.826,5.234,5.234,0,0,1-1.431,2A6.1,6.1,0,0,1,8.172-.234a10.473,10.473,0,0,1-2.988.4Q4.428.162,3.42.1A14.411,14.411,0,0,1,1.44-.162v-12.15a16.542,16.542,0,0,1,2.025-.243q1.053-.063,1.809-.063a10.925,10.925,0,0,1,2.907.36,5.947,5.947,0,0,1,2.241,1.134,5.04,5.04,0,0,1,1.44,1.98A7.5,7.5,0,0,1,12.366-6.246ZM17.208,0H14.526V-9.468h2.682Zm.252-12.2a1.472,1.472,0,0,1-.477,1.161,1.641,1.641,0,0,1-1.125.423,1.641,1.641,0,0,1-1.125-.423,1.472,1.472,0,0,1-.477-1.161,1.472,1.472,0,0,1,.477-1.161,1.641,1.641,0,0,1,1.125-.423,1.641,1.641,0,0,1,1.125.423A1.472,1.472,0,0,1,17.46-12.2ZM22.014-5.04q0,2.25,1.818,2.25a2.681,2.681,0,0,0,.774-.108,2.94,2.94,0,0,0,.612-.252V-7.434q-.2-.036-.468-.063t-.63-.027a1.846,1.846,0,0,0-1.584.7A2.906,2.906,0,0,0,22.014-5.04ZM27.9-1.188a4.56,4.56,0,0,1-1.179,3.447,5.12,5.12,0,0,1-3.645,1.125,9.892,9.892,0,0,1-1.728-.153,10.768,10.768,0,0,1-1.6-.4l.468-2.25a7.861,7.861,0,0,0,1.323.4,7.783,7.783,0,0,0,1.575.144,2.178,2.178,0,0,0,1.629-.5,1.809,1.809,0,0,0,.477-1.3v-.342a4.317,4.317,0,0,1-.891.3,4.739,4.739,0,0,1-1,.1,3.834,3.834,0,0,1-3.006-1.161A4.689,4.689,0,0,1,19.278-5.04a5.322,5.322,0,0,1,.324-1.9,4.04,4.04,0,0,1,.945-1.467,4.218,4.218,0,0,1,1.521-.945A5.832,5.832,0,0,1,24.1-9.684q.486,0,1,.045t1.017.117q.5.072.963.171t.819.207ZM33.1,0H30.42V-9.468H33.1Zm.252-12.2a1.472,1.472,0,0,1-.477,1.161,1.641,1.641,0,0,1-1.125.423,1.641,1.641,0,0,1-1.125-.423A1.472,1.472,0,0,1,30.15-12.2a1.472,1.472,0,0,1,.477-1.161,1.641,1.641,0,0,1,1.125-.423,1.641,1.641,0,0,1,1.125.423A1.472,1.472,0,0,1,33.354-12.2Zm2.178.378,2.682-.432v2.79h3.222v2.232H38.214v3.33a2.649,2.649,0,0,0,.3,1.35,1.275,1.275,0,0,0,1.2.5,5.124,5.124,0,0,0,.891-.081,4.592,4.592,0,0,0,.837-.225L41.814-.27a7.631,7.631,0,0,1-1.08.342,6.293,6.293,0,0,1-1.458.144,4.8,4.8,0,0,1-1.818-.3,2.852,2.852,0,0,1-1.152-.828A3.082,3.082,0,0,1,35.7-2.2a7.6,7.6,0,0,1-.171-1.674ZM42.8-4.662a5.79,5.79,0,0,1,.387-2.2,4.727,4.727,0,0,1,1.017-1.575A4.231,4.231,0,0,1,45.657-9.4,4.537,4.537,0,0,1,47.34-9.72a4.183,4.183,0,0,1,3.186,1.233A5.08,5.08,0,0,1,51.7-4.86q0,.234-.018.513t-.036.495H45.558a1.782,1.782,0,0,0,.774,1.314,3.111,3.111,0,0,0,1.836.486,7.751,7.751,0,0,0,1.449-.135,5.47,5.47,0,0,0,1.161-.333l.36,2.178a3.7,3.7,0,0,1-.576.216,7.537,7.537,0,0,1-.8.189Q49.32.144,48.816.2a9.455,9.455,0,0,1-1.008.054,5.967,5.967,0,0,1-2.223-.378,4.33,4.33,0,0,1-1.566-1.035A4.108,4.108,0,0,1,43.1-2.718,6.168,6.168,0,0,1,42.8-4.662Zm6.3-1.026a2.769,2.769,0,0,0-.117-.666,1.663,1.663,0,0,0-.306-.576,1.629,1.629,0,0,0-.522-.414,1.7,1.7,0,0,0-.783-.162,1.8,1.8,0,0,0-.774.153,1.6,1.6,0,0,0-.54.405,1.812,1.812,0,0,0-.333.585,3.839,3.839,0,0,0-.171.675Zm17.838.936a6.157,6.157,0,0,1-.324,2.043,4.439,4.439,0,0,1-.936,1.584A4.212,4.212,0,0,1,64.215-.108,4.9,4.9,0,0,1,62.3.252a4.847,4.847,0,0,1-1.9-.36,4.212,4.212,0,0,1-1.467-1.017,4.657,4.657,0,0,1-.954-1.584,5.862,5.862,0,0,1-.342-2.043,5.654,5.654,0,0,1,.351-2.034,4.613,4.613,0,0,1,.972-1.566A4.365,4.365,0,0,1,60.435-9.36,4.752,4.752,0,0,1,62.3-9.72a4.8,4.8,0,0,1,1.881.36,4.271,4.271,0,0,1,1.467,1.008A4.575,4.575,0,0,1,66.6-6.786,5.787,5.787,0,0,1,66.942-4.752Zm-2.736,0a3.372,3.372,0,0,0-.495-1.953A1.619,1.619,0,0,0,62.3-7.416a1.641,1.641,0,0,0-1.422.711,3.326,3.326,0,0,0-.5,1.953,3.413,3.413,0,0,0,.5,1.971,1.629,1.629,0,0,0,1.422.729,1.607,1.607,0,0,0,1.413-.729A3.46,3.46,0,0,0,64.206-4.752Zm9.126-4.392A14.949,14.949,0,0,1,75.1-9.513a14.5,14.5,0,0,1,2.268-.171,5.524,5.524,0,0,1,2.007.315,3.015,3.015,0,0,1,1.269.891,3.472,3.472,0,0,1,.666,1.368,7.279,7.279,0,0,1,.2,1.764V0H78.822V-5.022a3.615,3.615,0,0,0-.342-1.836A1.4,1.4,0,0,0,77.2-7.4q-.288,0-.612.027t-.576.063V0H73.332ZM92.79-4.752a6.157,6.157,0,0,1-.324,2.043,4.439,4.439,0,0,1-.936,1.584A4.212,4.212,0,0,1,90.063-.108a4.9,4.9,0,0,1-1.917.36,4.847,4.847,0,0,1-1.9-.36A4.212,4.212,0,0,1,84.78-1.125a4.657,4.657,0,0,1-.954-1.584,5.862,5.862,0,0,1-.342-2.043,5.654,5.654,0,0,1,.351-2.034,4.613,4.613,0,0,1,.972-1.566A4.365,4.365,0,0,1,86.283-9.36a4.752,4.752,0,0,1,1.863-.36,4.8,4.8,0,0,1,1.881.36,4.271,4.271,0,0,1,1.467,1.008,4.575,4.575,0,0,1,.954,1.566A5.787,5.787,0,0,1,92.79-4.752Zm-2.736,0a3.372,3.372,0,0,0-.495-1.953,1.619,1.619,0,0,0-1.413-.711,1.641,1.641,0,0,0-1.422.711,3.326,3.326,0,0,0-.5,1.953,3.413,3.413,0,0,0,.5,1.971,1.629,1.629,0,0,0,1.422.729,1.607,1.607,0,0,0,1.413-.729A3.46,3.46,0,0,0,90.054-4.752Zm10.008-.27a3.7,3.7,0,0,0-.333-1.836,1.235,1.235,0,0,0-1.143-.54q-.252,0-.522.027t-.522.063V0H94.86V-9.144q.342-.09.8-.189t.972-.18q.513-.081,1.053-.126t1.062-.045a4.464,4.464,0,0,1,1.665.261,3.756,3.756,0,0,1,1.053.621,4.608,4.608,0,0,1,1.323-.648,4.633,4.633,0,0,1,1.377-.234,4.729,4.729,0,0,1,1.863.315,2.808,2.808,0,0,1,1.161.891,3.371,3.371,0,0,1,.594,1.368,8.828,8.828,0,0,1,.162,1.764V0h-2.682V-5.022a3.7,3.7,0,0,0-.333-1.836,1.235,1.235,0,0,0-1.143-.54,2.416,2.416,0,0,0-.6.108,2.352,2.352,0,0,0-.639.27,4.088,4.088,0,0,1,.162.873q.036.459.036.981V0h-2.682Zm9.864.36a5.79,5.79,0,0,1,.387-2.2,4.728,4.728,0,0,1,1.017-1.575,4.231,4.231,0,0,1,1.449-.954,4.537,4.537,0,0,1,1.683-.324,4.183,4.183,0,0,1,3.186,1.233,5.08,5.08,0,0,1,1.17,3.627q0,.234-.018.513t-.036.495H112.68a1.782,1.782,0,0,0,.774,1.314,3.111,3.111,0,0,0,1.836.486,7.751,7.751,0,0,0,1.449-.135A5.47,5.47,0,0,0,117.9-2.52l.36,2.178a3.7,3.7,0,0,1-.576.216,7.537,7.537,0,0,1-.8.189q-.441.081-.945.135a9.455,9.455,0,0,1-1.008.054,5.967,5.967,0,0,1-2.223-.378,4.33,4.33,0,0,1-1.566-1.035,4.108,4.108,0,0,1-.918-1.557A6.168,6.168,0,0,1,109.926-4.662Zm6.3-1.026a2.768,2.768,0,0,0-.117-.666,1.663,1.663,0,0,0-.306-.576,1.629,1.629,0,0,0-.522-.414,1.7,1.7,0,0,0-.783-.162,1.8,1.8,0,0,0-.774.153,1.6,1.6,0,0,0-.54.405,1.812,1.812,0,0,0-.333.585,3.838,3.838,0,0,0-.171.675Zm11.268.882a3.286,3.286,0,0,0,.558,2,1.927,1.927,0,0,0,1.656.756q.36,0,.666-.027t.5-.063V-7.02a2.33,2.33,0,0,0-.657-.27A3.166,3.166,0,0,0,129.4-7.4Q127.494-7.4,127.494-4.806Zm6.066,4.5q-.36.108-.828.207t-.981.171q-.513.072-1.044.117T129.69.234A5.953,5.953,0,0,1,127.6-.108a4.2,4.2,0,0,1-1.548-.981,4.257,4.257,0,0,1-.963-1.548,5.908,5.908,0,0,1-.333-2.043,6.993,6.993,0,0,1,.288-2.079,4.525,4.525,0,0,1,.828-1.575,3.544,3.544,0,0,1,1.323-.99,4.435,4.435,0,0,1,1.791-.342,4.212,4.212,0,0,1,1,.108,5.407,5.407,0,0,1,.891.306v-4.284l2.682-.432ZM139.7-1.872q.4,0,.756-.018a5.26,5.26,0,0,0,.576-.054V-3.978q-.162-.036-.486-.072a5.413,5.413,0,0,0-.594-.036,5.316,5.316,0,0,0-.711.045,1.857,1.857,0,0,0-.585.171,1,1,0,0,0-.4.342.953.953,0,0,0-.144.54.92.92,0,0,0,.423.873A2.338,2.338,0,0,0,139.7-1.872Zm-.216-7.848a6.211,6.211,0,0,1,1.98.27,3.075,3.075,0,0,1,1.269.774,2.845,2.845,0,0,1,.675,1.224,6.037,6.037,0,0,1,.2,1.6V-.27q-.576.126-1.6.3A15.394,15.394,0,0,1,139.518.2a7.875,7.875,0,0,1-1.665-.162A3.614,3.614,0,0,1,136.566-.5a2.43,2.43,0,0,1-.828-.963,3.324,3.324,0,0,1-.288-1.458,2.763,2.763,0,0,1,.333-1.4,2.563,2.563,0,0,1,.891-.918,4.026,4.026,0,0,1,1.278-.5,7.169,7.169,0,0,1,1.494-.153,8.482,8.482,0,0,1,.927.045,4.126,4.126,0,0,1,.657.117v-.252a1.484,1.484,0,0,0-.414-1.1,2,2,0,0,0-1.44-.414,9.169,9.169,0,0,0-1.35.1,5.791,5.791,0,0,0-1.152.279l-.342-2.16q.234-.072.585-.153t.765-.144q.414-.063.873-.108T139.482-9.72ZM154.134.18a6.7,6.7,0,0,1-1.9-.252,2.813,2.813,0,0,1-1.152-.657,2.18,2.18,0,0,1-.576-1.026,5.536,5.536,0,0,1-.153-1.359V-13.536l2.682-.432V-3.654a3.534,3.534,0,0,0,.054.648,1.118,1.118,0,0,0,.207.486,1.1,1.1,0,0,0,.441.324,2.417,2.417,0,0,0,.774.162ZM164.9-4.752a6.157,6.157,0,0,1-.324,2.043,4.439,4.439,0,0,1-.936,1.584,4.213,4.213,0,0,1-1.467,1.017,4.9,4.9,0,0,1-1.917.36,4.847,4.847,0,0,1-1.9-.36,4.213,4.213,0,0,1-1.467-1.017,4.657,4.657,0,0,1-.954-1.584,5.862,5.862,0,0,1-.342-2.043,5.654,5.654,0,0,1,.351-2.034,4.612,4.612,0,0,1,.972-1.566,4.365,4.365,0,0,1,1.476-1.008,4.752,4.752,0,0,1,1.863-.36,4.8,4.8,0,0,1,1.881.36A4.271,4.271,0,0,1,163.6-8.352a4.575,4.575,0,0,1,.954,1.566A5.787,5.787,0,0,1,164.9-4.752Zm-2.736,0a3.372,3.372,0,0,0-.5-1.953,1.619,1.619,0,0,0-1.413-.711,1.641,1.641,0,0,0-1.422.711,3.326,3.326,0,0,0-.5,1.953,3.413,3.413,0,0,0,.5,1.971,1.629,1.629,0,0,0,1.422.729,1.607,1.607,0,0,0,1.413-.729A3.46,3.46,0,0,0,162.162-4.752Zm3.924,8.082q-.252,0-.747-.054a4.451,4.451,0,0,1-.927-.2L164.772.9a3.159,3.159,0,0,0,.5.126,3.691,3.691,0,0,0,.567.036.981.981,0,0,0,.882-.378,1.982,1.982,0,0,0,.252-1.1V-9.468h2.682V-.342a3.73,3.73,0,0,1-.918,2.772A3.625,3.625,0,0,1,166.086,3.33ZM169.9-12.2a1.472,1.472,0,0,1-.477,1.161,1.64,1.64,0,0,1-1.125.423,1.641,1.641,0,0,1-1.125-.423A1.472,1.472,0,0,1,166.7-12.2a1.472,1.472,0,0,1,.477-1.161,1.641,1.641,0,0,1,1.125-.423,1.64,1.64,0,0,1,1.125.423A1.472,1.472,0,0,1,169.9-12.2Zm5.886,10.332q.4,0,.756-.018a5.26,5.26,0,0,0,.576-.054V-3.978q-.162-.036-.486-.072a5.413,5.413,0,0,0-.594-.036,5.316,5.316,0,0,0-.711.045,1.857,1.857,0,0,0-.585.171,1,1,0,0,0-.4.342.953.953,0,0,0-.144.54.92.92,0,0,0,.423.873A2.338,2.338,0,0,0,175.788-1.872Zm-.216-7.848a6.211,6.211,0,0,1,1.98.27,3.075,3.075,0,0,1,1.269.774,2.845,2.845,0,0,1,.675,1.224,6.037,6.037,0,0,1,.2,1.6V-.27q-.576.126-1.6.3A15.394,15.394,0,0,1,175.608.2a7.875,7.875,0,0,1-1.665-.162A3.614,3.614,0,0,1,172.656-.5a2.43,2.43,0,0,1-.828-.963,3.324,3.324,0,0,1-.288-1.458,2.763,2.763,0,0,1,.333-1.4,2.563,2.563,0,0,1,.891-.918,4.026,4.026,0,0,1,1.278-.5,7.169,7.169,0,0,1,1.494-.153,8.482,8.482,0,0,1,.927.045,4.126,4.126,0,0,1,.657.117v-.252a1.484,1.484,0,0,0-.414-1.1,2,2,0,0,0-1.44-.414,9.169,9.169,0,0,0-1.35.1,5.791,5.791,0,0,0-1.152.279l-.342-2.16q.234-.072.585-.153t.765-.144q.414-.063.873-.108T175.572-9.72Zm9.855.072a4.763,4.763,0,0,1,.452-.351q.271-.189.551-.378a6.2,6.2,0,0,1,.569-.342,3.419,3.419,0,0,1,.506-.225l.434-.144.72,2.232-.433.144a3.078,3.078,0,0,1-.542.108q-.307.036-.65.045t-.668.009h-.578q.217.144.479.333t.524.4q.262.207.5.423a2.889,2.889,0,0,1,.38.414l.289.378-1.908,1.35-.272-.36a2.341,2.341,0,0,1-.281-.468q-.136-.288-.263-.6t-.218-.621q-.091-.306-.163-.558-.071.252-.161.558t-.214.621q-.125.315-.259.6a2.353,2.353,0,0,1-.277.468l-.268.36-1.908-1.35.287-.378a2.885,2.885,0,0,1,.376-.414q.233-.216.493-.423t.52-.4q.26-.189.475-.333h-.574q-.323,0-.664-.009t-.646-.045a3.05,3.05,0,0,1-.538-.108l-.431-.144.72-2.232.43.144a3.366,3.366,0,0,1,.5.225,6.166,6.166,0,0,1,.565.342q.278.189.538.378t.457.351q-.089-.234-.186-.549t-.186-.639q-.089-.324-.151-.639a2.894,2.894,0,0,1-.062-.549v-.45h2.34v.45a2.809,2.809,0,0,1-.064.549q-.064.315-.155.639t-.192.639Q185.518-9.882,185.427-9.648Z" transform="translate(380 1196)" fill="#004798"/><path d="M4.248-2.286q.2.018.459.027t.621.009A4.141,4.141,0,0,0,8.451-3.312,4.068,4.068,0,0,0,9.468-6.246,4.119,4.119,0,0,0,8.5-9.216a4.114,4.114,0,0,0-3.078-1.008q-.288,0-.594.009a5.614,5.614,0,0,0-.576.045Zm8.118-3.96a7.292,7.292,0,0,1-.5,2.826,5.234,5.234,0,0,1-1.431,2A6.1,6.1,0,0,1,8.172-.234a10.473,10.473,0,0,1-2.988.4Q4.428.162,3.42.1A14.411,14.411,0,0,1,1.44-.162v-12.15a16.542,16.542,0,0,1,2.025-.243q1.053-.063,1.809-.063a10.925,10.925,0,0,1,2.907.36,5.947,5.947,0,0,1,2.241,1.134,5.04,5.04,0,0,1,1.44,1.98A7.5,7.5,0,0,1,12.366-6.246ZM17.208,0H14.526V-9.468h2.682Zm.252-12.2a1.472,1.472,0,0,1-.477,1.161,1.641,1.641,0,0,1-1.125.423,1.641,1.641,0,0,1-1.125-.423,1.472,1.472,0,0,1-.477-1.161,1.472,1.472,0,0,1,.477-1.161,1.641,1.641,0,0,1,1.125-.423,1.641,1.641,0,0,1,1.125.423A1.472,1.472,0,0,1,17.46-12.2ZM22.014-5.04q0,2.25,1.818,2.25a2.681,2.681,0,0,0,.774-.108,2.94,2.94,0,0,0,.612-.252V-7.434q-.2-.036-.468-.063t-.63-.027a1.846,1.846,0,0,0-1.584.7A2.906,2.906,0,0,0,22.014-5.04ZM27.9-1.188a4.56,4.56,0,0,1-1.179,3.447,5.12,5.12,0,0,1-3.645,1.125,9.892,9.892,0,0,1-1.728-.153,10.768,10.768,0,0,1-1.6-.4l.468-2.25a7.861,7.861,0,0,0,1.323.4,7.783,7.783,0,0,0,1.575.144,2.178,2.178,0,0,0,1.629-.5,1.809,1.809,0,0,0,.477-1.3v-.342a4.317,4.317,0,0,1-.891.3,4.739,4.739,0,0,1-1,.1,3.834,3.834,0,0,1-3.006-1.161A4.689,4.689,0,0,1,19.278-5.04a5.322,5.322,0,0,1,.324-1.9,4.04,4.04,0,0,1,.945-1.467,4.218,4.218,0,0,1,1.521-.945A5.832,5.832,0,0,1,24.1-9.684q.486,0,1,.045t1.017.117q.5.072.963.171t.819.207ZM33.1,0H30.42V-9.468H33.1Zm.252-12.2a1.472,1.472,0,0,1-.477,1.161,1.641,1.641,0,0,1-1.125.423,1.641,1.641,0,0,1-1.125-.423A1.472,1.472,0,0,1,30.15-12.2a1.472,1.472,0,0,1,.477-1.161,1.641,1.641,0,0,1,1.125-.423,1.641,1.641,0,0,1,1.125.423A1.472,1.472,0,0,1,33.354-12.2Zm2.178.378,2.682-.432v2.79h3.222v2.232H38.214v3.33a2.649,2.649,0,0,0,.3,1.35,1.275,1.275,0,0,0,1.2.5,5.124,5.124,0,0,0,.891-.081,4.592,4.592,0,0,0,.837-.225L41.814-.27a7.631,7.631,0,0,1-1.08.342,6.293,6.293,0,0,1-1.458.144,4.8,4.8,0,0,1-1.818-.3,2.852,2.852,0,0,1-1.152-.828A3.082,3.082,0,0,1,35.7-2.2a7.6,7.6,0,0,1-.171-1.674ZM42.8-4.662a5.79,5.79,0,0,1,.387-2.2,4.727,4.727,0,0,1,1.017-1.575A4.231,4.231,0,0,1,45.657-9.4,4.537,4.537,0,0,1,47.34-9.72a4.183,4.183,0,0,1,3.186,1.233A5.08,5.08,0,0,1,51.7-4.86q0,.234-.018.513t-.036.495H45.558a1.782,1.782,0,0,0,.774,1.314,3.111,3.111,0,0,0,1.836.486,7.751,7.751,0,0,0,1.449-.135,5.47,5.47,0,0,0,1.161-.333l.36,2.178a3.7,3.7,0,0,1-.576.216,7.537,7.537,0,0,1-.8.189Q49.32.144,48.816.2a9.455,9.455,0,0,1-1.008.054,5.967,5.967,0,0,1-2.223-.378,4.33,4.33,0,0,1-1.566-1.035A4.108,4.108,0,0,1,43.1-2.718,6.168,6.168,0,0,1,42.8-4.662Zm6.3-1.026a2.769,2.769,0,0,0-.117-.666,1.663,1.663,0,0,0-.306-.576,1.629,1.629,0,0,0-.522-.414,1.7,1.7,0,0,0-.783-.162,1.8,1.8,0,0,0-.774.153,1.6,1.6,0,0,0-.54.405,1.812,1.812,0,0,0-.333.585,3.839,3.839,0,0,0-.171.675ZM61.7-1.872q.4,0,.756-.018a5.26,5.26,0,0,0,.576-.054V-3.978q-.162-.036-.486-.072a5.412,5.412,0,0,0-.594-.036,5.316,5.316,0,0,0-.711.045,1.857,1.857,0,0,0-.585.171,1,1,0,0,0-.4.342.953.953,0,0,0-.144.54.92.92,0,0,0,.423.873A2.338,2.338,0,0,0,61.7-1.872ZM61.488-9.72a6.211,6.211,0,0,1,1.98.27,3.075,3.075,0,0,1,1.269.774,2.845,2.845,0,0,1,.675,1.224,6.038,6.038,0,0,1,.2,1.6V-.27q-.576.126-1.6.3A15.394,15.394,0,0,1,61.524.2,7.875,7.875,0,0,1,59.859.036,3.614,3.614,0,0,1,58.572-.5a2.43,2.43,0,0,1-.828-.963,3.324,3.324,0,0,1-.288-1.458,2.763,2.763,0,0,1,.333-1.4,2.563,2.563,0,0,1,.891-.918,4.026,4.026,0,0,1,1.278-.5,7.17,7.17,0,0,1,1.494-.153,8.482,8.482,0,0,1,.927.045,4.126,4.126,0,0,1,.657.117v-.252a1.484,1.484,0,0,0-.414-1.1,2,2,0,0,0-1.44-.414,9.169,9.169,0,0,0-1.35.1,5.791,5.791,0,0,0-1.152.279l-.342-2.16q.234-.072.585-.153t.765-.144q.414-.063.873-.108T61.488-9.72ZM71.91-4.734a5.581,5.581,0,0,1,.333-1.935,4.624,4.624,0,0,1,.963-1.584,4.6,4.6,0,0,1,1.53-1.071,5.048,5.048,0,0,1,2.052-.4,6.623,6.623,0,0,1,1.386.135A6.746,6.746,0,0,1,79.4-9.2L78.84-7.056a6.76,6.76,0,0,0-.828-.252A4.327,4.327,0,0,0,77-7.416a2.125,2.125,0,0,0-1.773.738,3.038,3.038,0,0,0-.585,1.944,3.147,3.147,0,0,0,.549,1.98,2.3,2.3,0,0,0,1.917.7,6.577,6.577,0,0,0,1.044-.09,4.438,4.438,0,0,0,1.026-.288l.378,2.2a6.292,6.292,0,0,1-1.17.342,7.718,7.718,0,0,1-1.548.144A5.827,5.827,0,0,1,74.61-.135a4.2,4.2,0,0,1-1.539-1.053,4.108,4.108,0,0,1-.882-1.575A6.688,6.688,0,0,1,71.91-4.734ZM81.36,0V-13.536l2.682-.432v4.536a5.559,5.559,0,0,1,.693-.171,4.352,4.352,0,0,1,.819-.081,5.062,5.062,0,0,1,1.917.315,2.976,2.976,0,0,1,1.224.891,3.445,3.445,0,0,1,.648,1.368,7.61,7.61,0,0,1,.189,1.764V0H86.85V-5.022a3.7,3.7,0,0,0-.333-1.836,1.331,1.331,0,0,0-1.233-.54,3.44,3.44,0,0,0-.675.063q-.315.063-.567.135V0ZM95.58-1.872q.4,0,.756-.018a5.26,5.26,0,0,0,.576-.054V-3.978q-.162-.036-.486-.072a5.413,5.413,0,0,0-.594-.036,5.316,5.316,0,0,0-.711.045,1.857,1.857,0,0,0-.585.171,1,1,0,0,0-.4.342.953.953,0,0,0-.144.54.92.92,0,0,0,.423.873A2.338,2.338,0,0,0,95.58-1.872ZM95.364-9.72a6.211,6.211,0,0,1,1.98.27,3.075,3.075,0,0,1,1.269.774,2.845,2.845,0,0,1,.675,1.224,6.038,6.038,0,0,1,.2,1.6V-.27q-.576.126-1.6.3A15.394,15.394,0,0,1,95.4.2,7.875,7.875,0,0,1,93.735.036,3.614,3.614,0,0,1,92.448-.5a2.43,2.43,0,0,1-.828-.963,3.324,3.324,0,0,1-.288-1.458,2.763,2.763,0,0,1,.333-1.4,2.563,2.563,0,0,1,.891-.918,4.026,4.026,0,0,1,1.278-.5,7.169,7.169,0,0,1,1.494-.153,8.482,8.482,0,0,1,.927.045,4.126,4.126,0,0,1,.657.117v-.252a1.484,1.484,0,0,0-.414-1.1,2,2,0,0,0-1.44-.414,9.169,9.169,0,0,0-1.35.1,5.791,5.791,0,0,0-1.152.279l-.342-2.16q.234-.072.585-.153t.765-.144q.414-.063.873-.108T95.364-9.72ZM104.27,0q-.921-1.8-1.87-4.212t-1.8-5.256h2.844q.181.7.425,1.521t.506,1.656q.262.837.524,1.629t.515,1.44q.235-.648.506-1.44t.533-1.629q.262-.837.506-1.656t.425-1.521h2.774q-.849,2.844-1.8,5.256T106.5,0Zm6.61-4.662a5.79,5.79,0,0,1,.387-2.2,4.728,4.728,0,0,1,1.017-1.575,4.231,4.231,0,0,1,1.449-.954,4.537,4.537,0,0,1,1.683-.324A4.183,4.183,0,0,1,118.6-8.487a5.08,5.08,0,0,1,1.17,3.627q0,.234-.018.513t-.036.495h-6.084a1.782,1.782,0,0,0,.774,1.314,3.111,3.111,0,0,0,1.836.486,7.751,7.751,0,0,0,1.449-.135,5.47,5.47,0,0,0,1.161-.333l.36,2.178a3.7,3.7,0,0,1-.576.216,7.537,7.537,0,0,1-.8.189q-.441.081-.945.135a9.455,9.455,0,0,1-1.008.054,5.967,5.967,0,0,1-2.223-.378A4.33,4.33,0,0,1,112.1-1.161a4.108,4.108,0,0,1-.918-1.557A6.168,6.168,0,0,1,110.88-4.662Zm6.3-1.026a2.768,2.768,0,0,0-.117-.666,1.663,1.663,0,0,0-.306-.576,1.629,1.629,0,0,0-.522-.414,1.7,1.7,0,0,0-.783-.162,1.8,1.8,0,0,0-.774.153,1.6,1.6,0,0,0-.54.405,1.812,1.812,0,0,0-.333.585,3.838,3.838,0,0,0-.171.675Zm11.268.882a3.286,3.286,0,0,0,.558,2,1.927,1.927,0,0,0,1.656.756q.36,0,.666-.027t.5-.063V-7.02a2.33,2.33,0,0,0-.657-.27,3.166,3.166,0,0,0-.819-.108Q128.448-7.4,128.448-4.806Zm6.066,4.5q-.36.108-.828.207t-.981.171q-.513.072-1.044.117t-1.017.045a5.953,5.953,0,0,1-2.088-.342,4.2,4.2,0,0,1-1.548-.981,4.257,4.257,0,0,1-.963-1.548,5.908,5.908,0,0,1-.333-2.043A6.993,6.993,0,0,1,126-6.759a4.525,4.525,0,0,1,.828-1.575,3.544,3.544,0,0,1,1.323-.99,4.436,4.436,0,0,1,1.791-.342,4.212,4.212,0,0,1,1,.108,5.407,5.407,0,0,1,.891.306v-4.284l2.682-.432Zm6.138-1.566q.4,0,.756-.018a5.26,5.26,0,0,0,.576-.054V-3.978q-.162-.036-.486-.072a5.413,5.413,0,0,0-.594-.036,5.316,5.316,0,0,0-.711.045,1.857,1.857,0,0,0-.585.171,1,1,0,0,0-.4.342.953.953,0,0,0-.144.54.92.92,0,0,0,.423.873A2.338,2.338,0,0,0,140.652-1.872Zm-.216-7.848a6.211,6.211,0,0,1,1.98.27,3.075,3.075,0,0,1,1.269.774,2.845,2.845,0,0,1,.675,1.224,6.037,6.037,0,0,1,.2,1.6V-.27q-.576.126-1.6.3A15.394,15.394,0,0,1,140.472.2a7.875,7.875,0,0,1-1.665-.162A3.614,3.614,0,0,1,137.52-.5a2.43,2.43,0,0,1-.828-.963,3.324,3.324,0,0,1-.288-1.458,2.763,2.763,0,0,1,.333-1.4,2.563,2.563,0,0,1,.891-.918,4.026,4.026,0,0,1,1.278-.5,7.169,7.169,0,0,1,1.494-.153,8.482,8.482,0,0,1,.927.045,4.126,4.126,0,0,1,.657.117v-.252a1.484,1.484,0,0,0-.414-1.1,2,2,0,0,0-1.44-.414,9.169,9.169,0,0,0-1.35.1,5.791,5.791,0,0,0-1.152.279l-.342-2.16q.234-.072.585-.153t.765-.144q.414-.063.873-.108T140.436-9.72ZM159.857,0q-.208-.65-.448-1.336L158.932-2.7H154.06l-.474,1.368q-.237.686-.442,1.332h-2.916q.7-2.016,1.336-3.726T152.8-6.948q.6-1.512,1.192-2.871t1.219-2.655h2.662q.615,1.3,1.212,2.655t1.2,2.871q.606,1.512,1.239,3.222T162.864,0Zm-3.374-9.648q-.094.272-.275.739T155.8-7.828q-.231.613-.517,1.35T154.7-4.932h3.567q-.286-.811-.555-1.551t-.51-1.352q-.242-.613-.424-1.08T156.483-9.648Zm11.727-2.97a7.8,7.8,0,0,1,4.284.981,3.556,3.556,0,0,1,1.494,3.213,3.605,3.605,0,0,1-1.512,3.249,7.825,7.825,0,0,1-4.32,1h-.882V0h-2.808V-12.294a15.887,15.887,0,0,1,1.944-.252Q167.436-12.618,168.21-12.618Zm.18,2.394q-.306,0-.6.018t-.513.036v3.6h.882a4.78,4.78,0,0,0,2.2-.4,1.522,1.522,0,0,0,.738-1.476,1.771,1.771,0,0,0-.189-.864,1.437,1.437,0,0,0-.54-.549,2.432,2.432,0,0,0-.855-.288A7.062,7.062,0,0,0,168.39-10.224Zm7.668-2.25h2.808V0h-2.808Zm9.351,2.826a4.763,4.763,0,0,1,.452-.351q.271-.189.551-.378a6.2,6.2,0,0,1,.569-.342,3.419,3.419,0,0,1,.506-.225l.434-.144.72,2.232-.433.144a3.078,3.078,0,0,1-.542.108q-.307.036-.65.045t-.668.009h-.578q.217.144.479.333t.524.4q.262.207.5.423a2.889,2.889,0,0,1,.38.414l.289.378-1.908,1.35-.272-.36a2.341,2.341,0,0,1-.281-.468q-.136-.288-.263-.6T185-7.308q-.091-.306-.163-.558-.071.252-.161.558t-.214.621q-.125.315-.259.6a2.353,2.353,0,0,1-.277.468l-.268.36-1.908-1.35.287-.378a2.885,2.885,0,0,1,.376-.414q.233-.216.493-.423t.52-.4q.26-.189.475-.333h-.574q-.323,0-.664-.009t-.646-.045a3.05,3.05,0,0,1-.538-.108l-.431-.144.72-2.232.43.144a3.366,3.366,0,0,1,.5.225,6.166,6.166,0,0,1,.565.342q.278.189.538.378t.457.351q-.089-.234-.186-.549t-.186-.639q-.089-.324-.151-.639a2.894,2.894,0,0,1-.062-.549v-.45h2.34v.45a2.809,2.809,0,0,1-.064.549q-.064.315-.155.639t-.192.639Q185.5-9.882,185.409-9.648Z" transform="translate(390 1256)" fill="#004798"/><path d="M4.248-2.286q.2.018.459.027t.621.009A4.141,4.141,0,0,0,8.451-3.312,4.068,4.068,0,0,0,9.468-6.246,4.119,4.119,0,0,0,8.5-9.216a4.114,4.114,0,0,0-3.078-1.008q-.288,0-.594.009a5.614,5.614,0,0,0-.576.045Zm8.118-3.96a7.292,7.292,0,0,1-.5,2.826,5.234,5.234,0,0,1-1.431,2A6.1,6.1,0,0,1,8.172-.234a10.473,10.473,0,0,1-2.988.4Q4.428.162,3.42.1A14.411,14.411,0,0,1,1.44-.162v-12.15a16.542,16.542,0,0,1,2.025-.243q1.053-.063,1.809-.063a10.925,10.925,0,0,1,2.907.36,5.947,5.947,0,0,1,2.241,1.134,5.04,5.04,0,0,1,1.44,1.98A7.5,7.5,0,0,1,12.366-6.246ZM17.208,0H14.526V-9.468h2.682Zm.252-12.2a1.472,1.472,0,0,1-.477,1.161,1.641,1.641,0,0,1-1.125.423,1.641,1.641,0,0,1-1.125-.423,1.472,1.472,0,0,1-.477-1.161,1.472,1.472,0,0,1,.477-1.161,1.641,1.641,0,0,1,1.125-.423,1.641,1.641,0,0,1,1.125.423A1.472,1.472,0,0,1,17.46-12.2ZM22.014-5.04q0,2.25,1.818,2.25a2.681,2.681,0,0,0,.774-.108,2.94,2.94,0,0,0,.612-.252V-7.434q-.2-.036-.468-.063t-.63-.027a1.846,1.846,0,0,0-1.584.7A2.906,2.906,0,0,0,22.014-5.04ZM27.9-1.188a4.56,4.56,0,0,1-1.179,3.447,5.12,5.12,0,0,1-3.645,1.125,9.892,9.892,0,0,1-1.728-.153,10.768,10.768,0,0,1-1.6-.4l.468-2.25a7.861,7.861,0,0,0,1.323.4,7.783,7.783,0,0,0,1.575.144,2.178,2.178,0,0,0,1.629-.5,1.809,1.809,0,0,0,.477-1.3v-.342a4.317,4.317,0,0,1-.891.3,4.739,4.739,0,0,1-1,.1,3.834,3.834,0,0,1-3.006-1.161A4.689,4.689,0,0,1,19.278-5.04a5.322,5.322,0,0,1,.324-1.9,4.04,4.04,0,0,1,.945-1.467,4.218,4.218,0,0,1,1.521-.945A5.832,5.832,0,0,1,24.1-9.684q.486,0,1,.045t1.017.117q.5.072.963.171t.819.207ZM33.1,0H30.42V-9.468H33.1Zm.252-12.2a1.472,1.472,0,0,1-.477,1.161,1.641,1.641,0,0,1-1.125.423,1.641,1.641,0,0,1-1.125-.423A1.472,1.472,0,0,1,30.15-12.2a1.472,1.472,0,0,1,.477-1.161,1.641,1.641,0,0,1,1.125-.423,1.641,1.641,0,0,1,1.125.423A1.472,1.472,0,0,1,33.354-12.2Zm2.178.378,2.682-.432v2.79h3.222v2.232H38.214v3.33a2.649,2.649,0,0,0,.3,1.35,1.275,1.275,0,0,0,1.2.5,5.124,5.124,0,0,0,.891-.081,4.592,4.592,0,0,0,.837-.225L41.814-.27a7.631,7.631,0,0,1-1.08.342,6.293,6.293,0,0,1-1.458.144,4.8,4.8,0,0,1-1.818-.3,2.852,2.852,0,0,1-1.152-.828A3.082,3.082,0,0,1,35.7-2.2a7.6,7.6,0,0,1-.171-1.674ZM42.8-4.662a5.79,5.79,0,0,1,.387-2.2,4.727,4.727,0,0,1,1.017-1.575A4.231,4.231,0,0,1,45.657-9.4,4.537,4.537,0,0,1,47.34-9.72a4.183,4.183,0,0,1,3.186,1.233A5.08,5.08,0,0,1,51.7-4.86q0,.234-.018.513t-.036.495H45.558a1.782,1.782,0,0,0,.774,1.314,3.111,3.111,0,0,0,1.836.486,7.751,7.751,0,0,0,1.449-.135,5.47,5.47,0,0,0,1.161-.333l.36,2.178a3.7,3.7,0,0,1-.576.216,7.537,7.537,0,0,1-.8.189Q49.32.144,48.816.2a9.455,9.455,0,0,1-1.008.054,5.967,5.967,0,0,1-2.223-.378,4.33,4.33,0,0,1-1.566-1.035A4.108,4.108,0,0,1,43.1-2.718,6.168,6.168,0,0,1,42.8-4.662Zm6.3-1.026a2.769,2.769,0,0,0-.117-.666,1.663,1.663,0,0,0-.306-.576,1.629,1.629,0,0,0-.522-.414,1.7,1.7,0,0,0-.783-.162,1.8,1.8,0,0,0-.774.153,1.6,1.6,0,0,0-.54.405,1.812,1.812,0,0,0-.333.585,3.839,3.839,0,0,0-.171.675ZM61.7-1.872q.4,0,.756-.018a5.26,5.26,0,0,0,.576-.054V-3.978q-.162-.036-.486-.072a5.412,5.412,0,0,0-.594-.036,5.316,5.316,0,0,0-.711.045,1.857,1.857,0,0,0-.585.171,1,1,0,0,0-.4.342.953.953,0,0,0-.144.54.92.92,0,0,0,.423.873A2.338,2.338,0,0,0,61.7-1.872ZM61.488-9.72a6.211,6.211,0,0,1,1.98.27,3.075,3.075,0,0,1,1.269.774,2.845,2.845,0,0,1,.675,1.224,6.038,6.038,0,0,1,.2,1.6V-.27q-.576.126-1.6.3A15.394,15.394,0,0,1,61.524.2,7.875,7.875,0,0,1,59.859.036,3.614,3.614,0,0,1,58.572-.5a2.43,2.43,0,0,1-.828-.963,3.324,3.324,0,0,1-.288-1.458,2.763,2.763,0,0,1,.333-1.4,2.563,2.563,0,0,1,.891-.918,4.026,4.026,0,0,1,1.278-.5,7.17,7.17,0,0,1,1.494-.153,8.482,8.482,0,0,1,.927.045,4.126,4.126,0,0,1,.657.117v-.252a1.484,1.484,0,0,0-.414-1.1,2,2,0,0,0-1.44-.414,9.169,9.169,0,0,0-1.35.1,5.791,5.791,0,0,0-1.152.279l-.342-2.16q.234-.072.585-.153t.765-.144q.414-.063.873-.108T61.488-9.72ZM71.91-4.734a5.581,5.581,0,0,1,.333-1.935,4.624,4.624,0,0,1,.963-1.584,4.6,4.6,0,0,1,1.53-1.071,5.048,5.048,0,0,1,2.052-.4,6.623,6.623,0,0,1,1.386.135A6.746,6.746,0,0,1,79.4-9.2L78.84-7.056a6.76,6.76,0,0,0-.828-.252A4.327,4.327,0,0,0,77-7.416a2.125,2.125,0,0,0-1.773.738,3.038,3.038,0,0,0-.585,1.944,3.147,3.147,0,0,0,.549,1.98,2.3,2.3,0,0,0,1.917.7,6.577,6.577,0,0,0,1.044-.09,4.438,4.438,0,0,0,1.026-.288l.378,2.2a6.292,6.292,0,0,1-1.17.342,7.718,7.718,0,0,1-1.548.144A5.827,5.827,0,0,1,74.61-.135a4.2,4.2,0,0,1-1.539-1.053,4.108,4.108,0,0,1-.882-1.575A6.688,6.688,0,0,1,71.91-4.734ZM81.36,0V-13.536l2.682-.432v4.536a5.559,5.559,0,0,1,.693-.171,4.352,4.352,0,0,1,.819-.081,5.062,5.062,0,0,1,1.917.315,2.976,2.976,0,0,1,1.224.891,3.445,3.445,0,0,1,.648,1.368,7.61,7.61,0,0,1,.189,1.764V0H86.85V-5.022a3.7,3.7,0,0,0-.333-1.836,1.331,1.331,0,0,0-1.233-.54,3.44,3.44,0,0,0-.675.063q-.315.063-.567.135V0ZM95.58-1.872q.4,0,.756-.018a5.26,5.26,0,0,0,.576-.054V-3.978q-.162-.036-.486-.072a5.413,5.413,0,0,0-.594-.036,5.316,5.316,0,0,0-.711.045,1.857,1.857,0,0,0-.585.171,1,1,0,0,0-.4.342.953.953,0,0,0-.144.54.92.92,0,0,0,.423.873A2.338,2.338,0,0,0,95.58-1.872ZM95.364-9.72a6.211,6.211,0,0,1,1.98.27,3.075,3.075,0,0,1,1.269.774,2.845,2.845,0,0,1,.675,1.224,6.038,6.038,0,0,1,.2,1.6V-.27q-.576.126-1.6.3A15.394,15.394,0,0,1,95.4.2,7.875,7.875,0,0,1,93.735.036,3.614,3.614,0,0,1,92.448-.5a2.43,2.43,0,0,1-.828-.963,3.324,3.324,0,0,1-.288-1.458,2.763,2.763,0,0,1,.333-1.4,2.563,2.563,0,0,1,.891-.918,4.026,4.026,0,0,1,1.278-.5,7.169,7.169,0,0,1,1.494-.153,8.482,8.482,0,0,1,.927.045,4.126,4.126,0,0,1,.657.117v-.252a1.484,1.484,0,0,0-.414-1.1,2,2,0,0,0-1.44-.414,9.169,9.169,0,0,0-1.35.1,5.791,5.791,0,0,0-1.152.279l-.342-2.16q.234-.072.585-.153t.765-.144q.414-.063.873-.108T95.364-9.72ZM104.27,0q-.921-1.8-1.87-4.212t-1.8-5.256h2.844q.181.7.425,1.521t.506,1.656q.262.837.524,1.629t.515,1.44q.235-.648.506-1.44t.533-1.629q.262-.837.506-1.656t.425-1.521h2.774q-.849,2.844-1.8,5.256T106.5,0Zm6.61-4.662a5.79,5.79,0,0,1,.387-2.2,4.728,4.728,0,0,1,1.017-1.575,4.231,4.231,0,0,1,1.449-.954,4.537,4.537,0,0,1,1.683-.324A4.183,4.183,0,0,1,118.6-8.487a5.08,5.08,0,0,1,1.17,3.627q0,.234-.018.513t-.036.495h-6.084a1.782,1.782,0,0,0,.774,1.314,3.111,3.111,0,0,0,1.836.486,7.751,7.751,0,0,0,1.449-.135,5.47,5.47,0,0,0,1.161-.333l.36,2.178a3.7,3.7,0,0,1-.576.216,7.537,7.537,0,0,1-.8.189q-.441.081-.945.135a9.455,9.455,0,0,1-1.008.054,5.967,5.967,0,0,1-2.223-.378A4.33,4.33,0,0,1,112.1-1.161a4.108,4.108,0,0,1-.918-1.557A6.168,6.168,0,0,1,110.88-4.662Zm6.3-1.026a2.768,2.768,0,0,0-.117-.666,1.663,1.663,0,0,0-.306-.576,1.629,1.629,0,0,0-.522-.414,1.7,1.7,0,0,0-.783-.162,1.8,1.8,0,0,0-.774.153,1.6,1.6,0,0,0-.54.405,1.812,1.812,0,0,0-.333.585,3.838,3.838,0,0,0-.171.675Zm11.268.882a3.286,3.286,0,0,0,.558,2,1.927,1.927,0,0,0,1.656.756q.36,0,.666-.027t.5-.063V-7.02a2.33,2.33,0,0,0-.657-.27,3.166,3.166,0,0,0-.819-.108Q128.448-7.4,128.448-4.806Zm6.066,4.5q-.36.108-.828.207t-.981.171q-.513.072-1.044.117t-1.017.045a5.953,5.953,0,0,1-2.088-.342,4.2,4.2,0,0,1-1.548-.981,4.257,4.257,0,0,1-.963-1.548,5.908,5.908,0,0,1-.333-2.043A6.993,6.993,0,0,1,126-6.759a4.525,4.525,0,0,1,.828-1.575,3.544,3.544,0,0,1,1.323-.99,4.436,4.436,0,0,1,1.791-.342,4.212,4.212,0,0,1,1,.108,5.407,5.407,0,0,1,.891.306v-4.284l2.682-.432Zm6.138-1.566q.4,0,.756-.018a5.26,5.26,0,0,0,.576-.054V-3.978q-.162-.036-.486-.072a5.413,5.413,0,0,0-.594-.036,5.316,5.316,0,0,0-.711.045,1.857,1.857,0,0,0-.585.171,1,1,0,0,0-.4.342.953.953,0,0,0-.144.54.92.92,0,0,0,.423.873A2.338,2.338,0,0,0,140.652-1.872Zm-.216-7.848a6.211,6.211,0,0,1,1.98.27,3.075,3.075,0,0,1,1.269.774,2.845,2.845,0,0,1,.675,1.224,6.037,6.037,0,0,1,.2,1.6V-.27q-.576.126-1.6.3A15.394,15.394,0,0,1,140.472.2a7.875,7.875,0,0,1-1.665-.162A3.614,3.614,0,0,1,137.52-.5a2.43,2.43,0,0,1-.828-.963,3.324,3.324,0,0,1-.288-1.458,2.763,2.763,0,0,1,.333-1.4,2.563,2.563,0,0,1,.891-.918,4.026,4.026,0,0,1,1.278-.5,7.169,7.169,0,0,1,1.494-.153,8.482,8.482,0,0,1,.927.045,4.126,4.126,0,0,1,.657.117v-.252a1.484,1.484,0,0,0-.414-1.1,2,2,0,0,0-1.44-.414,9.169,9.169,0,0,0-1.35.1,5.791,5.791,0,0,0-1.152.279l-.342-2.16q.234-.072.585-.153t.765-.144q.414-.063.873-.108T140.436-9.72Zm14.49,7.848q.4,0,.756-.018a5.26,5.26,0,0,0,.576-.054V-3.978q-.162-.036-.486-.072a5.413,5.413,0,0,0-.594-.036,5.316,5.316,0,0,0-.711.045,1.857,1.857,0,0,0-.585.171,1,1,0,0,0-.4.342.953.953,0,0,0-.144.54.92.92,0,0,0,.423.873A2.338,2.338,0,0,0,154.926-1.872ZM154.71-9.72a6.211,6.211,0,0,1,1.98.27,3.075,3.075,0,0,1,1.269.774,2.845,2.845,0,0,1,.675,1.224,6.037,6.037,0,0,1,.2,1.6V-.27q-.576.126-1.6.3A15.394,15.394,0,0,1,154.746.2a7.875,7.875,0,0,1-1.665-.162A3.614,3.614,0,0,1,151.794-.5a2.43,2.43,0,0,1-.828-.963,3.324,3.324,0,0,1-.288-1.458,2.763,2.763,0,0,1,.333-1.4,2.563,2.563,0,0,1,.891-.918,4.026,4.026,0,0,1,1.278-.5,7.169,7.169,0,0,1,1.494-.153,8.482,8.482,0,0,1,.927.045,4.126,4.126,0,0,1,.657.117v-.252a1.484,1.484,0,0,0-.414-1.1,2,2,0,0,0-1.44-.414,9.169,9.169,0,0,0-1.35.1,5.791,5.791,0,0,0-1.152.279l-.342-2.16q.234-.072.585-.153t.765-.144q.414-.063.873-.108T154.71-9.72Zm12.618,5.058a3.245,3.245,0,0,0-.558-1.989,1.936,1.936,0,0,0-1.656-.747q-.36,0-.666.027t-.5.063v4.842a2.33,2.33,0,0,0,.657.27,3.166,3.166,0,0,0,.819.108Q167.328-2.088,167.328-4.662Zm2.736-.072a6.937,6.937,0,0,1-.27,2A4.5,4.5,0,0,1,169-1.188a3.576,3.576,0,0,1-1.3,1.008,4.182,4.182,0,0,1-1.782.36A4.807,4.807,0,0,1,164.88.072a5.025,5.025,0,0,1-.936-.306V3.33h-2.682V-9.144q.36-.108.828-.207t.981-.171q.513-.072,1.044-.117t1.017-.045a5.815,5.815,0,0,1,2.088.351,4.291,4.291,0,0,1,1.548.99,4.244,4.244,0,0,1,.963,1.557A5.984,5.984,0,0,1,170.064-4.734ZM175.914.18a6.7,6.7,0,0,1-1.9-.252,2.813,2.813,0,0,1-1.152-.657,2.18,2.18,0,0,1-.576-1.026,5.536,5.536,0,0,1-.153-1.359V-13.536l2.682-.432V-3.654a3.534,3.534,0,0,0,.054.648,1.118,1.118,0,0,0,.207.486,1.1,1.1,0,0,0,.441.324,2.417,2.417,0,0,0,.774.162ZM180.5,0h-2.682V-9.468H180.5Zm.252-12.2a1.472,1.472,0,0,1-.477,1.161,1.64,1.64,0,0,1-1.125.423,1.641,1.641,0,0,1-1.125-.423,1.472,1.472,0,0,1-.477-1.161,1.472,1.472,0,0,1,.477-1.161,1.641,1.641,0,0,1,1.125-.423,1.64,1.64,0,0,1,1.125.423A1.472,1.472,0,0,1,180.756-12.2Zm1.818,7.47a5.581,5.581,0,0,1,.333-1.935,4.624,4.624,0,0,1,.963-1.584,4.6,4.6,0,0,1,1.53-1.071,5.048,5.048,0,0,1,2.052-.4,6.623,6.623,0,0,1,1.386.135,6.747,6.747,0,0,1,1.224.387L189.5-7.056a6.759,6.759,0,0,0-.828-.252,4.327,4.327,0,0,0-1.008-.108,2.125,2.125,0,0,0-1.773.738,3.038,3.038,0,0,0-.585,1.944,3.147,3.147,0,0,0,.549,1.98,2.3,2.3,0,0,0,1.917.7,6.577,6.577,0,0,0,1.044-.09,4.438,4.438,0,0,0,1.026-.288l.378,2.2a6.292,6.292,0,0,1-1.17.342,7.718,7.718,0,0,1-1.548.144,5.827,5.827,0,0,1-2.232-.387,4.2,4.2,0,0,1-1.539-1.053,4.108,4.108,0,0,1-.882-1.575A6.688,6.688,0,0,1,182.574-4.734Zm12.618,2.862q.4,0,.756-.018a5.26,5.26,0,0,0,.576-.054V-3.978q-.162-.036-.486-.072a5.413,5.413,0,0,0-.594-.036,5.316,5.316,0,0,0-.711.045,1.857,1.857,0,0,0-.585.171,1,1,0,0,0-.4.342.953.953,0,0,0-.144.54.92.92,0,0,0,.423.873A2.338,2.338,0,0,0,195.192-1.872Zm-.216-7.848a6.211,6.211,0,0,1,1.98.27,3.075,3.075,0,0,1,1.269.774,2.845,2.845,0,0,1,.675,1.224,6.037,6.037,0,0,1,.2,1.6V-.27q-.576.126-1.6.3A15.394,15.394,0,0,1,195.012.2a7.875,7.875,0,0,1-1.665-.162A3.614,3.614,0,0,1,192.06-.5a2.43,2.43,0,0,1-.828-.963,3.324,3.324,0,0,1-.288-1.458,2.763,2.763,0,0,1,.333-1.4,2.563,2.563,0,0,1,.891-.918,4.026,4.026,0,0,1,1.278-.5,7.169,7.169,0,0,1,1.494-.153,8.482,8.482,0,0,1,.927.045,4.126,4.126,0,0,1,.657.117v-.252a1.484,1.484,0,0,0-.414-1.1,2,2,0,0,0-1.44-.414,9.169,9.169,0,0,0-1.35.1,5.791,5.791,0,0,0-1.152.279l-.342-2.16q.234-.072.585-.153t.765-.144q.414-.063.873-.108T194.976-9.72ZM206.172.72a1.751,1.751,0,0,1,.792.684,1.673,1.673,0,0,1,.216.81,1.475,1.475,0,0,1-.684,1.314,3.226,3.226,0,0,1-1.8.45,5.033,5.033,0,0,1-.792-.063,7.469,7.469,0,0,1-.792-.171l.324-1.566q.126.036.459.117a2.773,2.773,0,0,0,.657.081.937.937,0,0,0,.441-.1.4.4,0,0,0,.207-.351.48.48,0,0,0-.171-.4,1.256,1.256,0,0,0-.6-.27l-.216-.054a5.592,5.592,0,0,1,.2-.531q.126-.3.252-.549A4.451,4.451,0,0,1,203.049-.5a3.992,3.992,0,0,1-1.116-1.08,4.479,4.479,0,0,1-.648-1.449,6.883,6.883,0,0,1-.207-1.71,5.581,5.581,0,0,1,.333-1.935,4.624,4.624,0,0,1,.963-1.584,4.6,4.6,0,0,1,1.53-1.071,5.048,5.048,0,0,1,2.052-.4,6.623,6.623,0,0,1,1.386.135,6.747,6.747,0,0,1,1.224.387l-.558,2.142a6.759,6.759,0,0,0-.828-.252,4.327,4.327,0,0,0-1.008-.108,2.125,2.125,0,0,0-1.773.738,3.038,3.038,0,0,0-.585,1.944,3.147,3.147,0,0,0,.549,1.98,2.3,2.3,0,0,0,1.917.7,6.577,6.577,0,0,0,1.044-.09,4.438,4.438,0,0,0,1.026-.288l.378,2.2a5.293,5.293,0,0,1-1.017.306,8.578,8.578,0,0,1-1.323.162q-.072.144-.126.27T206.172.72ZM213.7-1.872q.4,0,.756-.018a5.26,5.26,0,0,0,.576-.054V-3.978q-.162-.036-.486-.072a5.413,5.413,0,0,0-.594-.036,5.316,5.316,0,0,0-.711.045,1.857,1.857,0,0,0-.585.171,1,1,0,0,0-.4.342.953.953,0,0,0-.144.54.92.92,0,0,0,.423.873A2.338,2.338,0,0,0,213.7-1.872ZM213.48-9.72a6.211,6.211,0,0,1,1.98.27,3.075,3.075,0,0,1,1.269.774,2.845,2.845,0,0,1,.675,1.224,6.037,6.037,0,0,1,.2,1.6V-.27q-.576.126-1.6.3A15.394,15.394,0,0,1,213.516.2a7.875,7.875,0,0,1-1.665-.162A3.614,3.614,0,0,1,210.564-.5a2.43,2.43,0,0,1-.828-.963,3.324,3.324,0,0,1-.288-1.458,2.763,2.763,0,0,1,.333-1.4,2.563,2.563,0,0,1,.891-.918,4.026,4.026,0,0,1,1.278-.5,7.169,7.169,0,0,1,1.494-.153,8.482,8.482,0,0,1,.927.045,4.126,4.126,0,0,1,.657.117v-.252a1.484,1.484,0,0,0-.414-1.1,2,2,0,0,0-1.44-.414,9.169,9.169,0,0,0-1.35.1,5.791,5.791,0,0,0-1.152.279l-.342-2.16q.234-.072.585-.153t.765-.144q.414-.063.873-.108T213.48-9.72Zm3.51-3.042a4.555,4.555,0,0,1-.3.594,3.142,3.142,0,0,1-.459.6,2.406,2.406,0,0,1-.612.459,1.6,1.6,0,0,1-.756.18,1.791,1.791,0,0,1-.6-.1q-.279-.1-.549-.216t-.54-.216a1.609,1.609,0,0,0-.558-.1.8.8,0,0,0-.594.234,1.9,1.9,0,0,0-.378.54l-1.314-.864a4.553,4.553,0,0,1,.3-.594,3.142,3.142,0,0,1,.459-.6,2.406,2.406,0,0,1,.612-.459,1.6,1.6,0,0,1,.756-.18,1.791,1.791,0,0,1,.6.1q.279.1.549.216t.531.216a1.586,1.586,0,0,0,.567.1.8.8,0,0,0,.594-.234,1.9,1.9,0,0,0,.378-.54Zm11.9,8.01a6.157,6.157,0,0,1-.324,2.043,4.439,4.439,0,0,1-.936,1.584,4.213,4.213,0,0,1-1.467,1.017,4.9,4.9,0,0,1-1.917.36,4.847,4.847,0,0,1-1.9-.36,4.213,4.213,0,0,1-1.467-1.017,4.657,4.657,0,0,1-.954-1.584,5.862,5.862,0,0,1-.342-2.043,5.654,5.654,0,0,1,.351-2.034,4.612,4.612,0,0,1,.972-1.566,4.365,4.365,0,0,1,1.476-1.008,4.752,4.752,0,0,1,1.863-.36,4.8,4.8,0,0,1,1.881.36,4.271,4.271,0,0,1,1.467,1.008,4.575,4.575,0,0,1,.954,1.566A5.787,5.787,0,0,1,228.888-4.752Zm-2.736,0a3.372,3.372,0,0,0-.5-1.953,1.619,1.619,0,0,0-1.413-.711,1.641,1.641,0,0,0-1.422.711,3.326,3.326,0,0,0-.5,1.953,3.413,3.413,0,0,0,.5,1.971,1.629,1.629,0,0,0,1.422.729,1.607,1.607,0,0,0,1.413-.729A3.46,3.46,0,0,0,226.152-4.752Zm8.109-4.9a4.763,4.763,0,0,1,.452-.351q.271-.189.551-.378a6.2,6.2,0,0,1,.569-.342,3.419,3.419,0,0,1,.506-.225l.434-.144.72,2.232-.433.144a3.078,3.078,0,0,1-.542.108q-.307.036-.65.045t-.668.009h-.578q.217.144.479.333t.524.4q.262.207.5.423a2.889,2.889,0,0,1,.38.414l.289.378-1.908,1.35-.272-.36a2.341,2.341,0,0,1-.281-.468q-.136-.288-.263-.6t-.218-.621q-.091-.306-.163-.558-.071.252-.161.558t-.214.621q-.125.315-.259.6a2.353,2.353,0,0,1-.277.468l-.268.36L230.6-6.606l.287-.378a2.885,2.885,0,0,1,.376-.414q.233-.216.493-.423t.52-.4q.26-.189.475-.333h-.574q-.323,0-.664-.009t-.646-.045a3.05,3.05,0,0,1-.538-.108l-.431-.144.72-2.232.43.144a3.366,3.366,0,0,1,.5.225,6.166,6.166,0,0,1,.565.342q.278.189.538.378t.457.351q-.089-.234-.186-.549t-.186-.639q-.089-.324-.151-.639a2.894,2.894,0,0,1-.062-.549v-.45h2.34v.45a2.809,2.809,0,0,1-.064.549q-.064.315-.155.639t-.192.639Q234.352-9.882,234.261-9.648Z" transform="translate(400 1316)" fill="#004798"/></g></g></svg>