<svg xmlns="http://www.w3.org/2000/svg" width="73.262" height="108.731" viewBox="0 0 73.262 108.731">
  <g id="Grupo_9941" data-name="Grupo 9941" transform="translate(-1162.079 -692.607)">
    <g id="guarantee" transform="translate(1078.57 692.607)">
      <path id="Caminho_44122" data-name="Caminho 44122" d="M161.086,20.242V103.8H91.01V7.5h57.334V20.242Z" transform="translate(-5.908 -5.907)" fill="#e6e9ed"/>
      <path id="Caminho_44123" data-name="Caminho 44123" d="M301.626,447.147l0,9.244-5.309-4.247-5.309,4.247V443.42a9.557,9.557,0,0,0,10.616,0Z" transform="translate(-163.435 -349.253)" fill="#ff6e3c"/>
      <path id="Caminho_44124" data-name="Caminho 44124" d="M280.566,361a9.557,9.557,0,1,1-9.556,9.556A9.557,9.557,0,0,1,280.566,361Z" transform="translate(-147.682 -284.336)" fill="#ff6e3c"/>
      <path id="Caminho_44125" data-name="Caminho 44125" d="M304.2,391a3.185,3.185,0,1,1-3.185,3.185A3.187,3.187,0,0,1,304.2,391Z" transform="translate(-171.311 -307.965)" fill="#ff6e3c"/>
      <path id="Caminho_44126" data-name="Caminho 44126" d="M373.732,20.242H360.99V7.5Z" transform="translate(-218.554 -5.907)" fill="#f5f7fa"/>
      <path id="Caminho_44127" data-name="Caminho 44127" d="M165.026,87.5l1.062,12.742H151.01L152.284,87.5h12.742Z" transform="translate(-53.166 -68.918)" fill="#28d8de"/>
      <rect id="Retângulo_4801" data-name="Retângulo 4801" width="6.371" height="83.561" transform="translate(148.807 14.335)" fill="rgba(0,0,0,0.1)"/>
      <path id="Caminho_44128" data-name="Caminho 44128" d="M152.748,50a4.783,4.783,0,0,0-4.778,4.778v1.593h-1.593a1.593,1.593,0,0,0-1.585,1.434l-1.274,12.742A1.593,1.593,0,0,0,145.1,72.3h15.082a1.593,1.593,0,0,0,1.593-1.593,1.623,1.623,0,0,0-.02-.251l-1.052-12.623a1.593,1.593,0,0,0-1.587-1.46h-1.593V54.778A4.783,4.783,0,0,0,152.748,50Zm5.7,19.113H146.862l.956-9.556h9.835Zm-7.294-12.742V54.778a1.593,1.593,0,1,1,3.185,0v1.593Z" transform="translate(-47.259 -39.382)" fill="#004798"/>
      <path id="Caminho_44129" data-name="Caminho 44129" d="M156.763,14.175c0-.039-.011-.077-.017-.114,0-.013,0-.027-.006-.04-.009-.045-.021-.089-.034-.133,0-.006,0-.012,0-.018-.014-.045-.03-.088-.047-.131l-.006-.015c-.017-.041-.036-.081-.057-.12l-.01-.021c-.02-.036-.041-.072-.063-.106l-.017-.028c-.022-.033-.047-.065-.071-.1l-.022-.029c-.033-.04-.068-.079-.1-.116L143.564.467q-.055-.055-.116-.1l-.032-.024c-.03-.024-.061-.047-.093-.069L143.292.25c-.034-.021-.068-.043-.1-.062l-.024-.011c-.038-.02-.077-.039-.117-.055l-.017-.006c-.042-.017-.085-.033-.129-.046l-.019,0c-.043-.013-.087-.024-.131-.033L142.71.025c-.038-.007-.075-.013-.114-.017A1.525,1.525,0,0,0,142.437,0H85.1a1.593,1.593,0,0,0-1.593,1.593v96.3A1.593,1.593,0,0,0,85.1,99.488h36.1a1.593,1.593,0,1,0,0-3.185H86.694V3.185h54.15V14.334a1.593,1.593,0,0,0,1.593,1.593h11.148V96.3h-9.022a1.593,1.593,0,0,0,0,3.185h10.615a1.593,1.593,0,0,0,1.593-1.593V14.334A1.578,1.578,0,0,0,156.763,14.175ZM144.03,5.438l7.3,7.3h-7.3Z" transform="translate(0 0)" fill="#004798"/>
      <path id="Caminho_44130" data-name="Caminho 44130" d="M145.1,216.678h44.594a1.593,1.593,0,1,0,0-3.185H145.1a1.593,1.593,0,1,0,0,3.185Z" transform="translate(-47.257 -168.155)" fill="#004798"/>
      <path id="Caminho_44131" data-name="Caminho 44131" d="M145.1,256.687h44.594a1.593,1.593,0,1,0,0-3.185H145.1a1.593,1.593,0,1,0,0,3.185Z" transform="translate(-47.257 -199.667)" fill="#004798"/>
      <path id="Caminho_44132" data-name="Caminho 44132" d="M191.287,295.094a1.593,1.593,0,0,0-1.593-1.593H145.1a1.593,1.593,0,1,0,0,3.185h44.594A1.593,1.593,0,0,0,191.287,295.094Z" transform="translate(-47.257 -231.172)" fill="#004798"/>
      <path id="Caminho_44133" data-name="Caminho 44133" d="M145.1,333.5a1.593,1.593,0,1,0,0,3.185h19.112a1.593,1.593,0,1,0,0-3.185Z" transform="translate(-47.257 -262.677)" fill="#004798"/>
      <path id="Caminho_44134" data-name="Caminho 44134" d="M285.805,364.651a11.149,11.149,0,1,0-18.051,8.746v12.171c0,.017,0,.033,0,.05,0,.032,0,.065,0,.1s.006.045.009.068.008.058.013.087.011.048.017.072.013.053.02.079.016.049.025.074.017.049.027.073.022.05.034.075.02.044.032.066.029.051.044.076.023.039.035.058.037.052.056.078.019.028.03.042l.007.008a1.555,1.555,0,0,0,.114.126c.011.011.024.021.035.032.029.027.059.054.09.079s.038.029.057.043.052.038.079.055l.062.038c.028.017.057.032.086.047l.061.029c.033.015.066.028.1.04l.055.02c.038.013.076.023.115.032l.046.012c.043.009.087.016.131.022l.037.006c.052.006.1.008.158.009h.017a1.606,1.606,0,0,0,.228-.019l.048-.007a1.568,1.568,0,0,0,.221-.056l.039-.014a1.593,1.593,0,0,0,.221-.1l.007,0a1.568,1.568,0,0,0,.21-.141l.014-.01,4.314-3.451,4.314,3.451.014.009a1.608,1.608,0,0,0,.211.141l.007,0a1.566,1.566,0,0,0,.221.1l.038.014a1.6,1.6,0,0,0,.221.056l.048.007a1.585,1.585,0,0,0,.228.019h.017c.054,0,.106,0,.159-.009l.036-.006c.044-.006.089-.013.131-.022l.045-.012c.039-.01.078-.02.116-.032l.054-.02c.034-.013.068-.026.1-.041l.06-.029c.03-.015.059-.03.087-.047l.062-.038q.04-.026.079-.055c.019-.014.039-.028.058-.043s.061-.052.09-.079c.012-.011.024-.021.035-.032a1.572,1.572,0,0,0,.114-.127l.007-.007c.011-.013.02-.028.03-.041s.039-.051.056-.078.024-.039.035-.058.03-.05.044-.076.021-.044.032-.066.023-.049.034-.075.018-.048.027-.073.017-.049.025-.074.014-.053.02-.079.012-.047.017-.072.009-.058.013-.087.007-.045.009-.067,0-.065,0-.1c0-.017,0-.033,0-.05V373.4A11.134,11.134,0,0,0,285.805,364.651Zm-19.113,0a7.964,7.964,0,1,1,7.964,7.964A7.973,7.973,0,0,1,266.692,364.651Zm11.68,17.6-2.7-2.158h0l-.022-.018-.036-.026c-.028-.021-.056-.042-.086-.062l-.052-.032c-.027-.016-.054-.032-.082-.047l-.066-.032c-.024-.011-.048-.023-.072-.032s-.052-.02-.078-.029l-.066-.022c-.028-.008-.056-.015-.084-.022l-.065-.015-.083-.013-.07-.009-.076,0-.079,0-.067,0c-.029,0-.059,0-.088.005l-.059.008-.093.015-.055.013c-.031.007-.062.015-.093.024l-.058.02c-.029.01-.057.02-.086.031s-.045.02-.067.03l-.071.034c-.027.014-.053.03-.079.046l-.054.033c-.029.019-.058.041-.086.062l-.035.025-.022.018h0l-2.7,2.158v-7.093a11.122,11.122,0,0,0,7.432,0Z" transform="translate(-141.773 -278.431)" fill="#004798"/>
      <path id="Caminho_44135" data-name="Caminho 44135" d="M298.286,393.057a4.778,4.778,0,1,0-4.778-4.778A4.783,4.783,0,0,0,298.286,393.057Zm0-6.371a1.593,1.593,0,1,1-1.593,1.593A1.594,1.594,0,0,1,298.286,386.687Z" transform="translate(-165.403 -302.059)" fill="#004798"/>
    </g>
  </g>
</svg>
