<svg xmlns="http://www.w3.org/2000/svg" width="95.889" height="99.786" viewBox="0 0 95.889 99.786">
  <g id="download" transform="translate(-10 0)">
    <g id="Grupo_9679" data-name="Grupo 9679" transform="translate(11.949 1.949)">
      <path id="Caminho_47816" data-name="Caminho 47816" d="M336.361,255.483a3.741,3.741,0,0,0-3.754,3.706V245.927a3.975,3.975,0,0,0-7.95,0V267.86l-.829.472a3.315,3.315,0,0,0-1.785,2.539,6.964,6.964,0,0,0,.28,2.734l1.468,5.079,2.1,7.26v4.116a2.641,2.641,0,0,0,2.65,2.616h19.876a2.641,2.641,0,0,0,2.65-2.616v-4.116l2.4-3.146c1.361-1.78,1.664-2.952,1.664-5.709V264.13a3.755,3.755,0,0,0-7.509,0v-2.422a3.731,3.731,0,0,0-2.895-3.607,3.759,3.759,0,0,0-4.614,3.607v-2.519a3.751,3.751,0,0,0-3.754-3.706Z" transform="translate(-263.142 -196.787)" fill="#ffdcd5" fill-rule="evenodd"/>
      <path id="Caminho_47817" data-name="Caminho 47817" d="M78.9,84.084A35.083,35.083,0,1,1,94.132,68.807,3.73,3.73,0,0,1,96.973,72.4v2.519a3.758,3.758,0,0,1,4.614-3.607A42.878,42.878,0,1,0,80.648,91.9L79.18,86.818a6.967,6.967,0,0,1-.28-2.734Z" transform="translate(-20 -10)" fill="#2CC3FF" fill-rule="evenodd"/>
      <path id="Caminho_47818" data-name="Caminho 47818" d="M95.081,120.162a35.078,35.078,0,0,0,16.023-3.874,3.315,3.315,0,0,1,1.785-2.539l.829-.472V91.344a3.976,3.976,0,0,1,7.95,0v13.262a3.741,3.741,0,0,1,3.754-3.706,3.781,3.781,0,0,1,.913.111,35.081,35.081,0,1,0-31.255,19.151Z" transform="translate(-52.204 -42.204)" fill="#28d8de" fill-rule="evenodd"/>
      <g id="Grupo_9678" data-name="Grupo 9678" transform="translate(29.235 19.836)">
        <path id="Caminho_47819" data-name="Caminho 47819" d="M190.634,127.82a3.9,3.9,0,0,1,5.512,5.512l-9.745,9.745a3.9,3.9,0,0,1-5.512,0l-9.745-9.745a3.9,3.9,0,0,1,5.512-5.512l3.091,3.091V115.678a3.9,3.9,0,1,1,7.8,0v15.233Z" transform="translate(-170.004 -111.78)" fill="#2CC3FF" fill-rule="evenodd"/>
        <path id="Caminho_47820" data-name="Caminho 47820" d="M177.135,308.221h18.228a3.9,3.9,0,0,1,0,7.8H177.135a3.9,3.9,0,1,1,0-7.8Z" transform="translate(-172.607 -269.936)" fill="#2CC3FF" fill-rule="evenodd"/>
      </g>
    </g>
    <g id="Grupo_9680" data-name="Grupo 9680" transform="translate(10 0)">
      <path id="Caminho_47821" data-name="Caminho 47821" d="M100.185,63.637A5.71,5.71,0,0,0,97.7,64.2a5.71,5.71,0,0,0-1.621-1.86,45.141,45.141,0,0,0,3.569-17.515A44.64,44.64,0,0,0,92.31,20.24a1.949,1.949,0,0,0-3.257,2.141,40.751,40.751,0,0,1,6.7,22.445,41.211,41.211,0,0,1-3.432,16.4,5.706,5.706,0,0,0-2.085.532,5.7,5.7,0,0,0-1.583-1.878A37.026,37.026,0,1,0,22.964,63.7a1.949,1.949,0,0,0,3.352-1.99,33.136,33.136,0,1,1,58.59-3,5.721,5.721,0,0,0-1.543.28v-7.9a5.924,5.924,0,0,0-11.848,0v20.8a5.194,5.194,0,0,0-2.337,2.794,33.135,33.135,0,0,1-31.236-1.349,1.949,1.949,0,0,0-1.989,3.352,37.013,37.013,0,0,0,33.218,2.27c.026.106.049.211.078.319l.009.03.99,3.426A40.926,40.926,0,1,1,54.826,3.9a40.745,40.745,0,0,1,22.446,6.7,1.949,1.949,0,1,0,2.141-3.257,44.827,44.827,0,0,0-56.284,69.18A44.818,44.818,0,0,0,71.335,86.5l1.411,4.883v3.84a4.587,4.587,0,0,0,4.6,4.565H97.221a4.587,4.587,0,0,0,4.6-4.565V91.765l2-2.622c1.767-2.311,2.065-3.994,2.065-6.892V69.292a5.686,5.686,0,0,0-5.7-5.655Zm1.805,18.614c0,2.514-.269,3.224-1.264,4.525l-2.4,3.146a1.948,1.948,0,0,0-.4,1.183v4.116a.694.694,0,0,1-.7.667H77.345a.694.694,0,0,1-.7-.667V91.106a1.947,1.947,0,0,0-.077-.541L73.006,78.242c-.636-2.355.074-2.759.593-3.055l.829-.472a1.949,1.949,0,0,0,.984-1.693V51.089a2.027,2.027,0,0,1,4.052,0V68.406a1.949,1.949,0,1,0,3.9,0V64.35a1.806,1.806,0,0,1,3.611,0V66.87a1.949,1.949,0,0,0,3.9,0,1.806,1.806,0,0,1,3.611,0v2.422a1.949,1.949,0,1,0,3.9,0,1.806,1.806,0,0,1,3.611,0V82.251Z" transform="translate(-10 0)" fill="#004798"/>
      <path id="Caminho_47822" data-name="Caminho 47822" d="M387.518,68.337A1.949,1.949,0,0,0,388.9,65.01h0a1.949,1.949,0,1,0-1.377,3.328Z" transform="translate(-312.372 -51.88)" fill="#004798"/>
      <path id="Caminho_47823" data-name="Caminho 47823" d="M106.053,350.608a1.949,1.949,0,0,0,0-2.756h0a1.949,1.949,0,1,0,0,2.757Z" transform="translate(-84.654 -279.597)" fill="#004798"/>
      <path id="Caminho_47824" data-name="Caminho 47824" d="M175.594,101.779a5.853,5.853,0,0,0-5.847,5.847v10.54a5.847,5.847,0,0,0-8.032,8.492l9.745,9.745a5.853,5.853,0,0,0,8.268,0l9.745-9.745a5.846,5.846,0,0,0-8.032-8.492V107.626A5.854,5.854,0,0,0,175.594,101.779Zm8.367,19.367a1.949,1.949,0,0,1,2.756,2.756l-9.745,9.745a1.949,1.949,0,0,1-2.756,0l-9.745-9.745a1.948,1.948,0,1,1,2.755-2.756l3.091,3.091a1.949,1.949,0,0,0,3.327-1.378V107.626a1.949,1.949,0,0,1,3.9,0v15.233a1.949,1.949,0,0,0,3.327,1.378Z" transform="translate(-130.768 -81.943)" fill="#004798"/>
      <path id="Caminho_47825" data-name="Caminho 47825" d="M187.313,298.221H169.085a5.847,5.847,0,1,0,0,11.694h18.228a5.847,5.847,0,1,0,0-11.694Zm0,7.8H169.085a1.949,1.949,0,0,1,0-3.9h18.228a1.949,1.949,0,1,1,0,3.9Z" transform="translate(-133.373 -240.099)" fill="#004798"/>
    </g>
  </g>
</svg>
