<svg id="slip" xmlns="http://www.w3.org/2000/svg" width="83.333" height="100" viewBox="0 0 83.333 100">
  <path id="Caminho_44190" data-name="Caminho 44190" d="M74,72H64v71.667a5,5,0,0,0,5,5h0a5,5,0,0,0,5-5Z" transform="translate(7.667 -60.333)" fill="#28d8de"/>
  <path id="Caminho_44191" data-name="Caminho 44191" d="M121.333,110.667a5,5,0,0,1-5-5V29a5,5,0,0,0-5-5H88v86.667Z" transform="translate(-44.667 -22.333)" fill="#28d8de"/>
  <path id="Caminho_44192" data-name="Caminho 44192" d="M136,27.333v93.333l5-5,5,5,5-5,5,5,5-5,5,5,5-5,5,5,5-5,5,5,5-5,5,5V29a5,5,0,0,1,5-5H139.333A3.333,3.333,0,0,0,136,27.333Z" transform="translate(-134.333 -22.333)" fill="#28d8de"/>
  <circle id="Elipse_417" data-name="Elipse 417" cx="15" cy="15" r="15" transform="translate(16.667 8.333)" fill="#d0a4ff"/>
  <path id="Caminho_44193" data-name="Caminho 44193" d="M118.3,115.873a1.667,1.667,0,0,1-1.816-.361l-3.821-3.822-3.821,3.822a1.667,1.667,0,0,1-2.357,0l-3.821-3.822-3.821,3.822a1.667,1.667,0,0,1-2.357,0l-3.821-3.822-3.821,3.822a1.667,1.667,0,0,1-2.357,0l-3.821-3.822-3.821,3.822a1.667,1.667,0,0,1-2.357,0l-3.821-3.822-3.821,3.822a1.667,1.667,0,0,1-2.357,0l-3.821-3.822-3.821,3.822A1.667,1.667,0,0,1,56,114.333V21a5.006,5.006,0,0,1,5-5h61.667a6.674,6.674,0,0,1,6.667,6.667V26h8.333a1.667,1.667,0,0,1,1.667,1.667V99.333A6.674,6.674,0,0,1,132.667,106H119.333v8.333a1.667,1.667,0,0,1-1.029,1.54ZM59.333,21v89.31l2.155-2.155a1.667,1.667,0,0,1,2.357,0l3.821,3.822,3.821-3.822a1.667,1.667,0,0,1,2.357,0l3.821,3.822,3.821-3.822a1.667,1.667,0,0,1,2.357,0l3.821,3.822,3.821-3.822a1.667,1.667,0,0,1,2.357,0l3.821,3.822,3.821-3.822a1.667,1.667,0,0,1,2.357,0l3.821,3.822,3.821-3.822a1.667,1.667,0,0,1,2.357,0L116,110.31V22.667a6.625,6.625,0,0,1,.9-3.333H61A1.669,1.669,0,0,0,59.333,21ZM136,99.333v-70h-6.667v70a3.333,3.333,0,1,0,6.667,0Zm-9.1,3.333a6.625,6.625,0,0,1-.9-3.333V22.667a3.333,3.333,0,1,0-6.667,0v80Z" transform="translate(-56 -16)" fill="#004798"/>
  <path id="Caminho_44194" data-name="Caminho 44194" d="M285,95a1.669,1.669,0,0,1-1.667-1.667,1.667,1.667,0,0,0-3.333,0,5.008,5.008,0,0,0,3.333,4.713v.287a1.667,1.667,0,1,0,3.333,0v-.287A5,5,0,0,0,285,88.333a1.667,1.667,0,1,1,1.667-1.667,1.667,1.667,0,1,0,3.333,0,5.008,5.008,0,0,0-3.333-4.713v-.287a1.667,1.667,0,1,0-3.333,0v.287A5,5,0,0,0,285,91.667,1.667,1.667,0,0,1,285,95Z" transform="translate(-253.333 -66.667)" fill="#004798"/>
  <path id="Caminho_44195" data-name="Caminho 44195" d="M240.667,81.333a16.667,16.667,0,1,1,16.667-16.667A16.667,16.667,0,0,1,240.667,81.333Zm0-30A13.333,13.333,0,1,0,254,64.667,13.333,13.333,0,0,0,240.667,51.333Z" transform="translate(-209 -41.333)" fill="#004798"/>
  <path id="Caminho_44196" data-name="Caminho 44196" d="M288.333,224h-6.667a1.667,1.667,0,1,0,0,3.333h6.667a1.667,1.667,0,1,0,0-3.333Z" transform="translate(-253.333 -180.667)" fill="#004798"/>
  <path id="Caminho_44197" data-name="Caminho 44197" d="M193.667,259.333H217A1.667,1.667,0,0,0,217,256H193.667a1.667,1.667,0,1,0,0,3.333Z" transform="translate(-183.667 -206)" fill="#004798"/>
  <path id="Caminho_44198" data-name="Caminho 44198" d="M337.667,259.333H341A1.667,1.667,0,0,0,341,256h-3.333a1.667,1.667,0,1,0,0,3.333Z" transform="translate(-297.667 -206)" fill="#004798"/>
  <path id="Caminho_44199" data-name="Caminho 44199" d="M385.667,259.333H389A1.667,1.667,0,0,0,389,256h-3.333a1.667,1.667,0,0,0,0,3.333Z" transform="translate(-335.667 -206)" fill="#004798"/>
  <path id="Caminho_44200" data-name="Caminho 44200" d="M193.667,291.333H217A1.667,1.667,0,0,0,217,288H193.667a1.667,1.667,0,1,0,0,3.333Z" transform="translate(-183.667 -231.333)" fill="#004798"/>
  <path id="Caminho_44201" data-name="Caminho 44201" d="M337.667,291.333H341A1.667,1.667,0,0,0,341,288h-3.333a1.667,1.667,0,1,0,0,3.333Z" transform="translate(-297.667 -231.333)" fill="#004798"/>
  <path id="Caminho_44202" data-name="Caminho 44202" d="M389,288h-3.333a1.667,1.667,0,0,0,0,3.333H389A1.667,1.667,0,0,0,389,288Z" transform="translate(-335.667 -231.333)" fill="#004798"/>
  <path id="Caminho_44203" data-name="Caminho 44203" d="M193.667,323.333H217A1.667,1.667,0,1,0,217,320H193.667a1.667,1.667,0,1,0,0,3.333Z" transform="translate(-183.667 -256.667)" fill="#004798"/>
  <path id="Caminho_44204" data-name="Caminho 44204" d="M337.667,323.333H341A1.667,1.667,0,1,0,341,320h-3.333a1.667,1.667,0,1,0,0,3.333Z" transform="translate(-297.667 -256.667)" fill="#004798"/>
  <path id="Caminho_44205" data-name="Caminho 44205" d="M389,320h-3.333a1.667,1.667,0,1,0,0,3.333H389A1.667,1.667,0,1,0,389,320Z" transform="translate(-335.667 -256.667)" fill="#004798"/>
  <path id="Caminho_44206" data-name="Caminho 44206" d="M193.667,355.333H217A1.667,1.667,0,1,0,217,352H193.667a1.667,1.667,0,1,0,0,3.333Z" transform="translate(-183.667 -282)" fill="#004798"/>
  <path id="Caminho_44207" data-name="Caminho 44207" d="M337.667,355.333H341A1.667,1.667,0,1,0,341,352h-3.333a1.667,1.667,0,1,0,0,3.333Z" transform="translate(-297.667 -282)" fill="#004798"/>
  <path id="Caminho_44208" data-name="Caminho 44208" d="M389,352h-3.333a1.667,1.667,0,1,0,0,3.333H389A1.667,1.667,0,1,0,389,352Z" transform="translate(-335.667 -282)" fill="#004798"/>
  <path id="Caminho_44209" data-name="Caminho 44209" d="M193.667,387.333H217A1.667,1.667,0,0,0,217,384H193.667a1.667,1.667,0,1,0,0,3.333Z" transform="translate(-183.667 -307.333)" fill="#004798"/>
  <path id="Caminho_44210" data-name="Caminho 44210" d="M337.667,387.333H341A1.667,1.667,0,0,0,341,384h-3.333a1.667,1.667,0,1,0,0,3.333Z" transform="translate(-297.667 -307.333)" fill="#004798"/>
  <path id="Caminho_44211" data-name="Caminho 44211" d="M389,384h-3.333a1.667,1.667,0,0,0,0,3.333H389A1.667,1.667,0,0,0,389,384Z" transform="translate(-335.667 -307.333)" fill="#004798"/>
  <path id="Caminho_44212" data-name="Caminho 44212" d="M351,416H337.667a1.667,1.667,0,1,0,0,3.333H351A1.667,1.667,0,1,0,351,416Z" transform="translate(-297.667 -332.667)" fill="#004798"/>
</svg>
