<svg xmlns="http://www.w3.org/2000/svg" width="127.714" height="100" viewBox="0 0 127.714 100">
  <g id="invoice" transform="translate(0 -55.55)">
    <path id="Caminho_44213" data-name="Caminho 44213" d="M130.223,78.419H8.744A1.247,1.247,0,0,1,7.5,77.172V64.294a1.247,1.247,0,0,1,1.247-1.247H130.223a1.247,1.247,0,0,1,1.247,1.247V77.172A1.247,1.247,0,0,1,130.223,78.419Z" transform="translate(-5.627 -5.627)" fill="#ffbb00"/>
    <path id="Caminho_44214" data-name="Caminho 44214" d="M467.744,64.29V77.171a1.247,1.247,0,0,1-1.247,1.247H455.526a1.247,1.247,0,0,0,1.247-1.247V64.29a1.247,1.247,0,0,0-1.247-1.247H466.5A1.247,1.247,0,0,1,467.744,64.29Z" transform="translate(-341.9 -5.624)" fill="rgba(0,0,0,0.1)"/>
    <path id="Caminho_44215" data-name="Caminho 44215" d="M101.675,93.527v86.765a1.246,1.246,0,0,0,1.82,1.107l7.23-3.746a1.245,1.245,0,0,1,1.147,0l8.475,4.392a1.245,1.245,0,0,0,1.147,0l8.476-4.392a1.245,1.245,0,0,1,1.147,0l8.476,4.392a1.247,1.247,0,0,0,1.147,0l8.477-4.392a1.247,1.247,0,0,1,1.147,0l8.477,4.392a1.247,1.247,0,0,0,1.147,0l8.478-4.392a1.246,1.246,0,0,1,1.147,0l7.231,3.747a1.247,1.247,0,0,0,1.82-1.107V93.527Z" transform="translate(-76.313 -28.504)" fill="#dfe5ea"/>
    <path id="Caminho_44216" data-name="Caminho 44216" d="M371.785,92.967v84.126a1.28,1.28,0,0,1,.564.14l7.231,3.745a1.247,1.247,0,0,0,1.82-1.107v-86.9Z" transform="translate(-279.047 -28.084)" fill="rgba(0,0,0,0.1)"/>
    <path id="Caminho_44217" data-name="Caminho 44217" d="M124.6,55.55H86.048a1.87,1.87,0,1,0,0,3.74h37.925V70.922H104.221V66.644h1.969a1.87,1.87,0,0,0,0-3.74H21.522a1.87,1.87,0,0,0,0,3.74h1.969v4.278H3.74V59.29H72.459a1.87,1.87,0,1,0,0-3.74H3.117A3.12,3.12,0,0,0,0,58.667V71.546a3.12,3.12,0,0,0,3.117,3.117H23.492v77.125a3.117,3.117,0,0,0,4.551,2.768l6.943-3.6,8.189,4.244a3.125,3.125,0,0,0,2.867,0l8.189-4.244L62.42,155.2a3.12,3.12,0,0,0,2.868,0l8.19-4.244,8.189,4.244a3.121,3.121,0,0,0,2.869,0l8.191-4.244,6.945,3.6a3.117,3.117,0,0,0,4.55-2.768v-40.5a1.87,1.87,0,0,0-3.74,0v39.478l-6.321-3.275a3.122,3.122,0,0,0-2.867,0L83.1,151.732l-8.19-4.244a3.123,3.123,0,0,0-2.867,0l-8.19,4.244-8.19-4.244a3.123,3.123,0,0,0-2.868,0l-8.19,4.243-8.188-4.243a3.12,3.12,0,0,0-2.868,0l-6.32,3.275V66.893h73.25V97.82a1.87,1.87,0,1,0,3.74,0V74.662H124.6a3.12,3.12,0,0,0,3.117-3.117V58.667A3.121,3.121,0,0,0,124.6,55.55Z" transform="translate(0 0)" fill="#0074FF"/>
    <path id="Caminho_44218" data-name="Caminho 44218" d="M222.441,310.372a1.87,1.87,0,0,0-1.87-1.87H190.9a1.87,1.87,0,1,0,0,3.74h29.672A1.87,1.87,0,0,0,222.441,310.372Z" transform="translate(-141.878 -189.856)" fill="#0074FF"/>
    <path id="Caminho_44219" data-name="Caminho 44219" d="M218.138,336.491a1.87,1.87,0,0,0,0,3.74H234.22a1.87,1.87,0,1,0,0-3.74Z" transform="translate(-162.322 -210.863)" fill="#0074FF"/>
    <path id="Caminho_44220" data-name="Caminho 44220" d="M178.588,131.572H148.916a1.87,1.87,0,0,0,0,3.74h29.672a1.87,1.87,0,1,0,0-3.74Z" transform="translate(-110.367 -57.059)" fill="#0074FF"/>
    <path id="Caminho_44221" data-name="Caminho 44221" d="M148.916,168.3h12.467a1.87,1.87,0,1,0,0-3.74H148.916a1.87,1.87,0,1,0,0,3.74Z" transform="translate(-110.367 -81.818)" fill="#0074FF"/>
    <path id="Caminho_44222" data-name="Caminho 44222" d="M148.916,201.286h7.231a1.87,1.87,0,0,0,0-3.74h-7.231a1.87,1.87,0,0,0,0,3.74Z" transform="translate(-110.367 -106.577)" fill="#0074FF"/>
    <path id="Caminho_44223" data-name="Caminho 44223" d="M148.916,233.273h7.231a1.87,1.87,0,0,0,0-3.74h-7.231a1.87,1.87,0,0,0,0,3.74Z" transform="translate(-110.367 -130.585)" fill="#0074FF"/>
    <path id="Caminho_44224" data-name="Caminho 44224" d="M206.893,229.533a1.87,1.87,0,1,0,0,3.74h7.231a1.87,1.87,0,1,0,0-3.74Z" transform="translate(-153.882 -130.585)" fill="#0074FF"/>
    <path id="Caminho_44225" data-name="Caminho 44225" d="M264.87,233.273H272.1a1.87,1.87,0,1,0,0-3.74H264.87a1.87,1.87,0,1,0,0,3.74Z" transform="translate(-197.397 -130.585)" fill="#0074FF"/>
    <path id="Caminho_44226" data-name="Caminho 44226" d="M322.847,233.273h7.231a1.87,1.87,0,0,0,0-3.74h-7.231a1.87,1.87,0,1,0,0,3.74Z" transform="translate(-240.913 -130.585)" fill="#0074FF"/>
    <path id="Caminho_44227" data-name="Caminho 44227" d="M313.571,197.546H300.855a1.87,1.87,0,1,0,0,3.74h12.716a1.87,1.87,0,1,0,0-3.74Z" transform="translate(-224.406 -106.577)" fill="#0074FF"/>
    <path id="Caminho_44228" data-name="Caminho 44228" d="M229.327,199.416a1.87,1.87,0,0,0-1.87-1.87H214.026a1.87,1.87,0,1,0,0,3.74h13.431A1.87,1.87,0,0,0,229.327,199.416Z" transform="translate(-159.236 -106.577)" fill="#0074FF"/>
    <path id="Caminho_44229" data-name="Caminho 44229" d="M247.349,164.559H234.882a1.87,1.87,0,1,0,0,3.74h12.467a1.87,1.87,0,1,0,0-3.74Z" transform="translate(-174.89 -81.818)" fill="#0074FF"/>
  </g>
</svg>
