<svg xmlns="http://www.w3.org/2000/svg" width="88.341" height="100" viewBox="0 0 88.341 100">
  <g id="Grupo_11019" data-name="Grupo 11019" transform="translate(-1147.001 -692)">
    <g id="register" transform="translate(1117.154 692)">
      <path id="Caminho_42955" data-name="Caminho 42955" d="M98.548,97.29H43.86a6.513,6.513,0,0,1-6.513-6.513V14.013A6.513,6.513,0,0,1,43.86,7.5H98.548a6.513,6.513,0,0,1,6.513,6.513V90.777A6.513,6.513,0,0,1,98.548,97.29Z" transform="translate(-6.035 -6.035)" fill="#d0a4ff"/>
      <path id="Caminho_42956" data-name="Caminho 42956" d="M328.564,7.5h-5.371a6.513,6.513,0,0,1,6.513,6.513V90.777a6.513,6.513,0,0,1-6.513,6.513h5.371a6.513,6.513,0,0,0,6.513-6.513V14.013A6.513,6.513,0,0,0,328.564,7.5Z" transform="translate(-236.052 -6.035)" fill="rgba(0,0,0,0.15)"/>
      <path id="Caminho_42957" data-name="Caminho 42957" d="M132.447,307.284H86.415a1.563,1.563,0,0,1-1.562-1.563v-5.975a1.563,1.563,0,0,1,1.563-1.562h46.031a1.563,1.563,0,0,1,1.563,1.563v5.975A1.562,1.562,0,0,1,132.447,307.284Z" transform="translate(-44.263 -239.945)" fill="#ebeef2"/>
      <path id="Caminho_42958" data-name="Caminho 42958" d="M288.1,285.325a3.875,3.875,0,0,0-3.823,2.662.2.2,0,0,1-.384,0,3.876,3.876,0,0,0-7.366,0,.2.2,0,0,1-.381,0,3.875,3.875,0,0,0-7.558,1.2v-13.1a3.935,3.935,0,0,0-3.733-3.964A3.874,3.874,0,0,0,260.843,276v23.69l-6.514-7.764a3.729,3.729,0,0,0-5.579-.244h0a4.606,4.606,0,0,0-.266,6.088L260.843,312.5v3.024a1.989,1.989,0,0,0,1.989,1.989h19.361a9.642,9.642,0,0,0,9.642-9.642V289.289A3.935,3.935,0,0,0,288.1,285.325Z" transform="translate(-175.112 -218.975)" fill="#f6bb93"/>
      <path id="Caminho_42959" data-name="Caminho 42959" d="M413.088,339.7a3.859,3.859,0,0,0-2.352.69,4.013,4.013,0,0,1,1.69,3.275v18.579a9.642,9.642,0,0,1-9.642,9.642h4.395a9.642,9.642,0,0,0,9.642-9.642V343.664A3.935,3.935,0,0,0,413.088,339.7Z" transform="translate(-300.098 -273.35)" fill="rgba(0,0,0,0.15)"/>
      <path id="Caminho_42960" data-name="Caminho 42960" d="M98.436,390.3h-10.5a3.079,3.079,0,0,1-3.079-3.079v-2.265a3.079,3.079,0,0,1,3.079-3.078h10.5a3.079,3.079,0,0,1,3.079,3.078v2.265A3.079,3.079,0,0,1,98.436,390.3Z" transform="translate(-44.263 -307.292)" fill="#00c853"/>
      <path id="Caminho_42961" data-name="Caminho 42961" d="M132.447,218.168H86.415a1.563,1.563,0,0,1-1.562-1.562v-5.975a1.563,1.563,0,0,1,1.563-1.562h46.031a1.563,1.563,0,0,1,1.563,1.563v5.975A1.562,1.562,0,0,1,132.447,218.168Z" transform="translate(-44.263 -168.234)" fill="#ebeef2"/>
      <g id="Grupo_9230" data-name="Grupo 9230" transform="translate(29.847)">
        <path id="Caminho_42962" data-name="Caminho 42962" d="M219.659,2.93h24.414a5.054,5.054,0,0,1,5.048,5.048v52.61a1.465,1.465,0,1,0,2.93,0V7.978A7.987,7.987,0,0,0,244.073,0H219.659a1.465,1.465,0,0,0,0,2.93Z" transform="translate(-181.407)" fill="#5813ba"/>
        <path id="Caminho_42963" data-name="Caminho 42963" d="M77.2,89.791H37.825a5.054,5.054,0,0,1-5.048-5.048V7.978A5.054,5.054,0,0,1,37.825,2.93H62.239a1.465,1.465,0,0,0,0-2.93H37.825a7.987,7.987,0,0,0-7.978,7.978V84.742a7.987,7.987,0,0,0,7.978,7.978H77.2a1.465,1.465,0,1,0,0-2.93Z" transform="translate(-29.847)" fill="#5813ba"/>
        <path id="Caminho_42964" data-name="Caminho 42964" d="M227.919,55.231a1.465,1.465,0,0,0,1.465-1.465v-1.8h1.8a1.465,1.465,0,0,0,0-2.93h-1.8v-1.8a1.465,1.465,0,0,0-2.93,0v1.8h-1.8a1.465,1.465,0,0,0,0,2.93h1.8v1.8A1.465,1.465,0,0,0,227.919,55.231Z" transform="translate(-185.428 -36.834)" fill="#5813ba"/>
        <path id="Caminho_42965" data-name="Caminho 42965" d="M193.048,84.926a1.465,1.465,0,1,0,0,2.93h4.535a1.465,1.465,0,0,0,0-2.93h-.8V75.188a1.465,1.465,0,0,0-1.465-1.465h-2.268a1.465,1.465,0,1,0,0,2.93h.8v8.273Z" transform="translate(-159.994 -59.324)" fill="#5813ba"/>
        <path id="Caminho_42966" data-name="Caminho 42966" d="M143.354,55.714a13.152,13.152,0,1,0,26.3,0,1.465,1.465,0,1,0-2.93,0,10.223,10.223,0,1,1-10.223-10.223,1.465,1.465,0,0,0,0-2.93A13.167,13.167,0,0,0,143.354,55.714Z" transform="translate(-121.185 -34.249)" fill="#5813ba"/>
        <path id="Caminho_42967" data-name="Caminho 42967" d="M154.948,291.551a1.465,1.465,0,0,0,1.465-1.465v-6.835a5.335,5.335,0,0,0-9.207-3.766,5.35,5.35,0,0,0-7.754-.006,5.345,5.345,0,0,0-6.283-1.085v-8.341a5.366,5.366,0,0,0-5.146-5.428,5.338,5.338,0,0,0-5.526,5.086H80.377a3.031,3.031,0,0,0-3.027,3.027v5.975a3.031,3.031,0,0,0,3.027,3.027h42.114v7.886l-3.928-4.681a5.194,5.194,0,0,0-7.736-.338,6.091,6.091,0,0,0-.352,8.065l12.016,14.32v2.491a3.458,3.458,0,0,0,3.454,3.454h19.361a11.12,11.12,0,0,0,11.107-11.107v-5.885a1.465,1.465,0,0,0-2.93,0v5.885a8.187,8.187,0,0,1-8.178,8.178H125.945a.525.525,0,0,1-.524-.524V306.46a1.464,1.464,0,0,0-.343-.942L112.719,290.79a3.144,3.144,0,0,1,.179-4.111,2.266,2.266,0,0,1,3.421.149l6.514,7.764a1.465,1.465,0,0,0,2.587-.942v-23.69a2.409,2.409,0,0,1,2.5-2.408,2.478,2.478,0,0,1,2.32,2.5v13.1a1.465,1.465,0,0,0,2.93,0,2.41,2.41,0,0,1,4.7-.749,1.662,1.662,0,0,0,1.583,1.15h0a1.662,1.662,0,0,0,1.583-1.149,2.411,2.411,0,0,1,4.581,0,1.661,1.661,0,0,0,1.58,1.148h0a1.667,1.667,0,0,0,1.586-1.151,2.421,2.421,0,0,1,2.379-1.655,2.478,2.478,0,0,1,2.32,2.5v6.834A1.465,1.465,0,0,0,154.948,291.551Zm-74.571-12.74a.1.1,0,0,1-.1-.1v-5.975a.1.1,0,0,1,.1-.1h42.114v6.17Z" transform="translate(-68.072 -212.938)" fill="#5813ba"/>
        <path id="Caminho_42968" data-name="Caminho 42968" d="M92.4,385.729a4.548,4.548,0,0,0,4.543-4.543V378.92a4.548,4.548,0,0,0-4.543-4.543H81.9a4.548,4.548,0,0,0-4.543,4.543v2.265a4.548,4.548,0,0,0,4.543,4.543Zm-12.118-4.543V378.92a1.615,1.615,0,0,1,1.614-1.614H92.4a1.615,1.615,0,0,1,1.614,1.614v2.265A1.615,1.615,0,0,1,92.4,382.8H81.9A1.615,1.615,0,0,1,80.283,381.186Z" transform="translate(-68.074 -301.256)" fill="#5813ba"/>
        <path id="Caminho_42969" data-name="Caminho 42969" d="M80.381,201.568a3.031,3.031,0,0,0-3.027,3.027v5.975a3.031,3.031,0,0,0,3.027,3.027h46.031a3.031,3.031,0,0,0,3.027-3.027V204.6a3.031,3.031,0,0,0-3.027-3.027ZM126.51,204.6v5.975a.1.1,0,0,1-.1.1H80.381a.1.1,0,0,1-.1-.1V204.6a.1.1,0,0,1,.1-.1h46.031A.1.1,0,0,1,126.51,204.6Z" transform="translate(-68.075 -162.199)" fill="#5813ba"/>
        <path id="Caminho_42970" data-name="Caminho 42970" d="M106.889,313.979H106.5a1.465,1.465,0,0,0,0,2.93h.391a1.465,1.465,0,0,0,0-2.93Z" transform="translate(-90.349 -252.655)" fill="#5813ba"/>
        <path id="Caminho_42971" data-name="Caminho 42971" d="M137.555,313.979h-.391a1.465,1.465,0,0,0,0,2.93h.391a1.465,1.465,0,1,0,0-2.93Z" transform="translate(-115.026 -252.655)" fill="#5813ba"/>
        <path id="Caminho_42972" data-name="Caminho 42972" d="M168.222,313.979h-.391a1.465,1.465,0,0,0,0,2.93h.391a1.465,1.465,0,0,0,0-2.93Z" transform="translate(-139.703 -252.655)" fill="#5813ba"/>
        <path id="Caminho_42973" data-name="Caminho 42973" d="M198.889,313.979H198.5a1.465,1.465,0,1,0,0,2.93h.391a1.465,1.465,0,0,0,0-2.93Z" transform="translate(-164.38 -252.655)" fill="#5813ba"/>
        <path id="Caminho_42974" data-name="Caminho 42974" d="M229.555,313.979h-.391a1.465,1.465,0,0,0,0,2.93h.391a1.465,1.465,0,0,0,0-2.93Z" transform="translate(-189.057 -252.655)" fill="#5813ba"/>
      </g>
    </g>
  </g>
</svg>
