<svg xmlns="http://www.w3.org/2000/svg" width="95.55" height="114" viewBox="0 0 95.55 114">
  <g id="Grupo_10462" data-name="Grupo 10462" transform="translate(-529.108 -685.5)">
    <g id="magic" transform="translate(487.677 685.5)">
      <path id="Caminho_48408" data-name="Caminho 48408" d="M181.424,256.3v30.294l-32.955,11.754-32.955-11.754V256.3l32.955-15.97Z" transform="translate(-57.588 -186.819)" fill="#0074FF"/>
      <path id="Caminho_48409" data-name="Caminho 48409" d="M148.469,240.33v58.017l-32.955-11.754V256.3Z" transform="translate(-57.588 -186.819)" fill="#2CC3FF"/>
      <path id="Caminho_48410" data-name="Caminho 48410" d="M181.424,199.3,148.469,211.05,115.514,199.3l32.955-11.753Z" transform="translate(-57.588 -145.785)" fill="#7fdbff"/>
      <g id="Grupo_10171" data-name="Grupo 10171" transform="translate(57.926 41.758)">
        <path id="Caminho_48411" data-name="Caminho 48411" d="M148.469,187.543V211.05L115.514,199.3Z" transform="translate(-115.514 -187.543)" fill="#ede6f5"/>
        <path id="Caminho_48412" data-name="Caminho 48412" d="M307.934,252.213l-11.461-11.882-32.954,11.753,11.461,11.882Z" transform="translate(-230.564 -228.577)" fill="#ede6f5"/>
      </g>
      <path id="Caminho_48413" data-name="Caminho 48413" d="M64.039,252.213,75.5,240.331l32.955,11.753L96.994,263.966Z" transform="translate(-17.574 -186.82)" fill="#7fdbff"/>
      <g id="Grupo_10172" data-name="Grupo 10172" transform="translate(61.897 2.023)">
        <path id="Caminho_48414" data-name="Caminho 48414" d="M336.807,54l3.2-.648a1.412,1.412,0,0,0,0-2.768l-3.2-.648a8,8,0,0,1-6.249-6.249l-.648-3.2a1.412,1.412,0,0,0-2.768,0l-.648,3.2a8,8,0,0,1-6.249,6.249l-3.2.648a1.412,1.412,0,0,0,0,2.768l3.2.648a8,8,0,0,1,6.249,6.249l.648,3.2a1.412,1.412,0,0,0,2.768,0l.648-3.2A8,8,0,0,1,336.807,54Z" transform="translate(-275.268 -32.619)" fill="#efb900"/>
        <path id="Caminho_48415" data-name="Caminho 48415" d="M160.153,27.872l4.1-.831a1.812,1.812,0,0,0,0-3.552l-4.1-.831a10.263,10.263,0,0,1-8.019-8.019l-.831-4.1a1.812,1.812,0,0,0-3.552,0l-.831,4.1a10.263,10.263,0,0,1-8.019,8.019l-4.1.831a1.812,1.812,0,0,0,0,3.552l4.1.831a10.263,10.263,0,0,1,8.019,8.019l.831,4.1a1.812,1.812,0,0,0,3.552,0l.831-4.1A10.263,10.263,0,0,1,160.153,27.872Z" transform="translate(-133.347 -9.085)" fill="#28d8de"/>
      </g>
      <path id="Caminho_48416" data-name="Caminho 48416" d="M80.151,81.5a1.685,1.685,0,0,0,1.686-1.686V75.347a1.686,1.686,0,1,0-3.371,0v4.466A1.685,1.685,0,0,0,80.151,81.5Z" transform="translate(-28.788 -57.26)" fill="#004798"/>
      <path id="Caminho_48417" data-name="Caminho 48417" d="M80.151,135.507a1.685,1.685,0,0,0,1.686-1.686v-4.466a1.686,1.686,0,0,0-3.371,0v4.466A1.685,1.685,0,0,0,80.151,135.507Z" transform="translate(-28.788 -99.243)" fill="#004798"/>
      <path id="Caminho_48418" data-name="Caminho 48418" d="M97.124,114.066h4.466a1.686,1.686,0,0,0,0-3.371H97.124a1.686,1.686,0,0,0,0,3.371Z" transform="translate(-41.982 -86.048)" fill="#004798"/>
      <path id="Caminho_48419" data-name="Caminho 48419" d="M49.269,112.381a1.685,1.685,0,0,0-1.686-1.686H43.117a1.686,1.686,0,0,0,0,3.371h4.466A1.685,1.685,0,0,0,49.269,112.381Z" transform="translate(0 -86.048)" fill="#004798"/>
      <path id="Caminho_48420" data-name="Caminho 48420" d="M148.2,236.16l-11.458-11.879h0l0,0,0,0a1.68,1.68,0,0,0-.643-.414l-9.9-3.533a1.685,1.685,0,1,0-1.132,3.175l5.453,1.945-27.937,9.964-27.937-9.964,5.612-2a1.685,1.685,0,1,0-1.132-3.175L69.05,223.862a1.685,1.685,0,0,0-.643.414l0,0,0,0h0L56.942,236.16a1.686,1.686,0,0,0,.647,2.758l20.175,7.2a1.685,1.685,0,1,0,1.133-3.175l-17.715-6.319,8.892-9.219,29.47,10.511-8.892,9.219-5.717-2.039a1.685,1.685,0,0,0-1.132,3.175l6.742,2.4a1.685,1.685,0,0,0,1.779-.417l10.248-10.624,10.248,10.624a1.684,1.684,0,0,0,1.779.417l32.954-11.753a1.685,1.685,0,0,0,.647-2.757ZM114.49,247.131l-8.892-9.219,29.47-10.511,8.892,9.219Z" transform="translate(-11.69 -171.151)" fill="#004798"/>
      <path id="Caminho_48421" data-name="Caminho 48421" d="M159.68,365.209l-17.1,6.1-31.269-11.152V337.164a1.686,1.686,0,1,0-3.371,0v24.179a1.686,1.686,0,0,0,1.119,1.588l32.955,11.754a1.685,1.685,0,0,0,1.132,0l17.662-6.3a1.685,1.685,0,0,0-1.132-3.175Z" transform="translate(-51.703 -260.782)" fill="#004798"/>
      <path id="Caminho_48422" data-name="Caminho 48422" d="M374.921,335.479a1.685,1.685,0,0,0-1.685,1.685v22.991l-7.68,2.739a1.685,1.685,0,1,0,1.133,3.175l8.8-3.138a1.685,1.685,0,0,0,1.119-1.588V337.164A1.685,1.685,0,0,0,374.921,335.479Z" transform="translate(-251.086 -260.782)" fill="#004798"/>
      <path id="Caminho_48423" data-name="Caminho 48423" d="M259.322,365.412V336.76a1.686,1.686,0,1,0-3.371,0v28.652a1.686,1.686,0,1,0,3.371,0Z" transform="translate(-166.756 -260.468)" fill="#004798"/>
      <path id="Caminho_48424" data-name="Caminho 48424" d="M310.831,52.651l3.2.648a6.3,6.3,0,0,1,4.932,4.932l.648,3.2a3.1,3.1,0,0,0,6.072,0l.648-3.2a6.3,6.3,0,0,1,4.932-4.932l3.2-.648a3.1,3.1,0,0,0,0-6.072l-3.2-.648A6.3,6.3,0,0,1,326.326,41l-.648-3.2a3.1,3.1,0,0,0-6.072,0l-.648,3.2a6.3,6.3,0,0,1-4.932,4.932l-3.2.648a3.1,3.1,0,0,0,0,6.072Zm3.866-3.416a9.665,9.665,0,0,0,7.566-7.566l.38-1.874.38,1.874a9.665,9.665,0,0,0,7.566,7.566l1.874.38-1.874.38a9.665,9.665,0,0,0-7.566,7.566l-.38,1.874-.38-1.874A9.665,9.665,0,0,0,314.7,50l-1.874-.38Z" transform="translate(-207.487 -27.457)" fill="#004798"/>
      <path id="Caminho_48425" data-name="Caminho 48425" d="M128.58,21.293l4.1.831a8.562,8.562,0,0,1,6.7,6.7l.831,4.1a3.5,3.5,0,0,0,6.856,0l.831-4.1a8.562,8.562,0,0,1,6.7-6.7l4.1-.831a3.5,3.5,0,0,0,0-6.856l-4.1-.831a8.562,8.562,0,0,1-6.7-6.7l-.831-4.1a3.5,3.5,0,0,0-6.855,0l-.831,4.1a8.562,8.562,0,0,1-6.7,6.7l-4.1.831a3.5,3.5,0,0,0,0,6.856Zm.67-3.552,4.1-.831a11.926,11.926,0,0,0,9.336-9.336l.831-4.1c.015-.074.02-.1.124-.1s.109.028.124.1l.831,4.1a11.926,11.926,0,0,0,9.336,9.336l4.1.831c.074.015.1.02.1.124s-.028.109-.1.124l-4.1.831a11.926,11.926,0,0,0-9.336,9.336l-.831,4.1c-.015.074-.02.1-.124.1s-.109-.028-.124-.1l-.831-4.1a11.926,11.926,0,0,0-9.336-9.336l-4.1-.831c-.074-.015-.1-.02-.1-.124S129.176,17.756,129.25,17.741Z" transform="translate(-65.567)" fill="#004798"/>
      <path id="Caminho_48426" data-name="Caminho 48426" d="M134.309,143.283a1.685,1.685,0,0,0-2.343,2.423c.1.1,9.912,9.665,14.1,19.985a1.685,1.685,0,1,0,3.123-1.268C144.729,153.432,134.733,143.692,134.309,143.283Z" transform="translate(-69.978 -111.012)" fill="#004798"/>
      <path id="Caminho_48427" data-name="Caminho 48427" d="M230.864,147.521v15.506a1.686,1.686,0,0,0,3.371,0V147.521a1.686,1.686,0,0,0-3.371,0Z" transform="translate(-147.254 -113.365)" fill="#004798"/>
      <path id="Caminho_48428" data-name="Caminho 48428" d="M326.342,171.439a59.8,59.8,0,0,0-9.143,14.753,1.685,1.685,0,1,0,3.123,1.268,58.523,58.523,0,0,1,8.638-13.9,1.685,1.685,0,1,0-2.618-2.123Z" transform="translate(-214.27 -132.782)" fill="#004798"/>
      <path id="Caminho_48429" data-name="Caminho 48429" d="M284.23,145.868a1.739,1.739,0,0,0,.219.014,1.686,1.686,0,0,0,1.669-1.469l2.715-20.9a1.685,1.685,0,0,0-3.343-.434l-2.715,20.9A1.685,1.685,0,0,0,284.23,145.868Z" transform="translate(-187.596 -94.534)" fill="#004798"/>
    </g>
  </g>
</svg>
