<svg xmlns="http://www.w3.org/2000/svg" width="94" height="94" viewBox="0 0 94 94">
  <g id="Grupo_11018" data-name="Grupo 11018" transform="translate(-531 -695)">
    <g id="money" transform="translate(531 695)">
      <path id="Caminho_43583" data-name="Caminho 43583" d="M98.867,45.6V61.267l-.955.125H97.9a1.56,1.56,0,0,0-.6-.125H82.119A29.788,29.788,0,0,1,70.667,77.654V78.5a1.567,1.567,0,0,0,1.567,1.567,1.567,1.567,0,0,0-1.567,1.567V87.9a1.567,1.567,0,0,0,1.567,1.567,1.567,1.567,0,0,0-1.567,1.567A1.567,1.567,0,0,0,69.1,89.467H44.425l-.141-1.175a36.073,36.073,0,0,1-9.024-3.745L26.847,91.1,15.771,80.02l6.549-8.413a36.074,36.074,0,0,1-3.745-9.024L8,61.267V45.6l10.575-1.316A36.073,36.073,0,0,1,22.32,35.26l-6.549-8.413L26.847,15.771,35.26,22.32a36.073,36.073,0,0,1,9.024-3.745L45.6,8H61.267l1.316,10.575a36.073,36.073,0,0,1,9.024,3.745l8.413-6.549L91.1,26.847,84.547,35.26a36.074,36.074,0,0,1,3.745,9.024Zm0,0" transform="translate(-6.434 -6.433)" fill="#d0a4ff"/>
      <path id="Caminho_43584" data-name="Caminho 43584" d="M130.633,104a26.633,26.633,0,0,0,0,53.267,3.909,3.909,0,0,0,.423-.015,26.223,26.223,0,0,0,16.716-6.236l.094-.093v-1.489a1.567,1.567,0,0,1,1.567-1.567,1.567,1.567,0,0,1-1.567-1.567v-6.267a1.567,1.567,0,0,1,1.567-1.567h6.674a26.909,26.909,0,0,0,1.16-7.833A26.634,26.634,0,0,0,130.633,104Zm0,0" transform="translate(-83.634 -83.633)" fill="#28d8de"/>
      <path id="Caminho_43585" data-name="Caminho 43585" d="M212.106,292.846A14.1,14.1,0,0,0,184,294.4a15.446,15.446,0,0,0,.2,2.428,14.1,14.1,0,0,0,28-2.428,12.821,12.821,0,0,0-.094-1.551Zm0,0" transform="translate(-147.967 -225.463)" fill="#00c853"/>
      <path id="Caminho_43586" data-name="Caminho 43586" d="M354.633,328H329.567A1.567,1.567,0,0,0,328,329.567v6.267a1.567,1.567,0,0,0,1.567,1.567h25.067a1.567,1.567,0,0,0,1.567-1.567v-6.267A1.567,1.567,0,0,0,354.633,328Zm0,0" transform="translate(-263.767 -263.766)" fill="#efb900"/>
      <path id="Caminho_43587" data-name="Caminho 43587" d="M354.633,280H329.567A1.567,1.567,0,0,0,328,281.567v6.267a1.567,1.567,0,0,0,1.567,1.567h25.067a1.567,1.567,0,0,0,1.567-1.567v-6.267A1.567,1.567,0,0,0,354.633,280Zm0,0" transform="translate(-263.767 -225.166)" fill="#efb900"/>
      <path id="Caminho_43588" data-name="Caminho 43588" d="M354.633,376H329.567A1.567,1.567,0,0,0,328,377.567v6.267a1.567,1.567,0,0,0,1.567,1.567h25.067a1.567,1.567,0,0,0,1.567-1.567v-6.267A1.567,1.567,0,0,0,354.633,376Zm0,0" transform="translate(-263.767 -302.366)" fill="#efb900"/>
      <path id="Caminho_43589" data-name="Caminho 43589" d="M354.633,424H329.567A1.567,1.567,0,0,0,328,425.567v6.267a1.567,1.567,0,0,0,1.567,1.567h25.067a1.567,1.567,0,0,0,1.567-1.567v-6.267A1.567,1.567,0,0,0,354.633,424Zm0,0" transform="translate(-263.767 -340.966)" fill="#efb900"/>
      <path id="Caminho_43590" data-name="Caminho 43590" d="M210.633,424H185.567A1.567,1.567,0,0,0,184,425.567v6.267a1.567,1.567,0,0,0,1.567,1.567h25.067a1.567,1.567,0,0,0,1.567-1.567v-6.267A1.567,1.567,0,0,0,210.633,424Zm0,0" transform="translate(-147.967 -340.966)" fill="#efb900"/>
      <path id="Caminho_43592" data-name="Caminho 43592" d="M92.628,37.613l-9.541-1.192a37.332,37.332,0,0,0-3.093-7.449l5.908-7.6a1.568,1.568,0,0,0-.129-2.07L74.7,8.227A1.568,1.568,0,0,0,72.624,8.1l-7.6,5.908a37.426,37.426,0,0,0-7.448-3.093L56.388,1.373A1.566,1.566,0,0,0,54.833,0H39.166a1.566,1.566,0,0,0-1.554,1.372L36.42,10.914a37.427,37.427,0,0,0-7.448,3.093L21.375,8.1a1.568,1.568,0,0,0-2.072.129L8.226,19.3a1.568,1.568,0,0,0-.129,2.07l5.908,7.6a37.331,37.331,0,0,0-3.093,7.449L1.372,37.613A1.566,1.566,0,0,0,0,39.167V54.834a1.566,1.566,0,0,0,1.372,1.554l9.541,1.192a37.319,37.319,0,0,0,3.093,7.448L8.1,72.627a1.568,1.568,0,0,0,.129,2.07L19.3,85.774a1.568,1.568,0,0,0,2.072.129l7.6-5.908c.486.265.976.522,1.474.764l1.382-2.811q-1.121-.554-2.2-1.181a1.567,1.567,0,0,0-1.753.115l-7.331,5.7-9.122-9.121,5.7-7.331a1.567,1.567,0,0,0,.111-1.753,34.225,34.225,0,0,1-3.579-8.617A1.567,1.567,0,0,0,12.333,54.6l-9.2-1.151V40.55l9.2-1.151a1.568,1.568,0,0,0,1.323-1.156,34.222,34.222,0,0,1,3.573-8.617,1.566,1.566,0,0,0-.116-1.753l-5.7-7.331,9.127-9.121,7.331,5.7a1.567,1.567,0,0,0,1.753.111,34.329,34.329,0,0,1,8.617-3.577A1.566,1.566,0,0,0,39.4,12.335l1.15-9.2h12.9l1.151,9.2a1.567,1.567,0,0,0,1.157,1.323,34.268,34.268,0,0,1,8.615,3.573,1.567,1.567,0,0,0,1.753-.115l7.331-5.7,9.122,9.121-5.7,7.331a1.567,1.567,0,0,0-.111,1.753,34.225,34.225,0,0,1,3.579,8.617A1.567,1.567,0,0,0,81.667,39.4l9.2,1.151v9.584H94V39.167a1.566,1.566,0,0,0-1.372-1.554Zm0,0" fill="#5813ba"/>
      <path id="Caminho_43593" data-name="Caminho 43593" d="M232,48h3.133v3.133H232Zm0,0" transform="translate(-186.567 -38.6)" fill="#5813ba"/>
      <path id="Caminho_43594" data-name="Caminho 43594" d="M98.582,100.795l2.215-2.216,2.215,2.216L100.8,103.01Zm0,0" transform="translate(-79.277 -79.273)" fill="#5813ba"/>
      <path id="Caminho_43595" data-name="Caminho 43595" d="M48,232h3.133v3.133H48Zm0,0" transform="translate(-38.6 -186.566)" fill="#5813ba"/>
      <path id="Caminho_43596" data-name="Caminho 43596" d="M98.582,361.013,100.8,358.8l2.215,2.215-2.215,2.216Zm0,0" transform="translate(-79.277 -288.532)" fill="#5813ba"/>
      <path id="Caminho_43597" data-name="Caminho 43597" d="M358.8,100.8l2.215-2.216,2.216,2.215-2.215,2.216Zm0,0" transform="translate(-288.536 -79.276)" fill="#5813ba"/>
      <path id="Caminho_43598" data-name="Caminho 43598" d="M108.2,147.428l1.781-2.579A25.067,25.067,0,1,1,149.266,124.2a25.529,25.529,0,0,1-.171,2.951l3.111.366A28.2,28.2,0,1,0,108.2,147.428Zm0,0" transform="translate(-77.2 -77.203)" fill="#5813ba"/>
      <path id="Caminho_43599" data-name="Caminho 43599" d="M186.967,171.255a4.7,4.7,0,0,0-2.845,2.845H176v3.133h8.122a4.689,4.689,0,1,0,5.978-5.978V160h-3.133Zm1.567,5.978a1.567,1.567,0,1,1,1.567-1.567A1.567,1.567,0,0,1,188.533,177.234Zm0,0" transform="translate(-141.534 -128.666)" fill="#5813ba"/>
      <path id="Caminho_43600" data-name="Caminho 43600" d="M128,232h3.133v3.133H128Zm0,0" transform="translate(-102.934 -186.566)" fill="#5813ba"/>
      <path id="Caminho_43601" data-name="Caminho 43601" d="M336,232h3.133v3.133H336Zm0,0" transform="translate(-270.2 -186.566)" fill="#5813ba"/>
      <path id="Caminho_43602" data-name="Caminho 43602" d="M232,128h3.133v3.133H232Zm0,0" transform="translate(-186.567 -102.933)" fill="#5813ba"/>
      <path id="Caminho_43603" data-name="Caminho 43603" d="M232.4,272H207.333a3.134,3.134,0,0,0-3.133,3.133v3.174A15.646,15.646,0,1,0,182.307,300.2h-3.174A3.133,3.133,0,0,0,176,303.333V309.6a3.133,3.133,0,0,0,3.133,3.133H204.2a3.1,3.1,0,0,0,1.567-.435,3.1,3.1,0,0,0,1.567.435H232.4a3.134,3.134,0,0,0,3.133-3.133v-6.267a3.1,3.1,0,0,0-.435-1.567,3.1,3.1,0,0,0,.435-1.567v-6.267a3.1,3.1,0,0,0-.435-1.567,3.1,3.1,0,0,0,.435-1.567v-6.267a3.1,3.1,0,0,0-.435-1.567,3.1,3.1,0,0,0,.435-1.567v-6.267A3.134,3.134,0,0,0,232.4,272Zm-25.067,3.133H208.9v3.133h3.133v-3.133h3.133v3.133H218.3v-3.133h3.133v3.133h3.133v-3.133H227.7v3.133h3.133v-3.133H232.4V281.4H207.333ZM232.4,290.8H207.333v-6.267H208.9v3.133h3.133v-3.133h3.133v3.133H218.3v-3.133h3.133v3.133h3.133v-3.133H227.7v3.133h3.133v-3.133H232.4Zm0,9.4H207.333v-6.267H208.9v3.133h3.133v-3.133h3.133v3.133H218.3v-3.133h3.133v3.133h3.133v-3.133H227.7v3.133h3.133v-3.133H232.4Zm-31.374,0a15.8,15.8,0,0,0,3.174-3.174V300.2Zm-21.893-12.533A12.533,12.533,0,1,1,191.666,300.2,12.533,12.533,0,0,1,179.133,287.666Zm0,21.933v-6.267H180.7v3.133h3.133v-3.133h3.133v3.133H190.1v-3.133h3.133v3.133h3.133v-3.133H199.5v3.133h3.133v-3.133H204.2V309.6Zm53.267,0H207.333v-6.267H208.9v3.133h3.133v-3.133h3.133v3.133H218.3v-3.133h3.133v3.133h3.133v-3.133H227.7v3.133h3.133v-3.133H232.4Zm0,0" transform="translate(-141.533 -218.732)" fill="#5813ba"/>
      <path id="Caminho_43604" data-name="Caminho 43604" d="M236.7,308.7a1.567,1.567,0,0,1,1.567,1.567H241.4a4.7,4.7,0,0,0-3.133-4.412V304h-3.133v1.855a4.689,4.689,0,0,0,1.567,9.112,1.567,1.567,0,1,1-1.567,1.567H232a4.7,4.7,0,0,0,3.133,4.412V322.8h3.133v-1.855a4.689,4.689,0,0,0-1.567-9.112,1.567,1.567,0,0,1,0-3.133Zm0,0" transform="translate(-186.567 -244.466)" fill="#5813ba"/>
    </g>
  </g>
</svg>
