<svg xmlns="http://www.w3.org/2000/svg" width="100" height="100" viewBox="0 0 100 100">
  <g id="Grupo_10478" data-name="Grupo 10478" transform="translate(-585 -692)">
    <g id="stats" transform="translate(584 691)">
      <path id="Caminho_48430" data-name="Caminho 48430" d="M47.936,6A41.936,41.936,0,0,0,18.283,77.589L47.936,47.936Z" transform="translate(3.064 3.065)" fill="#ff6e3c"/>
      <path id="Caminho_48431" data-name="Caminho 48431" d="M80.387,50.387H32V2A48.387,48.387,0,0,1,80.387,50.387Z" transform="translate(19 0.613)" fill="#00c853"/>
      <circle id="Elipse_437" data-name="Elipse 437" cx="12.895" cy="12.895" r="12.895" transform="translate(57.407 18.804)" fill="#efb900"/>
      <path id="Caminho_48432" data-name="Caminho 48432" d="M73.936,32A41.805,41.805,0,0,1,61.653,61.653L32,32Z" transform="translate(19 19)" fill="#ff6e3c"/>
      <path id="Caminho_48433" data-name="Caminho 48433" d="M72.922,61.653,43.268,32,13.615,61.653A41.936,41.936,0,0,0,72.922,61.653Z" transform="translate(7.732 19)" fill="#efb900"/>
      <path id="Caminho_48434" data-name="Caminho 48434" d="M36,63.636V48h6.452V62.107A41.757,41.757,0,0,1,36,63.636Z" transform="translate(21.452 28.807)" fill="#00c853"/>
      <path id="Caminho_48435" data-name="Caminho 48435" d="M38.452,66.087V44H32V66.581a42.128,42.128,0,0,0,6.452-.494Z" transform="translate(19 26.355)" fill="#00c853"/>
      <path id="Caminho_48436" data-name="Caminho 48436" d="M34.452,69.032A42.127,42.127,0,0,1,28,68.539V40h6.452Z" transform="translate(16.549 23.904)" fill="#00c853"/>
      <path id="Caminho_48437" data-name="Caminho 48437" d="M30.452,48H24V62.107a41.757,41.757,0,0,0,6.452,1.529Z" transform="translate(14.097 28.807)" fill="#00c853"/>
      <path id="Caminho_48438" data-name="Caminho 48438" d="M98.775,32A48.387,48.387,0,0,1,2,32H8.452a41.936,41.936,0,1,0,83.871,0Z" transform="translate(0.613 19)" fill="#28d8de"/>
      <path id="Caminho_48439" data-name="Caminho 48439" d="M48.065,22.065V18.839a1.613,1.613,0,0,1,1.613,1.613H52.9a4.839,4.839,0,0,0-4.839-4.839V14H44.839v1.613a4.839,4.839,0,0,0,0,9.677v3.226A1.613,1.613,0,0,1,43.226,26.9H40a4.839,4.839,0,0,0,4.839,4.839v1.613h3.226V31.742a4.839,4.839,0,0,0,0-9.677Zm-4.839-1.613a1.613,1.613,0,0,1,1.613-1.613v3.226A1.613,1.613,0,0,1,43.226,20.452Zm4.839,8.065V25.29a1.613,1.613,0,1,1,0,3.226Z" transform="translate(23.904 7.968)" fill="#f2c351"/>
      <path id="Caminho_48440" data-name="Caminho 48440" d="M25.065,28.065V24.839a1.613,1.613,0,0,1,1.613,1.613H29.9a4.839,4.839,0,0,0-4.839-4.839V20H21.839v1.613a4.839,4.839,0,1,0,0,9.677v3.226A1.613,1.613,0,0,1,20.226,32.9H17a4.839,4.839,0,0,0,4.839,4.839v1.613h3.226V37.742a4.839,4.839,0,1,0,0-9.677Zm-4.839-1.613a1.613,1.613,0,0,1,1.613-1.613v3.226A1.613,1.613,0,0,1,20.226,26.452Zm4.839,8.065V31.29a1.613,1.613,0,1,1,0,3.226Z" transform="translate(9.807 11.645)" fill="#e7e4dd"/>
      <path id="Caminho_48441" data-name="Caminho 48441" d="M101,51A50.057,50.057,0,0,0,51,1a1.613,1.613,0,0,0-1.613,1.613V7.49a43.592,43.592,0,0,0-41.9,41.9H2.613A1.613,1.613,0,0,0,1,51a50,50,0,1,0,100,0ZM52.613,4.252A46.837,46.837,0,0,1,97.747,49.387H52.613ZM42.936,90.517c-1.094-.223-2.168-.5-3.226-.806V78.42h3.226Zm6.452.771c-1.087-.044-2.161-.132-3.226-.26V65.516h3.226Zm3.226-19.319h3.226V91.02c-1.063.127-2.139.216-3.226.26Zm6.452,6.452h3.226V89.7c-1.06.31-2.132.585-3.226.806ZM63.9,75.194H59.065V70.355a1.613,1.613,0,0,0-1.613-1.613H52.613V63.9A1.613,1.613,0,0,0,51,62.291H44.549A1.613,1.613,0,0,0,42.936,63.9v11.29H38.1a1.613,1.613,0,0,0-1.613,1.613v11.8a40.372,40.372,0,0,1-12.815-8L51,53.279,78.329,80.61a40.374,40.374,0,0,1-12.813,8v-11.8A1.613,1.613,0,0,0,63.9,75.194Zm16.708,3.135L54.9,52.613H91.281A40.161,40.161,0,0,1,80.612,78.329ZM49.387,10.716V50.328l-28,28a40.289,40.289,0,0,1,28-67.612ZM51,97.775A46.834,46.834,0,0,1,4.252,52.613h3.24a43.537,43.537,0,0,0,87.015,0h3.226A46.824,46.824,0,0,1,51,97.775Z" transform="translate(0)" fill="#004798"/>
      <path id="Caminho_48442" data-name="Caminho 48442" d="M48.065,18.839a1.613,1.613,0,0,1,1.613,1.613H52.9a4.839,4.839,0,0,0-4.839-4.839V14H44.839v1.613a4.839,4.839,0,0,0,0,9.677v3.226A1.613,1.613,0,0,1,43.226,26.9H40a4.839,4.839,0,0,0,4.839,4.839v1.613h3.226V31.742a4.839,4.839,0,0,0,0-9.677Zm0,6.452a1.613,1.613,0,1,1,0,3.226Zm-3.226-3.226a1.613,1.613,0,0,1,0-3.226Z" transform="translate(23.904 7.968)" fill="#004798"/>
      <path id="Caminho_48443" data-name="Caminho 48443" d="M20.226,32.9H17a4.839,4.839,0,0,0,4.839,4.839v1.613h3.226V37.742a4.839,4.839,0,1,0,0-9.677V24.839a1.613,1.613,0,0,1,1.613,1.613H29.9a4.839,4.839,0,0,0-4.839-4.839V20H21.839v1.613a4.839,4.839,0,1,0,0,9.677v3.226A1.613,1.613,0,0,1,20.226,32.9Zm0-6.452a1.613,1.613,0,0,1,1.613-1.613v3.226A1.613,1.613,0,0,1,20.226,26.452Zm4.839,4.839a1.613,1.613,0,1,1,0,3.226Z" transform="translate(9.807 11.645)" fill="#004798"/>
      <path id="Caminho_48444" data-name="Caminho 48444" d="M49.516,11A14.516,14.516,0,1,0,64.032,25.516,14.516,14.516,0,0,0,49.516,11Zm0,25.807a11.29,11.29,0,1,1,11.29-11.29,11.29,11.29,0,0,1-11.29,11.29Z" transform="translate(20.839 6.129)" fill="#004798"/>
    </g>
  </g>
</svg>
