<svg xmlns="http://www.w3.org/2000/svg" xmlns:xlink="http://www.w3.org/1999/xlink" width="600" height="414" viewBox="0 0 600 414"><defs><clipPath id="a"><rect width="550" height="414" rx="10" transform="translate(360 3700)" fill="#0074FF"/></clipPath></defs><g transform="translate(-360 -3710)"><rect width="550" height="414" rx="10" transform="translate(360 3710)" fill="#0074FF"/><g transform="translate(0 10)" clip-path="url(#a)"><circle cx="258.5" cy="258.5" r="258.5" transform="translate(443 3839)" fill="#ff9100"/></g><g transform="translate(410 3740)" fill="#ffd4c5" stroke="#ff9100" stroke-width="1"><rect width="550" height="80" rx="10" stroke="none"/><rect x="0.5" y="0.5" width="549" height="79" rx="9.5" fill="none"/></g><g transform="translate(60 -13)"><g transform="translate(50)"><text transform="translate(440 3800)" fill="#0074FF" font-size="18" font-family="Ubuntu-Bold, Ubuntu" font-weight="700"><tspan x="0" y="0">Tabela de Preço Especial </tspan><tspan y="0" font-family="Ubuntu-Light, Ubuntu" font-weight="300">para Usuário Logado</tspan></text><g transform="translate(-7 -91)"><rect width="70" height="40" rx="20" transform="translate(367 3864)" fill="#00c853"/><circle cx="15" cy="15" r="15" transform="translate(402 3869)" fill="#fff"/></g></g></g><g transform="translate(0 10)"><rect width="335" height="57" rx="5" transform="translate(525 4027)" fill="#fff"/><rect width="335" height="57" rx="5" transform="translate(525 3960)" fill="#fff"/><path d="M9.774-2.412V0H1.44V-12.474H4.248V-2.412ZM20.25-4.752a6.157,6.157,0,0,1-.324,2.043,4.439,4.439,0,0,1-.936,1.584A4.212,4.212,0,0,1,17.523-.108a4.9,4.9,0,0,1-1.917.36,4.847,4.847,0,0,1-1.9-.36A4.212,4.212,0,0,1,12.24-1.125a4.657,4.657,0,0,1-.954-1.584,5.862,5.862,0,0,1-.342-2.043A5.654,5.654,0,0,1,11.3-6.786a4.613,4.613,0,0,1,.972-1.566A4.365,4.365,0,0,1,13.743-9.36a4.752,4.752,0,0,1,1.863-.36,4.8,4.8,0,0,1,1.881.36,4.271,4.271,0,0,1,1.467,1.008,4.575,4.575,0,0,1,.954,1.566A5.787,5.787,0,0,1,20.25-4.752Zm-2.736,0a3.372,3.372,0,0,0-.495-1.953,1.619,1.619,0,0,0-1.413-.711,1.641,1.641,0,0,0-1.422.711,3.326,3.326,0,0,0-.5,1.953,3.413,3.413,0,0,0,.5,1.971,1.629,1.629,0,0,0,1.422.729,1.607,1.607,0,0,0,1.413-.729A3.46,3.46,0,0,0,17.514-4.752Zm7.092-.288q0,2.25,1.818,2.25A2.681,2.681,0,0,0,27.2-2.9a2.94,2.94,0,0,0,.612-.252V-7.434q-.2-.036-.468-.063t-.63-.027a1.846,1.846,0,0,0-1.584.7A2.906,2.906,0,0,0,24.606-5.04Zm5.886,3.852a4.56,4.56,0,0,1-1.179,3.447,5.12,5.12,0,0,1-3.645,1.125,9.892,9.892,0,0,1-1.728-.153,10.768,10.768,0,0,1-1.6-.4l.468-2.25a7.861,7.861,0,0,0,1.323.4,7.783,7.783,0,0,0,1.575.144,2.178,2.178,0,0,0,1.629-.5,1.809,1.809,0,0,0,.477-1.3v-.342a4.317,4.317,0,0,1-.891.3,4.739,4.739,0,0,1-1,.1,3.834,3.834,0,0,1-3.006-1.161A4.689,4.689,0,0,1,21.87-5.04a5.322,5.322,0,0,1,.324-1.9,4.04,4.04,0,0,1,.945-1.467,4.218,4.218,0,0,1,1.521-.945,5.832,5.832,0,0,1,2.034-.333q.486,0,1,.045t1.017.117q.5.072.963.171t.819.207ZM35.694,0H33.012V-9.468h2.682Zm.252-12.2a1.472,1.472,0,0,1-.477,1.161,1.641,1.641,0,0,1-1.125.423,1.641,1.641,0,0,1-1.125-.423,1.472,1.472,0,0,1-.477-1.161,1.472,1.472,0,0,1,.477-1.161,1.641,1.641,0,0,1,1.125-.423,1.641,1.641,0,0,1,1.125.423A1.472,1.472,0,0,1,35.946-12.2Zm2.268,3.06a14.949,14.949,0,0,1,1.764-.369,14.5,14.5,0,0,1,2.268-.171,5.524,5.524,0,0,1,2.007.315,3.015,3.015,0,0,1,1.269.891,3.472,3.472,0,0,1,.666,1.368,7.278,7.278,0,0,1,.2,1.764V0H43.7V-5.022a3.615,3.615,0,0,0-.342-1.836,1.4,1.4,0,0,0-1.278-.54q-.288,0-.612.027t-.576.063V0H38.214Zm16.38,7.47A3.934,3.934,0,0,0,55-1.4a3.857,3.857,0,0,0,.567.27,4.587,4.587,0,0,0,.7.207,3.771,3.771,0,0,0,.792.081,3.18,3.18,0,0,0,1.449-.3,2.534,2.534,0,0,0,.945-.81,3.438,3.438,0,0,0,.522-1.206,6.428,6.428,0,0,0,.162-1.467,3.971,3.971,0,0,0-.918-2.817,3.171,3.171,0,0,0-2.43-.981,9.626,9.626,0,0,0-1.4.081,5.181,5.181,0,0,0-.8.171Zm0,5h-1.17V-8.982a10.524,10.524,0,0,1,1.332-.342,10.75,10.75,0,0,1,2.052-.162,5,5,0,0,1,1.863.333,4.027,4.027,0,0,1,1.44.963,4.377,4.377,0,0,1,.936,1.53,5.832,5.832,0,0,1,.333,2.034A6.509,6.509,0,0,1,61.1-2.673a4.354,4.354,0,0,1-.819,1.53,3.769,3.769,0,0,1-1.323,1,4.243,4.243,0,0,1-1.791.36,4.41,4.41,0,0,1-1.593-.261,4.164,4.164,0,0,1-.981-.5ZM66.852-.846q.684,0,1.2-.045a8.186,8.186,0,0,0,.873-.117V-4.284a3.588,3.588,0,0,0-.63-.189,5.577,5.577,0,0,0-1.188-.1,6.75,6.75,0,0,0-.9.063,2.6,2.6,0,0,0-.864.27,1.792,1.792,0,0,0-.648.567,1.632,1.632,0,0,0-.252.954,2.046,2.046,0,0,0,.171.882,1.425,1.425,0,0,0,.486.576,2.159,2.159,0,0,0,.756.315A4.579,4.579,0,0,0,66.852-.846Zm-.108-8.676a4.122,4.122,0,0,1,1.557.261,2.673,2.673,0,0,1,1.035.72,2.834,2.834,0,0,1,.576,1.089,4.963,4.963,0,0,1,.18,1.368V-.216A5.253,5.253,0,0,1,69.57-.1q-.342.063-.792.135t-1,.117Q67.23.2,66.654.2A5.376,5.376,0,0,1,65.295.036a3,3,0,0,1-1.08-.513,2.421,2.421,0,0,1-.72-.9,3.107,3.107,0,0,1-.261-1.341,2.72,2.72,0,0,1,.288-1.3,2.452,2.452,0,0,1,.81-.891,3.633,3.633,0,0,1,1.242-.513A7.132,7.132,0,0,1,67.14-5.58q.252,0,.531.027t.54.072q.261.045.45.09a1.372,1.372,0,0,1,.261.081v-.576a6.091,6.091,0,0,0-.072-.945,2.069,2.069,0,0,0-.315-.828,1.748,1.748,0,0,0-.684-.594,2.563,2.563,0,0,0-1.161-.225,6,6,0,0,0-1.53.144q-.5.144-.738.234L64.26-9.126a4.34,4.34,0,0,1,.945-.27A8.082,8.082,0,0,1,66.744-9.522Zm9.5.036a6.3,6.3,0,0,1,1.089.09,3.339,3.339,0,0,1,.711.18l-.234,1.008a2.6,2.6,0,0,0-.585-.153,6.678,6.678,0,0,0-1.161-.081,5.5,5.5,0,0,0-1.215.108,3.35,3.35,0,0,0-.6.18V0H73.08V-8.874a8.63,8.63,0,0,1,1.242-.4A7.72,7.72,0,0,1,76.248-9.486Zm6.5,8.64q.684,0,1.2-.045a8.186,8.186,0,0,0,.873-.117V-4.284a3.588,3.588,0,0,0-.63-.189A5.577,5.577,0,0,0,83-4.572a6.75,6.75,0,0,0-.9.063,2.6,2.6,0,0,0-.864.27,1.792,1.792,0,0,0-.648.567,1.632,1.632,0,0,0-.252.954,2.046,2.046,0,0,0,.171.882,1.425,1.425,0,0,0,.486.576,2.159,2.159,0,0,0,.756.315A4.579,4.579,0,0,0,82.746-.846Zm-.108-8.676a4.122,4.122,0,0,1,1.557.261,2.673,2.673,0,0,1,1.035.72,2.834,2.834,0,0,1,.576,1.089,4.963,4.963,0,0,1,.18,1.368V-.216a5.253,5.253,0,0,1-.522.117q-.342.063-.792.135t-1,.117Q83.124.2,82.548.2A5.376,5.376,0,0,1,81.189.036a3,3,0,0,1-1.08-.513,2.421,2.421,0,0,1-.72-.9,3.107,3.107,0,0,1-.261-1.341,2.72,2.72,0,0,1,.288-1.3,2.452,2.452,0,0,1,.81-.891,3.633,3.633,0,0,1,1.242-.513,7.131,7.131,0,0,1,1.566-.162q.252,0,.531.027t.54.072q.261.045.45.09a1.372,1.372,0,0,1,.261.081v-.576a6.091,6.091,0,0,0-.072-.945,2.069,2.069,0,0,0-.315-.828,1.748,1.748,0,0,0-.684-.594,2.563,2.563,0,0,0-1.161-.225,6,6,0,0,0-1.53.144q-.5.144-.738.234l-.162-1.026A4.34,4.34,0,0,1,81.1-9.4,8.082,8.082,0,0,1,82.638-9.522ZM96.93.2a4.966,4.966,0,0,1-1.908-.342,3.589,3.589,0,0,1-1.377-.981,4.387,4.387,0,0,1-.837-1.53,6.383,6.383,0,0,1-.288-1.971,6.35,6.35,0,0,1,.3-2,4.5,4.5,0,0,1,.855-1.548,3.779,3.779,0,0,1,1.35-1A4.353,4.353,0,0,1,96.8-9.522a7.5,7.5,0,0,1,1.413.126,3.555,3.555,0,0,1,1.017.324l-.306,1.008a3.779,3.779,0,0,0-.81-.288,5.372,5.372,0,0,0-1.206-.108,2.832,2.832,0,0,0-2.349,1,4.43,4.43,0,0,0-.8,2.835,6.043,6.043,0,0,0,.18,1.521,3.064,3.064,0,0,0,.585,1.188,2.737,2.737,0,0,0,1.044.774,3.884,3.884,0,0,0,1.557.279A4.056,4.056,0,0,0,98.4-1.035a5.127,5.127,0,0,0,.747-.3L99.4-.324a4.391,4.391,0,0,1-1.017.351A6.028,6.028,0,0,1,96.93.2ZM109.3-4.644a6.017,6.017,0,0,1-.315,2,4.456,4.456,0,0,1-.882,1.53,4.017,4.017,0,0,1-1.341.981,4.092,4.092,0,0,1-1.71.351,4.092,4.092,0,0,1-1.71-.351A4.017,4.017,0,0,1,102-1.116a4.456,4.456,0,0,1-.882-1.53,6.017,6.017,0,0,1-.315-2,6.017,6.017,0,0,1,.315-2A4.555,4.555,0,0,1,102-8.181a3.961,3.961,0,0,1,1.341-.99,4.092,4.092,0,0,1,1.71-.351,4.092,4.092,0,0,1,1.71.351,3.961,3.961,0,0,1,1.341.99,4.555,4.555,0,0,1,.882,1.539A6.017,6.017,0,0,1,109.3-4.644Zm-1.242,0a4.393,4.393,0,0,0-.81-2.781,2.641,2.641,0,0,0-2.2-1.035,2.641,2.641,0,0,0-2.2,1.035,4.393,4.393,0,0,0-.81,2.781,4.354,4.354,0,0,0,.81,2.772,2.649,2.649,0,0,0,2.2,1.026,2.649,2.649,0,0,0,2.2-1.026A4.354,4.354,0,0,0,108.054-4.644Zm3.78-4.338q.522-.144,1.359-.324a10.649,10.649,0,0,1,2.169-.18,3.027,3.027,0,0,1,2.556,1.026q.09-.072.351-.243a4.956,4.956,0,0,1,.657-.351,5.086,5.086,0,0,1,.927-.306,5.112,5.112,0,0,1,1.179-.126,4,4,0,0,1,1.719.315,2.4,2.4,0,0,1,1.017.882,3.547,3.547,0,0,1,.486,1.359A11.026,11.026,0,0,1,124.38-5.2V0h-1.17V-4.824a13.579,13.579,0,0,0-.081-1.593,3.067,3.067,0,0,0-.324-1.116,1.581,1.581,0,0,0-.693-.666,2.622,2.622,0,0,0-1.17-.225,4.487,4.487,0,0,0-.981.1,4.108,4.108,0,0,0-.765.243,3.254,3.254,0,0,0-.531.288q-.207.144-.3.216a5.551,5.551,0,0,1,.243,1.053,8.992,8.992,0,0,1,.081,1.233V0h-1.17V-4.824a13.579,13.579,0,0,0-.081-1.593,2.951,2.951,0,0,0-.333-1.116A1.624,1.624,0,0,0,116.4-8.2a2.779,2.779,0,0,0-1.215-.225,9.616,9.616,0,0,0-1.431.09,3.762,3.762,0,0,0-.747.162V0h-1.17Zm16.7,7.308a3.933,3.933,0,0,0,.4.27,3.857,3.857,0,0,0,.567.27,4.587,4.587,0,0,0,.7.207A3.771,3.771,0,0,0,131-.846a3.18,3.18,0,0,0,1.449-.3,2.534,2.534,0,0,0,.945-.81,3.438,3.438,0,0,0,.522-1.206,6.429,6.429,0,0,0,.162-1.467,3.971,3.971,0,0,0-.918-2.817,3.171,3.171,0,0,0-2.43-.981,9.626,9.626,0,0,0-1.4.081,5.182,5.182,0,0,0-.8.171Zm0,5h-1.17V-8.982a10.523,10.523,0,0,1,1.332-.342,10.75,10.75,0,0,1,2.052-.162,5,5,0,0,1,1.863.333,4.027,4.027,0,0,1,1.44.963,4.377,4.377,0,0,1,.936,1.53,5.832,5.832,0,0,1,.333,2.034,6.51,6.51,0,0,1-.279,1.953,4.355,4.355,0,0,1-.819,1.53,3.769,3.769,0,0,1-1.323,1,4.243,4.243,0,0,1-1.791.36,4.41,4.41,0,0,1-1.593-.261,4.164,4.164,0,0,1-.981-.5ZM141.03-9.486a6.3,6.3,0,0,1,1.089.09,3.339,3.339,0,0,1,.711.18L142.6-8.208a2.6,2.6,0,0,0-.585-.153,6.678,6.678,0,0,0-1.161-.081,5.5,5.5,0,0,0-1.215.108,3.35,3.35,0,0,0-.6.18V0h-1.17V-8.874a8.629,8.629,0,0,1,1.242-.4A7.72,7.72,0,0,1,141.03-9.486Zm6.5,8.64q.684,0,1.2-.045a8.187,8.187,0,0,0,.873-.117V-4.284a3.588,3.588,0,0,0-.63-.189,5.577,5.577,0,0,0-1.188-.1,6.75,6.75,0,0,0-.9.063,2.6,2.6,0,0,0-.864.27,1.792,1.792,0,0,0-.648.567,1.632,1.632,0,0,0-.252.954,2.046,2.046,0,0,0,.171.882,1.425,1.425,0,0,0,.486.576,2.159,2.159,0,0,0,.756.315A4.579,4.579,0,0,0,147.528-.846Zm-.108-8.676a4.122,4.122,0,0,1,1.557.261,2.672,2.672,0,0,1,1.035.72,2.834,2.834,0,0,1,.576,1.089,4.963,4.963,0,0,1,.18,1.368V-.216a5.254,5.254,0,0,1-.522.117q-.342.063-.792.135t-1,.117Q147.906.2,147.33.2a5.376,5.376,0,0,1-1.359-.162,3,3,0,0,1-1.08-.513,2.421,2.421,0,0,1-.72-.9,3.107,3.107,0,0,1-.261-1.341,2.72,2.72,0,0,1,.288-1.3,2.452,2.452,0,0,1,.81-.891,3.633,3.633,0,0,1,1.242-.513,7.131,7.131,0,0,1,1.566-.162q.252,0,.531.027t.54.072q.261.045.45.09a1.373,1.373,0,0,1,.261.081v-.576a6.09,6.09,0,0,0-.072-.945,2.069,2.069,0,0,0-.315-.828,1.749,1.749,0,0,0-.684-.594,2.563,2.563,0,0,0-1.161-.225,6,6,0,0,0-1.53.144q-.5.144-.738.234l-.162-1.026a4.339,4.339,0,0,1,.945-.27A8.082,8.082,0,0,1,147.42-9.522Zm8.244,8.694a3.672,3.672,0,0,0,1.665-.333,1.162,1.162,0,0,0,.657-1.125,1.624,1.624,0,0,0-.117-.648,1.275,1.275,0,0,0-.387-.486,3.321,3.321,0,0,0-.711-.414q-.441-.2-1.089-.468-.522-.216-.99-.441a4.054,4.054,0,0,1-.828-.522,2.279,2.279,0,0,1-.576-.711,2.157,2.157,0,0,1-.216-1.008,2.262,2.262,0,0,1,.855-1.836,3.6,3.6,0,0,1,2.349-.7,6.382,6.382,0,0,1,1.575.162,5,5,0,0,1,.873.288l-.27,1.044a7.02,7.02,0,0,0-.729-.288,4.788,4.788,0,0,0-1.5-.18,3.31,3.31,0,0,0-.747.081,1.981,1.981,0,0,0-.621.253,1.353,1.353,0,0,0-.432.433,1.193,1.193,0,0,0-.162.64,1.365,1.365,0,0,0,.144.649,1.441,1.441,0,0,0,.423.478,3.561,3.561,0,0,0,.684.387q.405.179.927.394.54.215,1.035.439a3.8,3.8,0,0,1,.873.539,2.5,2.5,0,0,1,.612.756,2.345,2.345,0,0,1,.234,1.107,2.165,2.165,0,0,1-.945,1.908,4.508,4.508,0,0,1-2.583.648,6.487,6.487,0,0,1-1.872-.207,7.262,7.262,0,0,1-.864-.315l.306-1.062a1.991,1.991,0,0,0,.234.117,4.929,4.929,0,0,0,.486.18,5.268,5.268,0,0,0,.729.171A5.907,5.907,0,0,0,155.664-.828Zm11.07-.846a3.933,3.933,0,0,0,.4.27,3.857,3.857,0,0,0,.567.27,4.587,4.587,0,0,0,.7.207,3.771,3.771,0,0,0,.792.081,3.18,3.18,0,0,0,1.449-.3,2.534,2.534,0,0,0,.945-.81,3.438,3.438,0,0,0,.522-1.206,6.429,6.429,0,0,0,.162-1.467,3.971,3.971,0,0,0-.918-2.817,3.171,3.171,0,0,0-2.43-.981,9.626,9.626,0,0,0-1.4.081,5.182,5.182,0,0,0-.8.171Zm0,5h-1.17V-8.982a10.524,10.524,0,0,1,1.332-.342,10.75,10.75,0,0,1,2.052-.162,5,5,0,0,1,1.863.333,4.027,4.027,0,0,1,1.44.963,4.377,4.377,0,0,1,.936,1.53,5.832,5.832,0,0,1,.333,2.034,6.51,6.51,0,0,1-.279,1.953,4.355,4.355,0,0,1-.819,1.53,3.769,3.769,0,0,1-1.323,1,4.243,4.243,0,0,1-1.791.36,4.41,4.41,0,0,1-1.593-.261,4.164,4.164,0,0,1-.981-.5ZM184-4.644a6.016,6.016,0,0,1-.315,2,4.456,4.456,0,0,1-.882,1.53,4.017,4.017,0,0,1-1.341.981,4.092,4.092,0,0,1-1.71.351,4.092,4.092,0,0,1-1.71-.351,4.017,4.017,0,0,1-1.341-.981,4.456,4.456,0,0,1-.882-1.53,6.017,6.017,0,0,1-.315-2,6.017,6.017,0,0,1,.315-2,4.555,4.555,0,0,1,.882-1.539,3.961,3.961,0,0,1,1.341-.99,4.092,4.092,0,0,1,1.71-.351,4.092,4.092,0,0,1,1.71.351,3.961,3.961,0,0,1,1.341.99,4.555,4.555,0,0,1,.882,1.539A6.016,6.016,0,0,1,184-4.644Zm-1.242,0a4.393,4.393,0,0,0-.81-2.781,2.641,2.641,0,0,0-2.2-1.035,2.641,2.641,0,0,0-2.2,1.035,4.393,4.393,0,0,0-.81,2.781,4.354,4.354,0,0,0,.81,2.772,2.649,2.649,0,0,0,2.2,1.026,2.649,2.649,0,0,0,2.2-1.026A4.354,4.354,0,0,0,182.754-4.644ZM189.7-9.486a6.3,6.3,0,0,1,1.089.09,3.339,3.339,0,0,1,.711.18l-.234,1.008a2.6,2.6,0,0,0-.585-.153,6.678,6.678,0,0,0-1.161-.081,5.5,5.5,0,0,0-1.215.108,3.35,3.35,0,0,0-.6.18V0h-1.17V-8.874a8.629,8.629,0,0,1,1.242-.4A7.72,7.72,0,0,1,189.7-9.486Zm10.6,8.64q.684,0,1.2-.045a8.187,8.187,0,0,0,.873-.117V-4.284a3.588,3.588,0,0,0-.63-.189,5.577,5.577,0,0,0-1.188-.1,6.75,6.75,0,0,0-.9.063,2.6,2.6,0,0,0-.864.27,1.792,1.792,0,0,0-.648.567,1.632,1.632,0,0,0-.252.954,2.046,2.046,0,0,0,.171.882,1.425,1.425,0,0,0,.486.576,2.159,2.159,0,0,0,.756.315A4.579,4.579,0,0,0,200.3-.846ZM200.2-9.522a4.122,4.122,0,0,1,1.557.261,2.672,2.672,0,0,1,1.035.72,2.834,2.834,0,0,1,.576,1.089,4.963,4.963,0,0,1,.18,1.368V-.216a5.254,5.254,0,0,1-.522.117q-.342.063-.792.135t-1,.117Q200.682.2,200.106.2a5.376,5.376,0,0,1-1.359-.162,3,3,0,0,1-1.08-.513,2.421,2.421,0,0,1-.72-.9,3.107,3.107,0,0,1-.261-1.341,2.72,2.72,0,0,1,.288-1.3,2.452,2.452,0,0,1,.81-.891,3.633,3.633,0,0,1,1.242-.513,7.131,7.131,0,0,1,1.566-.162q.252,0,.531.027t.54.072q.261.045.45.09a1.373,1.373,0,0,1,.261.081v-.576a6.09,6.09,0,0,0-.072-.945,2.069,2.069,0,0,0-.315-.828,1.749,1.749,0,0,0-.684-.594,2.563,2.563,0,0,0-1.161-.225,6,6,0,0,0-1.53.144q-.5.144-.738.234l-.162-1.026a4.339,4.339,0,0,1,.945-.27A8.082,8.082,0,0,1,200.2-9.522Zm7.434.216h3.708v.99H207.63v4.95a5.028,5.028,0,0,0,.135,1.287,1.8,1.8,0,0,0,.387.765,1.227,1.227,0,0,0,.612.36,3.264,3.264,0,0,0,.792.09,3.412,3.412,0,0,0,1.188-.171,5.172,5.172,0,0,0,.7-.315l.288.972a4.232,4.232,0,0,1-.882.369A4.359,4.359,0,0,1,209.484.2a4.061,4.061,0,0,1-1.449-.225,2.1,2.1,0,0,1-.936-.684,2.8,2.8,0,0,1-.5-1.143,7.958,7.958,0,0,1-.144-1.62v-8.568l1.17-.216Zm8.8,8.46q.684,0,1.2-.045a8.187,8.187,0,0,0,.873-.117V-4.284a3.588,3.588,0,0,0-.63-.189,5.577,5.577,0,0,0-1.188-.1,6.75,6.75,0,0,0-.9.063,2.6,2.6,0,0,0-.864.27,1.792,1.792,0,0,0-.648.567,1.632,1.632,0,0,0-.252.954,2.046,2.046,0,0,0,.171.882,1.425,1.425,0,0,0,.486.576,2.159,2.159,0,0,0,.756.315A4.579,4.579,0,0,0,216.432-.846Zm-.108-8.676a4.122,4.122,0,0,1,1.557.261,2.672,2.672,0,0,1,1.035.72,2.834,2.834,0,0,1,.576,1.089,4.963,4.963,0,0,1,.18,1.368V-.216a5.254,5.254,0,0,1-.522.117q-.342.063-.792.135t-1,.117Q216.81.2,216.234.2a5.376,5.376,0,0,1-1.359-.162,3,3,0,0,1-1.08-.513,2.421,2.421,0,0,1-.72-.9,3.107,3.107,0,0,1-.261-1.341,2.72,2.72,0,0,1,.288-1.3,2.452,2.452,0,0,1,.81-.891,3.633,3.633,0,0,1,1.242-.513,7.131,7.131,0,0,1,1.566-.162q.252,0,.531.027t.54.072q.261.045.45.09a1.373,1.373,0,0,1,.261.081v-.576a6.09,6.09,0,0,0-.072-.945,2.069,2.069,0,0,0-.315-.828,1.749,1.749,0,0,0-.684-.594,2.563,2.563,0,0,0-1.161-.225,6,6,0,0,0-1.53.144q-.5.144-.738.234l-.162-1.026a4.339,4.339,0,0,1,.945-.27A8.082,8.082,0,0,1,216.324-9.522ZM226.512.2A4.966,4.966,0,0,1,224.6-.144a3.589,3.589,0,0,1-1.377-.981,4.386,4.386,0,0,1-.837-1.53,6.383,6.383,0,0,1-.288-1.971,6.35,6.35,0,0,1,.3-2,4.5,4.5,0,0,1,.855-1.548,3.779,3.779,0,0,1,1.35-1,4.353,4.353,0,0,1,1.782-.351A7.5,7.5,0,0,1,227.8-9.4a3.555,3.555,0,0,1,1.017.324l-.306,1.008a3.779,3.779,0,0,0-.81-.288,5.372,5.372,0,0,0-1.206-.108,2.832,2.832,0,0,0-2.349,1,4.43,4.43,0,0,0-.8,2.835,6.042,6.042,0,0,0,.18,1.521,3.064,3.064,0,0,0,.585,1.188,2.737,2.737,0,0,0,1.044.774,3.884,3.884,0,0,0,1.557.279,4.056,4.056,0,0,0,1.269-.171,5.127,5.127,0,0,0,.747-.3l.252,1.008a4.391,4.391,0,0,1-1.017.351A6.028,6.028,0,0,1,226.512.2Zm7.362-1.044q.684,0,1.2-.045a8.187,8.187,0,0,0,.873-.117V-4.284a3.588,3.588,0,0,0-.63-.189,5.577,5.577,0,0,0-1.188-.1,6.75,6.75,0,0,0-.9.063,2.6,2.6,0,0,0-.864.27,1.792,1.792,0,0,0-.648.567,1.632,1.632,0,0,0-.252.954,2.046,2.046,0,0,0,.171.882,1.425,1.425,0,0,0,.486.576,2.159,2.159,0,0,0,.756.315A4.579,4.579,0,0,0,233.874-.846Zm-.108-8.676a4.122,4.122,0,0,1,1.557.261,2.672,2.672,0,0,1,1.035.72,2.834,2.834,0,0,1,.576,1.089,4.963,4.963,0,0,1,.18,1.368V-.216a5.254,5.254,0,0,1-.522.117q-.342.063-.792.135t-1,.117Q234.252.2,233.676.2a5.376,5.376,0,0,1-1.359-.162,3,3,0,0,1-1.08-.513,2.421,2.421,0,0,1-.72-.9,3.107,3.107,0,0,1-.261-1.341,2.72,2.72,0,0,1,.288-1.3,2.452,2.452,0,0,1,.81-.891,3.633,3.633,0,0,1,1.242-.513,7.131,7.131,0,0,1,1.566-.162q.252,0,.531.027t.54.072q.261.045.45.09a1.373,1.373,0,0,1,.261.081v-.576a6.09,6.09,0,0,0-.072-.945,2.069,2.069,0,0,0-.315-.828,1.749,1.749,0,0,0-.684-.594,2.563,2.563,0,0,0-1.161-.225,6,6,0,0,0-1.53.144q-.5.144-.738.234l-.162-1.026a4.339,4.339,0,0,1,.945-.27A8.082,8.082,0,0,1,233.766-9.522ZM247.5-.288a10.524,10.524,0,0,1-1.332.342,10.75,10.75,0,0,1-2.052.162,5,5,0,0,1-1.863-.333,4.027,4.027,0,0,1-1.44-.963,4.377,4.377,0,0,1-.936-1.53,5.832,5.832,0,0,1-.333-2.034,6.51,6.51,0,0,1,.279-1.953,4.45,4.45,0,0,1,.819-1.539,3.722,3.722,0,0,1,1.323-1.008,4.243,4.243,0,0,1,1.791-.36,4.41,4.41,0,0,1,1.593.261,4.164,4.164,0,0,1,.981.5v-5l1.17-.216Zm-1.17-7.326a3.934,3.934,0,0,0-.4-.27,3.857,3.857,0,0,0-.567-.27,4.588,4.588,0,0,0-.7-.207,3.771,3.771,0,0,0-.792-.081,3.1,3.1,0,0,0-1.449.306,2.611,2.611,0,0,0-.945.819,3.438,3.438,0,0,0-.522,1.206,6.428,6.428,0,0,0-.162,1.467,3.971,3.971,0,0,0,.918,2.817,3.171,3.171,0,0,0,2.43.981,9.626,9.626,0,0,0,1.4-.081,5.181,5.181,0,0,0,.8-.171Zm12.2,2.97a6.017,6.017,0,0,1-.315,2,4.456,4.456,0,0,1-.882,1.53A4.017,4.017,0,0,1,256-.135a4.092,4.092,0,0,1-1.71.351,4.092,4.092,0,0,1-1.71-.351,4.017,4.017,0,0,1-1.341-.981,4.456,4.456,0,0,1-.882-1.53,6.017,6.017,0,0,1-.315-2,6.017,6.017,0,0,1,.315-2,4.555,4.555,0,0,1,.882-1.539,3.961,3.961,0,0,1,1.341-.99,4.092,4.092,0,0,1,1.71-.351,4.092,4.092,0,0,1,1.71.351,3.962,3.962,0,0,1,1.341.99,4.555,4.555,0,0,1,.882,1.539A6.017,6.017,0,0,1,258.534-4.644Zm-1.242,0a4.393,4.393,0,0,0-.81-2.781,2.641,2.641,0,0,0-2.2-1.035,2.641,2.641,0,0,0-2.2,1.035,4.393,4.393,0,0,0-.81,2.781,4.354,4.354,0,0,0,.81,2.772,2.649,2.649,0,0,0,2.2,1.026,2.649,2.649,0,0,0,2.2-1.026A4.354,4.354,0,0,0,257.292-4.644Zm5.436,3.87a1.008,1.008,0,0,1-.261.7.934.934,0,0,1-.729.288.934.934,0,0,1-.729-.288,1.008,1.008,0,0,1-.261-.7,1.008,1.008,0,0,1,.261-.7.934.934,0,0,1,.729-.288.934.934,0,0,1,.729.288A1.008,1.008,0,0,1,262.728-.774Zm0-7.542a1.008,1.008,0,0,1-.261.7.934.934,0,0,1-.729.288.934.934,0,0,1-.729-.288,1.008,1.008,0,0,1-.261-.7,1.008,1.008,0,0,1,.261-.7.934.934,0,0,1,.729-.288.934.934,0,0,1,.729.288A1.008,1.008,0,0,1,262.728-8.316Z" transform="translate(525 3947)" fill="#0074FF"/><path d="M6.462-5.022a3.7,3.7,0,0,0-.333-1.836A1.235,1.235,0,0,0,4.986-7.4q-.252,0-.522.027t-.522.063V0H1.26V-9.144q.342-.09.8-.189t.972-.18q.513-.081,1.053-.126t1.062-.045a4.464,4.464,0,0,1,1.665.261A3.756,3.756,0,0,1,7.866-8.8,4.608,4.608,0,0,1,9.189-9.45a4.633,4.633,0,0,1,1.377-.234,4.729,4.729,0,0,1,1.863.315,2.808,2.808,0,0,1,1.161.891,3.372,3.372,0,0,1,.594,1.368,8.829,8.829,0,0,1,.162,1.764V0H11.664V-5.022a3.7,3.7,0,0,0-.333-1.836,1.235,1.235,0,0,0-1.143-.54,2.416,2.416,0,0,0-.6.108,2.352,2.352,0,0,0-.639.27,4.087,4.087,0,0,1,.162.873q.036.459.036.981V0H6.462ZM19.458,0H16.776V-9.468h2.682Zm.252-12.2a1.472,1.472,0,0,1-.477,1.161,1.641,1.641,0,0,1-1.125.423,1.641,1.641,0,0,1-1.125-.423,1.472,1.472,0,0,1-.477-1.161,1.472,1.472,0,0,1,.477-1.161,1.641,1.641,0,0,1,1.125-.423,1.641,1.641,0,0,1,1.125.423A1.472,1.472,0,0,1,19.71-12.2Zm2.268,3.06a14.949,14.949,0,0,1,1.764-.369,14.5,14.5,0,0,1,2.268-.171,5.524,5.524,0,0,1,2.007.315,3.015,3.015,0,0,1,1.269.891,3.472,3.472,0,0,1,.666,1.368,7.278,7.278,0,0,1,.2,1.764V0H27.468V-5.022a3.615,3.615,0,0,0-.342-1.836,1.4,1.4,0,0,0-1.278-.54q-.288,0-.612.027t-.576.063V0H21.978ZM32.58,0V-13.536l2.682-.432v4.536a5.559,5.559,0,0,1,.693-.171,4.352,4.352,0,0,1,.819-.081,5.062,5.062,0,0,1,1.917.315,2.976,2.976,0,0,1,1.224.891,3.445,3.445,0,0,1,.648,1.368,7.61,7.61,0,0,1,.189,1.764V0H38.07V-5.022a3.7,3.7,0,0,0-.333-1.836A1.331,1.331,0,0,0,36.5-7.4a3.44,3.44,0,0,0-.675.063q-.315.063-.567.135V0ZM46.8-1.872q.4,0,.756-.018a5.26,5.26,0,0,0,.576-.054V-3.978q-.162-.036-.486-.072a5.412,5.412,0,0,0-.594-.036,5.316,5.316,0,0,0-.711.045,1.857,1.857,0,0,0-.585.171,1,1,0,0,0-.4.342.953.953,0,0,0-.144.54.92.92,0,0,0,.423.873A2.338,2.338,0,0,0,46.8-1.872ZM46.584-9.72a6.211,6.211,0,0,1,1.98.27,3.075,3.075,0,0,1,1.269.774,2.845,2.845,0,0,1,.675,1.224,6.037,6.037,0,0,1,.2,1.6V-.27q-.576.126-1.6.3A15.394,15.394,0,0,1,46.62.2,7.875,7.875,0,0,1,44.955.036,3.614,3.614,0,0,1,43.668-.5a2.43,2.43,0,0,1-.828-.963,3.324,3.324,0,0,1-.288-1.458,2.763,2.763,0,0,1,.333-1.4,2.563,2.563,0,0,1,.891-.918,4.026,4.026,0,0,1,1.278-.5,7.17,7.17,0,0,1,1.494-.153,8.482,8.482,0,0,1,.927.045,4.126,4.126,0,0,1,.657.117v-.252a1.484,1.484,0,0,0-.414-1.1,2,2,0,0,0-1.44-.414,9.169,9.169,0,0,0-1.35.1,5.791,5.791,0,0,0-1.152.279l-.342-2.16q.234-.072.585-.153t.765-.144q.414-.063.873-.108T46.584-9.72Zm6.1,5.058a5.79,5.79,0,0,1,.387-2.2A4.727,4.727,0,0,1,54.09-8.442,4.231,4.231,0,0,1,55.539-9.4a4.537,4.537,0,0,1,1.683-.324,4.183,4.183,0,0,1,3.186,1.233,5.08,5.08,0,0,1,1.17,3.627q0,.234-.018.513t-.036.495H55.44a1.782,1.782,0,0,0,.774,1.314,3.111,3.111,0,0,0,1.836.486A7.751,7.751,0,0,0,59.5-2.187,5.47,5.47,0,0,0,60.66-2.52l.36,2.178a3.7,3.7,0,0,1-.576.216,7.537,7.537,0,0,1-.8.189Q59.2.144,58.7.2A9.455,9.455,0,0,1,57.69.252a5.967,5.967,0,0,1-2.223-.378A4.33,4.33,0,0,1,53.9-1.161a4.108,4.108,0,0,1-.918-1.557A6.168,6.168,0,0,1,52.686-4.662Zm6.3-1.026a2.769,2.769,0,0,0-.117-.666,1.663,1.663,0,0,0-.306-.576,1.629,1.629,0,0,0-.522-.414,1.7,1.7,0,0,0-.783-.162,1.8,1.8,0,0,0-.774.153,1.6,1.6,0,0,0-.54.405,1.812,1.812,0,0,0-.333.585,3.839,3.839,0,0,0-.171.675Zm9.864.666a3.7,3.7,0,0,0-.333-1.836,1.235,1.235,0,0,0-1.143-.54q-.252,0-.522.027t-.522.063V0H63.648V-9.144q.342-.09.8-.189t.972-.18q.513-.081,1.053-.126t1.062-.045a4.464,4.464,0,0,1,1.665.261,3.756,3.756,0,0,1,1.053.621,4.608,4.608,0,0,1,1.323-.648,4.633,4.633,0,0,1,1.377-.234,4.729,4.729,0,0,1,1.863.315,2.808,2.808,0,0,1,1.161.891,3.371,3.371,0,0,1,.594,1.368,8.828,8.828,0,0,1,.162,1.764V0H74.052V-5.022a3.7,3.7,0,0,0-.333-1.836,1.235,1.235,0,0,0-1.143-.54,2.416,2.416,0,0,0-.6.108,2.352,2.352,0,0,0-.639.27,4.088,4.088,0,0,1,.162.873q.036.459.036.981V0H68.85Zm16.38.36a3.245,3.245,0,0,0-.558-1.989A1.936,1.936,0,0,0,83.016-7.4q-.36,0-.666.027t-.5.063v4.842a2.33,2.33,0,0,0,.657.27,3.166,3.166,0,0,0,.819.108Q85.23-2.088,85.23-4.662Zm2.736-.072a6.937,6.937,0,0,1-.27,2A4.5,4.5,0,0,1,86.9-1.188a3.576,3.576,0,0,1-1.3,1.008,4.182,4.182,0,0,1-1.782.36A4.807,4.807,0,0,1,82.782.072a5.024,5.024,0,0,1-.936-.306V3.33H79.164V-9.144q.36-.108.828-.207t.981-.171q.513-.072,1.044-.117t1.017-.045a5.815,5.815,0,0,1,2.088.351,4.291,4.291,0,0,1,1.548.99,4.244,4.244,0,0,1,.963,1.557A5.985,5.985,0,0,1,87.966-4.734Zm7.776-2.358q-.36-.09-.846-.189a5.228,5.228,0,0,0-1.044-.1,4.844,4.844,0,0,0-.6.045,3.549,3.549,0,0,0-.531.1V0H90.036V-8.964a16.111,16.111,0,0,1,1.7-.477,9.8,9.8,0,0,1,2.187-.225q.216,0,.522.027t.612.072q.306.045.612.108a2.88,2.88,0,0,1,.522.153ZM97-4.662a5.79,5.79,0,0,1,.387-2.2,4.728,4.728,0,0,1,1.017-1.575A4.231,4.231,0,0,1,99.855-9.4a4.537,4.537,0,0,1,1.683-.324,4.183,4.183,0,0,1,3.186,1.233,5.08,5.08,0,0,1,1.17,3.627q0,.234-.018.513t-.036.495H99.756a1.782,1.782,0,0,0,.774,1.314,3.111,3.111,0,0,0,1.836.486,7.751,7.751,0,0,0,1.449-.135,5.47,5.47,0,0,0,1.161-.333l.36,2.178a3.7,3.7,0,0,1-.576.216,7.537,7.537,0,0,1-.8.189q-.441.081-.945.135a9.455,9.455,0,0,1-1.008.054,5.967,5.967,0,0,1-2.223-.378,4.33,4.33,0,0,1-1.566-1.035A4.108,4.108,0,0,1,97.3-2.718,6.168,6.168,0,0,1,97-4.662Zm6.3-1.026a2.768,2.768,0,0,0-.117-.666,1.663,1.663,0,0,0-.306-.576,1.629,1.629,0,0,0-.522-.414,1.7,1.7,0,0,0-.783-.162,1.8,1.8,0,0,0-.774.153,1.6,1.6,0,0,0-.54.405,1.812,1.812,0,0,0-.333.585,3.838,3.838,0,0,0-.171.675Zm7.38,3.762a2.677,2.677,0,0,0,1.044-.144.556.556,0,0,0,.306-.558.683.683,0,0,0-.4-.567,7.526,7.526,0,0,0-1.206-.549,12.36,12.36,0,0,1-1.143-.486,3.36,3.36,0,0,1-.873-.6,2.439,2.439,0,0,1-.558-.837,3.1,3.1,0,0,1-.2-1.17,2.53,2.53,0,0,1,.99-2.106,4.306,4.306,0,0,1,2.718-.774,8.716,8.716,0,0,1,1.656.153,7.706,7.706,0,0,1,1.26.333l-.468,2.088a9.848,9.848,0,0,0-1.017-.288,5.527,5.527,0,0,0-1.233-.126q-1.26,0-1.26.7a.725.725,0,0,0,.054.288.615.615,0,0,0,.216.243,3.071,3.071,0,0,0,.441.253q.279.136.711.3a10.956,10.956,0,0,1,1.458.644,3.477,3.477,0,0,1,.909.686,2.118,2.118,0,0,1,.468.817,3.628,3.628,0,0,1,.135,1.042,2.4,2.4,0,0,1-1.053,2.119,5.251,5.251,0,0,1-2.979.718,8.562,8.562,0,0,1-2.1-.216,8.5,8.5,0,0,1-1.161-.36l.45-2.178a8.8,8.8,0,0,0,1.4.423A6.827,6.827,0,0,0,110.682-1.926Zm9.63.054q.4,0,.756-.018a5.26,5.26,0,0,0,.576-.054V-3.978q-.162-.036-.486-.072a5.413,5.413,0,0,0-.594-.036,5.316,5.316,0,0,0-.711.045,1.857,1.857,0,0,0-.585.171,1,1,0,0,0-.4.342.953.953,0,0,0-.144.54.92.92,0,0,0,.423.873A2.338,2.338,0,0,0,120.312-1.872ZM120.1-9.72a6.211,6.211,0,0,1,1.98.27,3.075,3.075,0,0,1,1.269.774,2.845,2.845,0,0,1,.675,1.224,6.038,6.038,0,0,1,.2,1.6V-.27q-.576.126-1.6.3A15.394,15.394,0,0,1,120.132.2a7.875,7.875,0,0,1-1.665-.162A3.614,3.614,0,0,1,117.18-.5a2.43,2.43,0,0,1-.828-.963,3.324,3.324,0,0,1-.288-1.458,2.763,2.763,0,0,1,.333-1.4,2.563,2.563,0,0,1,.891-.918,4.026,4.026,0,0,1,1.278-.5,7.169,7.169,0,0,1,1.494-.153,8.482,8.482,0,0,1,.927.045,4.126,4.126,0,0,1,.657.117v-.252a1.484,1.484,0,0,0-.414-1.1,2,2,0,0,0-1.44-.414,9.169,9.169,0,0,0-1.35.1,5.791,5.791,0,0,0-1.152.279l-.342-2.16q.234-.072.585-.153t.765-.144q.414-.063.873-.108T120.1-9.72ZM138.006-.5a4.435,4.435,0,0,1-1.044-.126,1.864,1.864,0,0,1-.864-.45,3.386,3.386,0,0,1-2,.558A4.674,4.674,0,0,1,132.453-.8a3.361,3.361,0,0,1-1.278-.837,3.891,3.891,0,0,1-.828-1.377,5.559,5.559,0,0,1-.3-1.9,4.831,4.831,0,0,1,.3-1.71A3.879,3.879,0,0,1,131.22-8a4.164,4.164,0,0,1,1.413-.927,4.984,4.984,0,0,1,1.9-.342,8.413,8.413,0,0,1,1.881.189,11.642,11.642,0,0,1,1.359.387v5.652a.712.712,0,0,0,.171.558.749.749,0,0,0,.495.144A1.118,1.118,0,0,0,139-2.5a1.268,1.268,0,0,0,.477-.585,4.663,4.663,0,0,0,.324-1.152,11.147,11.147,0,0,0,.126-1.845,5.252,5.252,0,0,0-.387-2.043,4.369,4.369,0,0,0-1.116-1.584,5.186,5.186,0,0,0-1.782-1.026,7.186,7.186,0,0,0-2.385-.369,6.223,6.223,0,0,0-2.349.432,5.369,5.369,0,0,0-1.854,1.233,5.634,5.634,0,0,0-1.224,1.953,7.2,7.2,0,0,0-.441,2.592,7.283,7.283,0,0,0,.432,2.619A5.012,5.012,0,0,0,130.059-.4,5.233,5.233,0,0,0,132,.747a8.03,8.03,0,0,0,2.583.387,11.775,11.775,0,0,0,1.7-.117q.8-.117,1.341-.225l.27,1.692a11.312,11.312,0,0,1-1.368.306,11.18,11.18,0,0,1-1.944.162,11.306,11.306,0,0,1-3.24-.45,7.2,7.2,0,0,1-2.637-1.4,6.6,6.6,0,0,1-1.773-2.439,8.852,8.852,0,0,1-.648-3.555,8.379,8.379,0,0,1,.684-3.5,7.538,7.538,0,0,1,1.8-2.511,7.457,7.457,0,0,1,2.547-1.512,8.8,8.8,0,0,1,2.943-.5,9.967,9.967,0,0,1,3.078.459,7.1,7.1,0,0,1,2.457,1.341,6.207,6.207,0,0,1,1.629,2.187,7.164,7.164,0,0,1,.594,3,8.836,8.836,0,0,1-.279,2.331,4.822,4.822,0,0,1-.81,1.7,3.584,3.584,0,0,1-1.269,1.044A3.727,3.727,0,0,1,138.006-.5Zm-2.538-2.142a2.543,2.543,0,0,1-.054-.423q-.018-.279-.018-.531V-7.272a3.848,3.848,0,0,0-.756-.072,2.418,2.418,0,0,0-1.008.189,1.741,1.741,0,0,0-.666.513,2.112,2.112,0,0,0-.369.765,3.748,3.748,0,0,0-.117.963,4.82,4.82,0,0,0,.09.963,2.039,2.039,0,0,0,.315.765,1.576,1.576,0,0,0,.6.513,2.081,2.081,0,0,0,.936.189,3.966,3.966,0,0,0,.612-.045A1.546,1.546,0,0,0,135.468-2.646Zm8.262-2.016a5.79,5.79,0,0,1,.387-2.2,4.727,4.727,0,0,1,1.017-1.575,4.231,4.231,0,0,1,1.449-.954,4.537,4.537,0,0,1,1.683-.324,4.183,4.183,0,0,1,3.186,1.233,5.08,5.08,0,0,1,1.17,3.627q0,.234-.018.513t-.036.495h-6.084a1.782,1.782,0,0,0,.774,1.314,3.111,3.111,0,0,0,1.836.486,7.751,7.751,0,0,0,1.449-.135A5.47,5.47,0,0,0,151.7-2.52l.36,2.178a3.7,3.7,0,0,1-.576.216,7.538,7.538,0,0,1-.8.189q-.441.081-.945.135a9.456,9.456,0,0,1-1.008.054,5.967,5.967,0,0,1-2.223-.378,4.33,4.33,0,0,1-1.566-1.035,4.108,4.108,0,0,1-.918-1.557A6.168,6.168,0,0,1,143.73-4.662Zm6.3-1.026a2.769,2.769,0,0,0-.117-.666,1.663,1.663,0,0,0-.306-.576,1.629,1.629,0,0,0-.522-.414,1.7,1.7,0,0,0-.783-.162,1.8,1.8,0,0,0-.774.153,1.6,1.6,0,0,0-.54.405,1.812,1.812,0,0,0-.333.585,3.838,3.838,0,0,0-.171.675Zm9.864.666a3.7,3.7,0,0,0-.333-1.836,1.235,1.235,0,0,0-1.143-.54q-.252,0-.522.027t-.522.063V0h-2.682V-9.144q.342-.09.8-.189t.972-.18q.513-.081,1.053-.126t1.062-.045a4.464,4.464,0,0,1,1.665.261A3.756,3.756,0,0,1,161.3-8.8a4.608,4.608,0,0,1,1.323-.648A4.633,4.633,0,0,1,164-9.684a4.729,4.729,0,0,1,1.863.315,2.808,2.808,0,0,1,1.161.891,3.371,3.371,0,0,1,.594,1.368,8.83,8.83,0,0,1,.162,1.764V0H165.1V-5.022a3.7,3.7,0,0,0-.333-1.836,1.235,1.235,0,0,0-1.143-.54,2.416,2.416,0,0,0-.6.108,2.352,2.352,0,0,0-.639.27,4.088,4.088,0,0,1,.162.873q.036.459.036.981V0h-2.682Zm16.38.36a3.245,3.245,0,0,0-.558-1.989A1.936,1.936,0,0,0,174.06-7.4q-.36,0-.666.027t-.5.063v4.842a2.33,2.33,0,0,0,.657.27,3.166,3.166,0,0,0,.819.108Q176.274-2.088,176.274-4.662Zm2.736-.072a6.937,6.937,0,0,1-.27,2,4.5,4.5,0,0,1-.792,1.548,3.576,3.576,0,0,1-1.3,1.008,4.182,4.182,0,0,1-1.782.36,4.807,4.807,0,0,1-1.044-.108,5.025,5.025,0,0,1-.936-.306V3.33h-2.682V-9.144q.36-.108.828-.207t.981-.171q.513-.072,1.044-.117t1.017-.045a5.815,5.815,0,0,1,2.088.351,4.291,4.291,0,0,1,1.548.99,4.244,4.244,0,0,1,.963,1.557A5.984,5.984,0,0,1,179.01-4.734Zm7.776-2.358q-.36-.09-.846-.189a5.228,5.228,0,0,0-1.044-.1,4.844,4.844,0,0,0-.6.045,3.549,3.549,0,0,0-.531.1V0H181.08V-8.964a16.11,16.11,0,0,1,1.7-.477,9.8,9.8,0,0,1,2.187-.225q.216,0,.522.027t.612.072q.306.045.612.108a2.88,2.88,0,0,1,.522.153Zm1.26,2.43a5.79,5.79,0,0,1,.387-2.2,4.727,4.727,0,0,1,1.017-1.575A4.231,4.231,0,0,1,190.9-9.4a4.537,4.537,0,0,1,1.683-.324,4.183,4.183,0,0,1,3.186,1.233,5.08,5.08,0,0,1,1.17,3.627q0,.234-.018.513t-.036.495H190.8a1.782,1.782,0,0,0,.774,1.314,3.111,3.111,0,0,0,1.836.486,7.751,7.751,0,0,0,1.449-.135,5.47,5.47,0,0,0,1.161-.333l.36,2.178a3.7,3.7,0,0,1-.576.216,7.538,7.538,0,0,1-.8.189q-.441.081-.945.135a9.456,9.456,0,0,1-1.008.054,5.967,5.967,0,0,1-2.223-.378,4.33,4.33,0,0,1-1.566-1.035,4.108,4.108,0,0,1-.918-1.557A6.168,6.168,0,0,1,188.046-4.662Zm6.3-1.026a2.769,2.769,0,0,0-.117-.666,1.663,1.663,0,0,0-.306-.576,1.629,1.629,0,0,0-.522-.414,1.7,1.7,0,0,0-.783-.162,1.8,1.8,0,0,0-.774.153,1.6,1.6,0,0,0-.54.405,1.812,1.812,0,0,0-.333.585,3.838,3.838,0,0,0-.171.675Zm7.38,3.762a2.677,2.677,0,0,0,1.044-.144.556.556,0,0,0,.306-.558.683.683,0,0,0-.4-.567,7.526,7.526,0,0,0-1.206-.549,12.359,12.359,0,0,1-1.143-.486,3.36,3.36,0,0,1-.873-.6,2.439,2.439,0,0,1-.558-.837,3.1,3.1,0,0,1-.2-1.17,2.53,2.53,0,0,1,.99-2.106,4.306,4.306,0,0,1,2.718-.774,8.716,8.716,0,0,1,1.656.153,7.706,7.706,0,0,1,1.26.333l-.468,2.088a9.848,9.848,0,0,0-1.017-.288,5.527,5.527,0,0,0-1.233-.126q-1.26,0-1.26.7a.725.725,0,0,0,.054.288.615.615,0,0,0,.216.243,3.072,3.072,0,0,0,.441.253q.279.136.711.3a10.955,10.955,0,0,1,1.458.644,3.477,3.477,0,0,1,.909.686,2.117,2.117,0,0,1,.468.817,3.627,3.627,0,0,1,.135,1.042,2.4,2.4,0,0,1-1.053,2.119,5.251,5.251,0,0,1-2.979.718,8.562,8.562,0,0,1-2.1-.216,8.5,8.5,0,0,1-1.161-.36L198.9-2.5a8.8,8.8,0,0,0,1.4.423A6.827,6.827,0,0,0,201.726-1.926Zm9.63.054q.4,0,.756-.018a5.26,5.26,0,0,0,.576-.054V-3.978q-.162-.036-.486-.072a5.413,5.413,0,0,0-.594-.036,5.316,5.316,0,0,0-.711.045,1.857,1.857,0,0,0-.585.171,1,1,0,0,0-.4.342.953.953,0,0,0-.144.54.92.92,0,0,0,.423.873A2.338,2.338,0,0,0,211.356-1.872ZM211.14-9.72a6.211,6.211,0,0,1,1.98.27,3.075,3.075,0,0,1,1.269.774,2.845,2.845,0,0,1,.675,1.224,6.037,6.037,0,0,1,.2,1.6V-.27q-.576.126-1.6.3A15.394,15.394,0,0,1,211.176.2a7.875,7.875,0,0,1-1.665-.162A3.614,3.614,0,0,1,208.224-.5a2.43,2.43,0,0,1-.828-.963,3.324,3.324,0,0,1-.288-1.458,2.763,2.763,0,0,1,.333-1.4,2.563,2.563,0,0,1,.891-.918,4.026,4.026,0,0,1,1.278-.5,7.169,7.169,0,0,1,1.494-.153,8.482,8.482,0,0,1,.927.045,4.126,4.126,0,0,1,.657.117v-.252a1.484,1.484,0,0,0-.414-1.1,2,2,0,0,0-1.44-.414,9.169,9.169,0,0,0-1.35.1,5.791,5.791,0,0,0-1.152.279l-.342-2.16q.234-.072.585-.153t.765-.144q.414-.063.873-.108T211.14-9.72Zm9.18,8.3a1.506,1.506,0,0,1-.513,1.233,1.776,1.776,0,0,1-1.161.423,1.776,1.776,0,0,1-1.161-.423,1.506,1.506,0,0,1-.513-1.233,1.506,1.506,0,0,1,.513-1.233,1.776,1.776,0,0,1,1.161-.423,1.776,1.776,0,0,1,1.161.423A1.506,1.506,0,0,1,220.32-1.422Zm.81-3.312a5.581,5.581,0,0,1,.333-1.935,4.624,4.624,0,0,1,.963-1.584,4.6,4.6,0,0,1,1.53-1.071,5.048,5.048,0,0,1,2.052-.4,6.623,6.623,0,0,1,1.386.135,6.747,6.747,0,0,1,1.224.387l-.558,2.142a6.759,6.759,0,0,0-.828-.252,4.327,4.327,0,0,0-1.008-.108,2.125,2.125,0,0,0-1.773.738,3.038,3.038,0,0,0-.585,1.944,3.147,3.147,0,0,0,.549,1.98,2.3,2.3,0,0,0,1.917.7,6.577,6.577,0,0,0,1.044-.09A4.438,4.438,0,0,0,228.4-2.43l.378,2.2a6.292,6.292,0,0,1-1.17.342,7.718,7.718,0,0,1-1.548.144,5.827,5.827,0,0,1-2.232-.387,4.2,4.2,0,0,1-1.539-1.053,4.108,4.108,0,0,1-.882-1.575A6.688,6.688,0,0,1,221.13-4.734Zm17.856-.018a6.157,6.157,0,0,1-.324,2.043,4.439,4.439,0,0,1-.936,1.584,4.213,4.213,0,0,1-1.467,1.017,4.9,4.9,0,0,1-1.917.36,4.847,4.847,0,0,1-1.9-.36,4.213,4.213,0,0,1-1.467-1.017,4.657,4.657,0,0,1-.954-1.584,5.862,5.862,0,0,1-.342-2.043,5.654,5.654,0,0,1,.351-2.034A4.612,4.612,0,0,1,231-8.352a4.365,4.365,0,0,1,1.476-1.008,4.752,4.752,0,0,1,1.863-.36,4.8,4.8,0,0,1,1.881.36,4.271,4.271,0,0,1,1.467,1.008,4.575,4.575,0,0,1,.954,1.566A5.787,5.787,0,0,1,238.986-4.752Zm-2.736,0a3.372,3.372,0,0,0-.5-1.953,1.619,1.619,0,0,0-1.413-.711,1.641,1.641,0,0,0-1.422.711,3.326,3.326,0,0,0-.5,1.953,3.413,3.413,0,0,0,.5,1.971,1.629,1.629,0,0,0,1.422.729,1.607,1.607,0,0,0,1.413-.729A3.46,3.46,0,0,0,236.25-4.752Zm10.008-.27a3.7,3.7,0,0,0-.333-1.836,1.235,1.235,0,0,0-1.143-.54q-.252,0-.522.027t-.522.063V0h-2.682V-9.144q.342-.09.8-.189t.972-.18q.513-.081,1.053-.126t1.062-.045a4.464,4.464,0,0,1,1.665.261,3.756,3.756,0,0,1,1.053.621,4.608,4.608,0,0,1,1.323-.648,4.633,4.633,0,0,1,1.377-.234,4.729,4.729,0,0,1,1.863.315,2.808,2.808,0,0,1,1.161.891,3.371,3.371,0,0,1,.594,1.368,8.83,8.83,0,0,1,.162,1.764V0H251.46V-5.022a3.7,3.7,0,0,0-.333-1.836,1.235,1.235,0,0,0-1.143-.54,2.416,2.416,0,0,0-.6.108,2.352,2.352,0,0,0-.639.27,4.088,4.088,0,0,1,.162.873q.036.459.036.981V0h-2.682Z" transform="translate(545 3996)" fill="#0074FF"/><path d="M5.1-9.648A4.762,4.762,0,0,1,5.555-10q.271-.189.551-.378a6.2,6.2,0,0,1,.569-.342,3.42,3.42,0,0,1,.506-.225l.434-.144.72,2.232L7.9-8.712a3.078,3.078,0,0,1-.542.108q-.307.036-.65.045t-.668.009H5.463q.217.144.479.333t.524.4q.262.207.5.423a2.889,2.889,0,0,1,.38.414l.289.378L5.724-5.256l-.272-.36a2.342,2.342,0,0,1-.281-.468q-.136-.288-.263-.6T4.69-7.308q-.091-.306-.163-.558-.071.252-.161.558t-.214.621q-.125.315-.259.6a2.353,2.353,0,0,1-.277.468l-.268.36L1.44-6.606l.287-.378A2.885,2.885,0,0,1,2.1-7.4q.233-.216.493-.423t.52-.4q.26-.189.475-.333H3.017q-.323,0-.664-.009T1.707-8.6a3.05,3.05,0,0,1-.538-.108L.738-8.856l.72-2.232.43.144a3.366,3.366,0,0,1,.5.225,6.166,6.166,0,0,1,.565.342q.278.189.538.378t.457.351q-.089-.234-.186-.549t-.186-.639q-.089-.324-.151-.639a2.894,2.894,0,0,1-.062-.549v-.45h2.34v.45a2.809,2.809,0,0,1-.064.549q-.064.315-.155.639t-.192.639Q5.194-9.882,5.1-9.648Zm9.036,0A4.761,4.761,0,0,1,14.591-10q.271-.189.551-.378a6.2,6.2,0,0,1,.569-.342,3.42,3.42,0,0,1,.506-.225l.434-.144.72,2.232-.433.144A3.078,3.078,0,0,1,16.4-8.6q-.307.036-.65.045t-.668.009H14.5q.217.144.479.333t.524.4q.262.207.5.423a2.889,2.889,0,0,1,.38.414l.289.378L14.76-5.256l-.272-.36a2.342,2.342,0,0,1-.281-.468q-.136-.288-.263-.6t-.218-.621q-.091-.306-.163-.558-.071.252-.161.558t-.214.621q-.125.315-.259.6a2.353,2.353,0,0,1-.277.468l-.268.36-1.908-1.35.287-.378a2.885,2.885,0,0,1,.376-.414q.233-.216.493-.423t.52-.4q.26-.189.475-.333h-.574q-.323,0-.664-.009T10.743-8.6a3.05,3.05,0,0,1-.538-.108l-.431-.144.72-2.232.43.144a3.366,3.366,0,0,1,.5.225,6.166,6.166,0,0,1,.565.342q.278.189.538.378t.457.351Q12.9-9.882,12.8-10.2t-.186-.639q-.089-.324-.151-.639a2.894,2.894,0,0,1-.062-.549v-.45h2.34v.45a2.808,2.808,0,0,1-.064.549q-.064.315-.155.639t-.192.639Q14.23-9.882,14.139-9.648Zm9.036,0A4.762,4.762,0,0,1,23.627-10q.271-.189.551-.378a6.2,6.2,0,0,1,.569-.342,3.419,3.419,0,0,1,.506-.225l.434-.144.72,2.232-.433.144a3.078,3.078,0,0,1-.542.108q-.307.036-.65.045t-.668.009h-.578q.217.144.479.333t.524.4q.262.207.5.423a2.889,2.889,0,0,1,.38.414l.289.378L23.8-5.256l-.272-.36a2.342,2.342,0,0,1-.281-.468q-.136-.288-.263-.6t-.218-.621q-.091-.306-.163-.558-.071.252-.161.558t-.214.621q-.125.315-.259.6a2.353,2.353,0,0,1-.277.468l-.268.36-1.908-1.35.287-.378a2.885,2.885,0,0,1,.376-.414q.233-.216.493-.423t.52-.4q.26-.189.475-.333h-.574q-.323,0-.664-.009T19.779-8.6a3.05,3.05,0,0,1-.538-.108l-.431-.144.72-2.232.43.144a3.366,3.366,0,0,1,.5.225,6.166,6.166,0,0,1,.565.342q.278.189.538.378t.457.351q-.089-.234-.186-.549t-.186-.639q-.089-.324-.151-.639a2.894,2.894,0,0,1-.062-.549v-.45h2.34v.45a2.808,2.808,0,0,1-.064.549q-.064.315-.155.639t-.192.639Q23.266-9.882,23.175-9.648Zm9.036,0A4.761,4.761,0,0,1,32.663-10q.271-.189.551-.378a6.2,6.2,0,0,1,.569-.342,3.42,3.42,0,0,1,.506-.225l.434-.144.72,2.232-.433.144a3.078,3.078,0,0,1-.542.108q-.307.036-.65.045t-.668.009h-.578q.217.144.479.333t.524.4q.262.207.5.423a2.889,2.889,0,0,1,.38.414l.289.378-1.908,1.35-.272-.36a2.342,2.342,0,0,1-.281-.468q-.136-.288-.263-.6T31.8-7.308q-.091-.306-.163-.558-.071.252-.161.558t-.214.621q-.125.315-.259.6a2.353,2.353,0,0,1-.277.468l-.268.36-1.908-1.35.287-.378a2.885,2.885,0,0,1,.376-.414q.233-.216.493-.423t.52-.4q.26-.189.475-.333h-.574q-.323,0-.664-.009T28.815-8.6a3.05,3.05,0,0,1-.538-.108l-.431-.144.72-2.232.43.144a3.366,3.366,0,0,1,.5.225,6.166,6.166,0,0,1,.565.342q.278.189.538.378t.457.351q-.089-.234-.186-.549t-.186-.639q-.089-.324-.151-.639a2.894,2.894,0,0,1-.062-.549v-.45h2.34v.45a2.809,2.809,0,0,1-.064.549q-.064.315-.155.639T32.4-10.2Q32.3-9.882,32.211-9.648Zm9.036,0A4.761,4.761,0,0,1,41.7-10q.271-.189.551-.378a6.2,6.2,0,0,1,.569-.342,3.42,3.42,0,0,1,.506-.225l.434-.144.72,2.232-.433.144A3.078,3.078,0,0,1,43.5-8.6q-.307.036-.65.045t-.668.009h-.578q.217.144.479.333t.524.4q.262.207.5.423a2.889,2.889,0,0,1,.38.414l.289.378-1.908,1.35-.272-.36a2.342,2.342,0,0,1-.281-.468q-.136-.288-.263-.6t-.218-.621q-.091-.306-.163-.558-.071.252-.161.558t-.214.621q-.125.315-.259.6a2.353,2.353,0,0,1-.277.468l-.268.36-1.908-1.35.287-.378a2.884,2.884,0,0,1,.376-.414q.233-.216.493-.423t.52-.4q.26-.189.475-.333h-.574q-.323,0-.664-.009T37.851-8.6a3.05,3.05,0,0,1-.538-.108l-.431-.144.72-2.232.43.144a3.366,3.366,0,0,1,.5.225,6.166,6.166,0,0,1,.565.342q.278.189.538.378t.457.351q-.089-.234-.186-.549t-.186-.639q-.089-.324-.151-.639a2.894,2.894,0,0,1-.062-.549v-.45h2.34v.45a2.808,2.808,0,0,1-.064.549q-.064.315-.155.639t-.192.639Q41.338-9.882,41.247-9.648Zm9.036,0A4.761,4.761,0,0,1,50.735-10q.271-.189.551-.378a6.2,6.2,0,0,1,.569-.342,3.42,3.42,0,0,1,.506-.225l.434-.144.72,2.232-.433.144a3.078,3.078,0,0,1-.542.108q-.307.036-.65.045t-.668.009h-.578q.217.144.479.333t.524.4q.262.207.5.423a2.889,2.889,0,0,1,.38.414l.289.378L50.9-5.256l-.272-.36a2.342,2.342,0,0,1-.281-.468q-.136-.288-.263-.6t-.218-.621q-.091-.306-.163-.558-.071.252-.161.558t-.214.621q-.125.315-.259.6a2.353,2.353,0,0,1-.277.468l-.268.36L46.62-6.606l.287-.378a2.884,2.884,0,0,1,.376-.414q.233-.216.493-.423t.52-.4q.26-.189.475-.333H48.2q-.323,0-.664-.009T46.887-8.6a3.05,3.05,0,0,1-.538-.108l-.431-.144.72-2.232.43.144a3.366,3.366,0,0,1,.5.225,6.166,6.166,0,0,1,.565.342q.278.189.538.378t.457.351q-.089-.234-.186-.549t-.186-.639q-.089-.324-.151-.639a2.894,2.894,0,0,1-.062-.549v-.45h2.34v.45a2.809,2.809,0,0,1-.064.549q-.064.315-.155.639t-.192.639Q50.374-9.882,50.283-9.648Zm9.036,0A4.761,4.761,0,0,1,59.771-10q.271-.189.551-.378a6.2,6.2,0,0,1,.569-.342,3.42,3.42,0,0,1,.506-.225l.434-.144.72,2.232-.433.144a3.078,3.078,0,0,1-.542.108q-.307.036-.65.045t-.668.009h-.578q.217.144.479.333t.524.4q.262.207.5.423a2.889,2.889,0,0,1,.38.414l.289.378L59.94-5.256l-.272-.36a2.342,2.342,0,0,1-.281-.468q-.136-.288-.263-.6t-.218-.621q-.091-.306-.163-.558-.071.252-.161.558t-.214.621q-.125.315-.259.6a2.353,2.353,0,0,1-.277.468l-.268.36-1.908-1.35.287-.378a2.884,2.884,0,0,1,.376-.414q.233-.216.493-.423t.52-.4q.26-.189.475-.333h-.574q-.323,0-.664-.009T55.923-8.6a3.05,3.05,0,0,1-.538-.108l-.431-.144.72-2.232.43.144a3.366,3.366,0,0,1,.5.225,6.166,6.166,0,0,1,.565.342q.278.189.538.378t.457.351q-.089-.234-.186-.549t-.186-.639q-.089-.324-.151-.639a2.894,2.894,0,0,1-.062-.549v-.45h2.34v.45a2.808,2.808,0,0,1-.064.549q-.064.315-.155.639t-.192.639Q59.41-9.882,59.319-9.648Zm9.036,0A4.762,4.762,0,0,1,68.807-10q.271-.189.551-.378a6.2,6.2,0,0,1,.569-.342,3.42,3.42,0,0,1,.506-.225l.434-.144.72,2.232-.433.144a3.078,3.078,0,0,1-.542.108q-.307.036-.65.045t-.668.009h-.578q.217.144.479.333t.524.4q.262.207.5.423a2.889,2.889,0,0,1,.38.414l.289.378-1.908,1.35-.272-.36a2.342,2.342,0,0,1-.281-.468q-.136-.288-.263-.6t-.218-.621q-.091-.306-.163-.558-.071.252-.161.558t-.214.621q-.125.315-.259.6a2.353,2.353,0,0,1-.277.468l-.268.36-1.908-1.35.287-.378a2.885,2.885,0,0,1,.376-.414q.233-.216.493-.423t.52-.4q.26-.189.475-.333h-.574q-.323,0-.664-.009T64.959-8.6a3.051,3.051,0,0,1-.538-.108l-.431-.144.72-2.232.43.144a3.366,3.366,0,0,1,.5.225,6.166,6.166,0,0,1,.565.342q.278.189.538.378t.457.351q-.089-.234-.186-.549t-.186-.639q-.089-.324-.151-.639a2.894,2.894,0,0,1-.062-.549v-.45h2.34v.45a2.808,2.808,0,0,1-.064.549q-.064.315-.155.639t-.192.639Q68.446-9.882,68.355-9.648Z" transform="translate(545 4063)" fill="#0074FF"/></g><path d="M-49.887-1.09a1.026,1.026,0,0,1,.044-.29.2.2,0,0,1,.22-.149,2.565,2.565,0,0,1,.448.1q.36.1.782.22t.826.229A4.735,4.735,0,0,0-47-.861h.088a4.522,4.522,0,0,0,1.564-.29,5.012,5.012,0,0,0,1.441-.817A4.58,4.58,0,0,0-42.847-3.19a2.888,2.888,0,0,0,.413-1.5,3.268,3.268,0,0,0-.246-1.239A5.41,5.41,0,0,0-43.339-7.1a6.194,6.194,0,0,0-.967-1.037,9.166,9.166,0,0,0-1.169-.853,8.992,8.992,0,0,0-1.248-.642A5.918,5.918,0,0,0-47.936-10a14.3,14.3,0,0,0,.185,2.127q.167,1,.334,1.925t.255,1.8a7.351,7.351,0,0,1,0,1.758v.22a.633.633,0,0,1-.044.229.4.4,0,0,1-.141.185.393.393,0,0,1-.237.07.266.266,0,0,1-.4-.105A2.172,2.172,0,0,1-48.2-2.54a10.635,10.635,0,0,1-.088-1.187q-.018-.686-.062-1.433t-.114-1.468a8.319,8.319,0,0,0-.229-1.318q-.035-.211-.088-.545t-.141-.694a6.011,6.011,0,0,0-.2-.668,1.479,1.479,0,0,0-.237-.448q-1.266,0-2.021.079a10.064,10.064,0,0,0-1.2.185,2.641,2.641,0,0,0-.65.22q-.2.114-.36.185l-.035.018a.135.135,0,0,1-.053.018q-.035,0-.035-.018a.051.051,0,0,0-.035-.018.191.191,0,0,1-.035-.07l-.044-.132q-.026-.079-.053-.167a.512.512,0,0,1-.026-.123v-.07a.507.507,0,0,1,.255-.422,2.446,2.446,0,0,1,.633-.3,6.016,6.016,0,0,1,.835-.2q.457-.079.853-.114l.668-.062q.272-.026.29-.026a9.876,9.876,0,0,1,1.916.2,11.937,11.937,0,0,1,2.013.589,11.088,11.088,0,0,1,1.9.958,8.161,8.161,0,0,1,1.6,1.31,6.009,6.009,0,0,1,1.107,1.652,4.724,4.724,0,0,1,.413,1.969,4.8,4.8,0,0,1-.3,1.74,4.287,4.287,0,0,1-.826,1.354,4.889,4.889,0,0,1-1.23.976,5.651,5.651,0,0,1-1.494.58,7.132,7.132,0,0,1-1.626.185A6.823,6.823,0,0,1-48.533,0q-.158-.053-.387-.149a4.527,4.527,0,0,1-.448-.22,1.262,1.262,0,0,1-.369-.308A.64.64,0,0,1-49.887-1.09Zm9.3-3.621a5.6,5.6,0,0,1,.272-1.749,4.485,4.485,0,0,1,.791-1.468,3.881,3.881,0,0,1,1.266-1.011,3.786,3.786,0,0,1,1.731-.378A2.663,2.663,0,0,1-35.517-9a2.293,2.293,0,0,1,.7.606,2.342,2.342,0,0,1,.4.835,4.372,4.372,0,0,1,.105.984,1.9,1.9,0,0,1-.369,1.143,3.174,3.174,0,0,1-.932.853,4.878,4.878,0,0,1-1.213.527,4.458,4.458,0,0,1-1.213.185h-.431a1.057,1.057,0,0,1-.4-.07.64.64,0,0,1-.281-.211.7.7,0,0,1-.105-.422.379.379,0,0,1,.026-.149q.026-.062.149-.088a1.421,1.421,0,0,1,.369-.009q.246.035.668.105a2.323,2.323,0,0,0,.712-.167,6.73,6.73,0,0,0,.949-.431,3.778,3.778,0,0,0,.835-.606.972.972,0,0,0,.352-.677,2.183,2.183,0,0,0-.114-.694,1.77,1.77,0,0,0-.343-.606,1.782,1.782,0,0,0-.536-.422,1.242,1.242,0,0,0-.694-.123A2.727,2.727,0,0,0-38-8.1a2.838,2.838,0,0,0-.853.729,3.488,3.488,0,0,0-.545.993,3.391,3.391,0,0,0-.193,1.143q0,.457.018.914a4.192,4.192,0,0,0,.132.9,2.985,2.985,0,0,0,.369.844,2.328,2.328,0,0,0,.738.712,4.483,4.483,0,0,0,1.222.51,8.625,8.625,0,0,0,1.828.255l3.146-.211a2.245,2.245,0,0,1-.712.633,4.536,4.536,0,0,1-.914.4,6.437,6.437,0,0,1-.958.22,6.13,6.13,0,0,1-.9.07,5.444,5.444,0,0,1-1.916-.334,4.994,4.994,0,0,1-1.582-.94,4.344,4.344,0,0,1-1.081-1.477A4.685,4.685,0,0,1-40.588-4.711ZM-25.7-5.59q.369,0,.316.352a.24.24,0,0,1-.009.36,1.085,1.085,0,0,1-.554.246,4.591,4.591,0,0,1-.967.07,6.849,6.849,0,0,1-1.266-.149,2.624,2.624,0,0,0,.308,1.248,10.538,10.538,0,0,0,.677,1.107q.369.527.686,1.02a1.809,1.809,0,0,1,.316.984.3.3,0,0,1-.141.3.575.575,0,0,1-.316.07.7.7,0,0,1-.378-.132A1.752,1.752,0,0,1-27.4-.439a4.084,4.084,0,0,1-.308-.4q-.123-.211-.193-.352l-.2-.4-.308-.615q-.176-.352-.352-.729t-.343-.729q-.167-.352-.29-.633a3.731,3.731,0,0,1-.193-.4l-.193-.193a1.994,1.994,0,0,1-.325.079q-.237.044-.5.1t-.51.105a1.937,1.937,0,0,1-.352.053h-.088a.2.2,0,0,1-.193-.1A.49.49,0,0,1-31.8-4.9a.536.536,0,0,1,.211-.457,1.356,1.356,0,0,1,.51-.229,4.206,4.206,0,0,1,.624-.1l.536-.044q-.035-.527-.053-1.248a10.883,10.883,0,0,1,.07-1.494,10.239,10.239,0,0,1,.29-1.521,4.887,4.887,0,0,1,.58-1.345,3.08,3.08,0,0,1,.958-.967,2.6,2.6,0,0,1,1.424-.369,2.688,2.688,0,0,1,1.037.237,4.414,4.414,0,0,1,1.046.624,3.73,3.73,0,0,1,.8.87,1.767,1.767,0,0,1,.316.976h-.4a.872.872,0,0,1-.624-.264q-.272-.264-.571-.589a5.424,5.424,0,0,0-.633-.589,1.188,1.188,0,0,0-.756-.264,2.271,2.271,0,0,0-1.09.264,2.708,2.708,0,0,0-.844.7,3.071,3.071,0,0,0-.527.984,3.586,3.586,0,0,0-.176,1.107v.176l.316,2.514a.421.421,0,0,0,.193.062q.158.026.5.07t.914.1Q-26.578-5.643-25.7-5.59Zm1.951-.492v-.264q0-.193.009-.4t.009-.4v-.264q-.07-.545.316-.545a.5.5,0,0,1,.3.088.863.863,0,0,1,.229.264,8.377,8.377,0,0,0,.079,1.767q.132.853.3,1.688t.316,1.679a10.067,10.067,0,0,1,.149,1.758.942.942,0,0,1-.149.492.49.49,0,0,1-.448.246q-.229,0-.4-.4a5.361,5.361,0,0,1-.29-1q-.123-.606-.211-1.345t-.132-1.415q-.044-.677-.062-1.213T-23.748-6.082Zm-.9-4.412q0-.211.123-.272a.708.708,0,0,1,.316-.062.473.473,0,0,1,.325.149,1.565,1.565,0,0,1,.334.378.92.92,0,0,1,.149.387q.018.211-.264.246h-.088a2.3,2.3,0,0,1-.439-.035.617.617,0,0,1-.272-.114.452.452,0,0,1-.141-.237A1.719,1.719,0,0,1-24.645-10.494ZM-21.2-6.855a.191.191,0,0,1,.114-.2A.705.705,0,0,1-20.83-7.1a.185.185,0,0,1,.149.053.3.3,0,0,1,.062.123.517.517,0,0,0,.053.132.13.13,0,0,0,.123.062,1.3,1.3,0,0,0,.6-.193l.765-.422A8.722,8.722,0,0,1-18.2-7.77a2.393,2.393,0,0,1,.923-.193,2.06,2.06,0,0,1,1.1.308,3.364,3.364,0,0,1,.9.817A5.5,5.5,0,0,1-14.607-5.7,10.354,10.354,0,0,1-14.133-4.4a9.043,9.043,0,0,1,.281,1.283,7.9,7.9,0,0,1,.088,1.081q0,.158-.026.475a5.865,5.865,0,0,1-.088.633,1.723,1.723,0,0,1-.2.554.408.408,0,0,1-.352.237q-.035,0-.123-.009a.934.934,0,0,1-.176-.035.718.718,0,0,1-.149-.062.114.114,0,0,1-.062-.105,10.224,10.224,0,0,0,0-2.54,8.961,8.961,0,0,0-.51-2.083A4.262,4.262,0,0,0-16.312-6.4a1.507,1.507,0,0,0-1.09-.527,2.912,2.912,0,0,0-1.02.176,2.39,2.39,0,0,0-.826.51,2.393,2.393,0,0,0-.554.809A2.619,2.619,0,0,0-20-4.395,5.952,5.952,0,0,0-19.9-3.278q.105.554.237,1.107t.237,1.116A6.092,6.092,0,0,1-19.318.07a1.031,1.031,0,0,1-.826-.4,3.086,3.086,0,0,1-.536-1.037A8.852,8.852,0,0,1-21-2.795q-.114-.791-.158-1.556T-21.2-5.792Zm8.1,3.885a2.188,2.188,0,0,1,.176-.686,2.607,2.607,0,0,1,.492-.756,3.376,3.376,0,0,1,.844-.659,3.738,3.738,0,0,1,1.2-.413A5.436,5.436,0,0,1-8.8-5.5a8.252,8.252,0,0,1,1.978.527V-5.15l-.018-.158A1.91,1.91,0,0,0-7.1-6.24a3.366,3.366,0,0,0-.677-.853,3.89,3.89,0,0,0-.888-.615,2.042,2.042,0,0,0-.914-.237.825.825,0,0,0-.308.053,1.5,1.5,0,0,0-.255.132q-.123.079-.237.141a.567.567,0,0,1-.272.062q-.035,0-.035-.018l-.035-.035q-.035-.035-.1-.088t-.062-.07a1.206,1.206,0,0,1,.114-.545.969.969,0,0,1,.316-.369,1.651,1.651,0,0,1,.457-.22,1.8,1.8,0,0,1,.536-.079,3.416,3.416,0,0,1,1.345.431,5.264,5.264,0,0,1,1.178.905,6.016,6.016,0,0,1,.94,1.257,9.319,9.319,0,0,1,.677,1.477,6.889,6.889,0,0,1,.36,1.538,5.965,5.965,0,0,1,.018,1.512l-.105-.009-.193-.018a1.128,1.128,0,0,1-.176-.026L-5.5-1.934A5.12,5.12,0,0,0-6.328-3.27a4.6,4.6,0,0,0-.905-.8,3.275,3.275,0,0,0-.835-.4q-.387-.114-.633-.167-.264,0-.624.035a6.006,6.006,0,0,0-.747.123,5.938,5.938,0,0,0-.782.237,3.3,3.3,0,0,0-.7.36,1.739,1.739,0,0,0-.492.5,1.233,1.233,0,0,0-.185.677A.907.907,0,0,0-11.9-2a2.728,2.728,0,0,0,.809.475,4.362,4.362,0,0,0,.967.255,5.872,5.872,0,0,0,.791.07,8.749,8.749,0,0,0,.967-.053q.475-.053.94-.123t.923-.123a7.968,7.968,0,0,1,.914-.053h.123q.088,0,.185.009t.176.009h.114a.215.215,0,0,1,.158.158,1.281,1.281,0,0,1,.018.211q0,.105-.22.229a3.681,3.681,0,0,1-.571.246q-.352.123-.782.255t-.826.22q-.4.088-.738.149A3.2,3.2,0,0,1-8.437,0,10.64,10.64,0,0,1-10-.123a5.343,5.343,0,0,1-1.512-.448,3.074,3.074,0,0,1-1.134-.905A2.374,2.374,0,0,1-13.1-2.971ZM2.6-6.258q.018-.053.053-.132a1.01,1.01,0,0,1,.1-.167,1.117,1.117,0,0,1,.123-.149.2.2,0,0,1,.149-.062q.018,0,.018.009t.035.009h.035a1.751,1.751,0,0,1,.668.554,4.377,4.377,0,0,1,.466.817q.2.457.378.976t.4,1.02a7.433,7.433,0,0,0,.519.976,3.432,3.432,0,0,0,.756.844q.158-.527.316-1.028T6.97-3.6q.2-.51.475-1.055t.624-1.178a2.922,2.922,0,0,1,.677-.211.439.439,0,0,1,.36.062.249.249,0,0,1,.035.29,1.571,1.571,0,0,1-.3.457,1.68,1.68,0,0,0-.325.563q-.185.439-.4,1.037T7.673-2.391q-.237.65-.483,1.187a6.309,6.309,0,0,1-.483.888Q6.469.035,6.24.018q-.246,0-.554-.378a7.953,7.953,0,0,1-.659-.976q-.352-.6-.7-1.31T3.647-4.061l-.6-1.292Q2.777-5.941,2.6-6.258ZM9.773-2.971a2.188,2.188,0,0,1,.176-.686,2.607,2.607,0,0,1,.492-.756,3.376,3.376,0,0,1,.844-.659,3.738,3.738,0,0,1,1.2-.413A5.436,5.436,0,0,1,14.071-5.5a8.252,8.252,0,0,1,1.978.527V-5.15l-.018-.158a1.91,1.91,0,0,0-.264-.932,3.366,3.366,0,0,0-.677-.853,3.89,3.89,0,0,0-.888-.615,2.042,2.042,0,0,0-.914-.237.825.825,0,0,0-.308.053,1.5,1.5,0,0,0-.255.132q-.123.079-.237.141a.567.567,0,0,1-.272.062q-.035,0-.035-.018l-.035-.035q-.035-.035-.1-.088t-.062-.07a1.206,1.206,0,0,1,.114-.545.969.969,0,0,1,.316-.369,1.651,1.651,0,0,1,.457-.22,1.8,1.8,0,0,1,.536-.079,3.416,3.416,0,0,1,1.345.431,5.264,5.264,0,0,1,1.178.905,6.016,6.016,0,0,1,.94,1.257,9.319,9.319,0,0,1,.677,1.477,6.889,6.889,0,0,1,.36,1.538,5.965,5.965,0,0,1,.018,1.512l-.105-.009-.193-.018a1.128,1.128,0,0,1-.176-.026l-.088-.018a5.12,5.12,0,0,0-.826-1.336,4.6,4.6,0,0,0-.905-.8,3.275,3.275,0,0,0-.835-.4q-.387-.114-.633-.167-.264,0-.624.035a6.006,6.006,0,0,0-.747.123,5.938,5.938,0,0,0-.782.237,3.3,3.3,0,0,0-.7.36,1.739,1.739,0,0,0-.492.5,1.233,1.233,0,0,0-.185.677A.907.907,0,0,0,10.969-2a2.728,2.728,0,0,0,.809.475,4.362,4.362,0,0,0,.967.255,5.872,5.872,0,0,0,.791.07,8.749,8.749,0,0,0,.967-.053q.475-.053.94-.123t.923-.123a7.968,7.968,0,0,1,.914-.053H17.4q.088,0,.185.009t.176.009h.114a.215.215,0,0,1,.158.158,1.281,1.281,0,0,1,.018.211q0,.105-.22.229a3.681,3.681,0,0,1-.571.246q-.352.123-.782.255t-.826.22q-.4.088-.738.149A3.2,3.2,0,0,1,14.432,0a10.64,10.64,0,0,1-1.564-.123,5.343,5.343,0,0,1-1.512-.448,3.074,3.074,0,0,1-1.134-.905A2.374,2.374,0,0,1,9.773-2.971Zm9.492,2.83a23.9,23.9,0,0,1-.22-2.487Q19-3.867,19-5.115t.035-2.479q.035-1.23.018-2.461a.2.2,0,0,1,.105-.193.544.544,0,0,1,.246-.053.4.4,0,0,1,.281.114,1.041,1.041,0,0,1,.211.281,1.581,1.581,0,0,1,.132.334,1.121,1.121,0,0,1,.044.272q.105,2.514.141,4.192t0,2.707A13.431,13.431,0,0,1,20.1-.879a1.761,1.761,0,0,1-.2.668.273.273,0,0,1-.29.141Zm1.775-3.445a3.28,3.28,0,0,1,.422-1.687A3.91,3.91,0,0,1,22.57-6.486a4.837,4.837,0,0,1,1.538-.729,6.365,6.365,0,0,1,1.714-.237,2.169,2.169,0,0,1,.853.167,3.173,3.173,0,0,1,.756.457,3.652,3.652,0,0,1,.642.668,5.219,5.219,0,0,1,.483.782,4.086,4.086,0,0,1,.308.817,3.229,3.229,0,0,1,.105.8,3.529,3.529,0,0,1-.352,1.6,3.545,3.545,0,0,1-.949,1.187,4.335,4.335,0,0,1-1.354.738,4.81,4.81,0,0,1-1.547.255,4.183,4.183,0,0,1-1.485-.255A3.62,3.62,0,0,1,22.1-.949a3.141,3.141,0,0,1-.782-1.134A3.88,3.88,0,0,1,21.041-3.586Zm.861-.141a2.769,2.769,0,0,0,.2,1.046,2.651,2.651,0,0,0,.563.87,2.737,2.737,0,0,0,.853.589A2.558,2.558,0,0,0,24.574-1a1.826,1.826,0,0,0,.729-.1,3.982,3.982,0,0,0,.861-.387,5.036,5.036,0,0,0,.826-.615,3.641,3.641,0,0,0,.659-.791,2.275,2.275,0,0,0,.325-.9,1.644,1.644,0,0,0-.158-.932,2.487,2.487,0,0,0-.8-.9,6.323,6.323,0,0,0-1.6-.8,4.653,4.653,0,0,0-1.2.167,3.886,3.886,0,0,0-1.134.5,2.9,2.9,0,0,0-.844.844A2.1,2.1,0,0,0,21.9-3.727ZM31.412,0a9.558,9.558,0,0,1-.668-1.529A16.877,16.877,0,0,1,30.27-3.2q-.193-.844-.308-1.644t-.149-1.45a2.348,2.348,0,0,0-.018-.272,1.783,1.783,0,0,1-.009-.308,1.226,1.226,0,0,1,.053-.3.594.594,0,0,1,.149-.246h.035q.018,0,.018-.009t.018-.009q.018,0,.018.009t.035.009h.035q.035.018.176.07a.577.577,0,0,1,.176.088q.316-.105.65-.255t.677-.281a5.958,5.958,0,0,1,.694-.22,2.821,2.821,0,0,1,.686-.088q.246,0,.431.018A2.7,2.7,0,0,1,34-8.024q.185.044.4.105t.492.149q.141.105.255.2a1.5,1.5,0,0,1,.211.22.894.894,0,0,1,.149.3,1.631,1.631,0,0,1,.053.457,2.03,2.03,0,0,1-.659-.044q-.378-.079-.791-.2t-.853-.211a3.518,3.518,0,0,0-.844-.07,1.581,1.581,0,0,0-.756.229,1.591,1.591,0,0,0-.65.633,3.694,3.694,0,0,0-.105,1,5.163,5.163,0,0,0,.123.958,7.985,7.985,0,0,0,.272.932q.167.466.316.932t.272.923a5,5,0,0,1,.158.932.574.574,0,0,1-.193.378A.594.594,0,0,1,31.412,0Zm4.641-4.711a5.6,5.6,0,0,1,.272-1.749,4.485,4.485,0,0,1,.791-1.468,3.881,3.881,0,0,1,1.266-1.011,3.786,3.786,0,0,1,1.731-.378A2.663,2.663,0,0,1,41.124-9a2.293,2.293,0,0,1,.7.606,2.342,2.342,0,0,1,.4.835,4.372,4.372,0,0,1,.105.984,1.9,1.9,0,0,1-.369,1.143,3.174,3.174,0,0,1-.932.853,4.878,4.878,0,0,1-1.213.527,4.458,4.458,0,0,1-1.213.185h-.431a1.057,1.057,0,0,1-.4-.07.64.64,0,0,1-.281-.211.7.7,0,0,1-.105-.422.379.379,0,0,1,.026-.149q.026-.062.149-.088a1.421,1.421,0,0,1,.369-.009q.246.035.668.105a2.323,2.323,0,0,0,.712-.167,6.73,6.73,0,0,0,.949-.431,3.778,3.778,0,0,0,.835-.606.972.972,0,0,0,.352-.677,2.183,2.183,0,0,0-.114-.694,1.77,1.77,0,0,0-.343-.606,1.782,1.782,0,0,0-.536-.422,1.242,1.242,0,0,0-.694-.123,2.727,2.727,0,0,0-1.116.334,2.838,2.838,0,0,0-.853.729,3.488,3.488,0,0,0-.545.993,3.391,3.391,0,0,0-.193,1.143q0,.457.018.914a4.192,4.192,0,0,0,.132.9,2.985,2.985,0,0,0,.369.844,2.328,2.328,0,0,0,.738.712,4.483,4.483,0,0,0,1.222.51,8.625,8.625,0,0,0,1.828.255l3.146-.211a2.245,2.245,0,0,1-.712.633,4.536,4.536,0,0,1-.914.4,6.437,6.437,0,0,1-.958.22,6.13,6.13,0,0,1-.9.07,5.444,5.444,0,0,1-1.916-.334,4.994,4.994,0,0,1-1.582-.94,4.344,4.344,0,0,1-1.081-1.477A4.685,4.685,0,0,1,36.053-4.711ZM45.3-2.127a.708.708,0,0,1,.255-.132,1.136,1.136,0,0,1,.255-.026.7.7,0,0,1,.316.079,1.39,1.39,0,0,1,.29.193q.132.114.272.22a1.537,1.537,0,0,0,.3.176q.457.193.729.316a4.311,4.311,0,0,0,.5.193,2.249,2.249,0,0,0,.527.088q.3.018.773.018.369,0,.9.009a4.624,4.624,0,0,0,1-.088,1.955,1.955,0,0,0,.809-.352.921.921,0,0,0,.334-.782,1.028,1.028,0,0,0-.272-.8,1.911,1.911,0,0,0-.782-.448,5.37,5.37,0,0,0-1.107-.22q-.615-.062-1.266-.132a12.836,12.836,0,0,1-1.274-.2A3.83,3.83,0,0,1,46.74-4.43a2.175,2.175,0,0,1-.791-.773,2.523,2.523,0,0,1-.316-1.266,1.579,1.579,0,0,1,.554-.94,3.146,3.146,0,0,1,1.072-.58A4.464,4.464,0,0,1,48.586-8.2a4.128,4.128,0,0,1,1.292.176,2.32,2.32,0,0,1,.984.589,1.441,1.441,0,0,1,.413,1,1.274,1.274,0,0,1-.053.58.762.762,0,0,1-.237.343.457.457,0,0,1-.308.105.316.316,0,0,1-.246-.123.506.506,0,0,1-.079-.334,1.285,1.285,0,0,1,.2-.554.785.785,0,0,0-.4-.527,2.369,2.369,0,0,0-.773-.272,3.548,3.548,0,0,0-.94-.035,3.885,3.885,0,0,0-.914.185,1.91,1.91,0,0,0-.668.369.59.59,0,0,0-.22.527,1.069,1.069,0,0,0,.308.817,2.068,2.068,0,0,0,.8.448,5.778,5.778,0,0,0,1.134.229q.642.07,1.318.132t1.31.176a4.031,4.031,0,0,1,1.143.378,2.122,2.122,0,0,1,.809.712,2.071,2.071,0,0,1,.3,1.169,1.58,1.58,0,0,1-.281.94,2.4,2.4,0,0,1-.712.659,3.248,3.248,0,0,1-.94.387A4.125,4.125,0,0,1,50.854,0q-.457,0-.976-.009T48.823-.07a10.069,10.069,0,0,1-1.081-.167,4.043,4.043,0,0,1-1.011-.352A3.277,3.277,0,0,1,45.9-1.2,2.774,2.774,0,0,1,45.3-2.127ZM-54.923,19.289a5.6,5.6,0,0,1,.272-1.749,4.485,4.485,0,0,1,.791-1.468,3.881,3.881,0,0,1,1.266-1.011,3.786,3.786,0,0,1,1.731-.378A2.663,2.663,0,0,1-49.852,15a2.293,2.293,0,0,1,.7.606,2.342,2.342,0,0,1,.4.835,4.372,4.372,0,0,1,.105.984,1.9,1.9,0,0,1-.369,1.143,3.174,3.174,0,0,1-.932.853,4.878,4.878,0,0,1-1.213.527,4.458,4.458,0,0,1-1.213.185H-52.8a1.057,1.057,0,0,1-.4-.07.64.64,0,0,1-.281-.211.7.7,0,0,1-.105-.422.379.379,0,0,1,.026-.149q.026-.062.149-.088a1.421,1.421,0,0,1,.369-.009q.246.035.668.105a2.323,2.323,0,0,0,.712-.167,6.73,6.73,0,0,0,.949-.431,3.778,3.778,0,0,0,.835-.606.972.972,0,0,0,.352-.677,2.183,2.183,0,0,0-.114-.694,1.77,1.77,0,0,0-.343-.606,1.782,1.782,0,0,0-.536-.422,1.242,1.242,0,0,0-.694-.123,2.727,2.727,0,0,0-1.116.334,2.838,2.838,0,0,0-.853.729,3.488,3.488,0,0,0-.545.993,3.391,3.391,0,0,0-.193,1.143q0,.457.018.914a4.192,4.192,0,0,0,.132.9,2.985,2.985,0,0,0,.369.844,2.328,2.328,0,0,0,.738.712,4.483,4.483,0,0,0,1.222.51,8.625,8.625,0,0,0,1.828.255l3.146-.211a2.245,2.245,0,0,1-.712.633,4.536,4.536,0,0,1-.914.4,6.437,6.437,0,0,1-.958.22,6.13,6.13,0,0,1-.9.07,5.444,5.444,0,0,1-1.916-.334,4.994,4.994,0,0,1-1.582-.94,4.344,4.344,0,0,1-1.081-1.477A4.685,4.685,0,0,1-54.923,19.289Zm9.246,2.584a.708.708,0,0,1,.255-.132,1.136,1.136,0,0,1,.255-.026.7.7,0,0,1,.316.079,1.39,1.39,0,0,1,.29.193q.132.114.272.22a1.537,1.537,0,0,0,.3.176q.457.193.729.316a4.311,4.311,0,0,0,.5.193,2.249,2.249,0,0,0,.527.088q.3.018.773.018.369,0,.9.009a4.624,4.624,0,0,0,1-.088,1.955,1.955,0,0,0,.809-.352.921.921,0,0,0,.334-.782,1.028,1.028,0,0,0-.272-.8,1.911,1.911,0,0,0-.782-.448,5.37,5.37,0,0,0-1.107-.22q-.615-.062-1.266-.132a12.836,12.836,0,0,1-1.274-.2,3.83,3.83,0,0,1-1.116-.413,2.175,2.175,0,0,1-.791-.773,2.523,2.523,0,0,1-.316-1.266,1.579,1.579,0,0,1,.554-.94,3.146,3.146,0,0,1,1.072-.58A4.464,4.464,0,0,1-42.39,15.8a4.128,4.128,0,0,1,1.292.176,2.32,2.32,0,0,1,.984.589,1.441,1.441,0,0,1,.413,1,1.274,1.274,0,0,1-.053.58.762.762,0,0,1-.237.343.457.457,0,0,1-.308.105.316.316,0,0,1-.246-.123.506.506,0,0,1-.079-.334,1.285,1.285,0,0,1,.2-.554.785.785,0,0,0-.4-.527,2.369,2.369,0,0,0-.773-.272,3.548,3.548,0,0,0-.94-.035,3.885,3.885,0,0,0-.914.185,1.91,1.91,0,0,0-.668.369.59.59,0,0,0-.22.527,1.069,1.069,0,0,0,.308.817,2.068,2.068,0,0,0,.8.448,5.778,5.778,0,0,0,1.134.229q.642.07,1.318.132t1.31.176a4.031,4.031,0,0,1,1.143.378,2.122,2.122,0,0,1,.809.712,2.071,2.071,0,0,1,.3,1.169,1.58,1.58,0,0,1-.281.94,2.4,2.4,0,0,1-.712.659,3.248,3.248,0,0,1-.94.387,4.125,4.125,0,0,1-.967.123q-.457,0-.976-.009t-1.055-.062a10.069,10.069,0,0,1-1.081-.167,4.043,4.043,0,0,1-1.011-.352,3.277,3.277,0,0,1-.835-.606A2.774,2.774,0,0,1-45.677,21.873Zm9.3-.176a4.06,4.06,0,0,1,.387-1.863,3.308,3.308,0,0,1,1.028-1.213,4.345,4.345,0,0,1,1.494-.668,7.4,7.4,0,0,1,1.784-.211,4.462,4.462,0,0,1,1.468.246,4.373,4.373,0,0,1,1.274.686,3.3,3.3,0,0,1,.9,1.072,3.041,3.041,0,0,1,.334,1.441,2.248,2.248,0,0,1-.264,1.151,1.888,1.888,0,0,1-.721.7,3.344,3.344,0,0,1-1.011.36,6.046,6.046,0,0,1-1.134.105q-.562,0-1.151-.053a3.893,3.893,0,0,1-1.081-.246,1.94,1.94,0,0,1-.809-.58,1.677,1.677,0,0,1-.316-1.09,1.764,1.764,0,0,1,.712.149q.343.149.694.316t.7.308a1.662,1.662,0,0,0,.721.158,6.974,6.974,0,0,0,.747-.053,3.847,3.847,0,0,0,.879-.2,2.187,2.187,0,0,0,.712-.413.852.852,0,0,0,.3-.668A1.978,1.978,0,0,0-29,20.1a2.33,2.33,0,0,0-.686-.729,3.374,3.374,0,0,0-.949-.448,3.654,3.654,0,0,0-1.055-.158q-.07,0-.343.035t-.624.114q-.352.079-.738.193a4.1,4.1,0,0,0-.712.281,2.121,2.121,0,0,0-.536.378.656.656,0,0,0-.211.475v.211q.018.193.044.519t.044.65q.018.325.053.571t.035.281q.035.281.123.87t.193,1.318q.105.729.237,1.538t.255,1.538q.123.729.22,1.31t.149.844a.2.2,0,0,0,.009.062.145.145,0,0,1,.009.044v.018l-.018.035v.035a1.447,1.447,0,0,1-.158.176,2.127,2.127,0,0,0-.176.141h-.105q-.176,0-.369-.325a5.361,5.361,0,0,1-.4-.879q-.2-.554-.4-1.274t-.4-1.494q-.193-.773-.352-1.529t-.281-1.406q-.123-.65-.185-1.125A6.06,6.06,0,0,1-36.378,21.7Zm9.369-2.408a5.6,5.6,0,0,1,.272-1.749,4.485,4.485,0,0,1,.791-1.468,3.881,3.881,0,0,1,1.266-1.011,3.786,3.786,0,0,1,1.731-.378A2.663,2.663,0,0,1-21.937,15a2.293,2.293,0,0,1,.7.606,2.342,2.342,0,0,1,.4.835,4.372,4.372,0,0,1,.105.984,1.9,1.9,0,0,1-.369,1.143,3.174,3.174,0,0,1-.932.853,4.878,4.878,0,0,1-1.213.527,4.458,4.458,0,0,1-1.213.185h-.431a1.057,1.057,0,0,1-.4-.07.64.64,0,0,1-.281-.211.7.7,0,0,1-.105-.422.379.379,0,0,1,.026-.149q.026-.062.149-.088a1.421,1.421,0,0,1,.369-.009q.246.035.668.105a2.323,2.323,0,0,0,.712-.167,6.73,6.73,0,0,0,.949-.431,3.778,3.778,0,0,0,.835-.606.972.972,0,0,0,.352-.677,2.183,2.183,0,0,0-.114-.694,1.77,1.77,0,0,0-.343-.606,1.782,1.782,0,0,0-.536-.422,1.242,1.242,0,0,0-.694-.123,2.727,2.727,0,0,0-1.116.334,2.838,2.838,0,0,0-.853.729,3.488,3.488,0,0,0-.545.993,3.391,3.391,0,0,0-.193,1.143q0,.457.018.914a4.192,4.192,0,0,0,.132.9,2.985,2.985,0,0,0,.369.844,2.328,2.328,0,0,0,.738.712,4.483,4.483,0,0,0,1.222.51,8.625,8.625,0,0,0,1.828.255l3.146-.211a2.245,2.245,0,0,1-.712.633,4.536,4.536,0,0,1-.914.4,6.437,6.437,0,0,1-.958.22,6.13,6.13,0,0,1-.9.07,5.444,5.444,0,0,1-1.916-.334,4.994,4.994,0,0,1-1.582-.94,4.344,4.344,0,0,1-1.081-1.477A4.685,4.685,0,0,1-27.009,19.289Zm9.281.791a3.93,3.93,0,0,1,.3-1.5,4.284,4.284,0,0,1,.817-1.292,4.017,4.017,0,0,1,1.2-.9,3.288,3.288,0,0,1,1.459-.334,3.816,3.816,0,0,1,.747.079,2.961,2.961,0,0,1,.747.255,1.686,1.686,0,0,1,.58.466,1.142,1.142,0,0,1,.229.729,1.747,1.747,0,0,1-.044.281,3.756,3.756,0,0,1-.114.422,2.041,2.041,0,0,1-.167.378q-.1.167-.167.167a2.1,2.1,0,0,0-.457-1.38,1.632,1.632,0,0,0-1.336-.554,2.5,2.5,0,0,0-1.2.281,2.691,2.691,0,0,0-.879.738,3.372,3.372,0,0,0-.536,1.028,3.78,3.78,0,0,0-.185,1.169,2.98,2.98,0,0,0,.264,1.336,2.274,2.274,0,0,0,.721.853,3.223,3.223,0,0,0,1.055.483A7.133,7.133,0,0,0-13.421,23a12.713,12.713,0,0,0,1.336.035q.668-.018,1.283-.053a.436.436,0,0,1,.176.07,1.171,1.171,0,0,0,.176.088v.053q0,.035.009.035t.009.018a.407.407,0,0,1-.193.334,1.626,1.626,0,0,1-.475.229,3.176,3.176,0,0,1-.615.123q-.334.035-.659.062t-.571.026H-13.3a6.823,6.823,0,0,1-1.837-.229,3.629,3.629,0,0,1-1.389-.712,3.232,3.232,0,0,1-.888-1.23A4.51,4.51,0,0,1-17.728,20.08Zm8.859-2.162v-.264q0-.193.009-.4t.009-.4v-.264q-.07-.545.316-.545a.5.5,0,0,1,.3.088.863.863,0,0,1,.229.264,8.377,8.377,0,0,0,.079,1.767q.132.853.3,1.688t.316,1.679a10.067,10.067,0,0,1,.149,1.758.942.942,0,0,1-.149.492.49.49,0,0,1-.448.246q-.229,0-.4-.4a5.361,5.361,0,0,1-.29-1q-.123-.606-.211-1.345t-.132-1.415q-.044-.677-.062-1.213T-8.868,17.918Zm-.9-4.412q0-.211.123-.272a.708.708,0,0,1,.316-.062A.473.473,0,0,1-9,13.321a1.565,1.565,0,0,1,.334.378.92.92,0,0,1,.149.387q.018.211-.264.246h-.088a2.3,2.3,0,0,1-.439-.035.617.617,0,0,1-.272-.114.452.452,0,0,1-.141-.237A1.719,1.719,0,0,1-9.765,13.506Zm3.27,7.523a2.188,2.188,0,0,1,.176-.686,2.607,2.607,0,0,1,.492-.756,3.376,3.376,0,0,1,.844-.659,3.738,3.738,0,0,1,1.2-.413A5.436,5.436,0,0,1-2.2,18.5a8.252,8.252,0,0,1,1.978.527V18.85l-.018-.158A1.91,1.91,0,0,0-.5,17.76a3.366,3.366,0,0,0-.677-.853,3.89,3.89,0,0,0-.888-.615,2.042,2.042,0,0,0-.914-.237.825.825,0,0,0-.308.053,1.5,1.5,0,0,0-.255.132q-.123.079-.237.141a.567.567,0,0,1-.272.062q-.035,0-.035-.018l-.035-.035q-.035-.035-.1-.088t-.062-.07a1.206,1.206,0,0,1,.114-.545.969.969,0,0,1,.316-.369,1.651,1.651,0,0,1,.457-.22,1.8,1.8,0,0,1,.536-.079,3.416,3.416,0,0,1,1.345.431,5.264,5.264,0,0,1,1.178.905,6.016,6.016,0,0,1,.94,1.257,9.319,9.319,0,0,1,.677,1.477,6.889,6.889,0,0,1,.36,1.538,5.965,5.965,0,0,1,.018,1.512l-.105-.009-.193-.018a1.128,1.128,0,0,1-.176-.026L1.1,22.066A5.12,5.12,0,0,0,.272,20.73a4.6,4.6,0,0,0-.905-.8,3.275,3.275,0,0,0-.835-.4q-.387-.114-.633-.167-.264,0-.624.035a6.006,6.006,0,0,0-.747.123,5.937,5.937,0,0,0-.782.237,3.3,3.3,0,0,0-.7.36,1.739,1.739,0,0,0-.492.5,1.233,1.233,0,0,0-.185.677A.907.907,0,0,0-5.3,22a2.728,2.728,0,0,0,.809.475,4.362,4.362,0,0,0,.967.255,5.872,5.872,0,0,0,.791.07,8.749,8.749,0,0,0,.967-.053q.475-.053.94-.123T.1,22.506a7.968,7.968,0,0,1,.914-.053h.123q.088,0,.185.009t.176.009h.114a.215.215,0,0,1,.158.158,1.281,1.281,0,0,1,.018.211q0,.105-.22.229a3.681,3.681,0,0,1-.571.246q-.352.123-.782.255t-.826.22q-.4.088-.738.149A3.2,3.2,0,0,1-1.837,24,10.64,10.64,0,0,1-3.4,23.877a5.343,5.343,0,0,1-1.512-.448,3.074,3.074,0,0,1-1.134-.905A2.374,2.374,0,0,1-6.5,21.029Zm9.879-3.111v-.264q0-.193.009-.4t.009-.4v-.264q-.07-.545.316-.545a.5.5,0,0,1,.3.088.863.863,0,0,1,.229.264,8.377,8.377,0,0,0,.079,1.767q.132.853.3,1.688t.316,1.679a10.067,10.067,0,0,1,.149,1.758.942.942,0,0,1-.149.492.49.49,0,0,1-.448.246q-.229,0-.4-.4a5.361,5.361,0,0,1-.29-1q-.123-.606-.211-1.345T3.463,19.86q-.044-.677-.062-1.213T3.384,17.918Zm-.9-4.412q0-.211.123-.272a.708.708,0,0,1,.316-.062.473.473,0,0,1,.325.149,1.565,1.565,0,0,1,.334.378.92.92,0,0,1,.149.387q.018.211-.264.246H3.384a2.3,2.3,0,0,1-.439-.035.617.617,0,0,1-.272-.114.452.452,0,0,1-.141-.237A1.719,1.719,0,0,1,2.487,13.506Zm3.234,8.367a.708.708,0,0,1,.255-.132,1.136,1.136,0,0,1,.255-.026.7.7,0,0,1,.316.079,1.39,1.39,0,0,1,.29.193q.132.114.272.22a1.537,1.537,0,0,0,.3.176q.457.193.729.316a4.311,4.311,0,0,0,.5.193,2.249,2.249,0,0,0,.527.088q.3.018.773.018.369,0,.9.009a4.624,4.624,0,0,0,1-.088,1.955,1.955,0,0,0,.809-.352.921.921,0,0,0,.334-.782,1.028,1.028,0,0,0-.272-.8,1.911,1.911,0,0,0-.782-.448,5.37,5.37,0,0,0-1.107-.22q-.615-.062-1.266-.132a12.836,12.836,0,0,1-1.274-.2,3.83,3.83,0,0,1-1.116-.413,2.175,2.175,0,0,1-.791-.773,2.523,2.523,0,0,1-.316-1.266,1.579,1.579,0,0,1,.554-.94,3.146,3.146,0,0,1,1.072-.58A4.464,4.464,0,0,1,9.009,15.8a4.128,4.128,0,0,1,1.292.176,2.32,2.32,0,0,1,.984.589,1.441,1.441,0,0,1,.413,1,1.274,1.274,0,0,1-.053.58.762.762,0,0,1-.237.343.457.457,0,0,1-.308.105.316.316,0,0,1-.246-.123.506.506,0,0,1-.079-.334,1.285,1.285,0,0,1,.2-.554.785.785,0,0,0-.4-.527,2.369,2.369,0,0,0-.773-.272,3.548,3.548,0,0,0-.94-.035,3.885,3.885,0,0,0-.914.185,1.91,1.91,0,0,0-.668.369.59.59,0,0,0-.22.527,1.069,1.069,0,0,0,.308.817,2.068,2.068,0,0,0,.8.448,5.778,5.778,0,0,0,1.134.229q.642.07,1.318.132t1.31.176a4.031,4.031,0,0,1,1.143.378,2.122,2.122,0,0,1,.809.712,2.071,2.071,0,0,1,.3,1.169,1.58,1.58,0,0,1-.281.94,2.4,2.4,0,0,1-.712.659,3.248,3.248,0,0,1-.94.387,4.125,4.125,0,0,1-.967.123q-.457,0-.976-.009T9.246,23.93a10.069,10.069,0,0,1-1.081-.167,4.043,4.043,0,0,1-1.011-.352,3.277,3.277,0,0,1-.835-.606A2.774,2.774,0,0,1,5.722,21.873ZM21.771,21.7a4.06,4.06,0,0,1,.387-1.863,3.308,3.308,0,0,1,1.028-1.213,4.345,4.345,0,0,1,1.494-.668,7.4,7.4,0,0,1,1.784-.211,4.462,4.462,0,0,1,1.468.246,4.373,4.373,0,0,1,1.274.686,3.3,3.3,0,0,1,.9,1.072,3.041,3.041,0,0,1,.334,1.441,2.248,2.248,0,0,1-.264,1.151,1.888,1.888,0,0,1-.721.7,3.344,3.344,0,0,1-1.011.36,6.046,6.046,0,0,1-1.134.105q-.562,0-1.151-.053a3.893,3.893,0,0,1-1.081-.246,1.94,1.94,0,0,1-.809-.58,1.677,1.677,0,0,1-.316-1.09,1.764,1.764,0,0,1,.712.149q.343.149.694.316t.7.308a1.662,1.662,0,0,0,.721.158,6.974,6.974,0,0,0,.747-.053,3.847,3.847,0,0,0,.879-.2,2.187,2.187,0,0,0,.712-.413.852.852,0,0,0,.3-.668,1.978,1.978,0,0,0-.264-1.037,2.33,2.33,0,0,0-.686-.729,3.374,3.374,0,0,0-.949-.448,3.654,3.654,0,0,0-1.055-.158q-.07,0-.343.035t-.624.114q-.352.079-.738.193a4.1,4.1,0,0,0-.712.281,2.121,2.121,0,0,0-.536.378.656.656,0,0,0-.211.475v.211q.018.193.044.519t.044.65q.018.325.053.571t.035.281q.035.281.123.87t.193,1.318q.105.729.237,1.538t.255,1.538q.123.729.22,1.31t.149.844a.2.2,0,0,0,.009.062.145.145,0,0,1,.009.044v.018l-.018.035v.035a1.447,1.447,0,0,1-.158.176,2.127,2.127,0,0,0-.176.141h-.105q-.176,0-.369-.325a5.361,5.361,0,0,1-.4-.879q-.2-.554-.4-1.274t-.4-1.494q-.193-.773-.352-1.529t-.281-1.406q-.123-.65-.185-1.125A6.06,6.06,0,0,1,21.771,21.7Zm9.369-.668a2.188,2.188,0,0,1,.176-.686,2.607,2.607,0,0,1,.492-.756,3.376,3.376,0,0,1,.844-.659,3.738,3.738,0,0,1,1.2-.413,5.436,5.436,0,0,1,1.582-.018,8.252,8.252,0,0,1,1.978.527V18.85l-.018-.158a1.91,1.91,0,0,0-.264-.932,3.366,3.366,0,0,0-.677-.853,3.89,3.89,0,0,0-.888-.615,2.042,2.042,0,0,0-.914-.237.825.825,0,0,0-.308.053,1.5,1.5,0,0,0-.255.132q-.123.079-.237.141a.567.567,0,0,1-.272.062q-.035,0-.035-.018l-.035-.035q-.035-.035-.1-.088t-.062-.07a1.206,1.206,0,0,1,.114-.545.969.969,0,0,1,.316-.369,1.651,1.651,0,0,1,.457-.22,1.8,1.8,0,0,1,.536-.079,3.416,3.416,0,0,1,1.345.431,5.264,5.264,0,0,1,1.178.905,6.016,6.016,0,0,1,.94,1.257,9.319,9.319,0,0,1,.677,1.477,6.889,6.889,0,0,1,.36,1.538,5.965,5.965,0,0,1,.018,1.512l-.105-.009L39,22.11a1.128,1.128,0,0,1-.176-.026l-.088-.018a5.12,5.12,0,0,0-.826-1.336,4.6,4.6,0,0,0-.905-.8,3.275,3.275,0,0,0-.835-.4q-.387-.114-.633-.167-.264,0-.624.035a6.006,6.006,0,0,0-.747.123,5.937,5.937,0,0,0-.782.237,3.3,3.3,0,0,0-.7.36,1.739,1.739,0,0,0-.492.5,1.233,1.233,0,0,0-.185.677.907.907,0,0,0,.334.712,2.728,2.728,0,0,0,.809.475,4.362,4.362,0,0,0,.967.255,5.872,5.872,0,0,0,.791.07,8.749,8.749,0,0,0,.967-.053q.475-.053.94-.123t.923-.123a7.968,7.968,0,0,1,.914-.053h.123q.088,0,.185.009t.176.009h.114a.215.215,0,0,1,.158.158,1.281,1.281,0,0,1,.018.211q0,.105-.22.229a3.681,3.681,0,0,1-.571.246q-.352.123-.782.255t-.826.22q-.4.088-.738.149A3.2,3.2,0,0,1,35.8,24a10.64,10.64,0,0,1-1.564-.123,5.343,5.343,0,0,1-1.512-.448,3.074,3.074,0,0,1-1.134-.905A2.374,2.374,0,0,1,31.14,21.029ZM41.845,24a9.558,9.558,0,0,1-.668-1.529A16.877,16.877,0,0,1,40.7,20.8q-.193-.844-.308-1.644t-.149-1.45a2.348,2.348,0,0,0-.018-.272,1.783,1.783,0,0,1-.009-.308,1.226,1.226,0,0,1,.053-.3.594.594,0,0,1,.149-.246h.035q.018,0,.018-.009t.018-.009q.018,0,.018.009t.035.009h.035q.035.018.176.07a.577.577,0,0,1,.176.088q.316-.105.65-.255t.677-.281a5.958,5.958,0,0,1,.694-.22,2.821,2.821,0,0,1,.686-.088q.246,0,.431.018a2.7,2.7,0,0,1,.369.062q.185.044.4.105t.492.149q.141.105.255.2a1.5,1.5,0,0,1,.211.22.894.894,0,0,1,.149.3,1.631,1.631,0,0,1,.053.457,2.03,2.03,0,0,1-.659-.044q-.378-.079-.791-.2t-.853-.211a3.518,3.518,0,0,0-.844-.07,1.792,1.792,0,0,0-1.406.861,3.694,3.694,0,0,0-.105,1,5.163,5.163,0,0,0,.123.958,7.985,7.985,0,0,0,.272.932q.167.466.316.932t.272.923a5,5,0,0,1,.158.932.574.574,0,0,1-.193.378A.594.594,0,0,1,41.845,24Zm4.641-2.971a2.188,2.188,0,0,1,.176-.686,2.607,2.607,0,0,1,.492-.756A3.376,3.376,0,0,1,48,18.929a3.738,3.738,0,0,1,1.2-.413,5.436,5.436,0,0,1,1.582-.018,8.252,8.252,0,0,1,1.978.527V18.85l-.018-.158a1.91,1.91,0,0,0-.264-.932,3.366,3.366,0,0,0-.677-.853,3.89,3.89,0,0,0-.888-.615A2.042,2.042,0,0,0,50,16.055a.825.825,0,0,0-.308.053,1.5,1.5,0,0,0-.255.132q-.123.079-.237.141a.567.567,0,0,1-.272.062q-.035,0-.035-.018l-.035-.035q-.035-.035-.1-.088t-.062-.07a1.206,1.206,0,0,1,.114-.545.969.969,0,0,1,.316-.369,1.651,1.651,0,0,1,.457-.22,1.8,1.8,0,0,1,.536-.079,3.416,3.416,0,0,1,1.345.431,5.264,5.264,0,0,1,1.178.905,6.016,6.016,0,0,1,.94,1.257,9.319,9.319,0,0,1,.677,1.477,6.889,6.889,0,0,1,.36,1.538,5.965,5.965,0,0,1,.018,1.512l-.105-.009-.193-.018a1.128,1.128,0,0,1-.176-.026l-.088-.018a5.12,5.12,0,0,0-.826-1.336,4.6,4.6,0,0,0-.905-.8,3.275,3.275,0,0,0-.835-.4q-.387-.114-.633-.167-.264,0-.624.035a6.006,6.006,0,0,0-.747.123,5.937,5.937,0,0,0-.782.237,3.3,3.3,0,0,0-.7.36,1.739,1.739,0,0,0-.492.5,1.233,1.233,0,0,0-.185.677.907.907,0,0,0,.334.712,2.728,2.728,0,0,0,.809.475,4.362,4.362,0,0,0,.967.255,5.872,5.872,0,0,0,.791.07,8.749,8.749,0,0,0,.967-.053q.475-.053.94-.123t.923-.123a7.968,7.968,0,0,1,.914-.053h.123q.088,0,.185.009t.176.009h.114a.215.215,0,0,1,.158.158,1.281,1.281,0,0,1,.018.211q0,.105-.22.229a3.681,3.681,0,0,1-.571.246q-.352.123-.782.255t-.826.22q-.4.088-.738.149a3.2,3.2,0,0,1-.483.062,10.64,10.64,0,0,1-1.564-.123,5.343,5.343,0,0,1-1.512-.448,3.074,3.074,0,0,1-1.134-.905A2.374,2.374,0,0,1,46.485,21.029ZM-55.608,45.451A2.7,2.7,0,0,0-56.3,46q-.29.325-.589.615a3.433,3.433,0,0,1-.659.5,1.808,1.808,0,0,1-.923.211,2.385,2.385,0,0,1-1.143-.272,3.1,3.1,0,0,1-.905-.738,5.106,5.106,0,0,1-.686-1.055,7.653,7.653,0,0,1-.475-1.213,9.751,9.751,0,0,1-.281-1.23,7.037,7.037,0,0,1-.1-1.1,3.157,3.157,0,0,1,.053-1.485,1.218,1.218,0,0,1,.466-.686.341.341,0,0,1,.466.07.842.842,0,0,1,.053.765.7.7,0,0,0-.053.22q-.018.149-.035.308t-.035.3a1.871,1.871,0,0,0-.018.193,6.376,6.376,0,0,0,.07.87,8.354,8.354,0,0,0,.22,1.046,8.463,8.463,0,0,0,.378,1.081,4.584,4.584,0,0,0,.545.958,2.783,2.783,0,0,0,.729.686,1.649,1.649,0,0,0,.905.264A1.248,1.248,0,0,0-57.595,46a4.757,4.757,0,0,0,.765-.738,5.746,5.746,0,0,0,.615-.888,1.671,1.671,0,0,0,.255-.773q0-.176.009-.58t.009-.861q0-.457-.009-.861t-.009-.562a.987.987,0,0,1,.229-.272.469.469,0,0,1,.3-.1q.211,0,.352.281a2.9,2.9,0,0,1,.229.721,7.468,7.468,0,0,1,.123.949q.035.51.053.984t.035.835a2.584,2.584,0,0,0,.053.483,7.121,7.121,0,0,0,.255.791q.167.439.325.853t.281.756a1.7,1.7,0,0,1,.123.519q0,.264-.149.316a1.151,1.151,0,0,1-.378.053.542.542,0,0,1-.413-.141.852.852,0,0,1-.193-.36,3.524,3.524,0,0,1-.1-.483,3.936,3.936,0,0,0-.114-.545,2.114,2.114,0,0,0-.229-.527A1.149,1.149,0,0,0-55.608,45.451Zm2.584.422a.708.708,0,0,1,.255-.132,1.136,1.136,0,0,1,.255-.026.7.7,0,0,1,.316.079,1.39,1.39,0,0,1,.29.193q.132.114.272.22a1.537,1.537,0,0,0,.3.176q.457.193.729.316a4.311,4.311,0,0,0,.5.193,2.249,2.249,0,0,0,.527.088q.3.018.773.018.369,0,.9.009a4.624,4.624,0,0,0,1-.088,1.955,1.955,0,0,0,.809-.352.921.921,0,0,0,.334-.782,1.028,1.028,0,0,0-.272-.8,1.911,1.911,0,0,0-.782-.448,5.37,5.37,0,0,0-1.107-.22q-.615-.062-1.266-.132a12.836,12.836,0,0,1-1.274-.2,3.83,3.83,0,0,1-1.116-.413,2.175,2.175,0,0,1-.791-.773,2.523,2.523,0,0,1-.316-1.266,1.579,1.579,0,0,1,.554-.94,3.146,3.146,0,0,1,1.072-.58,4.464,4.464,0,0,1,1.327-.211,4.128,4.128,0,0,1,1.292.176,2.32,2.32,0,0,1,.984.589,1.441,1.441,0,0,1,.413,1,1.274,1.274,0,0,1-.053.58.762.762,0,0,1-.237.343.457.457,0,0,1-.308.105.316.316,0,0,1-.246-.123.506.506,0,0,1-.079-.334,1.285,1.285,0,0,1,.2-.554.785.785,0,0,0-.4-.527,2.369,2.369,0,0,0-.773-.272,3.548,3.548,0,0,0-.94-.035,3.885,3.885,0,0,0-.914.185,1.91,1.91,0,0,0-.668.369.59.59,0,0,0-.22.527,1.069,1.069,0,0,0,.308.817,2.068,2.068,0,0,0,.8.448,5.778,5.778,0,0,0,1.134.229q.642.07,1.318.132t1.31.176a4.031,4.031,0,0,1,1.143.378,2.122,2.122,0,0,1,.809.712,2.071,2.071,0,0,1,.3,1.169,1.58,1.58,0,0,1-.281.94,2.4,2.4,0,0,1-.712.659,3.248,3.248,0,0,1-.94.387A4.125,4.125,0,0,1-47.47,48q-.457,0-.976-.009T-49.5,47.93a10.069,10.069,0,0,1-1.081-.167,4.043,4.043,0,0,1-1.011-.352,3.277,3.277,0,0,1-.835-.606A2.774,2.774,0,0,1-53.024,45.873Zm15.715-.422A2.7,2.7,0,0,0-38,46q-.29.325-.589.615a3.433,3.433,0,0,1-.659.5,1.808,1.808,0,0,1-.923.211,2.385,2.385,0,0,1-1.143-.272,3.1,3.1,0,0,1-.905-.738,5.106,5.106,0,0,1-.686-1.055,7.653,7.653,0,0,1-.475-1.213,9.751,9.751,0,0,1-.281-1.23,7.037,7.037,0,0,1-.1-1.1,3.157,3.157,0,0,1,.053-1.485,1.218,1.218,0,0,1,.466-.686.341.341,0,0,1,.466.07.842.842,0,0,1,.053.765.7.7,0,0,0-.053.22q-.018.149-.035.308t-.035.3a1.871,1.871,0,0,0-.018.193,6.376,6.376,0,0,0,.07.87,8.354,8.354,0,0,0,.22,1.046,8.463,8.463,0,0,0,.378,1.081,4.584,4.584,0,0,0,.545.958,2.783,2.783,0,0,0,.729.686,1.649,1.649,0,0,0,.905.264A1.248,1.248,0,0,0-39.3,46a4.757,4.757,0,0,0,.765-.738,5.746,5.746,0,0,0,.615-.888,1.671,1.671,0,0,0,.255-.773q0-.176.009-.58t.009-.861q0-.457-.009-.861t-.009-.562a.987.987,0,0,1,.229-.272.469.469,0,0,1,.3-.1q.211,0,.352.281a2.9,2.9,0,0,1,.229.721,7.468,7.468,0,0,1,.123.949q.035.51.053.984t.035.835a2.584,2.584,0,0,0,.053.483,7.121,7.121,0,0,0,.255.791q.167.439.325.853t.281.756a1.7,1.7,0,0,1,.123.519q0,.264-.149.316a1.151,1.151,0,0,1-.378.053.542.542,0,0,1-.413-.141.852.852,0,0,1-.193-.36,3.524,3.524,0,0,1-.1-.483,3.936,3.936,0,0,0-.114-.545,2.114,2.114,0,0,0-.229-.527A1.149,1.149,0,0,0-37.31,45.451Zm2.619-.422a2.188,2.188,0,0,1,.176-.686,2.607,2.607,0,0,1,.492-.756,3.376,3.376,0,0,1,.844-.659,3.738,3.738,0,0,1,1.2-.413,5.436,5.436,0,0,1,1.582-.018,8.252,8.252,0,0,1,1.978.527V42.85l-.018-.158a1.91,1.91,0,0,0-.264-.932,3.366,3.366,0,0,0-.677-.853,3.89,3.89,0,0,0-.888-.615,2.042,2.042,0,0,0-.914-.237.825.825,0,0,0-.308.053,1.5,1.5,0,0,0-.255.132q-.123.079-.237.141a.567.567,0,0,1-.272.062q-.035,0-.035-.018l-.035-.035q-.035-.035-.1-.088t-.062-.07a1.206,1.206,0,0,1,.114-.545.969.969,0,0,1,.316-.369,1.651,1.651,0,0,1,.457-.22,1.8,1.8,0,0,1,.536-.079,3.416,3.416,0,0,1,1.345.431,5.264,5.264,0,0,1,1.178.905,6.016,6.016,0,0,1,.94,1.257,9.319,9.319,0,0,1,.677,1.477,6.889,6.889,0,0,1,.36,1.538,5.965,5.965,0,0,1,.018,1.512l-.105-.009-.193-.018a1.128,1.128,0,0,1-.176-.026l-.088-.018a5.12,5.12,0,0,0-.826-1.336,4.6,4.6,0,0,0-.905-.8,3.275,3.275,0,0,0-.835-.4q-.387-.114-.633-.167-.264,0-.624.035a6.006,6.006,0,0,0-.747.123,5.937,5.937,0,0,0-.782.237,3.3,3.3,0,0,0-.7.36,1.739,1.739,0,0,0-.492.5,1.233,1.233,0,0,0-.185.677A.907.907,0,0,0-33.5,46a2.728,2.728,0,0,0,.809.475,4.362,4.362,0,0,0,.967.255,5.872,5.872,0,0,0,.791.07,8.749,8.749,0,0,0,.967-.053q.475-.053.94-.123t.923-.123a7.968,7.968,0,0,1,.914-.053h.123q.088,0,.185.009t.176.009h.114a.215.215,0,0,1,.158.158,1.281,1.281,0,0,1,.018.211q0,.105-.22.229a3.681,3.681,0,0,1-.571.246q-.352.123-.782.255t-.826.22q-.4.088-.738.149a3.2,3.2,0,0,1-.483.062,10.64,10.64,0,0,1-1.564-.123,5.343,5.343,0,0,1-1.512-.448,3.074,3.074,0,0,1-1.134-.905A2.374,2.374,0,0,1-34.69,45.029Zm2.5-7.1a1.078,1.078,0,0,1,.281-.7,4.147,4.147,0,0,1,.677-.633q.4-.3.817-.562.387-.264.668-.475.369.176.325.422a1.235,1.235,0,0,1-.369.58,11.381,11.381,0,0,1-.853.773q-.527.439-1.107,1.02a.509.509,0,0,1-.352-.088A.476.476,0,0,1-32.194,37.928ZM-23.985,48a9.558,9.558,0,0,1-.668-1.529,16.877,16.877,0,0,1-.475-1.67q-.193-.844-.308-1.644t-.149-1.45a2.348,2.348,0,0,0-.018-.272,1.783,1.783,0,0,1-.009-.308,1.226,1.226,0,0,1,.053-.3.594.594,0,0,1,.149-.246h.035q.018,0,.018-.009t.018-.009q.018,0,.018.009t.035.009h.035q.035.018.176.07a.577.577,0,0,1,.176.088q.316-.105.65-.255t.677-.281a5.958,5.958,0,0,1,.694-.22,2.821,2.821,0,0,1,.686-.088q.246,0,.431.018a2.7,2.7,0,0,1,.369.062q.185.044.4.105t.492.149q.141.105.255.2a1.5,1.5,0,0,1,.211.22.894.894,0,0,1,.149.3,1.631,1.631,0,0,1,.053.457,2.03,2.03,0,0,1-.659-.044q-.378-.079-.791-.2t-.853-.211a3.518,3.518,0,0,0-.844-.07,1.581,1.581,0,0,0-.756.229,1.591,1.591,0,0,0-.65.633,3.694,3.694,0,0,0-.105,1,5.163,5.163,0,0,0,.123.958,7.985,7.985,0,0,0,.272.932q.167.466.316.932t.272.923a5,5,0,0,1,.158.932.574.574,0,0,1-.193.378A.594.594,0,0,1-23.985,48Zm5.414-6.082v-.264q0-.193.009-.4t.009-.4v-.264q-.07-.545.316-.545a.5.5,0,0,1,.3.088.863.863,0,0,1,.229.264,8.377,8.377,0,0,0,.079,1.767q.132.853.3,1.688t.316,1.679a10.067,10.067,0,0,1,.149,1.758.942.942,0,0,1-.149.492.49.49,0,0,1-.448.246q-.229,0-.4-.4a5.361,5.361,0,0,1-.29-1q-.123-.606-.211-1.345t-.132-1.415q-.044-.677-.062-1.213T-18.571,41.918Zm-.9-4.412q0-.211.123-.272a.708.708,0,0,1,.316-.062.473.473,0,0,1,.325.149,1.565,1.565,0,0,1,.334.378.92.92,0,0,1,.149.387q.018.211-.264.246h-.088a2.3,2.3,0,0,1-.439-.035.617.617,0,0,1-.272-.114.452.452,0,0,1-.141-.237A1.719,1.719,0,0,1-19.468,37.506Zm3.27,6.908a3.28,3.28,0,0,1,.422-1.687,3.91,3.91,0,0,1,1.107-1.213,4.837,4.837,0,0,1,1.538-.729,6.365,6.365,0,0,1,1.714-.237,2.169,2.169,0,0,1,.853.167,3.173,3.173,0,0,1,.756.457,3.652,3.652,0,0,1,.642.668,5.22,5.22,0,0,1,.483.782,4.086,4.086,0,0,1,.308.817,3.229,3.229,0,0,1,.105.8,3.529,3.529,0,0,1-.352,1.6,3.545,3.545,0,0,1-.949,1.187,4.335,4.335,0,0,1-1.354.738,4.81,4.81,0,0,1-1.547.255,4.183,4.183,0,0,1-1.485-.255,3.62,3.62,0,0,1-1.178-.712,3.141,3.141,0,0,1-.782-1.134A3.88,3.88,0,0,1-16.2,44.414Zm.861-.141a2.769,2.769,0,0,0,.2,1.046,2.651,2.651,0,0,0,.563.87,2.737,2.737,0,0,0,.853.589,2.558,2.558,0,0,0,1.055.22,1.826,1.826,0,0,0,.729-.1,3.982,3.982,0,0,0,.861-.387,5.036,5.036,0,0,0,.826-.615,3.641,3.641,0,0,0,.659-.791,2.275,2.275,0,0,0,.325-.9,1.644,1.644,0,0,0-.158-.932,2.487,2.487,0,0,0-.8-.9,6.323,6.323,0,0,0-1.6-.8,4.653,4.653,0,0,0-1.2.167,3.886,3.886,0,0,0-1.134.5A2.9,2.9,0,0,0-15,43.1,2.1,2.1,0,0,0-15.337,44.273Zm7.875,1.6a.708.708,0,0,1,.255-.132,1.136,1.136,0,0,1,.255-.026.7.7,0,0,1,.316.079,1.39,1.39,0,0,1,.29.193q.132.114.272.22a1.537,1.537,0,0,0,.3.176q.457.193.729.316a4.311,4.311,0,0,0,.5.193,2.249,2.249,0,0,0,.527.088q.3.018.773.018.369,0,.9.009a4.624,4.624,0,0,0,1-.088,1.955,1.955,0,0,0,.809-.352A.921.921,0,0,0-.2,45.785a1.028,1.028,0,0,0-.272-.8,1.911,1.911,0,0,0-.782-.448,5.37,5.37,0,0,0-1.107-.22q-.615-.062-1.266-.132a12.836,12.836,0,0,1-1.274-.2,3.83,3.83,0,0,1-1.116-.413,2.175,2.175,0,0,1-.791-.773,2.523,2.523,0,0,1-.316-1.266,1.579,1.579,0,0,1,.554-.94,3.146,3.146,0,0,1,1.072-.58A4.464,4.464,0,0,1-4.175,39.8a4.128,4.128,0,0,1,1.292.176,2.32,2.32,0,0,1,.984.589,1.441,1.441,0,0,1,.413,1,1.274,1.274,0,0,1-.053.58.762.762,0,0,1-.237.343.457.457,0,0,1-.308.105.316.316,0,0,1-.246-.123.506.506,0,0,1-.079-.334,1.285,1.285,0,0,1,.2-.554.785.785,0,0,0-.4-.527,2.369,2.369,0,0,0-.773-.272,3.548,3.548,0,0,0-.94-.035,3.885,3.885,0,0,0-.914.185,1.91,1.91,0,0,0-.668.369.59.59,0,0,0-.22.527,1.069,1.069,0,0,0,.308.817,2.068,2.068,0,0,0,.8.448,5.778,5.778,0,0,0,1.134.229q.642.07,1.318.132t1.31.176a4.031,4.031,0,0,1,1.143.378,2.122,2.122,0,0,1,.809.712,2.071,2.071,0,0,1,.3,1.169,1.58,1.58,0,0,1-.281.94A2.4,2.4,0,0,1,0,47.49a3.248,3.248,0,0,1-.94.387A4.125,4.125,0,0,1-1.907,48q-.457,0-.976-.009t-1.055-.062a10.069,10.069,0,0,1-1.081-.167,4.043,4.043,0,0,1-1.011-.352,3.277,3.277,0,0,1-.835-.606A2.774,2.774,0,0,1-7.462,45.873ZM8.974,47.859a23.9,23.9,0,0,1-.22-2.487q-.044-1.239-.044-2.487t.035-2.479q.035-1.23.018-2.461a.2.2,0,0,1,.105-.193.544.544,0,0,1,.246-.053.4.4,0,0,1,.281.114,1.041,1.041,0,0,1,.211.281,1.581,1.581,0,0,1,.132.334,1.121,1.121,0,0,1,.044.272q.105,2.514.141,4.192t0,2.707a13.431,13.431,0,0,1-.114,1.521,1.761,1.761,0,0,1-.2.668.273.273,0,0,1-.29.141Zm1.775-3.445a3.28,3.28,0,0,1,.422-1.687,3.91,3.91,0,0,1,1.107-1.213,4.837,4.837,0,0,1,1.538-.729,6.365,6.365,0,0,1,1.714-.237,2.169,2.169,0,0,1,.853.167,3.173,3.173,0,0,1,.756.457,3.652,3.652,0,0,1,.642.668,5.219,5.219,0,0,1,.483.782,4.086,4.086,0,0,1,.308.817,3.229,3.229,0,0,1,.105.8,3.474,3.474,0,0,1-1.3,2.786,4.335,4.335,0,0,1-1.354.738,4.81,4.81,0,0,1-1.547.255,4.183,4.183,0,0,1-1.485-.255,3.62,3.62,0,0,1-1.178-.712,3.141,3.141,0,0,1-.782-1.134A3.88,3.88,0,0,1,10.749,44.414Zm.861-.141a2.769,2.769,0,0,0,.2,1.046,2.651,2.651,0,0,0,.563.87,2.737,2.737,0,0,0,.853.589,2.558,2.558,0,0,0,1.055.22,1.826,1.826,0,0,0,.729-.1,3.982,3.982,0,0,0,.861-.387A5.036,5.036,0,0,0,16.7,45.9a3.641,3.641,0,0,0,.659-.791,2.275,2.275,0,0,0,.325-.9,1.644,1.644,0,0,0-.158-.932,2.487,2.487,0,0,0-.8-.9,6.323,6.323,0,0,0-1.6-.8,4.653,4.653,0,0,0-1.2.167,3.886,3.886,0,0,0-1.134.5,2.9,2.9,0,0,0-.844.844A2.1,2.1,0,0,0,11.61,44.273Zm5.221,8.613a.659.659,0,0,1,.009-.439.829.829,0,0,1,.22-.316.674.674,0,0,1,.308-.158.349.349,0,0,1,.281.044.392.392,0,0,1,.141.29,1.3,1.3,0,0,1-.114.58,1.141,1.141,0,0,0,.325.756,3.32,3.32,0,0,0,.844.668,8.855,8.855,0,0,0,1.134.545q.615.246,1.2.422a10.4,10.4,0,0,0,1.037.264,3.419,3.419,0,0,0,.633.088,1.218,1.218,0,0,0,.747-.229,2.017,2.017,0,0,0,.527-.6,3.474,3.474,0,0,0,.352-.835,7.565,7.565,0,0,0,.2-.932,8.286,8.286,0,0,0,.088-.905q.018-.439.018-.738,0-.141-.026-.519T24.671,50q-.053-.492-.123-1.02T24.39,48a5.6,5.6,0,0,0-.185-.738q-.1-.281-.2-.281a1.046,1.046,0,0,0-.413.105q-.237.105-.492.229t-.519.229a1.369,1.369,0,0,1-.51.105,2.359,2.359,0,0,1-.967-.211,2.77,2.77,0,0,1-.817-.545,2.632,2.632,0,0,1-.554-.791,2.241,2.241,0,0,1-.211-.949,4.432,4.432,0,0,1,.308-1.582,5.426,5.426,0,0,1,.844-1.477A4.5,4.5,0,0,1,21.938,41a3.058,3.058,0,0,1,1.556-.422,1.759,1.759,0,0,1,1.028.8,5.079,5.079,0,0,1,.615,1.538,13.817,13.817,0,0,1,.316,2.03q.1,1.116.132,2.276t.062,2.276q.026,1.116.132,2.03,0,.4-.044.958a11.367,11.367,0,0,1-.149,1.134,8.949,8.949,0,0,1-.29,1.151,4.1,4.1,0,0,1-.483,1.02,2.442,2.442,0,0,1-.729.721,1.818,1.818,0,0,1-.993.272,6.93,6.93,0,0,1-1.1-.105,8.9,8.9,0,0,1-1.336-.334,11.006,11.006,0,0,1-1.38-.562,6.728,6.728,0,0,1-1.23-.765,3.786,3.786,0,0,1-.879-.967A2.169,2.169,0,0,1,16.831,52.887Zm3.691-8.033a1.905,1.905,0,0,0,.1.606,1.646,1.646,0,0,0,.281.519,1.316,1.316,0,0,0,.457.36,1.374,1.374,0,0,0,.606.132,2.236,2.236,0,0,0,1.362-.352,1.794,1.794,0,0,0,.642-.879,3.535,3.535,0,0,0,.176-1.125q-.018-.615-.053-1.107a3.476,3.476,0,0,0-.035-.492,1.484,1.484,0,0,0-.141-.457.848.848,0,0,0-.29-.334.823.823,0,0,0-.466-.123,1.906,1.906,0,0,0-1.072.325,3.132,3.132,0,0,0-.835.809,4.067,4.067,0,0,0-.536,1.055A3.331,3.331,0,0,0,20.522,44.854Zm5.59.176a2.188,2.188,0,0,1,.176-.686,2.607,2.607,0,0,1,.492-.756,3.376,3.376,0,0,1,.844-.659,3.738,3.738,0,0,1,1.2-.413A5.436,5.436,0,0,1,30.41,42.5a8.252,8.252,0,0,1,1.978.527V42.85l-.018-.158a1.91,1.91,0,0,0-.264-.932,3.366,3.366,0,0,0-.677-.853,3.89,3.89,0,0,0-.888-.615,2.042,2.042,0,0,0-.914-.237.825.825,0,0,0-.308.053,1.5,1.5,0,0,0-.255.132q-.123.079-.237.141a.567.567,0,0,1-.272.062q-.035,0-.035-.018l-.035-.035q-.035-.035-.1-.088t-.062-.07a1.206,1.206,0,0,1,.114-.545.969.969,0,0,1,.316-.369,1.651,1.651,0,0,1,.457-.22,1.8,1.8,0,0,1,.536-.079,3.416,3.416,0,0,1,1.345.431,5.264,5.264,0,0,1,1.178.905,6.016,6.016,0,0,1,.94,1.257,9.319,9.319,0,0,1,.677,1.477,6.889,6.889,0,0,1,.36,1.538,5.965,5.965,0,0,1,.018,1.512l-.105-.009-.193-.018a1.128,1.128,0,0,1-.176-.026l-.088-.018a5.12,5.12,0,0,0-.826-1.336,4.6,4.6,0,0,0-.905-.8,3.275,3.275,0,0,0-.835-.4q-.387-.114-.633-.167-.264,0-.624.035a6.006,6.006,0,0,0-.747.123,5.937,5.937,0,0,0-.782.237,3.3,3.3,0,0,0-.7.36,1.739,1.739,0,0,0-.492.5,1.233,1.233,0,0,0-.185.677.907.907,0,0,0,.334.712,2.728,2.728,0,0,0,.809.475,4.362,4.362,0,0,0,.967.255,5.872,5.872,0,0,0,.791.07,8.749,8.749,0,0,0,.967-.053q.475-.053.94-.123t.923-.123a7.968,7.968,0,0,1,.914-.053h.123q.088,0,.185.009t.176.009h.114a.215.215,0,0,1,.158.158,1.281,1.281,0,0,1,.018.211q0,.105-.22.229a3.681,3.681,0,0,1-.571.246q-.352.123-.782.255t-.826.22q-.4.088-.738.149a3.2,3.2,0,0,1-.483.062,10.64,10.64,0,0,1-1.564-.123,5.343,5.343,0,0,1-1.512-.448,3.074,3.074,0,0,1-1.134-.905A2.374,2.374,0,0,1,26.112,45.029Zm9.105-1.02a6.079,6.079,0,0,1,.167-1.371,4.746,4.746,0,0,1,.527-1.336,3.229,3.229,0,0,1,.914-1.011,2.283,2.283,0,0,1,1.362-.4,3,3,0,0,1,.844.123,5.014,5.014,0,0,1,.87.352q.448.229.932.536t1.028.677a5.517,5.517,0,0,0-.053-1.45q-.123-.747-.316-1.468T41.1,37.3a8.94,8.94,0,0,1-.29-1.151,2.3,2.3,0,0,1-.018-.844.524.524,0,0,1,.422-.422,2.919,2.919,0,0,1,.817.993,7.769,7.769,0,0,1,.589,1.485,15.4,15.4,0,0,1,.4,1.8q.158.958.264,1.942t.167,1.916q.062.932.132,1.714t.132,1.336a2.333,2.333,0,0,0,.185.782.326.326,0,0,1-.2.352,1.249,1.249,0,0,1-.413.07.394.394,0,0,1-.3-.132.979.979,0,0,1-.193-.308,3.9,3.9,0,0,1-.132-.4q-.062-.22-.132-.4a1.366,1.366,0,0,0-.158-.308.269.269,0,0,0-.229-.123.727.727,0,0,0-.1.009q-.062.009-.062.026a6.794,6.794,0,0,1-.782.888,5.631,5.631,0,0,1-.984.756,5.428,5.428,0,0,1-1.125.519A3.782,3.782,0,0,1,37.907,48a1.717,1.717,0,0,1-1.169-.439,3.937,3.937,0,0,1-.844-1.055,5.561,5.561,0,0,1-.677-2.5Zm1.09.316q.176.633.316,1.107a2.805,2.805,0,0,0,.343.773,1.349,1.349,0,0,0,.483.448,1.574,1.574,0,0,0,.738.149,2.625,2.625,0,0,0,1.2-.325,5.2,5.2,0,0,0,1.178-.835,4.875,4.875,0,0,0,.9-1.116,2.332,2.332,0,0,0,.352-1.169v-.422a7.207,7.207,0,0,0-1.714-1.31,3.269,3.269,0,0,0-1.4-.4,1.95,1.95,0,0,0-1.072.272,2.392,2.392,0,0,0-.756.738,3.318,3.318,0,0,0-.439,1.02A3.868,3.868,0,0,0,36.308,44.326Zm8.35.088a3.28,3.28,0,0,1,.422-1.687,3.91,3.91,0,0,1,1.107-1.213,4.837,4.837,0,0,1,1.538-.729,6.365,6.365,0,0,1,1.714-.237,2.169,2.169,0,0,1,.853.167,3.173,3.173,0,0,1,.756.457,3.652,3.652,0,0,1,.642.668,5.219,5.219,0,0,1,.483.782,4.086,4.086,0,0,1,.308.817,3.229,3.229,0,0,1,.105.8,3.474,3.474,0,0,1-1.3,2.786,4.335,4.335,0,0,1-1.354.738,4.81,4.81,0,0,1-1.547.255,4.183,4.183,0,0,1-1.485-.255,3.62,3.62,0,0,1-1.178-.712,3.141,3.141,0,0,1-.782-1.134A3.88,3.88,0,0,1,44.657,44.414Zm.861-.141a2.769,2.769,0,0,0,.2,1.046,2.651,2.651,0,0,0,.563.87,2.737,2.737,0,0,0,.853.589A2.558,2.558,0,0,0,48.19,47a1.826,1.826,0,0,0,.729-.1,3.982,3.982,0,0,0,.861-.387,5.036,5.036,0,0,0,.826-.615,3.641,3.641,0,0,0,.659-.791,2.275,2.275,0,0,0,.325-.9,1.644,1.644,0,0,0-.158-.932,2.487,2.487,0,0,0-.8-.9,6.323,6.323,0,0,0-1.6-.8,4.653,4.653,0,0,0-1.2.167,3.886,3.886,0,0,0-1.134.5,2.9,2.9,0,0,0-.844.844A2.1,2.1,0,0,0,45.519,44.273Zm7.875,1.6a.708.708,0,0,1,.255-.132,1.136,1.136,0,0,1,.255-.026.7.7,0,0,1,.316.079,1.39,1.39,0,0,1,.29.193q.132.114.272.22a1.537,1.537,0,0,0,.3.176q.457.193.729.316a4.311,4.311,0,0,0,.5.193,2.249,2.249,0,0,0,.527.088q.3.018.773.018.369,0,.9.009a4.624,4.624,0,0,0,1-.088,1.955,1.955,0,0,0,.809-.352.921.921,0,0,0,.334-.782,1.028,1.028,0,0,0-.272-.8,1.911,1.911,0,0,0-.782-.448,5.37,5.37,0,0,0-1.107-.22q-.615-.062-1.266-.132a12.836,12.836,0,0,1-1.274-.2,3.83,3.83,0,0,1-1.116-.413,2.175,2.175,0,0,1-.791-.773,2.523,2.523,0,0,1-.316-1.266,1.579,1.579,0,0,1,.554-.94,3.146,3.146,0,0,1,1.072-.58,4.464,4.464,0,0,1,1.327-.211,4.128,4.128,0,0,1,1.292.176,2.32,2.32,0,0,1,.984.589,1.441,1.441,0,0,1,.413,1,1.274,1.274,0,0,1-.053.58.762.762,0,0,1-.237.343.457.457,0,0,1-.308.105.316.316,0,0,1-.246-.123.506.506,0,0,1-.079-.334,1.285,1.285,0,0,1,.2-.554.785.785,0,0,0-.4-.527,2.369,2.369,0,0,0-.773-.272,3.548,3.548,0,0,0-.94-.035,3.885,3.885,0,0,0-.914.185,1.91,1.91,0,0,0-.668.369.59.59,0,0,0-.22.527,1.069,1.069,0,0,0,.308.817,2.068,2.068,0,0,0,.8.448,5.778,5.778,0,0,0,1.134.229q.642.07,1.318.132t1.31.176a4.031,4.031,0,0,1,1.143.378,2.122,2.122,0,0,1,.809.712,2.071,2.071,0,0,1,.3,1.169,1.58,1.58,0,0,1-.281.94,2.4,2.4,0,0,1-.712.659,3.248,3.248,0,0,1-.94.387,4.125,4.125,0,0,1-.967.123q-.457,0-.976-.009t-1.055-.062a10.069,10.069,0,0,1-1.081-.167,4.043,4.043,0,0,1-1.011-.352,3.277,3.277,0,0,1-.835-.606A2.774,2.774,0,0,1,53.394,45.873Z" transform="matrix(0.966, -0.259, 0.259, 0.966, 434.287, 3882.468)" fill="#ffd4c5"/><path d="M-2759.558,3711.976c27.114,42.607-59.825,95.218,54.224,91.775" transform="translate(3208 230)" fill="none" stroke="#ffd4c5" stroke-width="1" stroke-dasharray="5"/></g></svg>