<svg xmlns="http://www.w3.org/2000/svg" width="100" height="85.512" viewBox="0 0 100 85.512">
  <g id="Grupo_10477" data-name="Grupo 10477" transform="translate(-1002.5 -699.744)">
    <g id="add-user_2_" data-name="add-user (2)" transform="translate(1002.5 662.655)">
      <path id="Caminho_48445" data-name="Caminho 48445" d="M96.918,105.613v46.3a6.9,6.9,0,0,1-6.9,6.9H16.9a6.9,6.9,0,0,1-6.9-6.9V103.38a6.9,6.9,0,0,1,6.9-6.9H87.316v4.863a4.268,4.268,0,0,0,4.268,4.268Z" transform="translate(-8.047 -47.793)" fill="#7fdbff"/>
      <path id="Caminho_48446" data-name="Caminho 48446" d="M87.762,273.548a4.625,4.625,0,0,0,4.625-4.625v-5.341a11.875,11.875,0,0,0-2.027-6.7,14.8,14.8,0,0,0-12.227-6.459H66.687a14.8,14.8,0,0,0-12.227,6.459,11.876,11.876,0,0,0-2.027,6.7v5.341a4.625,4.625,0,0,0,4.625,4.625Z" transform="translate(-42.192 -171.667)" fill="#00dff6"/>
      <path id="Caminho_48447" data-name="Caminho 48447" d="M131.864,250.51h0s-.319,6.33-7.324,6.33-7.325-6.329-7.325-6.329v0a15.2,15.2,0,0,1,1.6-.086h11.447A15.2,15.2,0,0,1,131.864,250.51Z" transform="translate(-94.322 -171.668)" fill="#f9f5f3"/>
      <path id="Caminho_48448" data-name="Caminho 48448" d="M122.519,150.67a2.37,2.37,0,0,0-1.66-2.026c.993-6.572-3.776-8.433-8.433-8.433s-9.253,1.42-8.433,8.433a2.37,2.37,0,0,0-1.66,2.026,3.17,3.17,0,0,0,1.66,3.346c0,4.658,3.776,7.72,8.433,7.72s8.433-3.062,8.433-7.72A3.17,3.17,0,0,0,122.519,150.67Z" transform="translate(-82.317 -82.981)" fill="#f9f5f3"/>
      <path id="Caminho_48449" data-name="Caminho 48449" d="M16.9,396.81a6.9,6.9,0,0,1-6.9-6.9v-9.631a6.9,6.9,0,0,0,6.9,6.9H90.021a6.9,6.9,0,0,0,6.9-6.9v9.631a6.9,6.9,0,0,1-6.9,6.9H16.9Z" transform="translate(-8.047 -276.162)" fill="#0074FF"/>
      <path id="Caminho_48450" data-name="Caminho 48450" d="M233.319,329.432h33.955v-9.561h-20.81v9.317" transform="translate(-187.749 -227.551)" fill="#efb900"/>
      <path id="Caminho_48451" data-name="Caminho 48451" d="M420.371,65.865H410.128a4.267,4.267,0,0,1-4.267-4.267V51.355a4.267,4.267,0,0,1,4.267-4.267h10.243a4.267,4.267,0,0,1,4.267,4.267V61.6A4.268,4.268,0,0,1,420.371,65.865Z" transform="translate(-326.591 -8.046)" fill="#00c853"/>
      <path id="Caminho_48452" data-name="Caminho 48452" d="M298.161,182.854h-24.5a1.953,1.953,0,0,0,0,3.906h24.5a1.953,1.953,0,0,0,0-3.906Z" transform="translate(-218.636 -117.295)" fill="#004798"/>
      <path id="Caminho_48453" data-name="Caminho 48453" d="M321.46,227.814H302.61a1.953,1.953,0,1,0,0,3.906h18.85a1.953,1.953,0,1,0,0-3.906Z" transform="translate(-241.935 -153.474)" fill="#004798"/>
      <path id="Caminho_48454" data-name="Caminho 48454" d="M113.67,165.3H92.86a1.953,1.953,0,0,0-1.953,1.953v7.608H85.724a6.537,6.537,0,0,0,.569-2.672v-5.341a13.766,13.766,0,0,0-2.367-7.8,16.741,16.741,0,0,0-11.368-7.127A9.264,9.264,0,0,0,74.587,147a5.077,5.077,0,0,0,1.7-4.631,4.32,4.32,0,0,0-1.527-2.829,8.372,8.372,0,0,0-1.868-6.12c-1.806-2.1-4.792-3.21-8.635-3.21-3.953,0-6.733.965-8.5,2.95a8.773,8.773,0,0,0-1.973,6.354,4.319,4.319,0,0,0-1.557,2.854A5.077,5.077,0,0,0,53.92,147a9.262,9.262,0,0,0,2.053,4.95,16.741,16.741,0,0,0-11.173,7.1,13.767,13.767,0,0,0-2.367,7.8v5.341a6.586,6.586,0,0,0,6.578,6.578H113.67a1.953,1.953,0,0,0,1.953-1.953v-9.561A1.953,1.953,0,0,0,113.67,165.3Zm-44.528-9.658c-.05.1-.1.193-.162.289-.9,1.495-2.413,2.221-4.617,2.221-2.153,0-3.642-.692-4.553-2.116-.084-.131-.159-.264-.227-.395ZM56.1,142.876a.463.463,0,0,1,.235-.39,1.783,1.783,0,0,0,1.428-2.116c-.246-2.1.061-3.656.912-4.612.969-1.089,2.847-1.641,5.582-1.641,1.525,0,4.289.24,5.674,1.851a5.254,5.254,0,0,1,.828,4.338,1.953,1.953,0,0,0,1.462,2.188.491.491,0,0,1,.193.384,1.243,1.243,0,0,1-.711,1.407,1.953,1.953,0,0,0-.966,1.685c0,3.4-2.665,5.767-6.48,5.767s-6.48-2.372-6.48-5.767a1.953,1.953,0,0,0-.966-1.685A1.244,1.244,0,0,1,56.1,142.876Zm-9.757,29.313v-5.341a9.877,9.877,0,0,1,1.687-5.6,12.841,12.841,0,0,1,7.5-5.224,9.344,9.344,0,0,0,.876,1.927c1.132,1.874,3.431,4.108,7.962,4.108s6.829-2.234,7.961-4.109a9.339,9.339,0,0,0,.876-1.926,12.841,12.841,0,0,1,7.5,5.224,9.877,9.877,0,0,1,1.687,5.6v5.341a2.675,2.675,0,0,1-2.672,2.672H77.967v-4.483a1.953,1.953,0,0,0-3.906,0v4.483H55.1v-4.483a1.953,1.953,0,1,0-3.906,0v4.483H49.011a2.675,2.675,0,0,1-2.672-2.672Zm65.378,2.672h-16.9v-5.654h16.9Z" transform="translate(-34.145 -74.933)" fill="#004798"/>
      <path id="Caminho_48455" data-name="Caminho 48455" d="M93.779,37.089H83.537a6.227,6.227,0,0,0-6.22,6.22v3.427H8.852A8.862,8.862,0,0,0,0,55.588V113.75A8.862,8.862,0,0,0,8.852,122.6a1.953,1.953,0,0,0,0-3.906,4.951,4.951,0,0,1-4.945-4.945v-2.295a8.932,8.932,0,0,0,4.945,1.513H81.974a8.865,8.865,0,0,0,4.943-1.513v2.294a4.95,4.95,0,0,1-4.943,4.945H26.3a1.953,1.953,0,0,0,0,3.906H81.974a8.861,8.861,0,0,0,8.85-8.851V59.772H93.78A6.227,6.227,0,0,0,100,53.552V43.309a6.228,6.228,0,0,0-6.221-6.22ZM8.852,109.062a4.95,4.95,0,0,1-4.945-4.944V55.588a4.951,4.951,0,0,1,4.945-4.945H77.316v2.91a6.228,6.228,0,0,0,6.221,6.221h3.381v44.346a4.949,4.949,0,0,1-4.943,4.944H8.852Zm87.242-55.51a2.317,2.317,0,0,1-2.314,2.314H83.537a2.317,2.317,0,0,1-2.314-2.314V43.309A2.317,2.317,0,0,1,83.537,41H93.779a2.317,2.317,0,0,1,2.314,2.314Z" fill="#004798"/>
      <path id="Caminho_48456" data-name="Caminho 48456" d="M434.694,70.382h-1.633V68.748a1.953,1.953,0,1,0-3.906,0v1.633h-1.633a1.953,1.953,0,1,0,0,3.906h1.633v1.633a1.953,1.953,0,1,0,3.906,0V74.288h1.633a1.953,1.953,0,0,0,0-3.906Z" transform="translate(-342.449 -23.904)" fill="#004798"/>
      <path id="Caminho_48457" data-name="Caminho 48457" d="M83.932,456.139a1.952,1.952,0,1,0-1.057,2.551A1.969,1.969,0,0,0,83.932,456.139Z" transform="translate(-64.52 -336.238)" fill="#004798"/>
    </g>
  </g>
</svg>
