<svg xmlns="http://www.w3.org/2000/svg" xmlns:xlink="http://www.w3.org/1999/xlink" viewBox="0 0 482.22 707.96"><defs><style>.cls-1,.cls-12,.cls-13,.cls-15,.cls-8{fill:none;}.cls-2{fill:#fedfc6;}.cls-14,.cls-3,.cls-5,.cls-6{fill:#fd9542;}.cls-13,.cls-14,.cls-15,.cls-16,.cls-21,.cls-3,.cls-5,.cls-8,.cls-9{stroke:#263238;}.cls-12,.cls-13,.cls-14,.cls-15,.cls-16,.cls-21,.cls-3,.cls-5,.cls-8,.cls-9{stroke-linecap:round;stroke-linejoin:round;}.cls-20,.cls-4{isolation:isolate;}.cls-4{opacity:0.3;}.cls-7{clip-path:url(#clip-path);}.cls-16,.cls-22,.cls-9{fill:#263238;}.cls-10{clip-path:url(#clip-path-2);}.cls-11{clip-path:url(#clip-path-3);}.cls-12{stroke:#fd9542;stroke-width:2px;}.cls-13{stroke-width:4px;}.cls-15{stroke-width:3px;}.cls-17{clip-path:url(#clip-path-4);}.cls-18,.cls-21{fill:#fff;}.cls-19{clip-path:url(#clip-path-5);}.cls-20{opacity:0.2;}.cls-23{clip-path:url(#clip-path-6);}</style><clipPath id="clip-path"><path class="cls-1" d="M128.24,647.71l18.2,54.6a7.43,7.43,0,0,0,7.05,5.08h28.37a7.41,7.41,0,0,0,6.82-4.49l12.69-29.45"/></clipPath><clipPath id="clip-path-2"><path class="cls-1" d="M325.4,647.71l-18.2,54.6a7.46,7.46,0,0,1-7.06,5.08H271.78A7.41,7.41,0,0,1,265,702.9l-12.69-29.45"/></clipPath><clipPath id="clip-path-3"><ellipse class="cls-1" cx="228.14" cy="542.16" rx="156" ry="141.48"/></clipPath><clipPath id="clip-path-4"><path class="cls-1" d="M179.48,665.27l15.86,37.64a7.45,7.45,0,0,0,6.85,4.55H231a7.47,7.47,0,0,0,6.82-4.47l17.3-40h-.75"/></clipPath><clipPath id="clip-path-5"><path class="cls-1" d="M476.3,1,396.53,115.94s-6.82,16.27-15.21,28.34-31.93,24.14-31.93,24.14-2.09,22.56-8.91,30.43S319,202,319,202s-6.3,6.82-13.12,10-27.81-8.4-27.81-8.4,18.88,20.47,21.5,27.29,7.36,12.59-1,18.89-17.86-2.62-17.86-2.62,4.21,13.64-7.86,16.27-25.22-23.63-30.47-32.54-20.46-42.51-23.08-44.09-6.28-10-1-17.84,42.48-58.24,46.68-61.84,84.51-22.64,84.51-22.64L379.83.5"/></clipPath><clipPath id="clip-path-6"><path class="cls-1" d="M250.7,149s6.31,9.45,7.36,17.85a30.55,30.55,0,0,1-4.73,20.47c-3.15,4.71-6.29,8.91-8.91,16.26s-3.15,17.84-6.83,23.08-5.76,10.48-.53,15.21,18.89,4.2,26.25-9.44,12.07-28.34,16.78-33.59,20-17.31,20-17.31,41.45-5.76,49.32-13.11,14.7-27.28,14.7-27.28"/></clipPath></defs><g id="Camada_2" data-name="Camada 2"><g id="Camada_1-2" data-name="Camada 1"><path class="cls-2" d="M24.85,435.83C-8,349.82-7,269.2,20.41,202.23S101.12,81.9,169.34,53.6c67.71-28.37,150.42-32.17,188.27,5.64,38.3,38.38,32.19,118.94,59.26,216,27.5,97.59,88.18,211.63,56.35,286.22-31.78,74.09-157.13,109.11-252.9,80.45C124.49,613.72,57.68,522.34,24.85,435.83Z"/><g id="freepik--piggy-bank--inject-213"><path class="cls-3" d="M143.27,436.82a323.84,323.84,0,0,0-42.72-17.3C79.47,413,54.59,419,54,426s3.2,3.81,8.12,11.42,2.7,25.41,9.73,41.64S100,503.38,100,503.38Z"/><path class="cls-4" d="M129.21,452.51S96.76,432,77.84,424.92s-20,3.25-20,3.25A15.71,15.71,0,0,1,68.12,443.5c0,12.14,6.07,37.29,20.82,42.49S129.21,452.51,129.21,452.51Z"/><ellipse class="cls-5" cx="354.48" cy="458.99" rx="16.43" ry="17.64" transform="translate(-139.89 155.79) rotate(-20.8)"/><path class="cls-6" d="M128.24,647.71l18.2,54.6a7.43,7.43,0,0,0,7.05,5.08h28.37a7.41,7.41,0,0,0,6.82-4.49l12.69-29.45"/><g class="cls-7"><path class="cls-4" d="M137.37,647.71l15,54.6a6.4,6.4,0,0,0,5.86,5.08H181.8a6.21,6.21,0,0,0,5.65-4.49L198,673.45"/></g><path class="cls-8" d="M128.24,647.71l18.2,54.6a7.43,7.43,0,0,0,7.05,5.08h28.37a7.41,7.41,0,0,0,6.82-4.49l12.69-29.45"/><path class="cls-9" d="M265.13,647.71l-18.19,54.6a7.43,7.43,0,0,1-7.05,5.08H211.55a7.42,7.42,0,0,1-6.82-4.49L192,673.45"/><path class="cls-6" d="M325.4,647.71l-18.2,54.6a7.46,7.46,0,0,1-7.06,5.08H271.78A7.41,7.41,0,0,1,265,702.9l-12.69-29.45"/><g class="cls-10"><path class="cls-4" d="M312.5,647.71l-12.44,54.6c-.69,3-2.63,5.08-4.82,5.08h-19.4c-2,0-3.85-1.76-4.65-4.49l-12.06-28.84"/></g><path class="cls-8" d="M325.4,647.71l-18.2,54.6a7.46,7.46,0,0,1-7.06,5.08H271.78A7.41,7.41,0,0,1,265,702.9l-12.69-29.45"/><ellipse class="cls-6" cx="228.14" cy="542.16" rx="156" ry="141.48"/><g class="cls-11"><path class="cls-4" d="M335.58,445.49A130,130,0,0,1,349.5,504c0,78.14-69.85,141.48-156,141.48A166.39,166.39,0,0,1,103,619.24c27.2,36.5,73.25,60.57,125.47,60.57,83.64,0,151.43-61.45,151.43-137.26C379.81,504.6,362.88,470.32,335.58,445.49Z"/></g><ellipse class="cls-8" cx="228.14" cy="542.16" rx="156" ry="141.48"/><path class="cls-12" d="M371,554.85c-3.4,28.5-16.54,54.35-36.33,74.77"/><path class="cls-12" d="M368.43,511a124.47,124.47,0,0,1,3.46,29.15"/><path class="cls-13" d="M189.46,409.51a170.8,170.8,0,0,1,39.21-4.5,173.47,173.47,0,0,1,25.25,1.84"/><path class="cls-3" d="M258.74,508.27s15.14-10.29,15.69-29.21-24.34-46.49-44.35-57.86-34.61-9.18-35.14-1.08-7.57,17.31-10.27,33S180.88,492,202,499.61"/><path class="cls-4" d="M226.16,502.2l3.1.46c13.3,1.91,18-6.77,17.58-19.8-.53-18.39-24.86-57.33-35.14-62.74s-13.52,2.17-13.52,2.17,1.45,1-3.62,17.76c-2.33,7.76-11,34.82-2.42,46.81C199.76,497.46,213.9,500.36,226.16,502.2Z"/><path class="cls-4" d="M269.24,483.56H269a1.44,1.44,0,0,1-1.24-1.62h0a28.73,28.73,0,0,0,.27-3.34c.29-10.1-7.94-24.59-21.49-38a1.45,1.45,0,0,1,2-2.06c14.3,14.13,22.65,29.11,22.34,40.09,0,1.22-.13,2.45-.29,3.66A1.44,1.44,0,0,1,269.24,483.56Z"/><path class="cls-4" d="M261.48,501a1.44,1.44,0,0,1-1.45-1.43,1.48,1.48,0,0,1,.33-.92,35.57,35.57,0,0,0,5.62-9.69,1.44,1.44,0,0,1,2.7,1,38.21,38.21,0,0,1-6.09,10.48A1.41,1.41,0,0,1,261.48,501Z"/><ellipse class="cls-4" cx="115.53" cy="559.32" rx="31.9" ry="42.18" transform="translate(-455.12 536.01) rotate(-75.99)"/><ellipse class="cls-14" cx="113.5" cy="556.21" rx="31.9" ry="42.18" transform="translate(-453.65 531.68) rotate(-75.99)"/><path class="cls-8" d="M100.77,551.06c.26,3.86-1.23,7.12-3.31,7.21s-4-2.89-4.32-6.75,1.22-7.14,3.31-7.21S100.51,547.18,100.77,551.06Z"/><path class="cls-8" d="M129.35,558.22c.26,3.88-1.23,7.13-3.3,7.21s-4-2.88-4.33-6.76,1.23-7.12,3.32-7.21S129.05,554.34,129.35,558.22Z"/><path class="cls-15" d="M176.52,568.25a33.48,33.48,0,0,1-1.93,8.12c-8.28,22.36-38.25,32-67.85,22.41"/><line class="cls-15" x1="171.69" y1="566.13" x2="180.88" y2="566.13"/><path class="cls-9" d="M113.17,506.25c-1,4.19-3.59,7.21-5.77,6.66s-3.13-4.33-2.1-8.57,3.59-7.21,5.76-6.67S114.19,502,113.17,506.25Z"/><ellipse class="cls-16" cx="135.83" cy="511.1" rx="7.85" ry="4.05" transform="translate(-392.87 523.4) rotate(-76.45)"/><path class="cls-6" d="M179.48,665.27l15.86,37.64a7.45,7.45,0,0,0,6.85,4.55H231a7.47,7.47,0,0,0,6.82-4.47l17.3-40h-.75"/><g class="cls-17"><path class="cls-4" d="M213,660.47c-9.15,0-19.79,1.2-28.4-.79l14.82,43.16a6.27,6.27,0,0,0,5.67,4.55h23.77a6.21,6.21,0,0,0,5.62-4.48l14.35-44-5.77.79C224.76,661.67,225.24,660.47,213,660.47Z"/></g><path class="cls-8" d="M179.48,665.27l15.86,37.64a7.45,7.45,0,0,0,6.85,4.55H231a7.47,7.47,0,0,0,6.82-4.47l17.3-40h-.75"/></g><g id="freepik--Hand--inject-213"><path class="cls-18" d="M476.3,1,396.53,115.94s-6.82,16.27-15.21,28.34-31.93,24.14-31.93,24.14-2.09,22.56-8.91,30.43S319,202,319,202s-6.3,6.82-13.12,10-27.81-8.4-27.81-8.4,18.88,20.47,21.5,27.29,7.36,12.59-1,18.89-17.86-2.62-17.86-2.62,4.21,13.64-7.86,16.27-25.22-23.63-30.47-32.54-20.46-42.51-23.08-44.09-6.28-10-1-17.84,42.48-58.24,46.68-61.84,84.51-22.64,84.51-22.64L379.83.5"/><g class="cls-19"><path class="cls-20" d="M388.33,117.2s-8.65,26-18,31S307.57,167,286.66,164.07s-32.45-10.82-32.45-10.82-11.54,15.15-16.59,20.19a32.88,32.88,0,0,1-12.26,7.21s25.1,63,43.14,82.55a8.59,8.59,0,0,0,4.33.21c12.07-2.63,7.86-16.27,7.86-16.27s9.44,8.91,17.85,2.62,3.66-12.07,1-18.89S278,203.58,278,203.58s21,11.54,27.81,8.4,13.12-10,13.12-10,14.7,4.73,21.52-3.15,8.91-30.43,8.91-30.43,23.61-12.07,32-24.14,15.21-28.34,15.21-28.34L429.46,68.6Z"/></g><path class="cls-8" d="M476.3,1,396.53,115.94s-6.82,16.27-15.21,28.34-31.93,24.14-31.93,24.14-2.09,22.56-8.91,30.43S319,202,319,202s-6.3,6.82-13.12,10-27.81-8.4-27.81-8.4,18.88,20.47,21.5,27.29,7.36,12.59-1,18.89-17.86-2.62-17.86-2.62,4.21,13.64-7.86,16.27-25.22-23.63-30.47-32.54-20.46-42.51-23.08-44.09-6.28-10-1-17.84,42.48-58.24,46.68-61.84,84.51-22.64,84.51-22.64L379.83.5"/><polygon class="cls-21" points="203.49 307.48 205.58 315.35 238.11 307.48 268.56 227.71 248.61 220.89 203.49 307.48"/><polygon class="cls-21" points="213.45 201.48 258.58 218.28 236.54 317.98 183.54 301.71 213.45 201.48"/><polygon class="cls-3" points="185.31 295.75 232.34 309.58 252.81 220.89 211.61 207.65 185.31 295.75"/><path class="cls-21" d="M211.42,229.59a14.92,14.92,0,0,0-6.27-.29l-12.29,41.17a14.73,14.73,0,0,0,6.36,3.65c9.63,2.65,20.19-5.18,23.56-17.48S221,232.23,211.42,229.59Z"/><path class="cls-22" d="M209.67,236.41a.31.31,0,0,1-.17-.33l.55-2.14a.63.63,0,0,0-.38-.81l-.14,0-2.29-.55a.63.63,0,0,0-.81.34.58.58,0,0,0,0,.18l-.45,2.21a.29.29,0,0,1-.3.22,11.63,11.63,0,0,0-2.36,0l-4.19,14.09c3.27,3.4,8.38,5.1,7.7,8-.39,1.61-1.86,2.88-4.44,2.3a3.78,3.78,0,0,1-3.26-4.26,5.17,5.17,0,0,1,.11-.54l.13-.58c.08-.31-.11-.57-.56-.67l-.88-.22-2.49,8.34a10.34,10.34,0,0,0,3.44,2.07.31.31,0,0,1,.18.35l-.52,1.83a.6.6,0,0,0,.3.8.54.54,0,0,0,.22.05l2.38.58a.61.61,0,0,0,.83-.26.39.39,0,0,0,.06-.15l.39-1.81a.32.32,0,0,1,.32-.23c5.07.53,8.52-2,9.59-6.41.83-3.54-.36-6.56-4.07-9.4-3.39-2.57-7-3.84-6.35-6.46.44-1.82,2.1-2.65,4.33-2.12a3.87,3.87,0,0,1,3.21,4.45,4.07,4.07,0,0,1-.14.58l-.1.41c0,.24.15.46.59.57l4.23,1a.63.63,0,0,0,.81-.37.83.83,0,0,0,0-.15l.32-1.34C216.42,241.69,214.39,238.1,209.67,236.41Z"/><path class="cls-18" d="M250.7,149s6.31,9.45,7.36,17.85a30.55,30.55,0,0,1-4.73,20.47c-3.15,4.71-6.29,8.91-8.91,16.26s-3.15,17.84-6.83,23.08-5.76,10.48-.53,15.21,18.89,4.2,26.25-9.44,12.07-28.34,16.78-33.59,20-17.31,20-17.31,41.45-5.76,49.32-13.11,14.7-27.28,14.7-27.28"/><g class="cls-23"><path class="cls-20" d="M360.93,148.21S338.57,162.63,321.27,167s-28.12,4.33-34.61,13S273.68,216,265,221s-10.09-13-22.35-9.37l-.4.14c-1.2,5.63-2.25,11.4-4.68,14.87-3.67,5.25-5.77,10.49-.53,15.22s18.89,4.2,26.25-9.45,12.07-28.34,16.78-33.59,20-17.3,20-17.3,41.45-5.77,49.32-13.11c4.76-4.44,9.13-13.47,11.84-19.93Z"/></g><path class="cls-8" d="M250.7,149s6.31,9.45,7.36,17.85a30.55,30.55,0,0,1-4.73,20.47c-3.15,4.71-6.29,8.91-8.91,16.26s-3.15,17.84-6.83,23.08-5.76,10.48-.53,15.21,18.89,4.2,26.25-9.44,12.07-28.34,16.78-33.59,20-17.31,20-17.31,41.45-5.76,49.32-13.11,14.7-27.28,14.7-27.28"/><path class="cls-8" d="M234.44,175.25s13.65,7.34,23.62-1.06"/><line class="cls-8" x1="280.61" y1="247.14" x2="268.56" y2="224.05"/><path class="cls-8" d="M318.93,202s9.45-7.87,8.91-25.19"/></g><g id="freepik--Floor--inject-213"><line class="cls-8" x1="50.62" y1="707.4" x2="472.61" y2="707.4"/><line class="cls-8" x1="13.33" y1="707.4" x2="32.51" y2="707.4"/></g></g></g></svg>