<svg xmlns="http://www.w3.org/2000/svg" viewBox="0 0 423.62 446.73"><defs><style>.cls-1{fill:#e0e0e0;}.cls-2{fill:#fafafa;}.cls-3{fill:#ebebeb;}.cls-11,.cls-4{fill:#fff;}.cls-5{fill:#263238;}.cls-6{fill:#ffbe9d;}.cls-7{fill:#eb996e;}.cls-8{opacity:0.2;}.cls-9{fill:#ff725e;}.cls-10,.cls-11{isolation:isolate;}.cls-10,.cls-11,.cls-13{opacity:0.3;}.cls-12{opacity:0.8;}.cls-14{fill:#f7c14d;}.cls-15{fill:#455a64;}.cls-16{opacity:0.6;}</style></defs><g id="Camada_2" data-name="Camada 2"><g id="Camada_1-2" data-name="Camada 1"><g id="freepik--background-complete--inject-68"><rect class="cls-1" x="35.97" y="20.79" width="75.32" height="78.51"/><rect class="cls-2" x="30.87" y="20.79" width="75.32" height="78.51"/><path class="cls-1" d="M106.22,99.33H30.85V20.77h75.37Zm-75.32,0h75.27V20.81H30.9Z"/><rect class="cls-2" x="41" y="31.35" width="55.07" height="57.4"/><path class="cls-1" d="M41,89.13A79,79,0,0,1,31,99,87.82,87.82,0,0,1,41,89.13Z"/><path class="cls-1" d="M96.07,89a89.48,89.48,0,0,1,9.9,10A87.82,87.82,0,0,1,96.07,89Z"/><path class="cls-1" d="M95.92,31.5a87.82,87.82,0,0,1,10-9.9A88.65,88.65,0,0,1,95.92,31.5Z"/><path class="cls-1" d="M40.85,31.64a88.65,88.65,0,0,1-9.9-10A87,87,0,0,1,40.85,31.64Z"/><path class="cls-1" d="M95.92,88.75c0-18.9-.11-32.82-.17-57.4l.22.21H41.05l.24-.24v57.4l-.21-.21c10.43,0,44.07.14,53.93.11-9.74,0-43.86.08-54.14.11V30.87H96.24C96,55.51,96.49,69.81,95.92,88.75Z"/><path class="cls-1" d="M70.15,53.87c-12.4-14-26.41,8.16-11.47,17,8.53,6.07,23.85,3.12,26.17-8,1.27-7.2-7.1-12.89-13.34-9.14"/><path class="cls-3" d="M70.17,53.86a3.42,3.42,0,0,0-3.64-2.51l2.15,2.56c-1.2.13-3.22,1.6-2.53,2.88.37.29,2.78-1,3.16-1.09a9.11,9.11,0,0,0,1.56,4.07,10.7,10.7,0,0,0,1-4.09L74.76,57a4.21,4.21,0,0,0-1.36-2.14c6.71-2.16-.9-2.55-3.25-.79"/><path class="cls-3" d="M70,54.94a18.86,18.86,0,0,0-.72-8.73c4.6-.66,1.43,7.09.75,9.51"/><path class="cls-4" d="M55.93,65.42c-4.14-3.84-2.82-11.6,2.33-13.92A9.38,9.38,0,0,0,55.93,65.42Z"/><path class="cls-4" d="M58.84,67.62c-.06.33-1.93-.91-1.64-1.13A8.39,8.39,0,0,1,58.84,67.62Z"/><path class="cls-1" d="M23.68,308.11c-5-2.78-16.07-7.93-20.22-2.27,5.13,5.13,13.88,5.43,20.22,2.27"/><path class="cls-1" d="M23.34,307.74c-6.09-4.92-15.73-12.1-13.54-20.88,6.84,5.35,12.22,12.26,13.54,20.84"/><path class="cls-1" d="M23.61,308c-1.18-7.26-.37-16,6.16-20.57,2.3,7.38-2.34,15.24-6.16,21.37"/><path class="cls-1" d="M30.32,320.08a21.05,21.05,0,0,0-16.74,15.86c8.54-.73,11.7-10.19,16.7-15.8"/><path class="cls-1" d="M31.77,322a26.26,26.26,0,0,1,3-24.86c2.32,8.25,1.47,17.57-3,24.86"/><path class="cls-1" d="M40.68,332.56c-22.52.61-26.08,27.44,0,0"/><path class="cls-1" d="M40.35,332c-7-32,16.12-34,0-.27"/><path class="cls-1" d="M63.81,335.48c-1.59-6.66-.1-16.53,5.49-20.83,3,5.15-2.34,16-5.49,20.86"/><path class="cls-1" d="M65.93,336.92A29.15,29.15,0,0,0,89.85,332c-7.8-4-18.49-2-24,4.86"/><path class="cls-1" d="M67.68,332.52c4.5-7.33,13.12-12.12,21.71-12.56-2.72,9.77-14.5,8.92-21.71,12.52"/><path class="cls-1" d="M64.26,311.16c2.5-8.11,4.79-17.49.24-25.3-4.2,8.13-4.63,17.63-.37,25.74"/><path class="cls-1" d="M78.4,304C83.32,295.1,93.34,288,103.49,287,99.57,296.71,88.9,304.24,78.4,304"/><path class="cls-1" d="M75.31,305.76c7.33,1.12,13.57,5.8,20.42,8.63,16.52,4.35,7.51-15.43-19.79-8.8"/><path class="cls-1" d="M71.07,310.9c28.81,22.06,26.16,2.83,0-.27"/><path class="cls-1" d="M66.29,279.86c6.2,5.57,15.21,9.11,23.46,7.27-1.89-6.77-17.16-9.42-23.49-7.27"/><path class="cls-1" d="M72,277.78a31.32,31.32,0,0,1,28-4.62c-7.39,7.08-18.61,7-28,4.63"/><path class="cls-1" d="M69.68,263.52c-.65-6.6-.23-11.8-.69-18.43-3.19-6.71-4.67,13.74.69,18.28"/><path class="cls-1" d="M69.23,264.24c6.63-4.72,14.73-12,14.41-20.72-10.53.47-11.79,12.86-14.39,20.72"/><path class="cls-1" d="M80,261.26a88.12,88.12,0,0,0,26.88-15.84c-10.92-2.73-22,6.64-27,15.77"/><path class="cls-1" d="M72.25,267.85c10.13,1.55,21-.05,29.8-5.27-6.54-7.06-22.38,1.26-29.75,5.27"/><path class="cls-1" d="M43.92,280.08c-3.39-6.83-3.17-14.8-.24-21.85,4.25,6.71.66,14.93.34,22.19"/><path class="cls-1" d="M30.39,273.26a30.45,30.45,0,0,0-22.64,9.65c8.79,1.23,16.5-4.21,23-9.41"/><path class="cls-1" d="M21.3,270.22c-8-1.24-17.66-.1-21.3,8.19,8,.79,15.08-3.77,21.33-8.19"/><path class="cls-1" d="M34.76,270.36c-6.74-4.86-17.33-9.9-24.24-2.93,7.42,4.21,16.85.8,24.71,3.61"/><path class="cls-1" d="M34.79,270.56c-6.36-6.25-8.77-17.46-6.22-26a39.63,39.63,0,0,1,6.22,26"/><path class="cls-1" d="M52.27,252.87c3.15-7.81,5.23-19.5,15.41-20.52A31.71,31.71,0,0,1,52.4,252.91"/><path class="cls-1" d="M49.11,256.55c-3.62-5.55-9-12.66-16.48-11a22.08,22.08,0,0,0,16.45,11"/><path class="cls-1" d="M49.74,253.09c-2.65-6.38-5.18-14-1.55-20.49,3.49,6.6,4.62,13.69,1.73,20.57"/><path class="cls-1" d="M52.3,232.6c2-6.54,8-11.35,14.44-13.56,14.52-1-10.51,13.55-14.44,13.56"/><path class="cls-1" d="M52.37,227.26c.33-8.06,1.62-18.16,9.75-22,1.26,9-7.22,15.45-9.85,23.38"/><path class="cls-1" d="M52.27,230.16c-2.12-11.11-3.91-14.88-11.57-23-3.32,9.6,6.11,16.47,11.57,22.9"/><path class="cls-1" d="M52.3,370.54c-.28,4.06-.33-146.06,0-142C52.57,224.53,52.6,374.55,52.3,370.54Z"/><path class="cls-1" d="M80.09,275.28c-7.58,3.62-24.55,6-27.78,14.55C55,280.89,72.7,278,80.09,275.28Z"/><path class="cls-1" d="M89.2,252.91C78.51,263.11,63.34,275.33,54.45,286,63.83,273.74,78.17,262.46,89.2,252.91Z"/><path class="cls-1" d="M66,273.46c-.05.26,3.81-11.21,3.6-11A26.27,26.27,0,0,1,66,273.46Z"/><path class="cls-1" d="M52.33,292.7c-5.59-6.94-12.91-16.27-18.48-23.22A213.14,213.14,0,0,1,52.33,292.7Z"/><path class="cls-1" d="M46.24,284.88a13.42,13.42,0,0,1-3.14-9.6h.2c-.2.75-.22.75-.19,0h.2A23.43,23.43,0,0,0,46.24,284.88Z"/><path class="cls-1" d="M38.37,275c-4-2.83-9.34-1-13.73-.1C28.64,273.32,35,271.52,38.37,275Z"/><path class="cls-1" d="M36.51,272.59c-5-2.5-14-3.15-19.34-1.48A22.93,22.93,0,0,1,36.51,272.59Z"/><path class="cls-1" d="M52.27,262.45a91.34,91.34,0,0,1-3.55-13.92A90.47,90.47,0,0,1,52.27,262.45Z"/><path class="cls-1" d="M52.4,262.45a18.08,18.08,0,0,0-5.46-7.5A9.84,9.84,0,0,1,52.4,262.45Z"/><path class="cls-1" d="M52.3,353.59c-3.74-18.53-23.89-28.68-29.07-46.42C29,324.21,49.68,336,52.3,353.59Z"/><path class="cls-1" d="M77.41,325.22c-10.67,6.07-19.3,18.61-25.11,28.37C58.14,342.69,66.26,331,77.41,325.22Z"/><path class="cls-1" d="M77.91,334.43c-5.91.58-13.46,2.05-17.36,6.67C64.4,335.74,71.71,334.48,77.91,334.43Z"/><path class="cls-1" d="M61.37,340.09c-.15-.08,1.1-2,2.08-4.57s1.12-4.88,1.29-4.85A13.81,13.81,0,0,1,61.37,340.09Z"/><path class="cls-1" d="M85.55,300.52a61.41,61.41,0,0,0-33.24,34.41A55.49,55.49,0,0,1,85.55,300.52Z"/><path class="cls-1" d="M65.68,313.84c2-4.51,8.38-3.76,11.88-1.56C73.63,310.9,68.47,309.83,65.68,313.84Z"/><path class="cls-1" d="M62.68,316.9a12.55,12.55,0,0,0,1-8.31A7.64,7.64,0,0,1,62.68,316.9Z"/><path class="cls-1" d="M30.34,358.14c.69,12.16,4.35,24.52,10,37h24.5c5.37-12.37,8.78-24.71,9.38-37Z"/><rect class="cls-3" x="261.36" y="6.89" width="140.63" height="252.63"/><rect class="cls-2" x="266.98" y="14.22" width="127.94" height="237.78"/><polygon class="cls-1" points="407.94 261.8 401.99 259.52 401.99 2.61 407.94 2.61 407.94 261.8"/><rect class="cls-1" x="266.98" y="82.62" width="130.72" height="2.53"/><rect class="cls-1" x="266.98" y="139.24" width="130.72" height="2.53"/><rect class="cls-1" x="266.98" y="195.87" width="130.72" height="2.53"/><rect class="cls-1" x="327.72" y="83.88" width="6.46" height="174.85"/><rect class="cls-1" x="291.62" y="14.22" width="2.93" height="69.67"/><rect class="cls-1" x="316.87" y="14.22" width="2.93" height="69.67"/><rect class="cls-1" x="342.13" y="14.22" width="2.93" height="69.67"/><rect class="cls-1" x="367.39" y="14.22" width="2.93" height="69.67"/><rect class="cls-1" x="255.42" y="2.61" width="5.95" height="258.48"/><rect class="cls-1" x="255.42" width="152.52" height="6.89"/><rect class="cls-1" x="251.2" y="262.65" width="160.77" height="6.42"/><polygon class="cls-1" points="401.99 259.52 411.97 262.65 251.2 262.65 261.36 259.52 401.99 259.52"/></g><g id="freepik--Floor--inject-68"><path class="cls-5" d="M423.39,396.39c11.49.33-418.93.33-407.42,0C4.83,396.06,434.52,396.05,423.39,396.39Z"/></g><g id="freepik--bread-2--inject-68"><path class="cls-6" d="M182,409.9c.22-31.11-2.3-16.85,24.16-28.61,18.76-10.06,47.66-23.06,64.4-30.16,1.79-.79,88.19,19.06,90.06,19,1.43.05,9.54.53,10,4.41-.21,2.44,1.44,22.08-1.95,23.38-8.14,3.35-45.71,19.14-55.06,28.7-10.5,10.73-22.79,19.92-27.64,20.14s-22.3-6.16-27.43-7.77C253.45,435.64,190.46,418.24,182,409.9Z"/><path class="cls-7" d="M370.68,374.46s-29,13.18-41.85,18.73c-22.44,8.36-28.73,30.1-44.95,30.33-24.23-1.91-79-31-101.48-33.64-.17,2.5-.34,19-.43,21.91,163.83,56.13,60,38.43,188.28-14.61C370.25,397.18,371.18,378.72,370.68,374.46Z"/><path class="cls-7" d="M233.31,374.52c-3.84.7-2.17,4,1.08,3.68,3.75-.3,3.18-3.71-.35-3.73"/><path class="cls-7" d="M322.22,385.33c-3.83.7-2.16,4,1.09,3.68,3.75-.3,3.16-3.7-.36-3.73"/><path class="cls-7" d="M322.68,381.22c-2.21.4-1.25,2.31.63,2.13,2.15-.16,1.85-2.15-.2-2.12"/><path class="cls-7" d="M304.18,397.17c-2.22.39-1.25,2.31.63,2.12,2.15-.17,1.83-2.13-.2-2.11"/><path class="cls-7" d="M225.47,377.08c-2.19.38-1.28,2.36.62,2.13,2.19-.22,1.83-2.13-.2-2.12"/><path class="cls-5" d="M183.77,389.21c31.78,8.87,65.59,27.2,99.06,34,14.12.85,20.38-14.64,31-21.34,7.7-6.39,20-11.12,29.13-15.23,5.13-2.3,22.78-10.13,27.76-12.24-17.63,9.09-40.65,16.17-56.68,27.92-10.91,7.07-17.63,23.38-32.61,21.38-23.88-4.62-46.6-16.65-69.08-24.19C207.11,397.45,188.72,391.34,183.77,389.21Z"/><g class="cls-8"><path d="M209.83,379.44c11.4,6.31,23.59,12.81,36.6,12.09,26.81-4.8,50.62-22.81,77.53-29.31-17.41-3.3-36.85-9.12-53.94-10.91-22.12,9.47-46.65,20.92-60.17,28.11"/></g></g><g id="freepik--Bacon--inject-68"><path class="cls-9" d="M168.08,306.34c-.32.82,11.46,44.33,11.46,44.33,38,13.52,73.65-8.13,108.4-16.25,22.57-4.5,69.13,6.7,91.54-1.1l.21-2.39L361,294.13c-32,3.41-63.41-9.79-96.13,4-36.3,18.13-64.38,8.85-96.58,5.79Z"/><path class="cls-10" d="M168.08,306.34c-.32.82,11.46,44.33,11.46,44.33,38,13.52,73.65-8.13,108.4-16.25,22.57-4.5,69.13,6.7,91.54-1.1l.21-2.39L361,294.13c-32,3.41-63.41-9.79-96.13,4-36.3,18.13-64.38,8.85-96.58,5.79Z"/><path class="cls-9" d="M168.29,304c-.32.82,11.47,44.33,11.47,44.33,37.93,13.52,73.67-8.16,108.39-16.25,22.57-4.49,69.13,6.7,91.54-1.1l-18.48-39.18c-32,3.41-63.4-9.79-96.13,4C231.75,313.18,194.18,305.46,168.29,304Z"/><path class="cls-11" d="M379.68,331c-22.5,7.63-69.25-3.58-91.94.93-33.42,7.73-71.09,29.66-107.5,16.75l-.7,2-4.24-15.81.52-1.24c36.63-4.18,56.32,11.13,89.92-6.45,16.81-11.77,49-7.31,69.53-4.92,12.1.85,35.68-4.64,37.84-5.23Z"/><path class="cls-11" d="M169,310.7l.57-.92c17.47,10.12,66.13-.9,76.11.67,8.67,6.25-59.84,17.1-72,15.08l-.63.82Z"/><path class="cls-11" d="M364.39,298.51s-15.57,7.22-56.18,3.48c0,0-26.13-1-40.19,6.94s-32.33,13.79-35,15.15-9,3-4.22,4.1c12.43,1.71,38.1-12.78,50.39-16.61,17.07-5.95,75.81,9.28,89.84-3.21Z"/><g class="cls-12"><path class="cls-4" d="M270.77,295.14c-28.38,16.39-64.85,15.25-96.26,10.91C204.18,309.45,242.38,310.91,270.77,295.14Z"/></g><g class="cls-12"><path class="cls-4" d="M288.59,292.4c.29,0-12.74,1.77-12.45,1.7A31.36,31.36,0,0,1,288.59,292.4Z"/></g><g class="cls-12"><path class="cls-4" d="M349,295.67c1.46.43-50.6-3.55-49.09-3.79C298.57,291.43,350.38,295.46,349,295.67Z"/></g><g class="cls-12"><path class="cls-4" d="M182.29,344.27A214.93,214.93,0,0,1,173.87,315C176.51,323.79,179.79,335.52,182.29,344.27Z"/></g><g class="cls-13"><path d="M173.73,305.7c7.32,9.13,6.55,24,16.2,30.59,22.57,9.14,49.87-.61,71.28-9.75,11.5-5.63,22.3-13,34.64-16.42,24.22-6.7,49.86,2.87,75,1.83l-8.37-18.55Z"/></g><path class="cls-9" d="M172.33,281.2c-.27.9,15.62,46.41,15.62,46.41,41.52,11.53,77.95-14.33,114.39-25.58,23.73-6.48,74.25,1.83,97.56-8.15v-2.56l-22.75-37.83c-33.89,6.08-68.4-5.6-102.24,11.63-37.35,22.11-68,14.35-102.58,13.55Z"/><path class="cls-10" d="M172.33,281.2c-.27.9,15.62,46.41,15.62,46.41,41.52,11.53,77.95-14.33,114.39-25.58,23.73-6.48,74.25,1.83,97.56-8.15v-2.56l-22.75-37.83c-33.89,6.08-68.4-5.6-102.24,11.63-37.35,22.11-68,14.35-102.58,13.55Z"/><path class="cls-9" d="M172.38,278.64c-.28.9,15.62,46.41,15.62,46.41,41.5,11.52,77.95-14.32,114.38-25.61,23.73-6.51,74.26,1.85,97.57-8.15L377.24,250.9c-33.89,6.08-68.4-5.6-102.24,11.63C240.76,283.65,200.12,278.25,172.38,278.64Z"/><path class="cls-11" d="M400,291.29c-23.4,9.85-74.18,1.47-98,8-35,10.84-73.6,37-113.41,26.08l-.59,2.23L182.21,311l.46-1.36c39-7.32,60.64,7.66,95.45-13.76,17-13.83,51.76-11.55,73.79-10.56,13,0,37.7-7.67,40-8.46Z"/><path class="cls-11" d="M173.68,285.77l.54-1c19.4,9.45,70.47-6,81.24-5.11,9.78,6-62.54,22.83-75.68,21.59l-.6.92Z"/><path class="cls-11" d="M381.15,257.85s-16,8.89-59.66,8c0,0-27.95.91-42.34,10.46s-33.47,17.2-36.19,18.85-9.4,3.85-4.18,4.7c13.44.94,39.61-16.58,52.48-21.54,17.82-7.61,81.5,4.07,95.56-10.29Z"/><g class="cls-12"><path class="cls-4" d="M281,261.41c-28.31,19.7-70.48,21.18-101.79,19C211.1,281.72,252.06,280.51,281,261.41Z"/></g><g class="cls-12"><path class="cls-4" d="M299.82,257.12c.24-.08-13.39,2.83-13.14,2.77a38,38,0,0,1,13.14-2.77Z"/></g><g class="cls-12"><path class="cls-4" d="M364.5,256c1.51.33-54.16,0-52.65-.3C310.34,255.41,366,255.67,364.5,256Z"/></g><g class="cls-12"><path class="cls-4" d="M190.4,320.57A228.57,228.57,0,0,1,179.21,290C182.66,299.25,187.08,311.32,190.4,320.57Z"/></g></g><g id="freepik--Egg--inject-68"><path class="cls-14" d="M387.29,202.72c-4.94-8.8-16.47-8.39-25.17-10.38-33.66-15.41-50.36-15.63-84.87.63-24,2.67-47.26-17.84-71.42-8.92-9,3.22-16.79,10.42-26.36,10.87-13.85-1.65-28.17-.22-19.49,17.31,10.89,14.85,32,9.14,47.7,12.8,39.87,15.48,48.54,44.9,97.55,19.77,13.93-6.62,27.65-14.63,42.94-16.64C363.8,227.65,395,225.94,387.29,202.72Z"/><g class="cls-12"><path class="cls-4" d="M387.29,202.72c-4.94-8.8-16.47-8.39-25.17-10.38-33.66-15.41-50.36-15.63-84.87.63-24,2.67-47.26-17.84-71.42-8.92-9,3.22-16.79,10.42-26.36,10.87-13.85-1.65-28.17-.22-19.49,17.31,10.89,14.85,32,9.14,47.7,12.8,39.87,15.48,48.54,44.9,97.55,19.77,13.93-6.62,27.65-14.63,42.94-16.64C363.8,227.65,395,225.94,387.29,202.72Z"/></g><path class="cls-14" d="M310.15,215.4c-15.08-30.09-61-30.6-76.63-.75a7.2,7.2,0,0,0,2.58,9.69c20.5,12.19,48.25,14.63,69.54,4.38C311.61,226.64,313.62,220.78,310.15,215.4Z"/><g class="cls-13"><path class="cls-4" d="M296.25,220.33c-12.54,2.48-25.6,3.93-37.45-2.3-2.44-1.18-5.1-3.11-5-5.82s2.83-4.7,2.17-7.51c-.38-1.27-2.09-2.15-3.1-1.29C202.62,235.35,320.48,237.17,296.25,220.33Z"/></g><g class="cls-12"><path class="cls-4" d="M283,246.66c-2.29,6.39-27.19,2.15-38.36-5.13-8.91-5.8-15.73-14.73-25.42-19.09-16.76-8-42.11.43-55.52-14,0,0-2.42-1.94,2.13-2.33,24.49,15.42,31.58-5.42,64.2,20.33,25.12,20.11,34.77,19.63,40,19.34S284.08,243.59,283,246.66Z"/></g><g class="cls-12"><path class="cls-4" d="M167.13,198a9.25,9.25,0,0,0-6.54,4.73C160.87,200.16,164.39,197.43,167.13,198Z"/></g><g class="cls-12"><path class="cls-4" d="M215,186.59c-13.39-4-21.58,13.77-34.06,10.06C193.43,199.44,201.68,181.68,215,186.59Z"/></g><g class="cls-12"><path class="cls-4" d="M344.46,205c-18.49,2.48-29.95,25.31-47.94,27.33C315.36,228.82,325.38,206.6,344.46,205Z"/></g><g class="cls-12"><path class="cls-4" d="M378.68,217.54a9.48,9.48,0,0,0,1.46-16.08C386.52,204.84,385.58,215.33,378.68,217.54Z"/></g><g class="cls-12"><path class="cls-4" d="M232.17,191.4c-20.42-12.61-45,5.68-33.07,6.12,6.39-4.72,14.32-7.53,22.32-5.44C223.44,192.89,237.37,196.77,232.17,191.4Z"/></g><g class="cls-12"><path class="cls-4" d="M268.21,194.87a44.37,44.37,0,0,0-32.62,22A39.72,39.72,0,0,1,268.21,194.87Z"/></g><g class="cls-12"><path class="cls-4" d="M278,195.37a25.31,25.31,0,0,1-5-.44A6.3,6.3,0,0,1,278,195.37Z"/></g></g><g id="freepik--bread-1--inject-68"><path class="cls-6" d="M188.62,144.26c.14-29.6-2.1-16.28,23.14-27.41,18-9.65,45.7-22.08,61.75-28.91,1.72-.76,84.5,18.24,86.3,18.15,1.36,0,9.14.51,9.6,4.23-.22,2.44,1.41,21-1.87,22.41-7.8,3.21-43.81,18.34-52.77,27.5-10.06,10.29-21.84,19.09-26.49,19.3s-21.37-5.9-26.28-7.44C257.11,168.91,196.81,152.22,188.62,144.26Z"/><path class="cls-7" d="M369.41,110.3s-27.73,12.63-40.11,18c-21.6,8-27.28,28.75-43,29.07C263.05,155.38,210.68,127.81,189,125c-.21,2.52-.33,18.24-.43,21.13,157.06,53.87,57.54,36.81,180.44-14C369,132.16,369.92,114.38,369.41,110.3Z"/><path class="cls-7" d="M237.79,110.36c-3.68.68-2,3.74,1,3.49,3.59-.28,3-3.56-.33-3.57"/><path class="cls-7" d="M323,120.72c-3.68.67-2.05,3.74,1,3.49,3.57-.32,3.06-3.51-.32-3.57"/><path class="cls-7" d="M323.49,116.78c-2.13.38-1.21,2.21.6,2,2.08-.15,1.75-2.07-.19-2.07"/><path class="cls-7" d="M305.68,132c-2.12.39-1.21,2.2.59,2,2.08-.15,1.76-2.07-.19-2.07"/><path class="cls-7" d="M230.28,112.81c-2.13.39-1.21,2.2.6,2,2.08-.15,1.75-2.07-.19-2.07"/><path class="cls-5" d="M190.32,124.44c30.44,8.49,62.84,26,94.9,32.48,13.51.78,19.48-14,29.65-20.45,7.43-6,19.27-10.46,27.93-14.44,4.92-2.2,21.83-9.69,26.61-11.71-16.87,8.7-38.89,15.43-54.25,26.65-10.46,6.77-16.9,22.42-31.26,20.49-22.91-4.38-44.65-15.91-66.21-23.13C212.65,132.35,195.12,126.47,190.32,124.44Z"/><g class="cls-13"><path class="cls-4" d="M300.4,97.66c-19.25-5.67-38.85-3.33-55.8,7.58-4.16,3.49-33.68,15-28.5,20.05h0c21.91,14.76,36.65-23.63,58.35-20,13.08,6,32.36,6.33,46.64,7C336.31,105.88,305.8,98.46,300.4,97.66Z"/></g></g><g id="freepik--Character--inject-68"><path class="cls-6" d="M59.79,317.35s1.44,32.06,2.64,42.82S73.88,417,73.88,417l15.88,1.16-4.61-96.8Z"/><path class="cls-6" d="M111.53,321.42s-4,25.31-7.1,38-16.89,50.52-16.89,50.52L77.73,374.3l7.42-52.87Z"/><path class="cls-7" d="M86.31,327.33c.56,26.42,3.13,63.77,3.11,90.2C88.86,391.11,86.32,353.76,86.31,327.33Z"/><path class="cls-15" d="M73.13,413.91s12.53,5.44,16.39-2.37c1.3.89,12.1,22.8,13.16,24.77,1.52,2.64-1.71,5.84-4.3,4.15C93,437.13,73.26,424.82,73,422.64c-.07-2.1-2.57-7.3.15-8.69Z"/><g class="cls-16"><path class="cls-4" d="M101.19,440.66l-28.63-20c1.6,6.24,9.59,8.82,25.74,19.81a3.06,3.06,0,0,0,2.89.18Z"/></g><g class="cls-16"><path class="cls-4" d="M75.2,416.25A1.75,1.75,0,0,1,74,419.52c-2.19-1-.85-4.27,1.38-3.2"/></g><path class="cls-5" d="M91.76,429.32c.53-1.95,3.48-4,5.3-4.19C95,424.09,91.29,427,91.76,429.32Z"/><path class="cls-5" d="M94.68,432.79c.17.1.91-1.06,2.32-1.81s2.77-.79,2.78-1C99,428.81,94.17,431.58,94.68,432.79Z"/><path class="cls-5" d="M86.8,425.13c.81-1.42,6.06-4.7,7.52-4.94C93.07,419.07,86.38,423.67,86.8,425.13Z"/><path class="cls-5" d="M84.8,418.2c.12.16,1.59-.86,3.68-1.39s3.86-.38,3.88-.57C91.85,415,84.66,417,84.8,418.2Z"/><path class="cls-5" d="M89.68,416.5c-4.37-10.08-9.91.34-.49,0,8.44-4.47-.41-10.37-.77,0,1.61-8.87,7.41-4.46.62-.6C81.44,416.07,84.86,408.23,89.68,416.5Z"/><path class="cls-5" d="M77.68,77.78c2.63-11,18.67-12.49,23.4-2.33,2.14,4.26,2,9.86,5.62,13,18,7.12,7.35,12.83,16,23.46a28.53,28.53,0,0,1-12.07,5.51,7.78,7.78,0,0,0-2.08-4c1.48,12.71-21.73,10.92-29.85,9.6-8.71-1.6-14-8.23-17.76-15.49-5.91-2.78-12.58-6.71-11.77-14.42C58.51,92.25,58.2,79,64.89,74.59A9.31,9.31,0,0,1,78.76,79.2"/><path class="cls-6" d="M102.93,91.35C99.13,72,79.87,81.49,67.4,83.28l.11,3.56,1.88,52.26,16.48,16,7.12-16V125.65C104.66,124,104.24,104,102.93,91.35Z"/><path class="cls-5" d="M98.85,100c.07,1.74-2.71,2-2.81.18S98.75,98.25,98.85,100Z"/><path class="cls-5" d="M100.68,96a8.11,8.11,0,0,0-5.56,0C95.63,94.16,100.06,94.06,100.68,96Z"/><path class="cls-5" d="M84.86,100c.07,1.75-2.71,2-2.82.18S84.76,98.25,84.86,100Z"/><path class="cls-5" d="M85.73,96.49a8.11,8.11,0,0,0-5.56,0C80.64,94.63,85.2,94.52,85.73,96.49Z"/><path class="cls-5" d="M91.36,107.7c.94-.54,2.61-.1,3.28-.86C94,104.15,90,95.12,90.53,95.05c.08-.45,3.48,7.75,4.4,10.47C96.24,108,93,107.93,91.36,107.7Z"/><path class="cls-7" d="M93,125.68a29.21,29.21,0,0,1-15.15-3.8s3.8,7.67,15.17,6.54Z"/><path class="cls-7" d="M90.76,111.37c-1.29-2-5.52-.77-4.28,1.76,1.16,1.43,4.44-.16,4.36-1.72"/><path class="cls-5" d="M86.9,108.8a5.41,5.41,0,0,0,4.88,4C89.81,114.3,85.55,111.16,86.9,108.8Z"/><path class="cls-5" d="M86,92.2c-.15.23-6.69,1.07-6.9.83C79.75,90.89,84.91,90.27,86,92.2Z"/><path class="cls-5" d="M100.56,90.85a21.12,21.12,0,0,1-5.15-.1C95.69,88.77,100.37,88.87,100.56,90.85Z"/><path class="cls-5" d="M88.36,79.46C87,90,80.11,87.58,75.62,92.25c-.6,1.74,1,3.51,1.8,5.26,3.14,8.16-12,9.21-3.17,18.51-17.09-.24-7.16-19.91-8.91-30.28-.55-6.65,16-6.36,20.94-8.06"/><path class="cls-5" d="M85.93,77.81c2,4.14,5.28,9.06,10.5,8.45L95.2,84.09a35,35,0,0,0,11.69,8.21c-3.55-8-10.72-18.14-20.64-15.07"/><path class="cls-6" d="M160.85,158.29c3-3.26,4.6-6.25,10.4-3.35,2.59.85,11.35-.46,11.14,2.19,1,.33,10.88-.07,11.79,2.48,0,0,3.33.19,4,1,0,0,2.19.19,2.28,1.33-5.17.76-22.27,3.76-28.43.58l-2,.85-.59,2Z"/><path class="cls-7" d="M184,157.42a41.29,41.29,0,0,1-12.76-2.13C175.5,155.82,179.76,156.54,184,157.42Z"/><path class="cls-7" d="M194.15,159.61a51.57,51.57,0,0,1-13.69.95A133.38,133.38,0,0,1,194.15,159.61Z"/><path class="cls-7" d="M198.06,160.65c1.48,2.13-16.37,1.16-18.29,1.24C182.71,160.81,197.59,162.39,198.06,160.65Z"/><path class="cls-15" d="M52.3,246c-7.25,13,4.09,79.74,4.38,89.17.6,0,54.35,2.51,56.84,2.63,0,0,8.07-47.6,11.26-61.48S122.22,246,122.22,246L93,232.29Z"/><path class="cls-15" d="M67,126.66l-4.14,7.21-19,8.29c2.72,17.23,11.59,50.52,18.19,66.62L46.36,262.24l81,7.19s-8.19-51.36-11.18-61.7c-2.47-16.15-3.72-53.8-3.92-70.43l-17.45-5.2-2.13-3.19-7.94,23.53Z"/><path class="cls-15" d="M20.6,207.1s-5.17-7.61-4.08-13c3.27-9.26,22.92-50.8,27.33-51.89,2.22.57,6.73,32.74,7.35,35l-14.88,20,20,17.22c0,1.09-7.23,14.89-7.23,14.89S20.87,210.64,20.6,207.1Z"/><path class="cls-5" d="M22.82,199.93A17.9,17.9,0,0,1,36.43,197,31,31,0,0,0,22.82,199.93Z"/><path class="cls-5" d="M36.43,197c-1.07-1.2-11.83-6.26-16-5.72C26.2,190.71,32.22,193.21,36.43,197Z"/><path class="cls-15" d="M112.24,137.3c7.21,8.09,20.36,37,22.68,42.07l23.76-22.66,13,9.64c-2.66.53-33.28,47.71-43,36l-15.07-20.1-2.4-27.64Z"/><path class="cls-5" d="M116.8,209.92c-10.71-26.46-34.13-59.56-49.73-83.26C83.27,149.83,107,183.27,116.8,209.92Z"/><path class="cls-5" d="M42.86,157.64c0-.9,14.16,33.67,13.47,33C56.38,191.65,42.16,156.94,42.86,157.64Z"/><path class="cls-5" d="M110.38,146.1c.26-1,3.88,39,3.52,38.06C113.65,185.26,110,145.08,110.38,146.1Z"/><path class="cls-5" d="M127.34,269.43c-9,.33-22.78-1.37-32.22-2.05-17.23-1.13-34-1.94-48.23-5.47,14.37,2.78,31,3.91,48.27,5C104.67,267.69,118.24,269.2,127.34,269.43Z"/><path class="cls-5" d="M91.3,317.22a176,176,0,0,0-5.6-39.79A111.54,111.54,0,0,1,91.3,317.22Z"/><g class="cls-13"><path d="M56.56,229.26c6.1,0,7.87-8.17,13.84-9.54,3.94-1.57,8.49-6.9,4.84-10.78-10.1-4.66-19.33,10.55-18.56,19.63"/></g><path class="cls-6" d="M56.05,215.23l9.32-11,7.89-1.15c1.45,3.27-5.69,3.43-6.32,3.56l-2.45,2.94,3.77-1.92L75.6,207s.62,2-1,2.63c0,1.5-2.62,4.14-4.89,3.92,2.42,2.37-3.11,3.38-3.82,3.42l-5.33,2.7s-2.69,8.23-4.12,8.43S50.79,226,50.79,226Z"/><path class="cls-7" d="M68.26,207.64c-.33.79-5.94,3.68-7.75,4.43C60.65,211.43,66.9,208.12,68.26,207.64Z"/><path class="cls-7" d="M74.9,209.62c-5.09-.19-9.31,3.29-13.53,4.9C65.16,212.18,69.84,208.58,74.9,209.62Z"/><g class="cls-13"><path d="M125.05,269.39a109.82,109.82,0,0,1-70.87-5.85Z"/></g></g></g></g></svg>