<svg xmlns="http://www.w3.org/2000/svg" width="85.569" height="80" viewBox="0 0 85.569 80"><g transform="translate(-8.178 -50.948)"><g transform="translate(8.178 50.948)"><g transform="translate(0 2.484)"><path d="M293.064,95.649a3.048,3.048,0,0,0-2.754,4.365l-16.167,16.167a1.02,1.02,0,1,0,1.443,1.443l16.167-16.167a3.052,3.052,0,1,0,1.312-5.808Z" transform="translate(-229.431 -90.344)" fill="#00c" opacity="0.1"/><g transform="translate(1.02 2.487)"><path d="M128.468,144.265a12.222,12.222,0,0,0-3.706.573V124.282h11a1.02,1.02,0,0,0,1.02-1.02v-4.581a6.121,6.121,0,0,0-6.015-6.119c.04,0,.079,0,.119,0H105.928V104.88a2.041,2.041,0,0,0-2.041-2.041H63.239A2.041,2.041,0,0,0,61.2,104.88v29.585a2.041,2.041,0,0,0,2.041,2.041H87.244v20.849H76.006a1.02,1.02,0,0,0-1.02,1.02v9.085a6.122,6.122,0,0,0,6.122,6.122H118.64a6.123,6.123,0,0,0,6.083-5.441,12.232,12.232,0,1,0,3.745-23.876Z" transform="translate(-61.198 -98.554)" fill="#0074FF" opacity="0.1"/><g transform="translate(13.788 9.72)"><g transform="translate(45.171 0)"><path d="M366.754,140.178V135.6a6.122,6.122,0,0,0-6.122-6.122h-10.5V141.2h15.6A1.02,1.02,0,0,0,366.754,140.178Z" transform="translate(-350.131 -129.475)" fill="#fff"/></g><path d="M232.478,129.474a6.121,6.121,0,0,0-6.122,6.122v48.78a6.123,6.123,0,0,1-6.122,6.122h-31.4V135.6a6.121,6.121,0,0,1,6.122-6.122Z" transform="translate(-176.581 -129.474)" fill="#fff"/><path d="M284.982,162.395h-8.609a1.02,1.02,0,0,1-1.02-1.02v-8.609a1.02,1.02,0,0,1,1.02-1.02h8.609a1.02,1.02,0,0,1,1.02,1.02v8.609A1.02,1.02,0,0,1,284.982,162.395Z" transform="translate(-245.44 -147.2)" fill="#ffd4c5"/><circle cx="7.451" cy="7.451" r="7.451" transform="translate(29.248 38.325)" fill="#d0a4ff"/><path d="M166.284,359.106V350.02a1.02,1.02,0,0,0-1.02-1.02H129.786a1.02,1.02,0,0,0-1.02,1.02v9.086a6.122,6.122,0,0,0,6.122,6.122h37.518A6.121,6.121,0,0,1,166.284,359.106Z" transform="translate(-128.766 -304.204)" fill="#fff"/></g><path d="M103.887,115.506H63.239a2.041,2.041,0,0,1-2.041-2.041V83.88a2.041,2.041,0,0,1,2.041-2.041h40.649a2.041,2.041,0,0,1,2.041,2.041v29.585A2.041,2.041,0,0,1,103.887,115.506Z" transform="translate(-61.198 -81.839)" fill="#fff"/><g transform="translate(31.203 38.374)"><g transform="translate(0 5.524)"><path d="M232.377,299.008H215.134a1.02,1.02,0,1,1,0-2.041h17.243a1.02,1.02,0,1,1,0,2.041Z" transform="translate(-214.114 -296.967)" fill="#fd9542"/></g><path d="M218.909,271.938h-3.775a1.02,1.02,0,0,1,0-2.041h3.775a1.02,1.02,0,1,1,0,2.041Z" transform="translate(-214.114 -269.897)" fill="#fd9542"/><g transform="translate(0 9.63)"><path d="M239.723,319.133H215.134a1.02,1.02,0,1,1,0-2.041h24.589a1.02,1.02,0,1,1,0,2.041Z" transform="translate(-214.114 -317.092)" fill="#fd9542"/></g></g><g transform="translate(50.72 18.688)"><g transform="translate(0)"><path d="M313.149,180.2a3.39,3.39,0,1,1,3.39-3.39A3.394,3.394,0,0,1,313.149,180.2Zm0-4.74a1.349,1.349,0,1,0,1.349,1.349A1.351,1.351,0,0,0,313.149,175.462Z" transform="translate(-309.759 -173.422)" fill="#9f33dd"/></g><g transform="translate(0 4.739)"><path d="M315.519,201.058a1.02,1.02,0,0,1-1.02-1.02,1.349,1.349,0,1,0-2.7,0,1.02,1.02,0,1,1-2.041,0,3.39,3.39,0,1,1,6.78,0A1.02,1.02,0,0,1,315.519,201.058Z" transform="translate(-309.759 -196.648)" fill="#9f33dd"/></g></g><g transform="translate(4.288 4.083)"><path d="M333.536,231.9a1.141,1.141,0,1,1,1.141-1.141A1.141,1.141,0,0,1,333.536,231.9Z" transform="translate(-281.343 -203.542)" fill="#fd9542"/><path d="M83.351,104.128a1.141,1.141,0,1,1,1.141-1.141A1.141,1.141,0,0,1,83.351,104.128Z" transform="translate(-82.21 -101.847)" fill="#fd9542"/><path d="M333.536,248.805a1.141,1.141,0,1,1,1.141-1.141A1.141,1.141,0,0,1,333.536,248.805Z" transform="translate(-281.343 -217.002)" fill="#fd9542"/><path d="M334.676,264.575a1.141,1.141,0,1,1-1.141-1.141,1.141,1.141,0,0,1,1.141,1.141" transform="translate(-281.343 -230.461)" fill="#fd9542"/></g><g transform="translate(49.959 36.363)"><g transform="translate(0 0)"><circle cx="12.231" cy="12.231" r="12.231" transform="translate(0 17.295) rotate(-45)" fill="#d0a4ff"/><circle cx="8.649" cy="8.649" r="8.649" transform="translate(6.039 12.598) rotate(-22.514)" fill="#fff"/><g transform="translate(13.274 11.242)"><path d="M376.3,331.2h-3.264a1.02,1.02,0,0,1,0-2.041H376.3a.813.813,0,0,0,0-1.625h-2.367a2.853,2.853,0,0,1,0-5.706H377.2a1.02,1.02,0,1,1,0,2.041h-3.264a.813.813,0,0,0,0,1.625H376.3a2.853,2.853,0,0,1,0,5.706Z" transform="translate(-371.079 -320.461)" fill="#00c853"/><path d="M386.882,327.238a1.02,1.02,0,0,1-1.02-1.02V316.155a1.02,1.02,0,0,1,2.041,0v10.062A1.02,1.02,0,0,1,386.882,327.238Z" transform="translate(-382.845 -315.135)" fill="#00c853"/></g></g></g></g><g transform="translate(12.977 11.585)"><circle cx="3.053" cy="3.053" r="3.053" transform="matrix(0.925, -0.379, 0.379, 0.925, 0, 6.863)" fill="#fd9542"/><circle cx="3.053" cy="3.053" r="3.053" transform="translate(8.679 13.011)" fill="#fd9542"/><circle cx="3.053" cy="3.053" r="3.053" transform="translate(21.92)" fill="#fd9542"/><circle cx="3.053" cy="3.053" r="3.053" transform="translate(29.464 7.678)" fill="#fd9542"/></g><circle cx="3.053" cy="3.053" r="3.053" transform="translate(60.579 1.02)" fill="#fd9542"/><path d="M203.265,370.433a1.02,1.02,0,0,0-1.443,0l-2.041,2.041a1.02,1.02,0,0,0,1.443,1.443l1.319-1.319,1.319,1.319a1.02,1.02,0,0,0,1.443-1.443Z" transform="translate(-170.244 -308.818)" fill="#fd9542"/><path d="M124.488,112.542a13.249,13.249,0,0,0-4.91,25.556,5.132,5.132,0,0,1-4.919,3.762h-.014a5.107,5.107,0,0,1-5.1-5.1v-9.085a2.043,2.043,0,0,0-2.041-2.041H84.284V106.823H99.908a3.064,3.064,0,0,0,3.061-3.061V95.831a4.06,4.06,0,0,0,2.191-5.995l6.96-6.96h9.791a7.121,7.121,0,0,0-2.148,5.1v19.478a1.02,1.02,0,0,0,2.041,0V94.6h9.978a2.043,2.043,0,0,0,2.041-2.041V87.979a7.15,7.15,0,0,0-6.841-7.134c-.026,0-.05-.008-.076-.008H114.159l3.608-3.608a4.088,4.088,0,1,0-1.443-1.443l-5.051,5.051h-8.305V74.177a3.064,3.064,0,0,0-3.061-3.061H59.259A3.064,3.064,0,0,0,56.2,74.177v29.585a3.064,3.064,0,0,0,3.061,3.061H76.325a1.02,1.02,0,1,0,0-2.041H59.259a1.021,1.021,0,0,1-1.02-1.02V74.177a1.021,1.021,0,0,1,1.02-1.02H99.908a1.021,1.021,0,0,1,1.02,1.02V87.966a4.043,4.043,0,0,0-1.311.5l-2.02-2.02a4.073,4.073,0,1,0-6.978-.136l-7.544,7.544a4.042,4.042,0,0,0-4.358.015L76.68,91.833a4.074,4.074,0,1,0-7.013,0l-6.689,6.689a1.02,1.02,0,1,0,1.443,1.443l6.688-6.688a4.035,4.035,0,0,0,4.127,0l2.088,2.088a4.074,4.074,0,1,0,7.153-.025l7.569-7.569a4.045,4.045,0,0,0,4.071.082l2.062,2.062a4.063,4.063,0,0,0,2.749,6.05v7.8a1.021,1.021,0,0,1-1.02,1.02H83.264a1.018,1.018,0,0,0-1.014.959h-.006v19.891H72.026a2.043,2.043,0,0,0-2.041,2.041v9.085a7.15,7.15,0,0,0,7.142,7.142H114.66a7.19,7.19,0,0,0,6.87-5.193,13.25,13.25,0,1,0,2.958-26.165Zm2.3-29.662a5.106,5.106,0,0,1,4.989,5.1V92.56H121.8V87.979A5.106,5.106,0,0,1,126.79,82.88ZM119.83,71.69a2.033,2.033,0,1,1-2.033,2.033A2.036,2.036,0,0,1,119.83,71.69Zm-10.6,11.188-5.542,5.542a4.047,4.047,0,0,0-.722-.32V82.877ZM73.173,91.8a2.033,2.033,0,1,1,2.033-2.033A2.035,2.035,0,0,1,73.173,91.8Zm7.735,7.529A2.033,2.033,0,1,1,82.941,97.3,2.036,2.036,0,0,1,80.908,99.332ZM92.116,84.288a2.033,2.033,0,1,1,2.033,2.033A2.036,2.036,0,0,1,92.116,84.288Zm7.543,7.678A2.033,2.033,0,1,1,101.693,94,2.036,2.036,0,0,1,99.659,91.965ZM77.128,141.86a5.107,5.107,0,0,1-5.1-5.1v-9.085H107.5v9.085a7.121,7.121,0,0,0,2.148,5.1ZM124.488,137A11.211,11.211,0,1,1,135.7,125.793,11.223,11.223,0,0,1,124.488,137Z" transform="translate(-56.198 -69.649)" fill="#0074FF"/><g transform="translate(10.052 6.773)"><g transform="translate(0 4.127)"><path d="M123.983,125.107h-17.5a1.02,1.02,0,1,1,0-2.041h17.5a1.02,1.02,0,1,1,0,2.041Z" transform="translate(-105.459 -123.066)" fill="#fd9542"/></g><g transform="translate(0.432)"><path d="M111.149,104.88H108.6a1.02,1.02,0,1,1,0-2.041h2.551a1.02,1.02,0,0,1,0,2.041Z" transform="translate(-107.578 -102.839)" fill="#fd9542"/></g><g transform="translate(6.497)"><path d="M145.155,104.88h-6.836a1.02,1.02,0,0,1,0-2.041h6.836a1.02,1.02,0,1,1,0,2.041Z" transform="translate(-137.299 -102.839)" fill="#fd9542"/></g></g></g><path d="M142.488,288.013a1.02,1.02,0,0,1-.722-1.742l2.041-2.041a1.02,1.02,0,1,1,1.443,1.443l-2.041,2.041A1.017,1.017,0,0,1,142.488,288.013Z" transform="translate(-124.068 -237.722)" fill="#fd9542"/><path d="M304.255,61.556a1.02,1.02,0,0,1-.721-1.742l2.041-2.041a1.02,1.02,0,0,1,1.443,1.443l-2.041,2.041A1.017,1.017,0,0,1,304.255,61.556Z" transform="translate(-252.826 -57.475)" fill="#fd9542"/><g transform="translate(70.917 31.434)"><path d="M408.836,215.6a1.016,1.016,0,0,1-.721-.3l-1.319-1.319-1.319,1.319a1.02,1.02,0,0,1-1.443-1.443l2.04-2.041a1.02,1.02,0,0,1,1.443,0l2.041,2.041a1.02,1.02,0,0,1-.721,1.742Z" transform="translate(-403.734 -211.521)" fill="#fd9542"/></g><g transform="translate(6.359 51.049)"><path d="M92.464,311.729a1.017,1.017,0,0,1-.722-.3l-1.319-1.319L89.1,311.43a1.02,1.02,0,0,1-1.443-1.443l2.041-2.041a1.02,1.02,0,0,1,1.443,0l2.041,2.041a1.02,1.02,0,0,1-.722,1.742Z" transform="translate(-87.362 -307.648)" fill="#fd9542"/></g><g transform="translate(0.945 65.878)"><path d="M65.929,384.4a1.017,1.017,0,0,1-.722-.3l-1.319-1.319L62.569,384.1a1.02,1.02,0,1,1-1.443-1.443l2.041-2.041a1.02,1.02,0,0,1,1.443,0l2.041,2.041a1.02,1.02,0,0,1-.722,1.742Z" transform="translate(-60.827 -380.315)" fill="#fd9542"/></g></g></g></svg>