<svg xmlns="http://www.w3.org/2000/svg" width="62.658" height="80" viewBox="0 0 62.658 80"><g transform="translate(-7.533 -8.5)"><g transform="translate(7.533 8.5)"><g transform="translate(9.746 0)"><path d="M191.94,82.255a3.017,3.017,0,0,0-3.018,3.018V82.364a3.011,3.011,0,0,0-4.006-2.848V38.072a3.572,3.572,0,0,0-3.572-3.572H150.358a3.572,3.572,0,0,0-3.572,3.572V98.791a3.572,3.572,0,0,0,3.572,3.572h14.817a10.828,10.828,0,0,0,10.432,7.935h8.524a10.826,10.826,0,0,0,10.826-10.826v-14.2A3.018,3.018,0,0,0,191.94,82.255Z" transform="translate(-142.854 -30.298)" fill="#0074FF" opacity="0.1"/><g transform="translate(0.808 0.808)"><g transform="translate(0 6.896)"><path d="M377.122,66.979h-3.478V56.167h3.478a1.113,1.113,0,0,1,1.113,1.113v8.587A1.113,1.113,0,0,1,377.122,66.979Z" transform="translate(-333.857 -56.167)" fill="#fff"/><path d="M128.058,78.1h3.986V56.167h-3.986c-.614,0-.6.5-.6,1.113V76.991C127.455,77.606,127.444,78.1,128.058,78.1Z" transform="translate(-127.455 -56.167)" fill="#fff"/></g><path d="M181.344,81.363H150.358a3.572,3.572,0,0,1-3.572-3.572V17.072a3.572,3.572,0,0,1,3.572-3.572h30.986a3.572,3.572,0,0,1,3.572,3.572V77.791A3.572,3.572,0,0,1,181.344,81.363Z" transform="translate(-143.662 -13.5)" fill="#fff"/><path d="M146.786,65.614h38.13v51.017h-38.13Z" transform="translate(-143.662 -57.192)" fill="#fff"/><path d="M202.24,313.84H172.384V301.647a.808.808,0,0,1,.808-.808h28.24a.808.808,0,0,1,.808.808V313.84Z" transform="translate(-165.123 -254.4)" fill="#ffd4c5"/><g transform="translate(18.108 3.393)"><path d="M246.851,36.111H240.3a.808.808,0,0,1,0-1.616h6.547a.808.808,0,0,1,0,1.616Z" transform="translate(-239.496 -34.495)" fill="#fd9542"/></g><g transform="translate(18.904 61.722)"><path d="M244.422,396.216v2.047a.808.808,0,0,0,.808.808h4.955a.808.808,0,0,0,.808-.808v-2.047a.808.808,0,0,0-.808-.808H245.23A.808.808,0,0,0,244.422,396.216Z" transform="translate(-244.422 -395.408)" fill="#ffd4c5"/></g><g transform="translate(8.615 62.746)"><g transform="translate(22.863)"><path d="M325.7,403.356h-2.669a.808.808,0,1,1,0-1.616H325.7a.808.808,0,1,1,0,1.616Z" transform="translate(-322.226 -401.74)" fill="#ff4d4d"/></g><path d="M184.238,403.356h-2.669a.808.808,0,1,1,0-1.616h2.669a.808.808,0,1,1,0,1.616Z" transform="translate(-180.761 -401.74)" fill="#fd9542"/></g></g><g transform="translate(8.069 23.484)"><path d="M201.431,167.594h-28.24a.808.808,0,0,1-.808-.808V154.617a.808.808,0,0,1,.808-.808h28.24a.808.808,0,0,1,.808.808v12.169A.808.808,0,0,1,201.431,167.594Z" transform="translate(-172.383 -153.809)" fill="#bdecc4"/></g><g transform="translate(21.12 33.034)"><path d="M285.3,228.427a3.017,3.017,0,0,0-3.018,3.018v-2.908a3.018,3.018,0,0,0-6.035,0V226.6a3.018,3.018,0,1,0-6.035,0V215.915a3.018,3.018,0,1,0-6.035,0v18.811a3.018,3.018,0,0,0-6.035,0v10.918a10.826,10.826,0,0,0,10.826,10.826h8.524a10.826,10.826,0,0,0,10.826-10.826v-14.2a3.018,3.018,0,0,0-3.018-3.017Z" transform="translate(-257.33 -212.898)" fill="#fff"/><path d="M312.641,229.469h-1.988a1.9,1.9,0,0,1-1.9-1.9v-.562a.808.808,0,0,1,1.616,0v.562a.287.287,0,0,0,.286.286h1.988a.808.808,0,0,1,0,1.616Z" transform="translate(-299.763 -224.048)" fill="#9f33dd"/><g transform="translate(10.119 8.37)"><path d="M318.508,266.305h-1.951a.808.808,0,0,1,0-1.616h1.951a.808.808,0,1,1,0,1.616Z" transform="translate(-315.749 -264.689)" fill="#9f33dd"/><path d="M318.508,310.167h-1.951a.808.808,0,0,1,0-1.616h1.951a.808.808,0,1,1,0,1.616Z" transform="translate(-315.749 -301.462)" fill="#9f33dd"/></g><g transform="translate(16.155 15.944)"><path d="M355.851,313.167H353.9a.808.808,0,1,1,0-1.616h1.951a.808.808,0,0,1,0,1.616Z" transform="translate(-353.092 -311.551)" fill="#9f33dd"/></g><g transform="translate(22.19 16.913)"><path d="M393.194,319.165h-1.951a.808.808,0,1,1,0-1.616h1.951a.808.808,0,1,1,0,1.616Z" transform="translate(-390.435 -317.549)" fill="#9f33dd"/></g><g transform="translate(28.225 18.368)"><path d="M430.537,328.163h-1.951a.808.808,0,0,1,0-1.616h1.951a.808.808,0,1,1,0,1.616Z" transform="translate(-427.778 -326.547)" fill="#9f33dd"/></g><g transform="translate(0 20.978)"><path d="M255.768,375.612h-1.825a.808.808,0,1,1,0-1.616h1.825a.808.808,0,0,1,0,1.616Z" transform="translate(-253.135 -368.938)" fill="#9f33dd"/><path d="M255.931,345.97h-1.988a.808.808,0,1,1,0-1.616h1.988a.287.287,0,0,0,.286-.286v-.562a.808.808,0,0,1,1.616,0v.562A1.9,1.9,0,0,1,255.931,345.97Z" transform="translate(-253.135 -342.698)" fill="#9f33dd"/></g></g><g transform="translate(8.069 39.816)"><g transform="translate(0 3.268)"><path d="M183.856,276.7H173.192a.808.808,0,0,1,0-1.616h10.664a.808.808,0,1,1,0,1.616Z" transform="translate(-172.384 -275.084)" fill="#fd9542"/></g><path d="M179.009,256.478h-5.817a.808.808,0,0,1,0-1.616h5.817a.808.808,0,1,1,0,1.616Z" transform="translate(-172.384 -254.862)" fill="#fd9542"/></g><path d="M171.541,56.255a3.8,3.8,0,0,0-2.215.708,3.824,3.824,0,0,0-6.182-2.8,3.824,3.824,0,0,0-5.883-2.053v-7.56a3.826,3.826,0,0,0-7.651,0V60.241a3.824,3.824,0,0,0-6.035,3.121V74.281a11.647,11.647,0,0,0,.19,2.082H129.959A2.767,2.767,0,0,1,127.2,73.6V69.556h11.833a.808.808,0,1,0,0-1.616H127.2v-49.4h36.514V48.9a.808.808,0,0,0,1.616,0V27.823h1.2a1.923,1.923,0,0,0,1.921-1.921V17.316a1.923,1.923,0,0,0-1.921-1.921h-1.2V12.88a4.385,4.385,0,0,0-4.38-4.38H129.959a4.385,4.385,0,0,0-4.38,4.38V15.4h-1.712a1.3,1.3,0,0,0-1.282.832,2.9,2.9,0,0,0-.129,1.057V37.059a2.911,2.911,0,0,0,.129,1.057,1.3,1.3,0,0,0,1.282.832h1.712V73.6a4.385,4.385,0,0,0,4.38,4.38h14.222a11.652,11.652,0,0,0,11.028,7.936h8.524A11.647,11.647,0,0,0,175.367,74.28V60.08a3.83,3.83,0,0,0-3.826-3.826Zm-5.013-39.243a.3.3,0,0,1,.3.3V25.9a.3.3,0,0,1-.3.3h-1.2v-9.2Zm-36.57-6.9h30.987a2.767,2.767,0,0,1,2.764,2.764v4.043H127.2V12.88A2.767,2.767,0,0,1,129.959,10.116Zm-5.885,27.216c0-.091,0-20.23,0-20.32h1.505v9.406a.8.8,0,0,0,0,1.509v9.406ZM173.751,74.28A10.029,10.029,0,0,1,163.733,84.3h-8.524A10.029,10.029,0,0,1,145.191,74.28V63.362a2.21,2.21,0,0,1,4.419,0v5.311a.808.808,0,0,0,1.616,0V44.551a2.21,2.21,0,0,1,4.419,0V63.32a.808.808,0,0,0,1.616,0V55.233a2.21,2.21,0,0,1,4.419,0V63.32a.808.808,0,0,0,1.616,0V57.172a2.21,2.21,0,0,1,4.419,0V63.32a.808.808,0,0,0,1.616,0V60.08a2.21,2.21,0,0,1,4.419,0v14.2Z" transform="translate(-122.455 -8.5)" fill="#0074FF"/><path d="M170.617,87.852l-.943.943a.808.808,0,0,0,1.143,1.143l.371-.371.371.371a.808.808,0,0,0,1.143-1.143l-.943-.943A.808.808,0,0,0,170.617,87.852Z" transform="translate(-161.844 -74.829)" fill="#fd9542"/><g transform="translate(26.794 12.786)"><g transform="translate(5.394)"><path d="M324.306,92.984a2.684,2.684,0,1,1,2.685-2.684A2.687,2.687,0,0,1,324.306,92.984Zm0-3.753a1.068,1.068,0,1,0,1.068,1.068A1.069,1.069,0,0,0,324.306,89.231Z" transform="translate(-321.622 -87.615)" fill="#00c853"/><g transform="translate(0 3.753)"><path d="M326.184,114.329a.808.808,0,0,1-.808-.808,1.068,1.068,0,0,0-2.137,0,.808.808,0,1,1-1.616,0,2.684,2.684,0,1,1,5.369,0A.808.808,0,0,1,326.184,114.329Z" transform="translate(-321.623 -110.836)" fill="#00c853"/></g></g><g transform="translate(0 5.629)"><path d="M291.072,124.063h-2.02a.808.808,0,1,1,0-1.616h2.02a.808.808,0,1,1,0,1.616Z" transform="translate(-288.244 -122.447)" fill="#fd9542"/></g><g transform="translate(0 2.846)"><path d="M291.072,106.84h-2.02a.808.808,0,0,1,0-1.616h2.02a.808.808,0,0,1,0,1.616Z" transform="translate(-288.244 -105.224)" fill="#fd9542"/></g></g></g><g transform="translate(57.475 39.008)"><path d="M421.818,253.094a.805.805,0,0,1-.571-.237l-1.045-1.045-1.045,1.045a.808.808,0,0,1-1.143-1.143l1.616-1.616a.808.808,0,0,1,1.143,0l1.616,1.616a.808.808,0,0,1-.571,1.379Z" transform="translate(-417.777 -249.862)" fill="#fd9542"/></g><g transform="translate(4.525 33.051)"><path d="M94.193,216.233a.806.806,0,0,1-.571-.237l-1.045-1.045L91.532,216a.808.808,0,0,1-1.143-1.143l1.616-1.616a.808.808,0,0,1,1.143,0l1.616,1.616a.808.808,0,0,1-.571,1.379Z" transform="translate(-90.152 -213.001)" fill="#fd9542"/></g><g transform="translate(24.44 75.798)"><path d="M217.414,480.733a.806.806,0,0,1-.571-.237l-1.045-1.045-1.045,1.045a.808.808,0,1,1-1.143-1.143l1.616-1.616a.808.808,0,0,1,1.143,0l1.616,1.616a.808.808,0,0,1-.571,1.379Z" transform="translate(-213.373 -477.501)" fill="#fd9542"/></g><g transform="translate(0 27.765)"><path d="M423.585,206.233a.808.808,0,0,1-.571-1.379l1.616-1.616a.808.808,0,0,1,1.143,1.143L424.157,206A.8.8,0,0,1,423.585,206.233Z" transform="translate(-364.494 -199.332)" fill="#fd9542"/><path d="M62.959,183.531a.808.808,0,0,1-.571-1.379L64,180.536a.808.808,0,0,1,1.143,1.143l-1.616,1.616a.805.805,0,0,1-.571.237Z" transform="translate(-62.151 -180.299)" fill="#fd9542"/></g></g></g></svg>