<svg xmlns="http://www.w3.org/2000/svg" width="69.491" height="80" viewBox="0 0 69.491 80"><g transform="translate(-53.901 -2.892)"><g transform="translate(53.901 2.892)"><g transform="translate(4.816)"><path d="M272.683,59.845V55.92a5.244,5.244,0,0,0-5.244-5.244h-9V60.719h13.366a.874.874,0,0,0,.874-.874Z" transform="translate(-228.087 -46.131)" fill="#00c" opacity="0.1"/><path d="M150.964,151.176H137.733V146.07a3.5,3.5,0,0,0-3.5-3.5H93.281a3.5,3.5,0,0,0-3.5,3.5v52.4a3.5,3.5,0,0,0,3.5,3.5h40.955a3.5,3.5,0,0,0,3.5-3.5v-5.106h13.231a1.748,1.748,0,0,0,1.748-1.748V152.924a1.748,1.748,0,0,0-1.748-1.748Z" transform="translate(-88.911 -121.965)" fill="#0074FF" opacity="0.1"/><path d="M162.745,125.07v52.4a3.5,3.5,0,0,1-3.5,3.5H123.592a3.5,3.5,0,0,1-3.5-3.5v-52.4a3.5,3.5,0,0,1,3.5-3.5h35.657A3.5,3.5,0,0,1,162.745,125.07Z" transform="translate(-113.924 -104.636)" fill="#fff"/><g transform="translate(30.356 0.874)"><path d="M272.683,38.845V34.92a5.244,5.244,0,0,0-5.244-5.244h-9V39.719h13.366A.874.874,0,0,0,272.683,38.845Z" transform="translate(-258.443 -29.676)" fill="#fff"/></g><g transform="translate(35.671 25.54)"><path d="M288.843,211.222V172.531a1.748,1.748,0,0,1,1.748-1.748h24.634a1.748,1.748,0,0,1,1.748,1.748v38.69a1.748,1.748,0,0,1-1.748,1.748H290.591A1.748,1.748,0,0,1,288.843,211.222Z" transform="translate(-288.843 -170.783)" fill="#00c853"/><path d="M393.933,170.783h5.71V212.97h-5.71Z" transform="translate(-375.562 -170.783)" fill="#fff"/><g transform="translate(13.191 4.339)"><path d="M364.3,198.508v-2.027a.874.874,0,0,1,1.748,0v2.027a.874.874,0,0,1-1.748,0Z" transform="translate(-364.304 -195.607)" fill="#0074FF"/></g><g transform="translate(11.443 4.339)"><path d="M356.927,369.022a.871.871,0,0,1-.618-.256l-1.748-1.748a.874.874,0,0,1,1.236-1.236l1.748,1.748a.874.874,0,0,1-.618,1.492Z" transform="translate(-354.305 -335.823)" fill="#0074FF"/><path d="M356.927,345.087a.871.871,0,0,1-.618-.256l-1.748-1.748a.874.874,0,0,1,1.236-1.236l1.748,1.748a.874.874,0,0,1-.618,1.492Z" transform="translate(-354.305 -316.072)" fill="#0074FF"/><path d="M356.927,321.152a.871.871,0,0,1-.618-.256l-1.748-1.748a.874.874,0,0,1,1.236-1.236l1.748,1.748a.874.874,0,0,1-.618,1.492Z" transform="translate(-354.305 -296.321)" fill="#0074FF"/><path d="M356.927,297.217a.871.871,0,0,1-.618-.256l-1.748-1.748a.874.874,0,0,1,1.236-1.236l1.748,1.748a.874.874,0,0,1-.618,1.492Z" transform="translate(-354.305 -276.57)" fill="#0074FF"/><path d="M382.688,206.434v-9.953a.874.874,0,0,1,.874-.874H384.7a.874.874,0,0,1,.874.874v9.953a.874.874,0,0,1-.874.874h-1.135A.874.874,0,0,1,382.688,206.434Z" transform="translate(-377.726 -195.607)" fill="#0074FF"/></g></g><path d="M128.939,180.968H93.282a3.5,3.5,0,0,1-3.5-3.5v-52.4a3.5,3.5,0,0,1,3.5-3.5H128.94a3.5,3.5,0,0,1,3.5,3.5v52.4A3.5,3.5,0,0,1,128.939,180.968Z" transform="translate(-88.912 -104.64)" fill="#fff"/><path d="M171.664,29.676a5.244,5.244,0,0,0-5.244,5.244V53.109H142.146V34.92a5.244,5.244,0,0,1,5.244-5.244Z" transform="translate(-132.119 -28.802)" fill="#fff"/><path d="M146.839,49.342H134.482V45.111a4.375,4.375,0,0,0-4.37-4.37H119.961V36.467h8.548a1.75,1.75,0,0,0,1.748-1.748V30.794a6.125,6.125,0,0,0-5.86-6.112c-.022,0-.043-.006-.065-.006H100.057a6.125,6.125,0,0,0-6.118,6.118v9.947H89.156a4.375,4.375,0,0,0-4.37,4.37v52.4a4.375,4.375,0,0,0,4.37,4.37h40.956a4.375,4.375,0,0,0,4.37-4.37V92.4h0a.874.874,0,0,0-.874-.874h-4.424V56.16a.874.874,0,0,0-1.748,0V97.509a2.625,2.625,0,0,1-2.622,2.622H89.156a2.625,2.625,0,0,1-2.622-2.622v-52.4a2.625,2.625,0,0,1,2.622-2.622h4.783v5.62H92.465a.874.874,0,0,0,0,1.748H121.5a.874.874,0,1,0,0-1.748h-1.544v-5.62h4.853a2.625,2.625,0,0,1,2.622,2.622v5.105a.874.874,0,0,0,.874.874h18.529a.875.875,0,0,1,.874.874v38.69a.875.875,0,0,1-.874.874h-7.288a.874.874,0,0,0,0,1.748h7.288a2.625,2.625,0,0,0,2.622-2.622V51.965A2.625,2.625,0,0,0,146.839,49.342ZM129.184,97.508V93.277h3.55v4.231a2.625,2.625,0,0,1-2.622,2.622h-1.8A4.347,4.347,0,0,0,129.184,97.508Zm-4.949-71.082a4.374,4.374,0,0,1,4.274,4.368v3.924h-8.548V30.794A4.375,4.375,0,0,1,124.234,26.427ZM95.687,48.109V30.794a4.375,4.375,0,0,1,4.37-4.37h20a6.1,6.1,0,0,0-1.84,4.37V48.109Zm34.425-5.62a2.625,2.625,0,0,1,2.622,2.622v4.231h-3.55V45.111a4.347,4.347,0,0,0-.876-2.622Z" transform="translate(-84.786 -24.676)" fill="#0074FF"/><path d="M156.88,198.044H145.019l-3.012-1.164-3.715,1.164H136.3l-1.271-.823-1.783.823h-3.656a.874.874,0,0,1-.874-.874V186.005a.874.874,0,0,1,.874-.874h16.569l1.468.575,1.587-.575H151.2l2.758,1.831s3.593-1.513,3.618-1.479a.87.87,0,0,1,.173.522V197.17A.874.874,0,0,1,156.88,198.044Z" transform="translate(-121.035 -157.082)" fill="#0074FF"/><g transform="translate(9.824 44.677)"><path d="M146.211,286.781h-3.927a1.3,1.3,0,0,1-1.3-1.3v-3.927a1.3,1.3,0,0,1,1.3-1.3h3.927a1.3,1.3,0,0,1,1.3,1.3v3.927A1.3,1.3,0,0,1,146.211,286.781Z" transform="translate(-140.984 -280.253)" fill="#fd9542"/><g transform="translate(9.264)"><path d="M199.209,286.781h-3.926a1.3,1.3,0,0,1-1.3-1.3v-3.927a1.3,1.3,0,0,1,1.3-1.3h3.926a1.3,1.3,0,0,1,1.3,1.3v3.927A1.3,1.3,0,0,1,199.209,286.781Z" transform="translate(-193.982 -280.253)" fill="#fd9542"/></g><g transform="translate(18.529)"><path d="M252.206,286.781H248.28a1.3,1.3,0,0,1-1.3-1.3v-3.927a1.3,1.3,0,0,1,1.3-1.3h3.927a1.3,1.3,0,0,1,1.3,1.3v3.927A1.3,1.3,0,0,1,252.206,286.781Z" transform="translate(-246.979 -280.253)" fill="#fd9542"/></g></g><g transform="translate(9.824 54.375)"><path d="M146.211,342.261h-3.927a1.3,1.3,0,0,1-1.3-1.3v-3.927a1.3,1.3,0,0,1,1.3-1.3h3.927a1.3,1.3,0,0,1,1.3,1.3v3.927A1.3,1.3,0,0,1,146.211,342.261Z" transform="translate(-140.984 -335.733)" fill="#fd9542"/><g transform="translate(9.264)"><path d="M199.209,342.261h-3.926a1.3,1.3,0,0,1-1.3-1.3v-3.927a1.3,1.3,0,0,1,1.3-1.3h3.926a1.3,1.3,0,0,1,1.3,1.3v3.927A1.3,1.3,0,0,1,199.209,342.261Z" transform="translate(-193.982 -335.733)" fill="#fd9542"/></g><g transform="translate(18.529)"><path d="M252.206,342.261H248.28a1.3,1.3,0,0,1-1.3-1.3v-3.927a1.3,1.3,0,0,1,1.3-1.3h3.927a1.3,1.3,0,0,1,1.3,1.3v3.927A1.3,1.3,0,0,1,252.206,342.261Z" transform="translate(-246.979 -335.733)" fill="#fd9542"/></g></g><g transform="translate(9.824 64.073)"><path d="M146.211,397.74h-3.927a1.3,1.3,0,0,1-1.3-1.3v-3.927a1.3,1.3,0,0,1,1.3-1.3h3.927a1.3,1.3,0,0,1,1.3,1.3v3.927A1.3,1.3,0,0,1,146.211,397.74Z" transform="translate(-140.984 -391.212)" fill="#fd9542"/><g transform="translate(9.264)"><path d="M199.209,397.74h-3.926a1.3,1.3,0,0,1-1.3-1.3v-3.927a1.3,1.3,0,0,1,1.3-1.3h3.926a1.3,1.3,0,0,1,1.3,1.3v3.927A1.3,1.3,0,0,1,199.209,397.74Z" transform="translate(-193.982 -391.212)" fill="#fd9542"/></g><g transform="translate(18.529)"><path d="M252.206,397.74H248.28a1.3,1.3,0,0,1-1.3-1.3v-3.927a1.3,1.3,0,0,1,1.3-1.3h3.927a1.3,1.3,0,0,1,1.3,1.3v3.927A1.3,1.3,0,0,1,252.206,397.74Z" transform="translate(-246.979 -391.212)" fill="#fd9542"/></g></g><g transform="translate(13.775 9.872)"><path d="M166.646,82.895h-2.184a.874.874,0,1,1,0-1.748h2.184a.874.874,0,1,1,0,1.748Z" transform="translate(-163.588 -81.147)" fill="#9f33dd"/><g transform="translate(0 4.544)"><path d="M174.51,108.889H164.462a.874.874,0,1,1,0-1.748H174.51a.874.874,0,1,1,0,1.748Z" transform="translate(-163.588 -107.141)" fill="#9f33dd"/></g><path d="M179.754,128.883H164.462a.874.874,0,1,1,0-1.748h15.292a.874.874,0,1,1,0,1.748Z" transform="translate(-163.588 -119.096)" fill="#0074FF"/></g><g transform="translate(4.403 63.746)"><circle cx="0.977" cy="0.977" r="0.977" transform="matrix(0.386, -0.923, 0.923, 0.386, 0, 1.804)" fill="#fd9542"/><circle cx="0.977" cy="0.977" r="0.977" transform="matrix(0.386, -0.923, 0.923, 0.386, 0.001, 4.76)" fill="#fd9542"/><path d="M113.461,425.854a.977.977,0,1,1-.977-.977.977.977,0,0,1,.977.977" transform="translate(-111.239 -418.665)" fill="#fd9542"/></g></g><path d="M170.595,185.13,157.68,198.043h-3.054l12.913-12.913Z" transform="translate(-137.601 -157.082)" fill="#fff"/><path d="M202.794,185.483l-12.562,12.56h-6.727l12.913-12.913h5.674A.87.87,0,0,1,202.794,185.483Z" transform="translate(-161.433 -157.082)" fill="#fff"/><path d="M398.14,84.642a.874.874,0,0,1-.618-1.492L399.27,81.4a.874.874,0,1,1,1.236,1.236l-1.748,1.748A.871.871,0,0,1,398.14,84.642Z" transform="translate(-337.826 -71.275)" fill="#fd9542"/><path d="M58.107,226.913a.874.874,0,0,1-.618-1.492l1.748-1.748a.874.874,0,0,1,1.236,1.236l-1.748,1.748A.871.871,0,0,1,58.107,226.913Z" transform="translate(-57.233 -188.676)" fill="#fd9542"/><g transform="translate(57.152 74.581)"><path d="M388.548,454.818a.871.871,0,0,1-.618-.256l-1.13-1.13-1.13,1.13a.874.874,0,0,1-1.236-1.236l1.748-1.748a.874.874,0,0,1,1.236,0l1.748,1.748a.874.874,0,0,1-.618,1.492Z" transform="translate(-384.178 -451.322)" fill="#fd9542"/></g><g transform="translate(3.068 6.372)"><path d="M79.156,64.623a.872.872,0,0,1-.618-.256l-1.13-1.13-1.13,1.13a.874.874,0,0,1-1.236-1.236l1.748-1.748a.874.874,0,0,1,1.236,0l1.748,1.748a.874.874,0,0,1-.618,1.492Z" transform="translate(-74.786 -61.127)" fill="#fd9542"/></g><g transform="translate(61.421 16.739)"><path d="M412.97,123.927a.871.871,0,0,1-.618-.256l-1.13-1.13-1.13,1.13a.874.874,0,0,1-1.236-1.236l1.748-1.748a.874.874,0,0,1,1.236,0l1.748,1.748a.874.874,0,0,1-.618,1.492Z" transform="translate(-408.6 -120.431)" fill="#fd9542"/></g></g></g></svg>