<svg xmlns="http://www.w3.org/2000/svg" width="80.487" height="80" viewBox="0 0 80.487 80"><path d="M120.477,118.955H50.138A4.138,4.138,0,0,0,46,123.093v35.9a4.138,4.138,0,0,0,4.138,4.138H69.394v6.536H59.086a.936.936,0,0,0-.936.936v7.211a5.615,5.615,0,0,0,5.615,5.615h31.62A5.615,5.615,0,0,0,101,177.809V163.126h3.1v2.33a1.289,1.289,0,0,0,1.289,1.289h9.947a1.289,1.289,0,0,0,1.289-1.289v-2.33h3.851a4.138,4.138,0,0,0,4.138-4.138v-35.9A4.137,4.137,0,0,0,120.477,118.955Z" transform="translate(-45.064 -104.607)" fill="#0074FF" opacity="0.1"/><g transform="translate(0 5.862)"><g transform="translate(0.936 0.936)"><g transform="translate(45.214)"><path d="M356.41,328.9v-4.028h12.525V328.9a1.289,1.289,0,0,1-1.289,1.289H357.7A1.289,1.289,0,0,1,356.41,328.9Z" transform="translate(-343.522 -278.776)" fill="#fff"/><path d="M287.557,79.319v4.618h25.412V79.319c0-.712-.577-.7-1.289-.7H288.846C288.134,78.62,287.557,78.607,287.557,79.319Z" transform="translate(-287.557 -78.62)" fill="#fff"/></g><g transform="translate(0 3.619)"><path d="M46,137.989v-35.9a4.138,4.138,0,0,1,4.138-4.138h70.34a4.138,4.138,0,0,1,4.138,4.138v35.9a4.138,4.138,0,0,1-4.138,4.138H50.138A4.138,4.138,0,0,1,46,137.989Z" transform="translate(-46 -97.955)" fill="#fff"/><path d="M98.13,97.958h59.1v44.17H98.13Z" transform="translate(-88.372 -97.957)" fill="#fff"/></g><g transform="translate(72.812 20.977)"><path d="M435,199.207v-7.584a.936.936,0,1,1,1.872,0v7.584a.936.936,0,1,1-1.872,0Z" transform="translate(-435 -190.687)" fill="#d0a4ff"/></g><g transform="translate(2.87 21.899)"><path d="M64.64,195.614H62.269a.936.936,0,0,0-.936.936v5.74a.936.936,0,0,0,.936.936H64.64a.936.936,0,0,0,.936-.936v-5.74A.936.936,0,0,0,64.64,195.614Z" transform="translate(-61.333 -195.614)" fill="#ffd4c5"/></g><g transform="translate(4.056 9.98)"><g transform="translate(0 26.486)"><path d="M67.667,277.465v-3.092a.936.936,0,0,1,1.872,0v3.092a.936.936,0,1,1-1.872,0Z" transform="translate(-67.667 -273.437)" fill="#d0a4ff"/></g><path d="M67.667,135.965v-3.092a.936.936,0,1,1,1.872,0v3.092a.936.936,0,1,1-1.872,0Z" transform="translate(-67.667 -131.937)" fill="#d0a4ff"/></g></g><g transform="translate(15.349 12.408)"><path d="M171.637,151.121H124.153A1.153,1.153,0,0,1,123,149.968v-8.907a1.153,1.153,0,0,1,1.153-1.153h47.484a1.153,1.153,0,0,1,1.153,1.153v8.907A1.153,1.153,0,0,1,171.637,151.121Z" transform="translate(-123 -139.908)" fill="#ffd4c5"/><g transform="translate(27.504 0.001)"><path d="M289.026,139.916l-11.213,11.213h-7.872l11.213-11.213Z" transform="translate(-269.941 -139.916)" fill="#fff"/><path d="M337.954,141.569v1.4l-8.658,8.658H326.2l6.223-6.223,4.877-4.874A1.148,1.148,0,0,1,337.954,141.569Z" transform="translate(-315.67 -140.416)" fill="#fff"/></g></g><g transform="translate(54.081 27.841)"><path d="M363.75,223.4a1.046,1.046,0,1,1,1.046,1.046A1.046,1.046,0,0,1,363.75,223.4Z" transform="translate(-357.42 -222.356)" fill="#d0a4ff"/><path d="M346.84,223.4a1.046,1.046,0,1,1,1.046,1.046A1.046,1.046,0,0,1,346.84,223.4Z" transform="translate(-343.675 -222.356)" fill="#d0a4ff"/><path d="M330.976,224.449a1.046,1.046,0,1,1,1.046-1.046,1.046,1.046,0,0,1-1.046,1.046" transform="translate(-329.93 -222.356)" fill="#d0a4ff"/></g><g transform="translate(13.086 31.291)"><path d="M179.7,250.244H136.827a.936.936,0,0,1-.936-.936v-7.581a.936.936,0,0,1,.936-.936H179.7a.936.936,0,0,1,.936.936v7.581A.936.936,0,0,1,179.7,250.244Z" transform="translate(-131.215 -240.792)" fill="#d0a4ff"/><g transform="translate(0 4.411)"><path d="M170.98,264.356v33.322h25.992a5.615,5.615,0,0,0,5.615-5.615V264.356Z" transform="translate(-159.736 -264.356)" fill="#fff"/><path d="M142.518,377v-7.211a.936.936,0,0,0-.936-.936H111.847a.936.936,0,0,0-.936.936V377a5.615,5.615,0,0,0,5.615,5.615h31.607A5.615,5.615,0,0,1,142.518,377Z" transform="translate(-110.911 -349.296)" fill="#fff"/></g></g><path d="M143.657,159.579l2.059-2.059a.935.935,0,0,0,0-1.323l-2.059-2.059a.936.936,0,0,0-1.324,0l-2.059,2.059a.935.935,0,0,0,0,1.323l2.059,2.059a.936.936,0,0,0,1.324,0Zm-1.4-2.721.735-.735.735.735-.735.735Z" transform="translate(-121.47 -138.843)" fill="#00c853"/><path d="M181.5,159.852a.933.933,0,0,0,.662-.274l2.059-2.059a.936.936,0,0,0,0-1.323l-2.059-2.059a.936.936,0,0,0-1.324,0l-2.059,2.059a.936.936,0,0,0,0,1.323l2.059,2.059A.932.932,0,0,0,181.5,159.852Zm0-3.73.735.735-.735.735-.735-.735Z" transform="translate(-152.763 -138.842)" fill="#00c853"/><path d="M220,159.852a.933.933,0,0,0,.662-.274l2.059-2.059a.936.936,0,0,0,0-1.323l-2.059-2.059a.936.936,0,0,0-1.324,0l-2.059,2.059a.936.936,0,0,0,0,1.323l2.059,2.059A.932.932,0,0,0,220,159.852Zm0-3.73.735.735-.735.735-.735-.735Z" transform="translate(-184.057 -138.842)" fill="#00c853"/><path d="M258.495,159.852a.933.933,0,0,0,.662-.274l2.059-2.059a.936.936,0,0,0,0-1.323l-2.059-2.059a.936.936,0,0,0-1.323,0l-2.059,2.059a.936.936,0,0,0,0,1.323l2.059,2.059A.932.932,0,0,0,258.495,159.852Zm0-3.73.735.735-.735.735-.735-.735Z" transform="translate(-215.35 -138.842)" fill="#00c853"/><path d="M116.413,77.237H113.5V75.253a1.5,1.5,0,0,0-.964-1.485,3.4,3.4,0,0,0-1.224-.15H88.4a3.42,3.42,0,0,0-1.224.15,1.5,1.5,0,0,0-.964,1.485v1.984H46.073A5.079,5.079,0,0,0,41,82.311v35.9a5.079,5.079,0,0,0,5.073,5.073H58.965a.936.936,0,1,0,0-1.872H52.629v-42.3h57.229v42.3H97.872V110.256h.962a.936.936,0,0,0,0-1.872H63.4a.936.936,0,1,0,0,1.872h1v17.689H55.022a1.874,1.874,0,0,0-1.872,1.872v7.211a6.559,6.559,0,0,0,6.551,6.551h31.62a6.559,6.559,0,0,0,6.551-6.551v-8.318a.936.936,0,0,0-1.872,0v8.318a4.685,4.685,0,0,1-4.679,4.679h-.013a4.685,4.685,0,0,1-4.679-4.679v-7.211a1.874,1.874,0,0,0-1.872-1.872H66.265V110.256H96v12.089a.936.936,0,0,0,.936.936H99.1v1.394a2.227,2.227,0,0,0,2.225,2.225h9.947a2.227,2.227,0,0,0,2.225-2.225v-1.394h2.915a5.079,5.079,0,0,0,5.073-5.073v-35.9a5.079,5.079,0,0,0-5.073-5.074ZM50.757,121.409H46.073a3.205,3.205,0,0,1-3.2-3.2v-35.9a3.205,3.205,0,0,1,3.2-3.2h4.683v42.3Zm35.97,20.3H59.7a4.685,4.685,0,0,1-4.679-4.679v-7.211H84.757v7.211a6.532,6.532,0,0,0,1.971,4.679Zm14-64.469a.932.932,0,0,0-1.748,0h-10.9V75.493c.1,0,.223,0,.316,0h22.909c.094,0,.211,0,.316,0v1.744Zm10.9,47.438a.353.353,0,0,1-.353.353h-9.947a.353.353,0,0,1-.353-.353v-1.394h10.653v1.394Zm7.988-6.468a3.205,3.205,0,0,1-3.2,3.2H111.73v-42.3h4.684a3.205,3.205,0,0,1,3.2,3.2Z" transform="translate(-41 -73.618)" fill="#0074FF"/><g transform="translate(29.212 42.825)"><g transform="translate(0 3.786)"><path d="M216.624,324.507H198a.936.936,0,1,1,0-1.872h18.624a.936.936,0,1,1,0,1.872Z" transform="translate(-197.064 -322.635)" fill="#fd9542"/></g><path d="M200.34,304.281H198a.936.936,0,1,1,0-1.872h2.34a.936.936,0,1,1,0,1.872Z" transform="translate(-197.064 -302.409)" fill="#fd9542"/><g transform="translate(5.563)"><path d="M233.99,304.281h-6.27a.936.936,0,0,1,0-1.872h6.27a.936.936,0,0,1,0,1.872Z" transform="translate(-226.784 -302.409)" fill="#fd9542"/></g></g></g><g transform="translate(4.055 3.016)"><path d="M151.583,62.156a.936.936,0,0,1-.662-1.6l1.872-1.872a.936.936,0,0,1,1.324,1.323l-1.872,1.872A.933.933,0,0,1,151.583,62.156Z" transform="translate(-134.179 -58.412)" fill="#fd9542"/><path d="M379.935,405.152a.936.936,0,0,1-.662-1.6l1.872-1.872a.936.936,0,1,1,1.324,1.323l-1.872,1.872A.932.932,0,0,1,379.935,405.152Z" transform="translate(-319.788 -337.207)" fill="#fd9542"/><path d="M63.6,369.261a.936.936,0,0,1-.662-1.6l1.872-1.872a.936.936,0,0,1,1.324,1.323l-1.872,1.872A.933.933,0,0,1,63.6,369.261Z" transform="translate(-62.666 -308.034)" fill="#fd9542"/></g><g transform="translate(68.133 0)"><path d="M409.68,46.044a.933.933,0,0,1-.662-.274l-1.21-1.21-1.21,1.21a.936.936,0,0,1-1.324-1.323l1.872-1.872a.936.936,0,0,1,1.324,0l1.872,1.872a.936.936,0,0,1-.662,1.6Z" transform="translate(-405 -42.3)" fill="#fd9542"/></g><g transform="translate(56.423 76.256)"><path d="M347.12,453.444a.933.933,0,0,1-.662-.274l-1.21-1.21-1.21,1.21a.936.936,0,0,1-1.324-1.323l1.872-1.872a.936.936,0,0,1,1.323,0l1.872,1.872a.936.936,0,0,1-.662,1.6Z" transform="translate(-342.44 -449.7)" fill="#fd9542"/></g></svg>