<svg xmlns="http://www.w3.org/2000/svg" width="72.231" height="80" viewBox="0 0 72.231 80"><g transform="translate(-7.774 -1.638)"><g transform="translate(7.774 2.522)"><g transform="translate(0)"><g transform="translate(9.313)"><path d="M159.379,116.152H124.971A3.971,3.971,0,0,1,121,112.181V44.771a3.971,3.971,0,0,1,3.971-3.971h34.407a3.971,3.971,0,0,1,3.971,3.971v67.409A3.993,3.993,0,0,1,159.379,116.152Z" transform="translate(-115.346 -37.037)" fill="#0074FF" opacity="0.1"/><g transform="translate(2.185 7.665)"><path d="M359.567,75.3H355.7v-12h3.867a1.236,1.236,0,0,1,1.231,1.231V74.07A1.236,1.236,0,0,1,359.567,75.3Z" transform="translate(-311.529 -63.3)" fill="#fff"/><path d="M101.676,87.649H106.1V63.3h-4.422c-.676,0-.676.555-.676,1.231V86.417C101,87.094,101,87.649,101.676,87.649Z" transform="translate(-101 -63.3)" fill="#fff"/></g><path d="M159.379,94.452H124.971A3.971,3.971,0,0,1,121,90.481V23.071a3.971,3.971,0,0,1,3.971-3.971h34.407a3.971,3.971,0,0,1,3.971,3.971V90.481A3.993,3.993,0,0,1,159.379,94.452Z" transform="translate(-115.346 -19.1)" fill="#fff"/><path d="M121,73h42.333v56.64H121Z" transform="translate(-115.346 -63.653)" fill="#fff"/><g transform="translate(0 9.365)"><path d="M99.135,82H88.4l5.654-8.9h8.463Z" transform="translate(-88.4 -73.1)" fill="#fff"/><path d="M161.018,82H150.3l3.382-8.9h8.48Z" transform="translate(-139.565 -73.1)" fill="#fff"/><path d="M222.835,82H212.1l1.145-8.9h8.463Z" transform="translate(-190.648 -73.1)" fill="#fff"/><path d="M279.345,82H268.627L267.5,73.1h8.463Z" transform="translate(-236.44 -73.1)" fill="#fff"/><path d="M330.417,82H319.682L316.3,73.1h8.463Z" transform="translate(-276.777 -73.1)" fill="#fff"/><path d="M93.859,134.025a5.351,5.351,0,0,1-5.359-5.359V124.4H99.235v4.266A5.4,5.4,0,0,1,93.859,134.025Z" transform="translate(-88.483 -115.503)" fill="#fff"/><path d="M155.659,134.025a5.351,5.351,0,0,1-5.359-5.359V124.4h10.735v4.266A5.388,5.388,0,0,1,155.659,134.025Z" transform="translate(-139.565 -115.503)" fill="#fff"/><path d="M217.559,134.025a5.351,5.351,0,0,1-5.359-5.359V124.4h10.718v4.266A5.373,5.373,0,0,1,217.559,134.025Z" transform="translate(-190.73 -115.503)" fill="#fff"/><path d="M279.359,134.025A5.351,5.351,0,0,1,274,128.666V124.4h10.735v4.266A5.388,5.388,0,0,1,279.359,134.025Z" transform="translate(-241.813 -115.503)" fill="#fff"/><path d="M341.259,134.025a5.351,5.351,0,0,1-5.359-5.359V124.4h10.735v4.266A5.388,5.388,0,0,1,341.259,134.025Z" transform="translate(-292.978 -115.503)" fill="#fff"/></g><path d="M225.068,42.6H217.8a.9.9,0,0,1,0-1.8h7.266a.9.9,0,0,1,0,1.8Z" transform="translate(-194.615 -37.037)" fill="#fd9542"/><path d="M222,415.1v2.272a.9.9,0,0,0,.9.9h5.5a.9.9,0,0,0,.9-.9V415.1a.9.9,0,0,0-.9-.9h-5.5A.93.93,0,0,0,222,415.1Z" transform="translate(-198.831 -345.681)" fill="#ffd4c5"/><path d="M306.367,422.5H303.4a.9.9,0,1,1,0-1.8h2.966a.9.9,0,0,1,.9.9A.907.907,0,0,1,306.367,422.5Z" transform="translate(-265.37 -351.053)" fill="#fd9542"/><path d="M159.967,422.5H157a.9.9,0,1,1,0-1.8h2.966a.9.9,0,0,1,0,1.8Z" transform="translate(-144.359 -351.053)" fill="#fd9542"/><g transform="translate(14.55 28.858)"><circle cx="12.278" cy="12.278" r="12.278" fill="#fd9542"/><circle cx="8.394" cy="8.394" r="8.394" transform="translate(2.841 19.504) rotate(-82.413)" fill="#fff"/><g transform="translate(8.22 6.122)"><path d="M224.989,238.469h-3.416a.9.9,0,1,1,0-1.8h3.416a1.023,1.023,0,1,0,0-2.046h-2.48a2.809,2.809,0,1,1,0-5.619h3.416a.9.9,0,1,1,0,1.8h-3.416a1.023,1.023,0,0,0,0,2.046h2.48a2.809,2.809,0,0,1,0,5.619Z" transform="translate(-219.7 -227.578)" fill="#00c853"/><path d="M238.8,233.113a.9.9,0,0,1-.9-.9V221.7a.9.9,0,0,1,1.8,0v10.509A.918.918,0,0,1,238.8,233.113Z" transform="translate(-234.744 -220.8)" fill="#00c853"/></g></g><g transform="translate(18.348 55.305)"><path d="M210.259,339.8H195.1a.9.9,0,0,1,0-1.8h15.157a.9.9,0,0,1,.9.9A.93.93,0,0,1,210.259,339.8Z" transform="translate(-194.2 -338)" fill="#0074FF"/></g><g transform="translate(18.348 58.912)"><path d="M210.259,360.6H195.1a.9.9,0,0,1,0-1.8h15.157a.9.9,0,0,1,.9.9A.918.918,0,0,1,210.259,360.6Z" transform="translate(-194.2 -358.8)" fill="#0074FF"/></g><g transform="translate(11.168 32.083)"><g transform="translate(29.499)"><path d="M323.8,209.667a.9.9,0,0,1-.9-.9V205a.9.9,0,1,1,1.8,0v3.763A.9.9,0,0,1,323.8,209.667Z" transform="translate(-322.9 -204.1)" fill="#0074FF"/></g><g transform="translate(0 11.533)"><path d="M153.7,276.167a.9.9,0,0,1-.9-.9V271.5a.9.9,0,0,1,1.8,0v3.763A.9.9,0,0,1,153.7,276.167Z" transform="translate(-152.8 -270.6)" fill="#0074FF"/></g></g></g><g transform="translate(62.051 1.977)"><path d="M396.992,34.09a.951.951,0,0,1-.642-.26l-1.162-1.162-1.162,1.162a.9.9,0,1,1-1.266-1.266l1.8-1.8a.9.9,0,0,1,1.266,0l1.786,1.8a.9.9,0,0,1,0,1.266A.88.88,0,0,1,396.992,34.09Z" transform="translate(-392.5 -30.5)" fill="#fd9542"/></g><g transform="translate(0 19.024)"><path d="M39.192,132.372a.951.951,0,0,1-.642-.26l-1.162-1.162-1.162,1.162a.9.9,0,0,1-1.266-1.266l1.786-1.786a.9.9,0,0,1,1.266,0l1.786,1.786a.9.9,0,0,1,0,1.266A.762.762,0,0,1,39.192,132.372Z" transform="translate(-34.7 -128.8)" fill="#fd9542"/><g transform="translate(66.872 21.279)"><path d="M424.792,255.073a.951.951,0,0,1-.642-.26l-1.162-1.162-1.162,1.162a.9.9,0,0,1-1.266-1.266l1.786-1.786a.9.9,0,0,1,1.266,0l1.786,1.786a.9.9,0,0,1,0,1.266A.814.814,0,0,1,424.792,255.073Z" transform="translate(-420.3 -251.5)" fill="#fd9542"/></g></g><g transform="translate(5.55 61.704)"><path d="M71.192,378.473a.952.952,0,0,1-.642-.26l-1.162-1.162-1.162,1.162a.9.9,0,1,1-1.266-1.266l1.786-1.786a.9.9,0,0,1,1.266,0l1.786,1.786a.9.9,0,0,1,0,1.266A.814.814,0,0,1,71.192,378.473Z" transform="translate(-66.7 -374.9)" fill="#fd9542"/></g><path d="M398.6,321.272a.951.951,0,0,1-.642-.26.9.9,0,0,1,0-1.266l1.786-1.786a.9.9,0,1,1,1.266,1.266l-1.786,1.786A.88.88,0,0,1,398.6,321.272Z" transform="translate(-334.748 -265.916)" fill="#fd9542"/></g></g><path d="M138.726,33.129a.919.919,0,0,0-.139-.468l-2.046-3.226V23.781a2.132,2.132,0,0,0-2.133-2.133h-1.335V18.856A4.859,4.859,0,0,0,128.217,14H93.809a4.859,4.859,0,0,0-4.856,4.856v2.792H87.046a1.43,1.43,0,0,0-1.422.919,3.387,3.387,0,0,0-.139,1.179v5.706l-2.046,3.226a.932.932,0,0,0-.139.486v4.266a6.292,6.292,0,0,0,2.185,4.752v3.555a3.387,3.387,0,0,0,.139,1.179,1.43,1.43,0,0,0,1.422.919h1.908V86.317a4.859,4.859,0,0,0,4.856,4.856h34.407a4.859,4.859,0,0,0,4.856-4.856V80.941h0V56.593a.9.9,0,0,0-1.8,0V79.987H90.74V43.551a6.3,6.3,0,0,0,4.179-2.914,6.248,6.248,0,0,0,10.718,0,6.316,6.316,0,0,0,5.376,3.018,6.243,6.243,0,0,0,5.359-3.035,6.248,6.248,0,0,0,10.718,0,6.256,6.256,0,0,0,11.619-3.226l.017-4.266Zm-5.654-9.677h1.335a.329.329,0,0,1,.329.33v2.844l-1.682-2.636v-.538Zm-45.8,0h1.665v.538l-1.682,2.636C87.271,26.625,87.271,23.538,87.271,23.452ZM88.954,46H87.289V43.239a5.965,5.965,0,0,0,1.682.4V46Zm42.315,35.777v4.492a3.064,3.064,0,0,1-3.07,3.07H93.809a3.064,3.064,0,0,1-3.07-3.07V81.774ZM94.018,37.395a4.474,4.474,0,0,1-8.949,0V34.03H94v3.364Zm.277-5.151H85.832L90.6,24.718a.981.981,0,0,0,.139-.486V18.856a3.064,3.064,0,0,1,3.07-3.07h34.407a3.064,3.064,0,0,1,3.07,3.07v4.492H95.943a.9.9,0,0,0,0,1.8H97Zm21.054,0H106.66l.9-7.11h6.885Zm-10.6,5.151a4.474,4.474,0,0,1-8.949,0V34.03h8.949Zm.1-5.151H96.22l2.705-7.11h6.833Zm10.613,5.151a4.474,4.474,0,0,1-8.949,0V34.03h8.931v3.364Zm.78-12.261h6.833l2.705,7.11h-8.636ZM126.2,37.395a4.474,4.474,0,0,1-8.949,0V34.03h8.931v3.364Zm-1.2-12.261h6.677l4.509,7.11h-8.48Zm11.914,12.261a4.474,4.474,0,0,1-8.949,0V34.03h8.931v3.364Z" transform="translate(-67.098 -12.362)" fill="#0074FF"/></g></svg>