<svg xmlns="http://www.w3.org/2000/svg" width="211.716" height="35.97" viewBox="0 0 211.716 35.97"><g transform="translate(-1039.354 -2408.206)"><path d="M.52-7.328a8.715,8.715,0,0,1,.424-2.721,6.977,6.977,0,0,1,1.23-2.283A6.036,6.036,0,0,1,4.143-13.9a5.89,5.89,0,0,1,2.693-.588A4.142,4.142,0,0,1,8.408-14a3.567,3.567,0,0,1,1.094.943,3.643,3.643,0,0,1,.615,1.3,6.8,6.8,0,0,1,.164,1.531,2.958,2.958,0,0,1-.574,1.777A4.937,4.937,0,0,1,8.258-7.123a7.588,7.588,0,0,1-1.887.82,6.935,6.935,0,0,1-1.887.287h-.67A1.644,1.644,0,0,1,3.2-6.125a1,1,0,0,1-.437-.328A1.088,1.088,0,0,1,2.6-7.109a.589.589,0,0,1,.041-.232q.041-.1.232-.137a2.211,2.211,0,0,1,.574-.014q.383.055,1.039.164a3.613,3.613,0,0,0,1.107-.26,10.469,10.469,0,0,0,1.477-.67,5.877,5.877,0,0,0,1.3-.943,1.512,1.512,0,0,0,.547-1.053,3.4,3.4,0,0,0-.178-1.08,2.754,2.754,0,0,0-.533-.943,2.772,2.772,0,0,0-.834-.656,1.932,1.932,0,0,0-1.08-.191,4.243,4.243,0,0,0-1.736.52,4.415,4.415,0,0,0-1.326,1.135,5.425,5.425,0,0,0-.848,1.545,5.275,5.275,0,0,0-.3,1.777q0,.711.027,1.422a6.522,6.522,0,0,0,.205,1.395A4.643,4.643,0,0,0,2.885-4.02,3.621,3.621,0,0,0,4.033-2.912a6.973,6.973,0,0,0,1.9.793,13.416,13.416,0,0,0,2.844.4l4.895-.328a3.492,3.492,0,0,1-1.107.984,7.056,7.056,0,0,1-1.422.615,10.013,10.013,0,0,1-1.49.342A9.536,9.536,0,0,1,8.258,0a8.468,8.468,0,0,1-2.98-.52A7.769,7.769,0,0,1,2.816-1.982a6.757,6.757,0,0,1-1.682-2.3A7.287,7.287,0,0,1,.52-7.328ZM43.285-.957q0-.082.014-.219t.014-.273V-1.7l.027-.164q0-.082.041-.465t.1-.82q.055-.438.082-.834t.027-.506a14.764,14.764,0,0,0-.246-1.5,9.115,9.115,0,0,0-.588-1.832,5.642,5.642,0,0,0-1-1.559,1.868,1.868,0,0,0-1.422-.656,3.711,3.711,0,0,0-1.545.369,6.561,6.561,0,0,0-1.5.957,5.018,5.018,0,0,0-1.135,1.354A2.879,2.879,0,0,0,35.684-5.8a2.459,2.459,0,0,0,.137.807q.137.4.287.779t.287.793a2.663,2.663,0,0,1,.137.848,1.858,1.858,0,0,1-.123.656.553.553,0,0,1-.588.328.923.923,0,0,1-.807-.574,7.413,7.413,0,0,1-.574-1.463q-.26-.889-.547-1.9a12.044,12.044,0,0,0-.711-1.9,4.8,4.8,0,0,0-1.039-1.463,2.213,2.213,0,0,0-1.572-.574,2.688,2.688,0,0,0-1.312.314,2.775,2.775,0,0,0-.943.834,4.152,4.152,0,0,0-.574,1.176,4.467,4.467,0,0,0-.205,1.34,15.16,15.16,0,0,0,.15,2.146,14.966,14.966,0,0,1,.15,2.119,2.761,2.761,0,0,1-.082.7q-.082.314-.547.314A.832.832,0,0,1,26.7-.67a1.26,1.26,0,0,1-.342-.383,2.226,2.226,0,0,1-.219-.52q-.082-.287-.137-.506.055-1.121.014-2.078t-.109-1.818q-.068-.861-.137-1.736T25.7-9.57v-.191q0-.137.014-.287t.014-.273V-10.5a.469.469,0,0,1,.137-.137A.469.469,0,0,0,26-10.773h.137a.763.763,0,0,1,.684.328,1.1,1.1,0,0,1,.219.711,6.606,6.606,0,0,1,.779-.725,3.225,3.225,0,0,1,.656-.4,2.043,2.043,0,0,1,.656-.164q.342-.027.834-.027a5.807,5.807,0,0,1,1.436.164,4.269,4.269,0,0,1,1.162.479,3.887,3.887,0,0,1,.957.834A10.474,10.474,0,0,1,34.4-8.422a.225.225,0,0,1,.068.014.225.225,0,0,0,.068.014,1.517,1.517,0,0,0,.273-.26q.246-.26.656-.629t.957-.82a11.529,11.529,0,0,1,1.148-.834,7.929,7.929,0,0,1,1.23-.643,3.21,3.21,0,0,1,1.23-.26,3.488,3.488,0,0,1,1.654.383,4.645,4.645,0,0,1,1.3,1.025,6.761,6.761,0,0,1,.984,1.449,11.053,11.053,0,0,1,.684,1.668,10.747,10.747,0,0,1,.4,1.709,10.912,10.912,0,0,1,.123,1.559q0,.273-.014.943a8.907,8.907,0,0,1-.137,1.367,4.336,4.336,0,0,1-.4,1.23.841.841,0,0,1-.766.533.535.535,0,0,1-.355-.1A.6.6,0,0,1,43.34-.3a.8.8,0,0,1-.055-.3Zm3.172-3.664a3.4,3.4,0,0,1,.273-1.066A4.056,4.056,0,0,1,47.5-6.863a5.252,5.252,0,0,1,1.313-1.025,5.815,5.815,0,0,1,1.873-.643,8.455,8.455,0,0,1,2.461-.027,12.836,12.836,0,0,1,3.076.82v-.273l-.027-.246a2.972,2.972,0,0,0-.41-1.449,5.237,5.237,0,0,0-1.053-1.326,6.052,6.052,0,0,0-1.381-.957,3.176,3.176,0,0,0-1.422-.369,1.283,1.283,0,0,0-.479.082,2.338,2.338,0,0,0-.4.205q-.191.123-.369.219a.882.882,0,0,1-.424.1q-.055,0-.055-.027l-.055-.055q-.055-.055-.15-.137t-.1-.109a1.876,1.876,0,0,1,.178-.848,1.507,1.507,0,0,1,.492-.574,2.569,2.569,0,0,1,.711-.342,2.8,2.8,0,0,1,.834-.123,5.314,5.314,0,0,1,2.092.67,8.189,8.189,0,0,1,1.832,1.408A9.358,9.358,0,0,1,57.5-9.939a14.5,14.5,0,0,1,1.053,2.3,10.716,10.716,0,0,1,.561,2.393A9.279,9.279,0,0,1,59.145-2.9q-.027,0-.164-.014l-.3-.027a1.754,1.754,0,0,1-.273-.041l-.137-.027a7.964,7.964,0,0,0-1.285-2.078A7.148,7.148,0,0,0,55.576-6.33a5.094,5.094,0,0,0-1.3-.629q-.6-.178-.984-.26-.41,0-.971.055a9.342,9.342,0,0,0-1.162.191,9.236,9.236,0,0,0-1.217.369,5.133,5.133,0,0,0-1.094.561,2.705,2.705,0,0,0-.766.779A1.918,1.918,0,0,0,47.8-4.211a1.412,1.412,0,0,0,.52,1.107,4.243,4.243,0,0,0,1.258.738,6.785,6.785,0,0,0,1.5.4,9.135,9.135,0,0,0,1.23.109,13.61,13.61,0,0,0,1.5-.082q.738-.082,1.463-.191t1.436-.191a12.4,12.4,0,0,1,1.422-.082h.191q.137,0,.287.014t.273.014h.178a.334.334,0,0,1,.246.246,1.993,1.993,0,0,1,.027.328q0,.164-.342.355a5.726,5.726,0,0,1-.889.383q-.547.191-1.217.4T55.6-.328q-.615.137-1.148.232A4.971,4.971,0,0,1,53.7,0,16.551,16.551,0,0,1,51.27-.191a8.312,8.312,0,0,1-2.352-.7A4.782,4.782,0,0,1,47.154-2.3,3.692,3.692,0,0,1,46.457-4.621Zm15.367-4.84v-.41q0-.3.014-.629t.014-.629v-.41q-.109-.848.492-.848a.779.779,0,0,1,.465.137,1.342,1.342,0,0,1,.355.41,13.03,13.03,0,0,0,.123,2.748q.205,1.326.465,2.625t.492,2.611a15.66,15.66,0,0,1,.232,2.734,1.465,1.465,0,0,1-.232.766.763.763,0,0,1-.7.383q-.355,0-.615-.615a8.34,8.34,0,0,1-.451-1.559q-.191-.943-.328-2.092t-.205-2.2q-.068-1.053-.1-1.887T61.824-9.461ZM60.43-16.324q0-.328.191-.424a1.1,1.1,0,0,1,.492-.1.736.736,0,0,1,.506.232,2.435,2.435,0,0,1,.52.588,1.431,1.431,0,0,1,.232.6q.027.328-.41.383h-.137a3.57,3.57,0,0,1-.684-.055.96.96,0,0,1-.424-.178.7.7,0,0,1-.219-.369A2.673,2.673,0,0,1,60.43-16.324ZM65.461-3.309a1.1,1.1,0,0,1,.4-.205,1.767,1.767,0,0,1,.4-.041,1.092,1.092,0,0,1,.492.123,2.162,2.162,0,0,1,.451.3q.205.178.424.342a2.392,2.392,0,0,0,.465.273q.711.3,1.135.492a6.706,6.706,0,0,0,.779.3,3.5,3.5,0,0,0,.82.137q.465.027,1.2.027.574,0,1.395.014a7.192,7.192,0,0,0,1.559-.137,3.041,3.041,0,0,0,1.258-.547,1.433,1.433,0,0,0,.52-1.217,1.6,1.6,0,0,0-.424-1.244,2.973,2.973,0,0,0-1.217-.7,8.353,8.353,0,0,0-1.723-.342q-.957-.1-1.969-.205a19.967,19.967,0,0,1-1.982-.314A5.958,5.958,0,0,1,67.7-6.891a3.384,3.384,0,0,1-1.23-1.2,3.924,3.924,0,0,1-.492-1.969,2.457,2.457,0,0,1,.861-1.463,4.894,4.894,0,0,1,1.668-.9,6.943,6.943,0,0,1,2.064-.328,6.421,6.421,0,0,1,2.01.273,3.61,3.61,0,0,1,1.531.916,2.241,2.241,0,0,1,.643,1.559,1.982,1.982,0,0,1-.082.9,1.186,1.186,0,0,1-.369.533.711.711,0,0,1-.479.164.492.492,0,0,1-.383-.191.787.787,0,0,1-.123-.52,2,2,0,0,1,.314-.861,1.221,1.221,0,0,0-.629-.82,3.685,3.685,0,0,0-1.2-.424,5.519,5.519,0,0,0-1.463-.055,6.044,6.044,0,0,0-1.422.287,2.971,2.971,0,0,0-1.039.574.917.917,0,0,0-.342.82,1.663,1.663,0,0,0,.479,1.271,3.217,3.217,0,0,0,1.244.7,8.989,8.989,0,0,0,1.764.355q1,.109,2.051.205t2.037.273a6.271,6.271,0,0,1,1.777.588A3.3,3.3,0,0,1,78.148-5.1a3.222,3.222,0,0,1,.465,1.818,2.458,2.458,0,0,1-.437,1.463A3.731,3.731,0,0,1,77.068-.793a5.052,5.052,0,0,1-1.463.6A6.416,6.416,0,0,1,74.1,0q-.711,0-1.518-.014t-1.641-.1a15.662,15.662,0,0,1-1.682-.26,6.29,6.29,0,0,1-1.572-.547,5.1,5.1,0,0,1-1.3-.943A4.314,4.314,0,0,1,65.461-3.309ZM90.7-13.125a19.46,19.46,0,0,0-.328-2.051,5.916,5.916,0,0,1-.178-1.395,1.133,1.133,0,0,1,.342-.848,2.41,2.41,0,0,1,1.23-.41q.055.273.137,1.039t.178,1.736q.1.971.219,2.023t.232,1.928a12.415,12.415,0,0,0,.246,1.422q.137.6.246.547a2.974,2.974,0,0,0,.971-.164,3.141,3.141,0,0,1,1.025-.164,10.985,10.985,0,0,1,1.75.15,12.106,12.106,0,0,1,1.846.451,10.216,10.216,0,0,1,1.777.779,6.981,6.981,0,0,1,1.5,1.107,4.925,4.925,0,0,1,1.025,1.449,4.215,4.215,0,0,1,.383,1.8,3.077,3.077,0,0,1-.615,2.01,3.826,3.826,0,0,1-1.572,1.135,7.538,7.538,0,0,1-2.078.492q-1.148.109-2.133.109a6.468,6.468,0,0,1-2.27-.342,3.924,3.924,0,0,1-1.477-.943,4.107,4.107,0,0,1-.875-1.395,8.2,8.2,0,0,1-.437-1.736q-.137-.943-.191-1.969t-.164-2.064q-.027-.191-.137-.861T91.1-10.76q-.15-.807-.26-1.49T90.7-13.125Zm2.625,7.164a3.1,3.1,0,0,0,.15,2.078,3.671,3.671,0,0,0,1.23,1.436,5,5,0,0,0,1.859.779,5.989,5.989,0,0,0,2.092.068,4.952,4.952,0,0,0,1.859-.643,2.973,2.973,0,0,0,1.258-1.422A2.664,2.664,0,0,0,101.432-5a3.962,3.962,0,0,0-.889-1.066A5.961,5.961,0,0,0,99.3-6.877a9.4,9.4,0,0,0-1.422-.561,12.116,12.116,0,0,0-1.436-.342A7.477,7.477,0,0,0,95.184-7.9a1.784,1.784,0,0,0-1.381.52A2.018,2.018,0,0,0,93.324-5.961Zm11.02,1.34a3.4,3.4,0,0,1,.273-1.066,4.056,4.056,0,0,1,.766-1.176A5.252,5.252,0,0,1,106.7-7.889a5.815,5.815,0,0,1,1.873-.643,8.455,8.455,0,0,1,2.461-.027,12.836,12.836,0,0,1,3.076.82v-.273l-.027-.246a2.972,2.972,0,0,0-.41-1.449,5.237,5.237,0,0,0-1.053-1.326,6.052,6.052,0,0,0-1.381-.957,3.176,3.176,0,0,0-1.422-.369,1.283,1.283,0,0,0-.479.082,2.338,2.338,0,0,0-.4.205q-.191.123-.369.219a.882.882,0,0,1-.424.1q-.055,0-.055-.027l-.055-.055q-.055-.055-.15-.137t-.1-.109a1.876,1.876,0,0,1,.178-.848,1.508,1.508,0,0,1,.492-.574,2.569,2.569,0,0,1,.711-.342,2.8,2.8,0,0,1,.834-.123,5.314,5.314,0,0,1,2.092.67,8.189,8.189,0,0,1,1.832,1.408,9.358,9.358,0,0,1,1.463,1.955,14.5,14.5,0,0,1,1.053,2.3A10.716,10.716,0,0,1,117-5.25a9.279,9.279,0,0,1,.027,2.352q-.027,0-.164-.014l-.3-.027a1.754,1.754,0,0,1-.273-.041l-.137-.027a7.964,7.964,0,0,0-1.285-2.078,7.148,7.148,0,0,0-1.408-1.244,5.094,5.094,0,0,0-1.3-.629q-.6-.178-.984-.26-.41,0-.971.055a9.342,9.342,0,0,0-1.162.191,9.236,9.236,0,0,0-1.217.369,5.133,5.133,0,0,0-1.094.561,2.705,2.705,0,0,0-.766.779,1.918,1.918,0,0,0-.287,1.053A1.412,1.412,0,0,0,106.2-3.1a4.243,4.243,0,0,0,1.258.738,6.785,6.785,0,0,0,1.5.4,9.135,9.135,0,0,0,1.23.109,13.61,13.61,0,0,0,1.5-.082q.738-.082,1.463-.191t1.436-.191a12.4,12.4,0,0,1,1.422-.082h.191q.137,0,.287.014t.273.014h.178a.334.334,0,0,1,.246.246,1.993,1.993,0,0,1,.027.328q0,.164-.342.355a5.726,5.726,0,0,1-.889.383q-.547.191-1.217.4t-1.285.342q-.615.137-1.148.232a4.971,4.971,0,0,1-.752.1,16.551,16.551,0,0,1-2.434-.191,8.312,8.312,0,0,1-2.352-.7A4.782,4.782,0,0,1,105.041-2.3,3.692,3.692,0,0,1,104.344-4.621ZM121,0a14.868,14.868,0,0,1-1.039-2.379,26.255,26.255,0,0,1-.738-2.6q-.3-1.312-.479-2.557t-.232-2.256a3.654,3.654,0,0,0-.027-.424,2.773,2.773,0,0,1-.014-.479,1.908,1.908,0,0,1,.082-.465.924.924,0,0,1,.232-.383h.055q.027,0,.027-.014t.027-.014q.027,0,.027.014t.055.014h.055q.055.027.273.109a.9.9,0,0,1,.273.137q.492-.164,1.012-.4t1.053-.437a9.268,9.268,0,0,1,1.08-.342,4.389,4.389,0,0,1,1.066-.137q.383,0,.67.027a4.193,4.193,0,0,1,.574.1q.287.068.615.164t.766.232q.219.164.4.314a2.338,2.338,0,0,1,.328.342,1.39,1.39,0,0,1,.232.465,2.537,2.537,0,0,1,.082.711,3.157,3.157,0,0,1-1.025-.068q-.588-.123-1.23-.314t-1.326-.328a5.473,5.473,0,0,0-1.312-.109,2.46,2.46,0,0,0-1.176.355,2.475,2.475,0,0,0-1.012.984,5.746,5.746,0,0,0-.164,1.559,8.032,8.032,0,0,0,.191,1.49,12.42,12.42,0,0,0,.424,1.449q.26.725.492,1.449t.424,1.436A7.77,7.77,0,0,1,121.98-.9a.892.892,0,0,1-.3.588A.924.924,0,0,1,121,0Zm7.219-4.621a3.4,3.4,0,0,1,.273-1.066,4.055,4.055,0,0,1,.766-1.176,5.252,5.252,0,0,1,1.313-1.025,5.815,5.815,0,0,1,1.873-.643,8.455,8.455,0,0,1,2.461-.027,12.836,12.836,0,0,1,3.076.82v-.273l-.027-.246a2.972,2.972,0,0,0-.41-1.449,5.236,5.236,0,0,0-1.053-1.326,6.052,6.052,0,0,0-1.381-.957,3.176,3.176,0,0,0-1.422-.369,1.283,1.283,0,0,0-.479.082,2.338,2.338,0,0,0-.4.205q-.191.123-.369.219a.882.882,0,0,1-.424.1q-.055,0-.055-.027l-.055-.055q-.055-.055-.15-.137t-.1-.109a1.876,1.876,0,0,1,.178-.848,1.507,1.507,0,0,1,.492-.574,2.569,2.569,0,0,1,.711-.342,2.8,2.8,0,0,1,.834-.123,5.314,5.314,0,0,1,2.092.67,8.189,8.189,0,0,1,1.832,1.408,9.358,9.358,0,0,1,1.463,1.955,14.5,14.5,0,0,1,1.053,2.3,10.716,10.716,0,0,1,.561,2.393A9.279,9.279,0,0,1,140.9-2.9q-.027,0-.164-.014l-.3-.027a1.754,1.754,0,0,1-.273-.041l-.137-.027a7.964,7.964,0,0,0-1.285-2.078,7.148,7.148,0,0,0-1.408-1.244,5.094,5.094,0,0,0-1.3-.629q-.6-.178-.984-.26-.41,0-.971.055a9.342,9.342,0,0,0-1.162.191A9.236,9.236,0,0,0,131.7-6.6a5.133,5.133,0,0,0-1.094.561,2.705,2.705,0,0,0-.766.779,1.918,1.918,0,0,0-.287,1.053,1.412,1.412,0,0,0,.52,1.107,4.243,4.243,0,0,0,1.258.738,6.785,6.785,0,0,0,1.5.4,9.135,9.135,0,0,0,1.23.109,13.61,13.61,0,0,0,1.5-.082q.738-.082,1.463-.191t1.436-.191a12.4,12.4,0,0,1,1.422-.082h.191q.137,0,.287.014t.273.014h.178a.334.334,0,0,1,.246.246,1.992,1.992,0,0,1,.027.328q0,.164-.342.355a5.726,5.726,0,0,1-.889.383q-.547.191-1.217.4t-1.285.342q-.615.137-1.148.232a4.971,4.971,0,0,1-.752.1,16.551,16.551,0,0,1-2.434-.191,8.312,8.312,0,0,1-2.352-.7A4.782,4.782,0,0,1,128.912-2.3,3.692,3.692,0,0,1,128.215-4.621Zm17.363-4.785h-.766a7.063,7.063,0,0,1-1.135-.1,4.164,4.164,0,0,1-1.066-.314.687.687,0,0,1-.479-.629,1.737,1.737,0,0,1,.041-.314.236.236,0,0,1,.26-.205l2.816-.246q.109-1.012.164-1.654a9.034,9.034,0,0,0,.027-1.2q-.027-.561-.068-1.176t-.068-1.6a.491.491,0,0,1,.082-.3.513.513,0,0,1,.205-.164,1.2,1.2,0,0,1,.273-.082,1.4,1.4,0,0,1,.232-.027.654.654,0,0,1,.342.109,1.282,1.282,0,0,1,.314.273,1.547,1.547,0,0,1,.219.342.815.815,0,0,1,.082.342l.219,5.113,2.352.109a1.348,1.348,0,0,1,.861.178.965.965,0,0,1,.424.861,1.312,1.312,0,0,1-.793.424,5.621,5.621,0,0,1-.971.055q-.506-.014-1,0a1.671,1.671,0,0,0-.875.26q0,.164.027.9t.055,1.75q.027,1.012.068,2.16t.068,2.119q.027.971.041,1.654t.014.766q-.629.383-1.012-.068a3.4,3.4,0,0,1-.615-1.34,12.133,12.133,0,0,1-.328-2.078q-.1-1.189-.109-2.352t.014-2.146Q145.523-8.969,145.578-9.406Zm5.988,3.828a5.1,5.1,0,0,1,.656-2.625,6.083,6.083,0,0,1,1.723-1.887,7.524,7.524,0,0,1,2.393-1.135A9.9,9.9,0,0,1,159-11.594a3.374,3.374,0,0,1,1.326.26,4.937,4.937,0,0,1,1.176.711,5.68,5.68,0,0,1,1,1.039,8.119,8.119,0,0,1,.752,1.217,6.356,6.356,0,0,1,.479,1.271,5.023,5.023,0,0,1,.164,1.244,5.489,5.489,0,0,1-.547,2.488,5.515,5.515,0,0,1-1.477,1.846A6.743,6.743,0,0,1,159.77-.369a7.482,7.482,0,0,1-2.406.4,6.507,6.507,0,0,1-2.311-.4,5.631,5.631,0,0,1-1.832-1.107A4.886,4.886,0,0,1,152-3.24,6.036,6.036,0,0,1,151.566-5.578Zm1.34-.219a4.308,4.308,0,0,0,.314,1.627,4.123,4.123,0,0,0,.875,1.354,4.258,4.258,0,0,0,1.326.916,3.978,3.978,0,0,0,1.641.342,2.84,2.84,0,0,0,1.135-.15,6.194,6.194,0,0,0,1.34-.6,7.835,7.835,0,0,0,1.285-.957,5.664,5.664,0,0,0,1.025-1.23,3.539,3.539,0,0,0,.506-1.395,2.557,2.557,0,0,0-.246-1.449,3.868,3.868,0,0,0-1.244-1.395,9.836,9.836,0,0,0-2.488-1.244,7.237,7.237,0,0,0-1.873.26,6.045,6.045,0,0,0-1.764.779,4.5,4.5,0,0,0-1.312,1.313A3.267,3.267,0,0,0,152.906-5.8Zm13.016,3.172a1.964,1.964,0,0,1,.178-.656,8.686,8.686,0,0,1,.424-.889,5.5,5.5,0,0,1,.506-.779q.26-.328.451-.328a1.627,1.627,0,0,1,.957.287,2.318,2.318,0,0,1,.67.725,3.716,3.716,0,0,1,.4.957,3.782,3.782,0,0,1,.137.957,1.774,1.774,0,0,1-.191.738,3.715,3.715,0,0,1-.479.766,3.076,3.076,0,0,1-.643.6,1.243,1.243,0,0,1-.711.246,1,1,0,0,1-.711-.287A2.9,2.9,0,0,1,166.373-1a3.557,3.557,0,0,1-.342-.875A3.306,3.306,0,0,1,165.922-2.625Zm5.715,0a1.964,1.964,0,0,1,.178-.656,8.686,8.686,0,0,1,.424-.889,5.5,5.5,0,0,1,.506-.779q.26-.328.451-.328a1.627,1.627,0,0,1,.957.287,2.318,2.318,0,0,1,.67.725,3.716,3.716,0,0,1,.4.957,3.782,3.782,0,0,1,.137.957,1.774,1.774,0,0,1-.191.738,3.715,3.715,0,0,1-.479.766,3.076,3.076,0,0,1-.643.6,1.243,1.243,0,0,1-.711.246,1,1,0,0,1-.711-.287A2.9,2.9,0,0,1,172.088-1a3.557,3.557,0,0,1-.342-.875A3.306,3.306,0,0,1,171.637-2.625Zm5.715,0a1.964,1.964,0,0,1,.178-.656,8.686,8.686,0,0,1,.424-.889,5.5,5.5,0,0,1,.506-.779q.26-.328.451-.328a1.627,1.627,0,0,1,.957.287,2.318,2.318,0,0,1,.67.725,3.716,3.716,0,0,1,.4.957,3.782,3.782,0,0,1,.137.957,1.774,1.774,0,0,1-.191.738,3.715,3.715,0,0,1-.479.766,3.076,3.076,0,0,1-.643.6,1.243,1.243,0,0,1-.711.246,1,1,0,0,1-.711-.287A2.9,2.9,0,0,1,177.8-1a3.557,3.557,0,0,1-.342-.875A3.306,3.306,0,0,1,177.352-2.625Z" transform="translate(1070 2444)" fill="#ff9100"/><path d="M-2320.683,2192.846s-13.349,36.958,22.822,28.789" transform="translate(3363 216)" fill="none" stroke="#ff9100" stroke-linecap="round" stroke-width="1"/></g></svg>