<svg xmlns="http://www.w3.org/2000/svg" width="100.49" height="100.49" viewBox="0 0 100.49 100.49">
  <g id="Grupo_10692" data-name="Grupo 10692" transform="translate(-814.847 -692)">
    <g id="hand" transform="translate(814.346 692)">
      <path id="Caminho_48820" data-name="Caminho 48820" d="M162.7,224.431a5.868,5.868,0,0,0-8.264.7l-13.425,13.794h.014a6,6,0,0,0-5.76-4.317H113.028a23.483,23.483,0,0,0-9.427-1.962c-9.288,0-17.32,4.5-21.156,13.031l17.748,17.652.033-.026,3.056-2.947a7.847,7.847,0,0,1,5.451-2.2h26.159a15.639,15.639,0,0,0,10.906-4.429l17.6-21.029a5.861,5.861,0,0,0-.7-8.26Zm0,0" transform="translate(-65.856 -179.27)" fill="#fed2a4"/>
      <path id="Caminho_48821" data-name="Caminho 48821" d="M237.451,29.618A19.628,19.628,0,1,1,217.823,10,19.624,19.624,0,0,1,237.451,29.618Zm0,0" transform="translate(-158.881 -8.034)" fill="#d0a4ff"/>
      <path id="Caminho_48822" data-name="Caminho 48822" d="M41.79,358.69l-9.506,9.362-22.038-22.2,9.337-9.362a3.928,3.928,0,0,1,5.553,0L41.79,353.139a3.925,3.925,0,0,1,0,5.551Zm0,0" transform="translate(-7.832 -269.524)" fill="#28d8de"/>
      <path id="Caminho_48823" data-name="Caminho 48823" d="M222.076,333.545a1.964,1.964,0,1,0-2.777,0A1.965,1.965,0,0,0,222.076,333.545Zm0,0" transform="translate(-175.379 -265.387)" fill="#004798"/>
      <path id="Caminho_48824" data-name="Caminho 48824" d="M188.449,21.584A21.59,21.59,0,1,0,210.039,0,21.612,21.612,0,0,0,188.449,21.584Zm39.255,0A17.665,17.665,0,1,1,210.039,3.925,17.682,17.682,0,0,1,227.7,21.584Zm0,0" transform="translate(-151.048)" fill="#004798"/>
      <path id="Caminho_48825" data-name="Caminho 48825" d="M23.109,270.557a1.963,1.963,0,0,0,2.77.016l9.516-9.372a5.928,5.928,0,0,0,1.4-6.089l2.047-1.973a5.854,5.854,0,0,1,4.087-1.651H69.019a17.576,17.576,0,0,0,12.321-5c.137-.133-1.036,1.248,17.8-21.259a7.85,7.85,0,0,0-11.947-10.187l-11.582,11.9a7.889,7.889,0,0,0-6.1-2.921H47.623a25.329,25.329,0,0,0-9.829-1.962c-9.452,0-17.7,4.364-22.133,12.546a5.864,5.864,0,0,0-5.25,1.626L1.074,245.59a1.962,1.962,0,0,0,0,2.768ZM37.793,225.98a21.432,21.432,0,0,1,8.641,1.8,1.96,1.96,0,0,0,.787.165H69.51a3.924,3.924,0,1,1,0,7.848H53.5a1.962,1.962,0,1,0,0,3.924H69.51a7.836,7.836,0,0,0,7.782-8.874c11.2-11.513,12.784-13.131,12.851-13.211a3.926,3.926,0,1,1,5.994,5.071l-17.6,21.039a13.669,13.669,0,0,1-9.514,3.825H42.926a9.76,9.76,0,0,0-6.813,2.751l-1.668,1.609L19.068,236.553c3.594-6.74,10.337-10.573,18.725-10.573ZM13.189,239a1.958,1.958,0,0,1,2.43-.276c.34.207-.636-.681,17,16.925a1.965,1.965,0,0,1,.011,2.765l-8.112,7.99L5.232,246.979Zm0,0" transform="translate(0 -170.647)" fill="#004798"/>
      <path id="Caminho_48826" data-name="Caminho 48826" d="M269.589,42.013v2.239a5.885,5.885,0,0,0,1.927,11.435,2,2,0,0,1,1.986,1.736,1.965,1.965,0,0,1-1.95,2.189,3.526,3.526,0,0,1-2.519-1.449,2,2,0,0,0-2.525-.466A1.964,1.964,0,0,0,266,60.653a8.141,8.141,0,0,0,3.591,2.555v2.229a2,2,0,0,0,1.671,2,1.964,1.964,0,0,0,2.254-1.941V63.2a5.885,5.885,0,0,0-1.927-11.435,2,2,0,0,1-1.986-1.736,1.965,1.965,0,0,1,1.95-2.189,3.112,3.112,0,0,1,2.076.981,2.015,2.015,0,0,0,2.569.22,1.963,1.963,0,0,0,.208-3,7.583,7.583,0,0,0-2.891-1.806V41.953a1.963,1.963,0,0,0-2.254-1.941,2,2,0,0,0-1.671,2Zm0,0" transform="translate(-213.001 -32.141)" fill="#004798"/>
    </g>
  </g>
</svg>
