<svg xmlns="http://www.w3.org/2000/svg" width="102.004" height="100" viewBox="0 0 102.004 100">
  <g id="integrity" transform="translate(0 -5.029)">
    <g id="Grupo_9256" data-name="Grupo 9256" transform="translate(1.492 6.525)">
      <g id="Grupo_9249" data-name="Grupo 9249" transform="translate(0 33.262)">
        <g id="Grupo_9240" data-name="Grupo 9240" transform="translate(52.136)">
          <g id="Grupo_9239" data-name="Grupo 9239">
            <g id="Grupo_9238" data-name="Grupo 9238">
              <g id="Grupo_9237" data-name="Grupo 9237">
                <g id="Grupo_9233" data-name="Grupo 9233" transform="translate(16.168 9.754)">
                  <path id="Caminho_42975" data-name="Caminho 42975" d="M351.067,249.384q4.085-1.767,8.168-3.54l-1.814-14.285a3.562,3.562,0,0,0-7.093.6Z" transform="translate(-350.324 -228.444)" fill="#873f30"/>
                </g>
                <g id="Grupo_9234" data-name="Grupo 9234" transform="translate(22.823 5.175)">
                  <path id="Caminho_42976" data-name="Caminho 42976" d="M383.731,226.162q4.2-1.474,8.4-2.953l-.8-14.378a3.562,3.562,0,0,0-7.118.1Z" transform="translate(-383.731 -205.465)" fill="#a34f41"/>
                </g>
                <g id="Grupo_9235" data-name="Grupo 9235" transform="translate(28.936 3.244)">
                  <path id="Caminho_42977" data-name="Caminho 42977" d="M414.414,216.259q4.264-1.276,8.527-2.557l-.125-14.4a3.562,3.562,0,0,0-7.115-.235Z" transform="translate(-414.414 -195.77)" fill="#ba5d4f"/>
                </g>
                <g id="Grupo_9236" data-name="Grupo 9236">
                  <path id="Caminho_42978" data-name="Caminho 42978" d="M313.162,179.552a3.562,3.562,0,0,0-3.992,2.217l-4.763,12.351a4.747,4.747,0,0,0-6.171.466l-7.24,7.24a18.681,18.681,0,0,1-4.876,3.51l-8.154,4.064a7.735,7.735,0,0,0-3.33,3.2l-2.812,5.121a7.736,7.736,0,0,0-.6,6.054,15.8,15.8,0,0,1,.384,8.065l-2.438,11.394h17.073l2.1-15.72,18.338-16.028a7.342,7.342,0,0,0,2.215-3.466l7.013-23.97A3.562,3.562,0,0,0,313.162,179.552Z" transform="translate(-269.175 -179.489)" fill="#d5887a"/>
                  <path id="Caminho_42979" data-name="Caminho 42979" d="M362.9,184.054l-7.013,23.97a7.348,7.348,0,0,1-2.213,3.467l-18.339,16.028-2.1,15.72H327.85l2.192-16.411a1.31,1.31,0,0,1,.436-.813l17.967-15.7a7.351,7.351,0,0,0,2.215-3.467l7.013-23.97a3.545,3.545,0,0,0-.289-2.7,3.562,3.562,0,0,1,5.513,3.881Z" transform="translate(-316.16 -179.491)" fill="rgba(0,0,0,0.15)"/>
                </g>
              </g>
            </g>
          </g>
        </g>
        <g id="Grupo_9248" data-name="Grupo 9248">
          <g id="Grupo_9247" data-name="Grupo 9247">
            <g id="Grupo_9246" data-name="Grupo 9246">
              <g id="Grupo_9245" data-name="Grupo 9245">
                <g id="Grupo_9241" data-name="Grupo 9241" transform="translate(21.805 9.754)">
                  <path id="Caminho_42980" data-name="Caminho 42980" d="M125.1,249.384q-4.085-1.767-8.168-3.54l1.814-14.285a3.562,3.562,0,0,1,7.093.6Z" transform="translate(-116.934 -228.444)" fill="#873f30"/>
                </g>
                <g id="Grupo_9242" data-name="Grupo 9242" transform="translate(15.661 5.175)">
                  <path id="Caminho_42981" data-name="Caminho 42981" d="M94.5,226.162q-4.2-1.474-8.4-2.953l.8-14.378a3.562,3.562,0,0,1,7.118.1Z" transform="translate(-86.097 -205.465)" fill="#a34f41"/>
                </g>
                <g id="Grupo_9243" data-name="Grupo 9243" transform="translate(9.419 3.244)">
                  <path id="Caminho_42982" data-name="Caminho 42982" d="M63.295,216.259q-4.264-1.276-8.527-2.557l.125-14.4a3.562,3.562,0,0,1,7.115-.235Z" transform="translate(-54.768 -195.77)" fill="#ba5d4f"/>
                </g>
                <g id="Grupo_9244" data-name="Grupo 9244">
                  <path id="Caminho_42983" data-name="Caminho 42983" d="M10.386,179.552a3.562,3.562,0,0,1,3.992,2.217l4.763,12.351a4.747,4.747,0,0,1,6.171.466l7.24,7.24a18.681,18.681,0,0,0,4.876,3.51l8.154,4.064a7.735,7.735,0,0,1,3.33,3.2l2.812,5.121a7.736,7.736,0,0,1,.6,6.054,15.8,15.8,0,0,0-.384,8.065l2.438,11.394H37.3l-2.1-15.72L16.863,211.488a7.342,7.342,0,0,1-2.215-3.466l-7.013-23.97a3.562,3.562,0,0,1,2.751-4.5Z" transform="translate(-7.49 -179.489)" fill="#d5887a"/>
                  <path id="Caminho_42984" data-name="Caminho 42984" d="M183.776,351.652h-5.441L175.9,340.257a15.766,15.766,0,0,1,.385-8.065,7.746,7.746,0,0,0-.6-6.055l-4.208-8.613a7.713,7.713,0,0,0-2.389-2.646l5.9,2.937a7.721,7.721,0,0,1,3.329,3.2l2.813,5.12a7.746,7.746,0,0,1,.6,6.055,15.826,15.826,0,0,0-.385,8.065Z" transform="translate(-136.894 -287.905)" fill="rgba(0,0,0,0.15)"/>
                </g>
              </g>
            </g>
          </g>
        </g>
      </g>
      <g id="Grupo_9255" data-name="Grupo 9255" transform="translate(19.299 0)">
        <g id="Grupo_9250" data-name="Grupo 9250" transform="translate(29.64 4.747)">
          <path id="Caminho_42985" data-name="Caminho 42985" d="M271.649,41.416a5.347,5.347,0,0,1,1.943-2.394.432.432,0,0,0-.071-.759l-4.079-1.681a2.874,2.874,0,0,0-3.753,1.562l-2.14,5.191a5.377,5.377,0,1,0-2.777,6.738l-2.14,5.191a2.874,2.874,0,0,0,1.562,3.753l17.123,7.057a2.874,2.874,0,0,0,3.753-1.562l7.056-17.121a2.874,2.874,0,0,0-1.562-3.753l-4.08-1.681a.431.431,0,0,0-.586.484,5.377,5.377,0,1,1-10.25-1.025Z" transform="translate(-253.128 -36.364)" fill="#efb900"/>
          <path id="Caminho_42986" data-name="Caminho 42986" d="M370.326,71.125l-7.057,17.12a2.871,2.871,0,0,1-3.752,1.562l-3.738-1.54a2.912,2.912,0,0,0,3.168-1.761l7.141-17.327A2.908,2.908,0,0,0,365.445,66l3.319,1.369a2.874,2.874,0,0,1,1.562,3.754Z" transform="translate(-335.328 -60.098)" fill="rgba(0,0,0,0.15)"/>
        </g>
        <g id="Grupo_9252" data-name="Grupo 9252" transform="translate(9.431 29.599)">
          <path id="Caminho_42987" data-name="Caminho 42987" d="M169.017,184.5a5.345,5.345,0,0,1-1.506,2.69.432.432,0,0,0,.2.736l4.306.961a2.874,2.874,0,0,0,3.431-2.179l1.223-5.48a5.377,5.377,0,1,0,1.587-7.113l1.223-5.48A2.874,2.874,0,0,0,177.3,165.2l-18.075-4.033a2.874,2.874,0,0,0-3.431,2.179l-4.032,18.074a2.874,2.874,0,0,0,2.179,3.431l4.306.961a.431.431,0,0,0,.494-.577,5.377,5.377,0,1,1,10.274-.738Z" transform="translate(-151.693 -161.102)" fill="#28d8de"/>
          <g id="Grupo_9251" data-name="Grupo 9251" transform="translate(2.709 0)">
            <path id="Caminho_42988" data-name="Caminho 42988" d="M183.6,164.18a2.872,2.872,0,0,1-1.913,1.522l-16.4,3.893,1.393-6.244a2.874,2.874,0,0,1,3.431-2.18Z" transform="translate(-165.29 -161.102)" fill="rgba(0,0,0,0.15)"/>
            <path id="Caminho_42989" data-name="Caminho 42989" d="M293.4,228.151a5.375,5.375,0,0,1-8.3,3.255,5.466,5.466,0,0,0,1.875-9.673,5.321,5.321,0,0,1,2.345,0A5.379,5.379,0,0,1,293.4,228.151Z" transform="translate(-261.23 -209.548)" fill="rgba(0,0,0,0.15)"/>
          </g>
        </g>
        <g id="Grupo_9254" data-name="Grupo 9254">
          <path id="Caminho_42990" data-name="Caminho 42990" d="M125.411,26.371a5.347,5.347,0,0,1,3.078.178.432.432,0,0,0,.575-.5l-1.019-4.293a2.875,2.875,0,0,0-3.46-2.133l-5.463,1.3A5.377,5.377,0,1,0,112.03,22.6l-5.463,1.3a2.874,2.874,0,0,0-2.133,3.46l4.277,18.019a2.874,2.874,0,0,0,3.46,2.133l18.018-4.277a2.874,2.874,0,0,0,2.133-3.46L131.3,35.481a.431.431,0,0,0-.735-.192,5.377,5.377,0,1,1-5.157-8.918Z" transform="translate(-104.356 -12.537)" fill="#ff6e3c"/>
          <g id="Grupo_9253" data-name="Grupo 9253" transform="translate(16.726 7.007)">
            <path id="Caminho_42991" data-name="Caminho 42991" d="M219.726,134.124l-3.556.843a2.911,2.911,0,0,0,1.285-3.14l-.94-3.967a4.39,4.39,0,0,0,.454-.048,5.355,5.355,0,0,0,3.136-1.634.431.431,0,0,1,.735.191l1.018,4.293A2.875,2.875,0,0,1,219.726,134.124Z" transform="translate(-210.619 -110.433)" fill="rgba(0,0,0,0.15)"/>
            <path id="Caminho_42992" data-name="Caminho 42992" d="M195.716,54.711a5.382,5.382,0,0,0-3.957.114l-.946-3.989a2.913,2.913,0,0,0-2.5-2.219l3.5-.831a2.873,2.873,0,0,1,3.461,2.132l1.018,4.293A.432.432,0,0,1,195.716,54.711Z" transform="translate(-188.31 -47.706)" fill="rgba(0,0,0,0.15)"/>
          </g>
        </g>
      </g>
    </g>
    <g id="Grupo_9257" data-name="Grupo 9257" transform="translate(0 5.029)">
      <path id="Caminho_42993" data-name="Caminho 42993" d="M310.8,174.407a5.057,5.057,0,0,0-9.032.818l-.782,2.028a5.055,5.055,0,0,0-8.46.573,5.049,5.049,0,0,0-7.547,4.252l0,.1a5.07,5.07,0,0,0-7.132,4.836l.495,11.528-7.047,3.512a9.187,9.187,0,0,0-3.974,3.819L264.509,211a9.272,9.272,0,0,0-.711,7.223,14.332,14.332,0,0,1,.348,7.3l-2.437,11.394a1.494,1.494,0,1,0,2.922.625l2.437-11.394a17.326,17.326,0,0,0-.421-8.828,6.269,6.269,0,0,1,.481-4.885l2.812-5.122a6.212,6.212,0,0,1,2.687-2.582l8.154-4.064a20.141,20.141,0,0,0,5.266-3.791l7.24-7.24a3.252,3.252,0,1,1,4.6,4.6l-8.722,8.722a28.267,28.267,0,0,0-4.111,5.216,1.494,1.494,0,0,0,2.548,1.561,25.277,25.277,0,0,1,3.676-4.664L300,196.349a6.238,6.238,0,0,0,.165-8.653l4.395-11.4a2.066,2.066,0,0,1,2.317-1.287,2.068,2.068,0,0,1,1.6,2.612l-7.013,23.97a5.837,5.837,0,0,1-1.764,2.761l-18.338,16.028a1.494,1.494,0,0,0-.5.927l-2.1,15.72a1.494,1.494,0,1,0,2.962.4l2.024-15.162,17.914-15.658a8.821,8.821,0,0,0,2.666-4.172l7.013-23.97a5.067,5.067,0,0,0-.54-4.057Zm-29.538,22.537-.432-10.057a2.067,2.067,0,0,1,4.034-.719l-.221,7.883-.712.712A17.172,17.172,0,0,1,281.265,196.944Zm6.458-5.969.247-8.813a2.068,2.068,0,0,1,3.841-1.006l-.465,6.2c-.057.053-.115.107-.171.162Zm6.736-5.173.424-5.668a2.067,2.067,0,0,1,1.846-1.9,2.068,2.068,0,0,1,2.284,2.039l.018,2.058-1.428,3.7A6.283,6.283,0,0,0,294.459,185.8Z" transform="translate(-209.541 -138.723)" fill="#5813ba"/>
      <path id="Caminho_42994" data-name="Caminho 42994" d="M231.783,462.859a1.494,1.494,0,1,0-2.922.625l1.29,6.031a1.494,1.494,0,1,0,2.922-.625Z" transform="translate(-183.237 -370.697)" fill="#5813ba"/>
      <path id="Caminho_42995" data-name="Caminho 42995" d="M249.873,45.541a6.861,6.861,0,0,0,2.447.514l-1.084,2.63a4.368,4.368,0,0,0,2.374,5.7l5,2.061a1.494,1.494,0,0,0,1.139-2.763l-5-2.061a1.38,1.38,0,0,1-.75-1.8l2.14-5.191a1.494,1.494,0,0,0-2.011-1.925,3.882,3.882,0,0,1-5.226-5,3.887,3.887,0,0,1,5.069-2.11,3.843,3.843,0,0,1,2.162,2.245,1.494,1.494,0,0,0,2.783.051l2.14-5.191a1.38,1.38,0,0,1,1.8-.75l2.521,1.039a6.871,6.871,0,1,0,12.082,4.979l2.52,1.038a1.38,1.38,0,0,1,.75,1.8l-7.056,17.121a1.38,1.38,0,0,1-1.8.75l-6.011-2.477a1.494,1.494,0,0,0-1.139,2.763l6.011,2.477a4.368,4.368,0,0,0,5.7-2.374l7.056-17.121a4.368,4.368,0,0,0-2.374-5.7l-4.079-1.681a1.925,1.925,0,0,0-2.622,2.152,3.883,3.883,0,1,1-6-2.469,1.926,1.926,0,0,0-.342-3.377l-4.079-1.681a4.368,4.368,0,0,0-5.7,2.374L257.208,34.2a6.87,6.87,0,1,0-7.334,11.345Z" transform="translate(-196.681 -24.111)" fill="#5813ba"/>
      <path id="Caminho_42996" data-name="Caminho 42996" d="M55.435,62.057l.62-2.777a6.871,6.871,0,1,0,2.793-12.52l.62-2.777a4.373,4.373,0,0,0-3.312-5.215L49.3,37.238a4.365,4.365,0,0,0,.911-3.822l-1.019-4.293a1.925,1.925,0,0,0-3.278-.87,3.883,3.883,0,1,1-1.5-6.312,1.926,1.926,0,0,0,2.541-2.25L45.934,15.4a4.374,4.374,0,0,0-5.259-3.242l-2.768.657a6.871,6.871,0,1,0-12.481,2.963l-2.768.657a4.369,4.369,0,0,0-3.242,5.259l1.5,6.316a1.494,1.494,0,1,0,2.908-.69L22.323,21a1.38,1.38,0,0,1,1.024-1.661l5.463-1.3a1.494,1.494,0,0,0,.387-2.757,3.882,3.882,0,1,1,5.12-1.215A1.494,1.494,0,0,0,35.9,16.36l5.463-1.3a1.382,1.382,0,0,1,1.661,1.024l.63,2.654a6.871,6.871,0,1,0,3.018,12.714l.629,2.651a1.381,1.381,0,0,1-1.024,1.661L28.261,40.044A1.38,1.38,0,0,1,26.6,39.02l-1.247-5.253a1.494,1.494,0,1,0-2.908.69l1.247,5.253a4.373,4.373,0,0,0,4.242,3.361,4.4,4.4,0,0,0,1.017-.12l2.978-.707L30.55,48.423a5.142,5.142,0,0,0-.79-.251,5.029,5.029,0,0,0-3.195.327l0-.116a5.054,5.054,0,0,0-7.549-4.255,5.051,5.051,0,0,0-8.458-.569l-.782-2.028A5.057,5.057,0,0,0,.2,44.77L7.215,68.74a8.82,8.82,0,0,0,2.666,4.172L27.8,88.57l2.024,15.162a1.494,1.494,0,1,0,2.962-.4l-2.1-15.72a1.494,1.494,0,0,0-.5-.927L11.848,70.661A5.836,5.836,0,0,1,10.084,67.9L3.07,43.931a2.068,2.068,0,0,1,1.6-2.612,2.067,2.067,0,0,1,2.318,1.287L11.38,54a6.238,6.238,0,0,0,.165,8.653l8.722,8.722a25.262,25.262,0,0,1,3.676,4.664,1.494,1.494,0,0,0,2.548-1.561,28.265,28.265,0,0,0-4.111-5.216l-8.722-8.722a3.252,3.252,0,1,1,4.6-4.6l7.24,7.24a20.138,20.138,0,0,0,5.266,3.791l8.154,4.064A6.212,6.212,0,0,1,41.6,73.618l2.812,5.122a6.271,6.271,0,0,1,.481,4.885,17.4,17.4,0,0,0-.645,7.534,1.494,1.494,0,0,0,2.961-.4,14.4,14.4,0,0,1,.533-6.232,9.273,9.273,0,0,0-.711-7.223L44.223,72.18a9.187,9.187,0,0,0-3.974-3.818L33.2,64.849l.139-3.246,3.11.694a1.925,1.925,0,0,0,2.216-2.567A3.883,3.883,0,1,1,45,61.139a1.926,1.926,0,0,0,.912,3.269l4.306.961a4.366,4.366,0,0,0,5.215-3.312Zm-41.5-9.722-1.427-3.7.018-2.058a2.068,2.068,0,0,1,2.284-2.039,2.067,2.067,0,0,1,1.846,1.9l.424,5.665a6.259,6.259,0,0,0-3.146.231ZM20.2,53.666l-.465-6.2a2.068,2.068,0,0,1,3.841,1.006l.247,8.813L20.37,53.829c-.056-.056-.113-.109-.171-.163Zm6.7,6.691-.221-7.883A2.069,2.069,0,0,1,29.1,51.087a2.11,2.11,0,0,1,.667.278c.039.025.075.052.112.079l-1.044,4.677A4.353,4.353,0,0,0,30.4,60.5l-.118,2.746a17.15,17.15,0,0,1-2.67-2.181Zm25.621,1.049a1.381,1.381,0,0,1-1.647,1.046l-2.662-.594a6.871,6.871,0,1,0-12.754-2.846l-2.66-.593a1.382,1.382,0,0,1-1.046-1.647l3.412-15.294,9.408-2.233L55.5,41.685a1.382,1.382,0,0,1,1.046,1.647l-1.223,5.48a1.494,1.494,0,0,0,2.31,1.553A3.882,3.882,0,1,1,56.492,55.5a1.494,1.494,0,0,0-2.751.424Z" transform="translate(0 -5.029)" fill="#5813ba"/>
    </g>
  </g>
</svg>
