<svg xmlns="http://www.w3.org/2000/svg" width="106.319" height="100" viewBox="0 0 106.319 100">
  <g id="barcode-scanner" transform="translate(0 -15.215)">
    <g id="Grupo_9228" data-name="Grupo 9228" transform="translate(1.559 16.774)">
      <g id="Grupo_9225" data-name="Grupo 9225" transform="translate(48.235 48.804)">
        <path id="Caminho_42923" data-name="Caminho 42923" d="M287.475,258.876a271.075,271.075,0,0,0-39.467,0,7.572,7.572,0,0,0-7,6.849,181.566,181.566,0,0,0,0,32.944,7.572,7.572,0,0,0,7,6.849,271.066,271.066,0,0,0,39.467,0,7.572,7.572,0,0,0,7-6.849,181.56,181.56,0,0,0,0-32.944A7.572,7.572,0,0,0,287.475,258.876Z" transform="translate(-240.258 -258.157)" fill="#ececec"/>
      </g>
      <g id="Grupo_9226" data-name="Grupo 9226" transform="translate(0 0.948)">
        <path id="Caminho_42924" data-name="Caminho 42924" d="M142.669,173.475,136.852,189l-2.073,5.531a6.309,6.309,0,0,1-6.607,4.054l-12.87-1.442-.012-9.951-.017-13.718Z" transform="translate(-92.852 -143.147)" fill="#efb900"/>
        <path id="Caminho_42925" data-name="Caminho 42925" d="M142.669,173.475,136.852,189c-6.4-.259-14.047-.779-21.563-1.808l-.017-13.718Z" transform="translate(-92.852 -143.135)" fill="rgba(0,0,0,0.15)"/>
        <path id="Caminho_42926" data-name="Caminho 42926" d="M59.764,196.81c-8.511,13.123-9.828,28.923-9.828,28.923l1.925,1.922a7.023,7.023,0,0,1-6.1,11.9,34.574,34.574,0,0,1-13.928-5.5,4.525,4.525,0,0,1-1.971-3.789,159.274,159.274,0,0,1,4.827-36.625c1.168-4.553,2.088-7.121,2.088-7.121l28.634,3.249A43.008,43.008,0,0,0,59.764,196.81Z" transform="translate(-25.211 -153.562)" fill="#9f33dd"/>
        <path id="União_1" data-name="União 1" d="M1.971,47.536A4.525,4.525,0,0,1,0,43.747,159.175,159.175,0,0,1,4.9,6.835C6.034,2.46,6.915,0,6.915,0L35.549,3.249A42.994,42.994,0,0,0,29.9,10.3,194.777,194.777,0,0,1,9.416,8.006,157.939,157.939,0,0,0,3.977,46.93,4.48,4.48,0,0,0,4.5,49.1C3.5,48.541,2.65,48,1.971,47.536Z" transform="translate(4.654 32.953)" fill="rgba(0,0,0,0.15)"/>
        <path id="Caminho_42929" data-name="Caminho 42929" d="M136.763,46.08a106.482,106.482,0,0,1-3.517,22.1,7.217,7.217,0,0,1-6.982,5.257c-8.837-.053-27.008-.638-40.575-4.23a7.184,7.184,0,0,1-5.168-5.391,100.319,100.319,0,0,1-2.1-14.224,7.2,7.2,0,0,1,5.7-7.56c8.968-1.9,26.968-4.927,45.98-3.561a7.2,7.2,0,0,1,6.665,7.612Z" transform="translate(-63.653 -35.866)" fill="#efb900"/>
        <path id="Caminho_42930" data-name="Caminho 42930" d="M133.506,89.141c-.084.316-.171.631-.261.944a7.216,7.216,0,0,1-6.981,5.258c-8.837-.054-27.009-.637-40.577-4.23a7.189,7.189,0,0,1-5.168-5.391,100.374,100.374,0,0,1-2.1-14.224,7.176,7.176,0,0,1,2.2-5.709,7.077,7.077,0,0,0-.063,1.592,100.321,100.321,0,0,0,2.1,14.224,7.177,7.177,0,0,0,5.168,5.389c13.568,3.592,31.739,4.177,40.575,4.23A7.19,7.19,0,0,0,133.506,89.141Z" transform="translate(-63.652 -57.775)" fill="rgba(0,0,0,0.15)"/>
        <path id="Caminho_42931" data-name="Caminho 42931" d="M73.321,36.239a120.118,120.118,0,0,1-3.967,24.924,8.141,8.141,0,0,1-7.876,5.929c-9.968-.06-30.464-.72-45.768-4.771a8.1,8.1,0,0,1-5.83-6.08A113.189,113.189,0,0,1,7.515,40.2a8.123,8.123,0,0,1,6.424-8.527c10.115-2.147,30.419-5.558,51.864-4.017a8.122,8.122,0,0,1,7.519,8.586Z" transform="translate(-7.493 -27.266)" fill="#9f33dd"/>
        <path id="Caminho_42932" data-name="Caminho 42932" d="M28.187,74.772A115.152,115.152,0,0,1,15.71,72.286,8.1,8.1,0,0,1,9.88,66.2,112.879,112.879,0,0,1,7.515,50.16a8.121,8.121,0,0,1,6.423-8.526c2.583-.548,5.828-1.179,9.587-1.789q-1.586.314-2.951.6a8.741,8.741,0,0,0-6.915,9.178A121.592,121.592,0,0,0,16.207,66.9a8.723,8.723,0,0,0,6.273,6.545c1.841.487,3.751.928,5.707,1.329Z" transform="translate(-7.493 -37.229)" fill="rgba(0,0,0,0.15)"/>
        <path id="Caminho_42933" data-name="Caminho 42933" d="M100.046,115.628H60.039a2.664,2.664,0,0,1,0-5.328h40.007a2.664,2.664,0,0,1,0,5.328Z" transform="translate(-46.998 -93.064)" fill="#ececec"/>
      </g>
      <g id="Grupo_9227" data-name="Grupo 9227" transform="translate(79.04)">
        <path id="Caminho_42934" data-name="Caminho 42934" d="M408.6,110.494v.432a2.9,2.9,0,0,0,2.7,2.893l4.678.321a2.9,2.9,0,0,0,3.1-2.893v-1.074a2.9,2.9,0,0,0-3.1-2.893l-4.678.321A2.9,2.9,0,0,0,408.6,110.494Z" transform="translate(-404.388 -89.682)" fill="#efb900"/>
        <path id="Caminho_42935" data-name="Caminho 42935" d="M388.948,184.071l-.216.374a2.9,2.9,0,0,0,.893,3.856l3.891,2.617a2.9,2.9,0,0,0,4.129-.956l.537-.93a2.9,2.9,0,0,0-1.236-4.054l-4.211-2.061A2.9,2.9,0,0,0,388.948,184.071Z" transform="translate(-388.343 -149.356)" fill="#efb900"/>
        <path id="Caminho_42936" data-name="Caminho 42936" d="M388.732,29.674l.216.374a2.9,2.9,0,0,0,3.785,1.155l4.211-2.061a2.9,2.9,0,0,0,1.236-4.054l-.537-.93a2.9,2.9,0,0,0-4.129-.956l-3.891,2.617A2.9,2.9,0,0,0,388.732,29.674Z" transform="translate(-388.343 -22.708)" fill="#efb900"/>
      </g>
    </g>
    <g id="Grupo_9229" data-name="Grupo 9229" transform="translate(0 15.215)">
      <path id="Caminho_42937" data-name="Caminho 42937" d="M290.107,259.66a9.094,9.094,0,0,0-8.44-8.263,273.882,273.882,0,0,0-39.695,0,9.094,9.094,0,0,0-8.441,8.263,183.765,183.765,0,0,0-.579,24.63,1.56,1.56,0,1,0,3.117-.137,180.618,180.618,0,0,1,.569-24.21,5.985,5.985,0,0,1,5.559-5.433,270.8,270.8,0,0,1,39.242,0,5.986,5.986,0,0,1,5.56,5.433,180.843,180.843,0,0,1,0,32.662,5.986,5.986,0,0,1-5.56,5.433,270.8,270.8,0,0,1-39.242,0,5.986,5.986,0,0,1-5.559-5.435c-.069-.755-.134-1.524-.191-2.286a1.56,1.56,0,0,0-3.111.235c.059.779.125,1.565.2,2.335a9.094,9.094,0,0,0,8.44,8.263c6.585.48,13.215.72,19.847.72s13.263-.24,19.848-.72a9.094,9.094,0,0,0,8.441-8.263A183.967,183.967,0,0,0,290.107,259.66Z" transform="translate(-184.54 -201.87)" fill="#5813ba"/>
      <path id="Caminho_42938" data-name="Caminho 42938" d="M284.3,327.952V299.574a1.56,1.56,0,1,0-3.12,0v28.378a1.56,1.56,0,0,0,3.12,0Z" transform="translate(-222.789 -239.36)" fill="#5813ba"/>
      <path id="Caminho_42939" data-name="Caminho 42939" d="M310.638,324.745a1.56,1.56,0,0,0,1.56-1.56v-23.61a1.56,1.56,0,1,0-3.12,0v23.61A1.56,1.56,0,0,0,310.638,324.745Z" transform="translate(-244.898 -239.36)" fill="#5813ba"/>
      <path id="Caminho_42940" data-name="Caminho 42940" d="M338.54,324.745a1.56,1.56,0,0,0,1.56-1.56v-23.61a1.56,1.56,0,0,0-3.12,0v23.61A1.56,1.56,0,0,0,338.54,324.745Z" transform="translate(-267.006 -239.36)" fill="#5813ba"/>
      <path id="Caminho_42941" data-name="Caminho 42941" d="M366.444,324.745a1.56,1.56,0,0,0,1.56-1.56v-23.61a1.56,1.56,0,1,0-3.12,0v23.61A1.56,1.56,0,0,0,366.444,324.745Z" transform="translate(-289.116 -239.36)" fill="#5813ba"/>
      <path id="Caminho_42942" data-name="Caminho 42942" d="M309.078,435.58a1.56,1.56,0,0,0,3.12,0v-.108a1.56,1.56,0,0,0-3.12,0Z" transform="translate(-244.898 -346.988)" fill="#5813ba"/>
      <path id="Caminho_42943" data-name="Caminho 42943" d="M336.98,435.58a1.56,1.56,0,0,0,3.12,0v-.108a1.56,1.56,0,0,0-3.12,0Z" transform="translate(-267.006 -346.988)" fill="#5813ba"/>
      <path id="Caminho_42944" data-name="Caminho 42944" d="M364.884,435.58a1.56,1.56,0,0,0,3.12,0v-.108a1.56,1.56,0,0,0-3.12,0Z" transform="translate(-289.116 -346.988)" fill="#5813ba"/>
      <path id="Caminho_42945" data-name="Caminho 42945" d="M420.69,435.58a1.56,1.56,0,0,0,3.12,0v-.108a1.56,1.56,0,0,0-3.12,0Z" transform="translate(-333.363 -346.988)" fill="#5813ba"/>
      <path id="Caminho_42946" data-name="Caminho 42946" d="M448.594,435.58a1.56,1.56,0,0,0,3.12,0v-.108a1.56,1.56,0,0,0-3.12,0Z" transform="translate(-355.462 -346.988)" fill="#5813ba"/>
      <path id="Caminho_42947" data-name="Caminho 42947" d="M395.907,327.952V299.574a1.56,1.56,0,1,0-3.12,0v28.378a1.56,1.56,0,0,0,3.12,0Z" transform="translate(-311.225 -239.36)" fill="#5813ba"/>
      <path id="Caminho_42948" data-name="Caminho 42948" d="M422.25,324.745a1.56,1.56,0,0,0,1.56-1.56v-23.61a1.56,1.56,0,0,0-3.12,0v23.61A1.56,1.56,0,0,0,422.25,324.745Z" transform="translate(-333.363 -239.36)" fill="#5813ba"/>
      <path id="Caminho_42949" data-name="Caminho 42949" d="M450.154,324.745a1.56,1.56,0,0,0,1.56-1.56v-23.61a1.56,1.56,0,1,0-3.12,0v23.61A1.56,1.56,0,0,0,450.154,324.745Z" transform="translate(-355.462 -239.36)" fill="#5813ba"/>
      <path id="Caminho_42950" data-name="Caminho 42950" d="M55.535,62.642h.06a9.689,9.689,0,0,0,6.229-2.28c.748.011,1.517.02,2.338.026h.05a8.809,8.809,0,0,0,8.443-6.379,107.9,107.9,0,0,0,3.574-22.387,8.786,8.786,0,0,0-8.113-9.242c-1.025-.073-1.969-.129-2.875-.173a9.6,9.6,0,0,0-5.26-2.037,189.88,189.88,0,0,0-42.529,2.223,1.557,1.557,0,1,0,.5,3.074,186.713,186.713,0,0,1,41.808-2.191A6.578,6.578,0,0,1,65.832,30.2a118.254,118.254,0,0,1-3.912,24.543,6.6,6.6,0,0,1-6.365,4.786c-10.53-.064-30.427-.76-45.377-4.709a6.51,6.51,0,0,1-4.706-4.9A111.33,111.33,0,0,1,3.137,34.13,6.578,6.578,0,0,1,8.33,27.256c1.213-.256,2.365-.489,3.522-.713a1.557,1.557,0,1,0-.593-3.058c-1.175.227-2.345.464-3.576.724A9.705,9.705,0,0,0,.025,34.356a114.5,114.5,0,0,0,2.4,16.237A9.616,9.616,0,0,0,9.378,57.83c.323.085.649.169.976.251a158.476,158.476,0,0,0-5.7,39.958A6.057,6.057,0,0,0,7.3,103.124a36.418,36.418,0,0,0,14.562,5.745,8.8,8.8,0,0,0,1.4.113,8.564,8.564,0,0,0,6.047-14.625l-1.4-1.392a74.545,74.545,0,0,1,3.621-15.242l5.169.577a7.866,7.866,0,0,0,8.242-5.047L48.977,62.53c2.434.069,4.649.1,6.558.112ZM68.947,30.383a9.57,9.57,0,0,0-1.018-4.894,5.657,5.657,0,0,1,5.185,5.949,104.714,104.714,0,0,1-3.46,21.719,5.678,5.678,0,0,1-5.387,4.114,9.654,9.654,0,0,0,.654-1.678,121.381,121.381,0,0,0,4.026-25.21ZM25.183,94.642l1.923,1.917a5.452,5.452,0,0,1-4.745,9.236,33.226,33.226,0,0,1-13.293-5.238,2.951,2.951,0,0,1-1.294-2.475,155.072,155.072,0,0,1,5.62-39.29,169.167,169.167,0,0,0,22.741,3.087C26.336,75.457,24.8,92.645,24.731,93.411a1.555,1.555,0,0,0,.452,1.231ZM42.027,72.16a4.745,4.745,0,0,1-4.973,3.046l-4.375-.489A51.736,51.736,0,0,1,39.854,62.13c2.018.121,3.972.216,5.831.289Z" transform="translate(0 -18.832)" fill="#5813ba"/>
      <path id="Caminho_42951" data-name="Caminho 42951" d="M49.884,107.025a4.229,4.229,0,0,0,4.224,4.224H94.115a4.224,4.224,0,1,0,0-8.448H54.108a4.229,4.229,0,0,0-4.224,4.224Zm4.224-1.1H94.115a1.1,1.1,0,0,1,0,2.208H54.108a1.1,1.1,0,0,1,0-2.208Z" transform="translate(-39.507 -84.616)" fill="#5813ba"/>
      <path id="Caminho_42952" data-name="Caminho 42952" d="M409.944,99.785l-4.678.321a4.473,4.473,0,0,0-4.154,4.449v.432a4.473,4.473,0,0,0,4.154,4.449l4.678.321q.151.01.3.01a4.46,4.46,0,0,0,4.463-4.459v-1.074a4.46,4.46,0,0,0-4.765-4.449Zm1.219,3.47a1.326,1.326,0,0,1,.425.979v1.074a1.339,1.339,0,0,1-1.431,1.336l-4.678-.321a1.343,1.343,0,0,1-1.248-1.336v-.432a1.343,1.343,0,0,1,1.248-1.336l4.677-.321c.032,0,.063,0,.095,0A1.323,1.323,0,0,1,411.163,103.256Z" transform="translate(-317.857 -82.219)" fill="#5813ba"/>
      <path id="Caminho_42953" data-name="Caminho 42953" d="M382.837,183.668l3.891,2.617a4.459,4.459,0,0,0,6.351-1.471l.537-.93a4.46,4.46,0,0,0-1.9-6.235l-4.211-2.061a4.473,4.473,0,0,0-5.822,1.776l-.216.374A4.473,4.473,0,0,0,382.837,183.668Zm1.329-4.37.216-.374a1.343,1.343,0,0,1,1.164-.669,1.327,1.327,0,0,1,.585.136l4.211,2.061a1.339,1.339,0,0,1,.571,1.873l-.537.93a1.339,1.339,0,0,1-1.907.442l-3.891-2.617A1.344,1.344,0,0,1,384.166,179.3Z" transform="translate(-301.826 -141.935)" fill="#5813ba"/>
      <path id="Caminho_42954" data-name="Caminho 42954" d="M381.464,24.52l.216.374a4.472,4.472,0,0,0,3.874,2.227,4.424,4.424,0,0,0,1.948-.451l4.211-2.061a4.46,4.46,0,0,0,1.9-6.235l-.537-.93a4.46,4.46,0,0,0-6.351-1.471l-3.891,2.617a4.473,4.473,0,0,0-1.373,5.93Zm3.115-3.341,3.891-2.617a1.339,1.339,0,0,1,1.907.442l.537.93a1.339,1.339,0,0,1-.571,1.872l-4.211,2.061a1.344,1.344,0,0,1-1.748-.533l-.216-.374a1.344,1.344,0,0,1,.412-1.781Z" transform="translate(-301.826 -15.215)" fill="#5813ba"/>
    </g>
  </g>
</svg>
