<svg xmlns="http://www.w3.org/2000/svg" width="100" height="99.786" viewBox="0 0 100 99.786">
  <g id="no-internet" transform="translate(0 -0.548)">
    <g id="Grupo_9369" data-name="Grupo 9369" transform="translate(1.953 2.501)">
      <path id="Caminho_43873" data-name="Caminho 43873" d="M50.526,10.547a40.436,40.436,0,1,0,13.1,78.712,21.662,21.662,0,0,1-.415-4.226A21.418,21.418,0,0,1,84.652,63.638a21.8,21.8,0,0,1,4.235.414A40.45,40.45,0,0,0,50.526,10.547ZM21.914,41.233a40.522,40.522,0,0,1,57.218,0,3.993,3.993,0,0,1-5.653,5.64,32.51,32.51,0,0,0-45.907,0,3.995,3.995,0,0,1-5.658-5.64Zm11.311,11.28a24.5,24.5,0,0,1,34.6,0,3.993,3.993,0,1,1-5.653,5.64,16.51,16.51,0,0,0-23.3,0,3.993,3.993,0,1,1-5.653-5.64ZM54.606,64.721a5.762,5.762,0,1,1-8.161,0A5.742,5.742,0,0,1,54.606,64.721Z" transform="translate(-10 -10.547)" fill="#28d8de" fill-rule="evenodd"/>
    </g>
    <g id="Grupo_9370" data-name="Grupo 9370" transform="translate(55.162 55.592)">
      <path id="Caminho_43874" data-name="Caminho 43874" d="M303.874,282.374a21.418,21.418,0,0,0-21.442,21.395,21.36,21.36,0,0,0,21.442,21.394,21.394,21.394,0,0,0,4.235-42.375A21.805,21.805,0,0,0,303.874,282.374ZM294.8,294.715a4.733,4.733,0,0,1,6.655,0l2.419,2.414,2.419-2.414a4.7,4.7,0,1,1,6.649,6.64l-2.419,2.414,2.419,2.414a4.7,4.7,0,1,1-6.649,6.634l-2.419-2.414-2.419,2.414a4.7,4.7,0,0,1-6.655-6.634l2.419-2.414-2.419-2.414A4.707,4.707,0,0,1,294.8,294.715Z" transform="translate(-282.432 -282.374)" fill="#ff6e3c" fill-rule="evenodd"/>
    </g>
    <g id="Grupo_9371" data-name="Grupo 9371" transform="translate(66.16 66.566)">
      <path id="Caminho_43875" data-name="Caminho 43875" d="M340.112,346.565l2.419,2.414-2.419,2.414a4.7,4.7,0,1,0,6.655,6.634l2.419-2.414,2.419,2.414a4.7,4.7,0,1,0,6.649-6.634l-2.419-2.414,2.419-2.414a4.7,4.7,0,0,0-6.649-6.64l-2.419,2.414-2.419-2.414a4.7,4.7,0,0,0-6.655,6.64Z" transform="translate(-338.742 -338.558)" fill="#fff" fill-rule="evenodd"/>
    </g>
    <g id="Grupo_9372" data-name="Grupo 9372" transform="translate(24.011 37.316)">
      <path id="Caminho_43876" data-name="Caminho 43876" d="M158.706,195.951a24.5,24.5,0,0,0-34.6,0,3.993,3.993,0,0,0,5.653,5.64,16.51,16.51,0,0,1,23.3,0,3.993,3.993,0,1,0,5.653-5.64Z" transform="translate(-122.937 -188.8)" fill="#fff" fill-rule="evenodd"/>
    </g>
    <g id="Grupo_9373" data-name="Grupo 9373" transform="translate(36.709 54.989)">
      <path id="Caminho_43877" data-name="Caminho 43877" d="M189.638,280.97a5.762,5.762,0,1,0,8.161,0A5.742,5.742,0,0,0,189.638,280.97Z" transform="translate(-187.948 -279.284)" fill="#fff" fill-rule="evenodd"/>
    </g>
    <g id="Grupo_9374" data-name="Grupo 9374" transform="translate(12.705 21.363)">
      <path id="Caminho_43878" data-name="Caminho 43878" d="M123.428,118.943a40.522,40.522,0,0,0-57.218,0,3.995,3.995,0,1,0,5.658,5.64,32.51,32.51,0,0,1,45.907,0,3.993,3.993,0,1,0,5.653-5.64Z" transform="translate(-65.047 -107.119)" fill="#fff" fill-rule="evenodd"/>
    </g>
    <g id="Grupo_9375" data-name="Grupo 9375" transform="translate(0 0.548)">
      <path id="Caminho_43879" data-name="Caminho 43879" d="M112.555,119.657a5.942,5.942,0,0,0,4.2-10.144h0a42.476,42.476,0,0,0-59.979,0,5.948,5.948,0,0,0,8.42,8.4,30.593,30.593,0,0,1,43.148,0A5.94,5.94,0,0,0,112.555,119.657Zm-50.116-4.5a2.041,2.041,0,0,1-2.9-2.875,38.613,38.613,0,0,1,54.459,0h0a2.038,2.038,0,0,1,0,2.877,2.072,2.072,0,0,1-2.891,0,34.506,34.506,0,0,0-48.666,0Z" transform="translate(-44.293 -78.257)" fill="#004798"/>
      <path id="Caminho_43880" data-name="Caminho 43880" d="M147.834,196.716a5.94,5.94,0,0,0,4.205-10.141,26.49,26.49,0,0,0-37.361,0,5.945,5.945,0,0,0,0,8.405,5.964,5.964,0,0,0,8.411,0,14.571,14.571,0,0,1,20.538,0A5.937,5.937,0,0,0,147.834,196.716Zm-27.5-4.5a2.052,2.052,0,0,1-2.9,0,2.038,2.038,0,0,1,0-2.872,22.577,22.577,0,0,1,31.843,0,2.038,2.038,0,0,1,0,2.875,2.052,2.052,0,0,1-2.894,0,18.485,18.485,0,0,0-26.055,0Z" transform="translate(-90.88 -144.039)" fill="#004798"/>
      <path id="Caminho_43881" data-name="Caminho 43881" d="M180.212,271.557a7.723,7.723,0,1,0,10.92,0A7.742,7.742,0,0,0,180.212,271.557Zm9.277,5.451a3.77,3.77,0,0,1-1.117,2.686,3.83,3.83,0,0,1-5.4,0,3.788,3.788,0,0,1,0-5.372,3.83,3.83,0,0,1,5.4,0A3.769,3.769,0,0,1,189.489,277.008Z" transform="translate(-143.193 -216.812)" fill="#004798"/>
      <path id="Caminho_43882" data-name="Caminho 43882" d="M83.32,54.621A42.387,42.387,0,0,0,78.334,20.2a1.953,1.953,0,0,0-3.292,2.1,38.492,38.492,0,0,1,4.445,31.515,23.355,23.355,0,0,0-26.1,26.041,38.482,38.482,0,1,1,9.965-69.29,1.953,1.953,0,1,0,2.114-3.285,42.565,42.565,0,0,0-53.022,5.678A42.389,42.389,0,0,0,42.479,85.326a42.579,42.579,0,0,0,11.715-1.637A23.388,23.388,0,1,0,83.319,54.621ZM76.6,96.428A19.441,19.441,0,1,1,96.094,76.986,19.487,19.487,0,0,1,76.6,96.428Z" transform="translate(0 -0.548)" fill="#004798"/>
      <path id="Caminho_43883" data-name="Caminho 43883" d="M353.534,335.185a6.6,6.6,0,0,0-1.948-4.7,6.671,6.671,0,0,0-9.408,0l-1.04,1.038-1.042-1.04a6.686,6.686,0,0,0-9.409,0l0,0a6.659,6.659,0,0,0,0,9.4l1.034,1.031-1.034,1.031a6.651,6.651,0,0,0,9.414,9.4l1.04-1.038,1.038,1.036a6.649,6.649,0,1,0,9.41-9.4l-1.034-1.032,1.034-1.031A6.6,6.6,0,0,0,353.534,335.185Zm-7.127,7.116,2.422,2.416a2.743,2.743,0,0,1-3.892,3.867l-2.42-2.414a1.953,1.953,0,0,0-2.759,0l-2.419,2.414a2.762,2.762,0,0,1-3.9,0,2.747,2.747,0,0,1,0-3.869l2.419-2.414a1.953,1.953,0,0,0,0-2.765l-2.417-2.412a2.747,2.747,0,1,1,3.893-3.877l2.419,2.414a1.953,1.953,0,0,0,2.759,0l2.42-2.414a2.758,2.758,0,0,1,3.89,0,2.743,2.743,0,0,1,0,3.875l-2.419,2.414a1.953,1.953,0,0,0,0,2.765Z" transform="translate(-264.533 -264.48)" fill="#004798"/>
      <path id="Caminho_43884" data-name="Caminho 43884" d="M356.186,65.1a1.953,1.953,0,0,0,1.381-3.334l-.005-.005a1.953,1.953,0,1,0-1.376,3.34Z" transform="translate(-285.046 -49.348)" fill="#004798"/>
    </g>
  </g>
</svg>
