<svg xmlns="http://www.w3.org/2000/svg" width="100" height="100" viewBox="0 0 100 100">
  <g id="Page-1" transform="translate(0 0)">
    <g id="_044---Touchscreen-Till" data-name="044---Touchscreen-Till" transform="translate(0 0)">
      <path id="Path" d="M97.667,57.2v2.133A3.333,3.333,0,0,0,94.333,56a3.258,3.258,0,0,0-2.35.983,3.137,3.137,0,0,0-.867,1.467L91,57.7v-.033a3.642,3.642,0,0,0-.167-1.05l-.017-.067v-.017L88.317,41l-1.35-8.333L82.933,7.733a.227.227,0,0,0-.183-.067H15.917a.517.517,0,0,0-.167.033L7.65,57.6c.017.017.05.067.183.067H71v6.667H7.833a7.025,7.025,0,0,1-3.85-1.15A6.678,6.678,0,0,1,1,57.683a7.428,7.428,0,0,1,.083-1.05l8.083-50A6.785,6.785,0,0,1,15.917,1H82.75A6.785,6.785,0,0,1,89.5,6.633Z" transform="translate(0.667 0.667)" fill="#7fdbff" fill-rule="evenodd"/>
      <path id="Rectangle" d="M40,35h5v6.667H40Z" transform="translate(26.667 23.334)" fill="rgba(0,0,0,0.1)" fill-rule="evenodd"/>
      <path id="Path-2" data-name="Path" d="M58.8,6.634A6.785,6.785,0,0,0,52.05,1h-5A6.786,6.786,0,0,1,53.8,6.634l8.058,49.892A3.258,3.258,0,0,1,63.633,56a3.333,3.333,0,0,1,3.333,3.333V57.2Z" transform="translate(31.367 0.667)" fill="#7fdbff" fill-rule="evenodd"/>
      <path id="Path-3" data-name="Path" d="M66.333,63H14.667A1.667,1.667,0,0,1,13,61.333V59.667A6.667,6.667,0,0,1,19.667,53H64.95a6.4,6.4,0,0,1,1.383,3.333,3.333,3.333,0,1,0,0,6.667Z" transform="translate(8.667 35.334)" fill="#7fdbff" fill-rule="evenodd"/>
      <path id="Path-4" data-name="Path" d="M45,59.667a3.358,3.358,0,0,1,3.333-3.333A6.4,6.4,0,0,0,46.95,53h-5a6.4,6.4,0,0,1,1.383,3.333,3.333,3.333,0,1,0,0,6.667h5A3.343,3.343,0,0,1,45,59.667Z" transform="translate(26.667 35.334)" fill="rgba(0,0,0,0.1)" fill-rule="evenodd"/>
      <path id="Path-5" data-name="Path" d="M88.157,53.867a3.365,3.365,0,0,0-.8-1.217,3.258,3.258,0,0,0-2.35-.983A3.343,3.343,0,0,0,81.673,55V53.334a3.333,3.333,0,1,0-6.667,0V40a3.333,3.333,0,0,0-6.667,0V55H5.173c-.133,0-.167-.05-.183-.067l8.1-49.9A.517.517,0,0,1,13.257,5H80.09a.227.227,0,0,1,.183.067L84.307,30l1.35,8.333Z" transform="translate(3.327 3.333)" fill="#28d8de" fill-rule="evenodd"/>
      <path id="Path-6" data-name="Path" d="M57.617,38.334,56.267,30,52.233,5.067A.227.227,0,0,0,52.05,5h-5a.227.227,0,0,1,.183.067L51.267,30l1.35,8.333,2.267,14.088a3.3,3.3,0,0,1,2.083-.755,3.258,3.258,0,0,1,2.35.983,3.365,3.365,0,0,1,.8,1.217Z" transform="translate(31.367 3.333)" fill="rgba(0,0,0,0.1)" fill-rule="evenodd"/>
      <path id="Path-7" data-name="Path" d="M76.333,44V67.333A12.752,12.752,0,0,1,73,75.667H53a6.4,6.4,0,0,0-1.383-3.333,11.279,11.279,0,0,0-.883-1.05,36.961,36.961,0,0,0-3.883-3.117,30.957,30.957,0,0,1-5.133-6.083,6.7,6.7,0,0,0-2.383-2.2A21.812,21.812,0,0,0,36.417,59a4.221,4.221,0,0,1-.6-.2A4.333,4.333,0,0,1,33,54.767a4.137,4.137,0,0,1,4.133-4.1c.317,0,9.2,0,12.533,6.667v-30a3.333,3.333,0,1,1,6.667,0V40.667a3.333,3.333,0,0,1,6.667,0v1.667A3.343,3.343,0,0,1,66.333,39a3.258,3.258,0,0,1,2.35.983,3.365,3.365,0,0,1,.8,1.217v.017l.017.067.167,1.05V44A3.358,3.358,0,0,1,73,40.667,3.333,3.333,0,0,1,76.333,44Z" transform="translate(22 16)" fill="#f6bb93" fill-rule="evenodd"/>
      <path id="Path-8" data-name="Path" d="M59,34a3.258,3.258,0,0,0-2.35.983c-.055.053-.09.12-.14.177a3.313,3.313,0,0,1,.823,2.173V60.667A12.752,12.752,0,0,1,54,69h5a12.752,12.752,0,0,0,3.333-8.333V37.333A3.333,3.333,0,0,0,59,34Z" transform="translate(36 22.667)" fill="rgba(0,0,0,0.1)" fill-rule="evenodd"/>
      <path id="Path-9" data-name="Path" d="M69.667,58.333a3.358,3.358,0,0,1-3.333,3.333h-20a3.333,3.333,0,1,1,0-6.667h20A3.343,3.343,0,0,1,69.667,58.333Z" transform="translate(28.667 36.667)" fill="#f5f5f5" fill-rule="evenodd"/>
      <path id="Path-10" data-name="Path" d="M59,55H54a3.333,3.333,0,1,1,0,6.667h5A3.333,3.333,0,1,0,59,55Z" transform="translate(36 36.667)" fill="rgba(0,0,0,0.1)" fill-rule="evenodd"/>
      <path id="Path-11" data-name="Path" d="M59.617,58.333H21V45H44.417a21.812,21.812,0,0,1,2.917.883,6.7,6.7,0,0,1,2.383,2.2,30.957,30.957,0,0,0,5.133,6.083,36.959,36.959,0,0,1,3.883,3.117A11.276,11.276,0,0,1,59.617,58.333Z" transform="translate(14 30)" fill="#0074FF" fill-rule="evenodd"/>
      <path id="Path-12" data-name="Path" d="M51.367,57.283a36.959,36.959,0,0,0-3.883-3.117,30.957,30.957,0,0,1-5.133-6.083,6.7,6.7,0,0,0-2.383-2.2A21.812,21.812,0,0,0,37.05,45h-5a21.812,21.812,0,0,1,2.917.883,6.7,6.7,0,0,1,2.383,2.2,30.957,30.957,0,0,0,5.133,6.083,36.959,36.959,0,0,1,3.883,3.117,11.276,11.276,0,0,1,.883,1.05h5A11.279,11.279,0,0,0,51.367,57.283Z" transform="translate(21.367 30)" fill="rgba(0,0,0,0.1)" fill-rule="evenodd"/>
      <path id="Path-13" data-name="Path" d="M71,41.66v8.333c-3.333-6.667-12.217-6.667-12.533-6.667a4.137,4.137,0,0,0-4.133,4.1A4.333,4.333,0,0,0,57.15,51.46a4.22,4.22,0,0,0,.6.2H7.833a6.892,6.892,0,0,1-4.85-1.967A6.58,6.58,0,0,1,1,45.01v-10a6.678,6.678,0,0,0,2.983,5.5,7.025,7.025,0,0,0,3.85,1.15Z" transform="translate(0.667 23.34)" fill="#7fdbff" fill-rule="evenodd"/>
      <path id="Path-14" data-name="Path" d="M35,44.1a4.15,4.15,0,0,1,2.44-3.73A17.746,17.746,0,0,0,34.133,40,4.137,4.137,0,0,0,30,44.1a4.333,4.333,0,0,0,2.817,4.033,4.221,4.221,0,0,0,.6.2h5a4.223,4.223,0,0,1-.6-.2A4.333,4.333,0,0,1,35,44.1Z" transform="translate(20 26.667)" fill="rgba(0,0,0,0.1)" fill-rule="evenodd"/>
      <path id="Path-15" data-name="Path" d="M40,39v3.477a10.933,10.933,0,0,1,5,4.857V39Z" transform="translate(26.667 26)" fill="rgba(0,0,0,0.1)" fill-rule="evenodd"/>
      <g id="Grupo_9781" data-name="Grupo 9781">
        <path id="Path-16" data-name="Path" d="M65.583,96.667H23.333V95a5,5,0,0,1,5-5H63.517a1.667,1.667,0,0,0,0-3.333H36.667v-10H49.183a1.667,1.667,0,1,0,0-3.333H8.5a5.085,5.085,0,0,1-5.167-4.99V64.929c.137.105.262.22.407.317A8.693,8.693,0,0,0,8.5,66.667H50.05a1.667,1.667,0,1,0,0-3.333H8.5a5.352,5.352,0,0,1-2.92-.868,4.978,4.978,0,0,1-2.185-4.9l8.083-50a5.1,5.1,0,0,1,5.1-4.232H83.417a5.107,5.107,0,0,1,5.105,4.232l6.932,42.917a1.667,1.667,0,0,0,3.292-.53L91.812,7.03A8.427,8.427,0,0,0,83.417,0H16.583A8.427,8.427,0,0,0,8.188,7.035l-8.083,50A7.945,7.945,0,0,0,0,58.317V68.35a8.418,8.418,0,0,0,8.5,8.317H33.333v10h-5A8.343,8.343,0,0,0,20,95v1.667A3.333,3.333,0,0,0,23.333,100h42.25a1.667,1.667,0,1,0,0-3.333Z" transform="translate(0 0)" fill="#004798" fill-rule="evenodd"/>
        <path id="Shape" d="M83.553,32.333,85.778,46.1a1.667,1.667,0,0,0,3.292-.532l-6.483-40.1a1.677,1.677,0,0,0-.315-.738A1.893,1.893,0,0,0,80.758,4H13.925a2.055,2.055,0,0,0-.64.1,1.667,1.667,0,0,0-1.167,1.333l-8.11,49.9a1.687,1.687,0,0,0,.423,1.4,1.892,1.892,0,0,0,1.41.6h56.5a1.667,1.667,0,0,0,0-3.333H49.008V49H62.342a1.667,1.667,0,0,0,0-3.333H49.008v-5H62.492a1.667,1.667,0,0,0,0-3.333H49.008v-5ZM64.377,20.667H49.008v-5H63.955ZM49.008,24H64.657l.422,5H49.008Zm19.415,5-.415-5h14.2l.808,5ZM79.508,7.333l2.167,13.333H67.722L66.6,7.333Zm-16.255,0,.422,5H49.008v-5ZM26.253,29h-5.62l.617-5h5.425Zm3.765-5h5.423l-.227,5h-5.62ZM17.273,29H11.665l.812-5H17.89Zm-.41,3.333-.617,5H10.312l.812-5Zm3.358,0h5.75l-.422,5H19.6Zm9.092,0h5.752l-.223,5h-5.95Zm5.373,8.333-.228,5H28.187l.423-5Zm.907-20H30.3l.422-5h5.1Zm-8.638,0h-5.3l.617-5h5.1Zm-8.653,0H13.018l.812-5h5.087Zm-8.53,20h6.07l-.617,5H8.96Zm9.423,0h6.073l-.427,5H18.578ZM24.565,49l-.422,5H17.552l.617-5ZM27.9,49h6.41l-.227,5h-6.6ZM36.2,7.333l-.227,5H31.008l.423-5Zm-8.118,0-.422,5H22.687l.617-5Zm-8.135,0-.617,5H14.37l.8-5ZM8.418,49h6.39l-.615,5H7.607Zm29,5,.3-6.628a.315.315,0,0,0,0-.038v-.025l.757-16.642.377-8.3v-.055l.682-14.978h6.142V54Z" transform="translate(2.659 2.667)" fill="#004798"/>
        <path id="Shape-2" data-name="Shape" d="M73.667,39.667a4.938,4.938,0,0,0-2.45.667A5,5,0,0,0,67,38a4.938,4.938,0,0,0-2.45.667,4.9,4.9,0,0,0-5.883-2.027V28a5,5,0,0,0-10,0V53.307A18.485,18.485,0,0,0,37.8,49.667,5.77,5.77,0,0,0,32,55.408a5.983,5.983,0,0,0,3.858,5.6,13.183,13.183,0,0,0,1.833.552,8.2,8.2,0,0,1,1.582.492,5.274,5.274,0,0,1,1.752,1.682l.44.613a29.44,29.44,0,0,0,4.985,5.768c.5.418,1.032.8,1.555,1.18a14.559,14.559,0,0,1,2.167,1.788A8.243,8.243,0,0,1,51.6,75.118a5,5,0,0,0,2.063,9.548h20a5,5,0,0,0,2.727-9.182A13.928,13.928,0,0,0,78.667,68V44.667a5,5,0,0,0-5-5Zm-23.7,28.927c-.465-.333-.933-.667-1.38-1.045A26.383,26.383,0,0,1,44.177,62.4l-.445-.618a8.363,8.363,0,0,0-3-2.735A11.239,11.239,0,0,0,38.5,58.32a10.1,10.1,0,0,1-1.38-.4,2.667,2.667,0,0,1-1.785-2.46A2.462,2.462,0,0,1,37.8,53c.333,0,8.2.065,11.043,5.745A1.667,1.667,0,0,0,52,58V28a1.667,1.667,0,1,1,3.333,0V49.667a1.667,1.667,0,1,0,3.333,0V41.333a1.667,1.667,0,1,1,3.333,0v8.333a1.667,1.667,0,1,0,3.333,0V43a1.667,1.667,0,1,1,3.333,0V53A1.667,1.667,0,1,0,72,53V44.667a1.667,1.667,0,1,1,3.333,0V68A11.038,11.038,0,0,1,72.9,74.667H55.018a10.307,10.307,0,0,0-2.4-3.857,17.5,17.5,0,0,0-2.658-2.217Zm23.7,12.74h-20a1.667,1.667,0,1,1,0-3.333h20a1.667,1.667,0,0,1,0,3.333Z" transform="translate(21.333 15.334)" fill="#004798"/>
      </g>
    </g>
  </g>
</svg>
